<?xml version="1.0" encoding="UTF-8"?>
<svg id="Layer_1" data-name="Layer 1" xmlns="http://www.w3.org/2000/svg" viewBox="0 0 1962.96 312.87">
  <defs>
    <style>
      .cls-1 {
        fill: none;
        stroke: #666563;
        stroke-linecap: round;
        stroke-linejoin: round;
        stroke-width: 2px;
      }

      .cls-2 {
        fill: #666563;
      }

      .cls-3 {
        fill: #a52868;
      }
    </style>
  </defs>
  <g>
    <g>
      <g>
        <polygon class="cls-3" points="96.45 136.06 110.67 136.06 110.67 25.01 100.41 32.95 96.45 136.06"/>
        <polygon class="cls-3" points="83.81 45.81 76.89 136.06 91.11 136.06 94.91 37.21 83.81 45.81"/>
        <polygon class="cls-3" points="66.09 59.53 57.34 136.06 71.56 136.06 78.13 50.21 66.09 59.53"/>
      </g>
      <g>
        <polygon class="cls-3" points="146.22 136.06 132 136.06 132 25.01 142.26 32.95 146.22 136.06"/>
        <polygon class="cls-3" points="158.86 45.81 165.78 136.06 151.56 136.06 147.76 37.21 158.86 45.81"/>
        <polygon class="cls-3" points="176.58 59.53 185.33 136.06 171.11 136.06 164.54 50.21 176.58 59.53"/>
      </g>
      <g>
        <path class="cls-3" d="M196,143.17h-71.11v20.58c6.09-2.65,12.62-4.01,19.49-4.01,10.44,0,17.92,3.16,18.23,3.3l1.98.85.33,2.13,6.62,42.22.91,5.82-5.71-1.43c-4.19-1.05-8.49-1.58-12.77-1.58-17.71,0-30.19,9.11-30.31,9.2l-2.34,1.74-2.34-1.74c-.12-.09-12.6-9.2-30.31-9.2-4.28,0-8.57.53-12.77,1.58l-5.71,1.43.91-5.82,6.62-42.22.33-2.13,1.98-.85c.31-.13,7.78-3.3,18.23-3.3,6.88,0,13.4,1.36,19.49,4.01v-20.58H37.78v22.81h8.89v27.92h0c0,23.68,8.43,45.38,22.44,62.29-6.13,3.09-12.8,5.27-19.85,6.31,4.36,6.03,9.27,11.64,14.67,16.73,7-2.09,13.61-5.07,19.74-8.78,9.97,7.92,21.53,13.92,34.11,17.49v-20.51c-19.41-7.05-35.21-21.57-43.99-40.08,3.84-.95,7.85-1.46,11.99-1.46,13.93,0,26.52,5.73,35.56,14.95,9.04-9.22,21.62-14.95,35.56-14.95,4.13,0,8.15.51,11.99,1.46-8.78,18.51-24.58,33.04-43.99,40.08v20.51c12.58-3.56,24.14-9.56,34.11-17.49,6.12,3.71,12.74,6.69,19.74,8.78,5.4-5.1,10.32-10.7,14.67-16.73-7.05-1.04-13.72-3.22-19.85-6.31,14.01-16.92,22.44-38.61,22.44-62.29v-27.92h8.89v-22.81h-8.89Z"/>
        <path class="cls-3" d="M161.07,166.63s-19.87-8.54-39.74,3.31c-19.87-11.86-39.74-3.31-39.74-3.31l-6.62,42.22c26.49-6.62,46.36,8.28,46.36,8.28,0,0,19.87-14.9,46.36-8.28l-6.62-42.22Z"/>
      </g>
    </g>
    <g>
      <g>
        <polygon class="cls-3" points="418.37 124.41 464.76 124.41 464.76 101.23 418.37 101.23 418.37 75.05 467.56 75.05 467.56 51.66 389.76 51.66 389.76 177.72 458.44 177.72 470.18 154.34 418.37 154.34 418.37 124.41"/>
        <path class="cls-3" d="M551.2,49.6c-37.22,0-61.35,28.24-61.35,66.03s21.89,64.15,59.29,64.15,61.91-25.07,61.91-66.4c0-34.78-21.13-63.78-59.85-63.78M550.64,157.14c-19.08,0-30.68-17.39-30.68-42.07s11.22-42.83,30.49-42.83,30.48,19.45,30.48,42.08c0,24.5-11.03,42.83-30.29,42.83"/>
        <path class="cls-3" d="M843.02,109.83v-.38c14.22-5.25,20.77-15.71,20.77-26.93s-6.36-20.02-15.16-24.7c-9.16-5.41-19.82-7.09-37.22-7.09-14.21,0-29.36,1.12-36.83,2.61v123.82c6.36.93,16.83,1.86,30.85,1.86,25.06,0,40.4-4.1,49.56-11.4,7.85-6.37,13.09-15.34,13.09-26.75,0-16.28-10.66-27.12-25.07-31.05M802.81,72.24c2.43-.37,5.98-.76,12.16-.76,12.91,0,20.2,5.06,20.2,14.6s-8.03,15.52-23,15.52h-9.36v-29.36ZM813.85,157.9c-4.87,0-8.22,0-11.04-.39v-35.53h9.73c14.21,0,25.62,5.05,25.62,17.77s-11.41,18.15-24.32,18.15"/>
        <path class="cls-3" d="M964.73,124.22c0,22.27-8.23,32.74-23.19,32.74s-22.82-11.04-22.82-32.74V51.66h-28.62v70.32c0,40.22,18.7,57.8,50.5,57.8s52.55-18.52,52.55-57.43V51.66h-28.42v72.56Z"/>
        <path class="cls-3" d="M1123.91,51.66h-34.97l-28.62,41.9c-2.8,4.49-5.8,8.98-8.61,13.84h-.56v-55.74h-28.24v126.06h28.24v-41.15l10.85-13.28,30.87,54.43h33.28l-43.95-72.39,41.71-53.68Z"/>
        <polygon class="cls-3" points="637.34 177.65 637.33 51.39 670.62 51.39 715.45 136.35 715.31 51.43 741.61 51.46 741.71 177.65 712.26 177.65 663.47 84.68 663.52 177.65 637.34 177.65"/>
        <path class="cls-3" d="M303.29,155.67c-4.73-.85-8.88-2.69-11.89-5.18l-9.92,19.8-.1.19s0,0,0,0l-.06.12s.56.44,1.44,1.08c2.19,1.81,5.11,3.42,8.58,4.73.03.01.06.02.09.03,5.2,1.96,11.56,3.27,18.54,3.54,6.09.24,12.13-.35,17.47-1.54.25-.05.5-.11.75-.17.9-.21,1.78-.45,2.64-.69.83-.24,1.64-.5,2.44-.78.63-.22,1.25-.45,1.84-.69.47-.19.94-.38,1.4-.58.93-.42,1.8-.85,2.61-1.32,12.15-6.73,19.1-20.08,19.1-42.87V51.66h-28.43v79.31c.21,17.46-5.96,23.71-15.82,24.84-1.49.24-3.08.39-4.8.39-2.04,0-4-.2-5.88-.53"/>
      </g>
      <g>
        <rect class="cls-3" x="438.4" y="213.67" width="11.3" height="49.84"/>
        <path class="cls-3" d="M485.82,212.97c-14.69,0-24.21,11.15-24.21,26.07s8.63,25.32,23.4,25.32,24.44-9.9,24.44-26.21c0-13.73-8.34-25.18-23.62-25.18M485.6,255.42c-7.53,0-12.11-6.87-12.11-16.61s4.43-16.91,12.04-16.91,12.03,7.68,12.03,16.61c0,9.67-4.36,16.91-11.96,16.91"/>
        <polygon class="cls-3" points="640.69 213.69 629.39 213.69 629.39 263.54 655.84 263.54 660.47 254.09 640.69 254.09 640.69 213.69"/>
        <path class="cls-3" d="M717.86,242.31c0,8.79-3.25,12.92-9.15,12.92s-9.01-4.36-9.01-12.92v-28.64h-11.29v27.76c0,15.88,7.38,22.81,19.93,22.81s20.75-7.31,20.75-22.67v-27.91h-11.22v28.64Z"/>
        <rect class="cls-3" x="800.09" y="213.67" width="11.3" height="49.85"/>
        <path class="cls-3" d="M850.28,235.04c-1.7,5.69-3.25,11.59-4.5,17.57h-.22c-1.18-6.2-2.73-11.88-4.43-17.79l-6.05-21.14h-12.33l15.95,49.86h13.14l16.76-49.86h-11.96l-6.35,21.36Z"/>
        <polygon class="cls-3" points="890.63 242.78 908.94 242.78 908.94 233.63 890.63 233.63 890.63 223.01 910.05 223.01 910.05 213.67 879.33 213.67 879.33 263.54 906.45 263.54 911.08 254.31 890.63 254.31 890.63 242.78"/>
        <path class="cls-3" d="M951.54,240.21v-.22c4.28-1.56,8.78-5.91,8.78-12.26,0-4.58-1.63-8.05-4.58-10.41-3.54-2.81-8.71-3.91-16.09-3.91-5.98,0-11.37.44-14.99,1.03v49.1h11.15v-19.56h3.4c4.57.07,6.72,1.77,8.04,7.97,1.48,6.13,2.66,10.19,3.47,11.6h11.51c-.96-1.92-2.51-8.42-4.06-14.03-1.25-4.58-3.17-7.9-6.64-9.3M940.24,235.86h-4.43v-13.73c.81-.15,2.36-.37,5.1-.37,5.17.07,8.27,2.36,8.27,6.94s-3.32,7.17-8.93,7.17"/>
        <rect class="cls-3" x="1015.36" y="213.78" width="11.3" height="49.76"/>
        <polygon class="cls-3" points="1037.27 223.23 1050.63 223.23 1050.63 263.54 1061.93 263.54 1061.93 223.23 1070.88 223.23 1075.52 213.78 1037.27 213.78 1037.27 223.23"/>
        <polygon class="cls-3" points="390.31 223.23 403.67 223.23 403.67 263.54 414.97 263.54 414.97 223.23 423.92 223.23 428.56 213.78 390.31 213.78 390.31 223.23"/>
        <path class="cls-3" d="M1111.87,213.78l-5.02,11.96c-1.48,3.55-2.66,6.42-3.77,9.53h-.15c-1.25-3.25-2.29-5.91-3.84-9.53l-5.1-11.96h-12.84l15.73,29.38v20.38h11.22v-20.75l16.39-29.01h-12.63Z"/>
        <path class="cls-3" d="M388.07,263.51l-15.43-49.76h-14.77l-15.21,49.76h11.67l3.54-12.77h14.62l3.47,12.77h12.11ZM362.45,230.63c.81-2.88,1.55-6.65,2.29-9.6h.15c.74,2.95,1.62,6.64,2.51,9.6l2.91,10.67-.03-.12h-10.79l2.95-10.55ZM370.26,242.37h0v.04-.04Z"/>
        <polygon class="cls-3" points="744.03 263.51 744.02 213.67 757.17 213.67 774.86 247.21 774.81 213.69 785.19 213.7 785.23 263.51 773.6 263.51 754.34 226.81 754.36 263.51 744.03 263.51"/>
        <polygon class="cls-3" points="290.83 263.51 290.83 213.67 303.97 213.67 321.67 247.21 321.61 213.69 331.99 213.7 332.03 263.51 320.41 263.51 301.14 226.81 301.17 263.51 290.83 263.51"/>
        <path class="cls-3" d="M619.43,263.51l-15.43-49.76h-14.77l-15.21,49.76h11.67l3.54-12.77h14.62l3.47,12.77h12.11ZM593.81,230.63c.81-2.88,1.55-6.65,2.29-9.6h.15c.74,2.95,1.62,6.64,2.51,9.6l2.91,10.67-.03-.12h-10.79l2.95-10.55ZM601.63,242.37h0v.04-.04Z"/>
        <polygon class="cls-3" points="522.72 263.51 522.71 213.67 535.86 213.67 553.55 247.21 553.5 213.69 563.88 213.7 563.92 263.51 552.29 263.51 533.03 226.81 533.05 263.51 522.72 263.51"/>
        <path class="cls-3" d="M992.23,234.04c-6.32-2.4-9.08-3.78-9.08-6.9,0-2.54,2.32-4.73,7.12-4.73,3.71,0,6.61.82,8.66,1.64l4.01-8.03.06-.22c-2.91-1.31-6.98-2.48-12.51-2.48-11.56,0-18.54,6.4-18.54,14.76,0,7.13,5.31,11.63,13.45,14.47,5.89,2.11,8.22,3.85,8.22,6.91s-2.69,5.3-7.78,5.3c-3.85,0-7.55-1.02-10.42-2.22l-4.09,8.19-.03.14c2.76,1.53,8.29,2.98,13.89,2.98,13.45,0,19.78-6.98,19.78-15.19,0-6.91-4.07-11.42-12.73-14.61Z"/>
      </g>
    </g>
  </g>
  <g>
    <path class="cls-2" d="M1224.56,82.67c2.58,6.12,7.8,9.66,14.69,9.66s11.08-2.58,11.08-7.28c0-4.32-2.77-6.38-7.79-7.79l-7.73-2.13c-6.96-1.93-14.3-5.8-14.3-14.95s7.86-14.82,18.1-14.82,16.81,5.73,19.65,12.63l-6.96,3.48c-2.32-4.9-6.51-8.57-12.69-8.57s-9.92,2.71-9.92,7.28,3.48,6.31,7.99,7.54l7.54,2.06c7.02,1.93,14.3,5.99,14.3,15.27s-8.5,14.82-19.26,14.82-18.36-5.15-21.71-13.72l7.02-3.48Z"/>
    <path class="cls-2" d="M1317.13,75.72v22.81h-4.64v-22.68c0-6.96-3.29-11.27-9.02-11.27s-9.53,4.7-9.53,11.6v22.35h-4.57v-22.68c0-7.02-3.22-11.27-9.02-11.27s-9.41,4.57-9.41,11.6v22.35h-4.7v-37.24h4.25l.32,5.48c2.13-3.87,5.8-6.44,10.63-6.44,5.28,0,9.28,3.03,11.21,7.92,2.13-4.7,6.38-7.92,11.85-7.92,7.6,0,12.63,6.19,12.63,15.4Z"/>
    <path class="cls-2" d="M1355.6,74.69v23.84h-4.19l-.32-5.15c-2.13,3.74-6.18,6.12-11.53,6.12h-2.51c-7.15,0-12.3-4.9-12.3-11.53s5.22-11.34,14.5-11.34h11.72v-1.61c0-6.31-3.54-10.37-10.24-10.37-4.83,0-8.31,2.25-10.24,5.86l-4.19-1.93c2.51-4.9,7.99-8.25,14.75-8.25,8.57,0,14.56,5.35,14.56,14.37ZM1340.2,95.17c5.22,0,10.11-3.22,10.76-8.31v-6.06h-11.4c-7.15,0-10.18,2.96-10.18,7.15,0,4.51,3.35,7.22,8.44,7.22h2.38Z"/>
    <path class="cls-2" d="M1384.2,61.09l-1.1,4.19c-1.55-.39-3.16-.64-4.57-.64-5.35,0-8.76,5.48-8.76,11.79v22.1h-4.7v-37.24h4.32l.26,5.86c1.87-4.06,5.15-6.83,9.6-6.83,1.87,0,3.54.26,4.96.77Z"/>
    <path class="cls-2" d="M1410.68,97.49c-2.19,1.35-5.02,2-7.54,2-5.09,0-8.44-2.71-8.44-8.7v-25.19h-7.28v-4.32h7.28v-10.69h4.64v10.69h10.24v4.32h-10.24v24.74c0,4.06,1.74,4.9,4.32,4.9,2.13,0,3.74-.58,5.73-1.61l1.29,3.87Z"/>
    <path class="cls-2" d="M1261.34,161.21c0,9.86-6.7,15.01-17.91,15.01h-23v-52.57h20.49c11.15,0,17.91,5.15,17.91,14.75,0,4.38-1.93,8.25-6.96,10.37,6.64,2.19,9.47,6.7,9.47,12.43ZM1228.74,131v15.27h12.11c6.38,0,9.79-2.9,9.79-7.73s-3.41-7.54-9.79-7.54h-12.11ZM1243.37,168.88c6.38,0,9.79-2.77,9.79-7.86s-3.41-7.92-9.79-7.92h-14.62v15.78h14.62Z"/>
    <path class="cls-2" d="M1269.4,127.32c0-1.87,1.55-3.35,3.41-3.35s3.35,1.55,3.35,3.35-1.48,3.35-3.35,3.35-3.41-1.48-3.41-3.35ZM1270.49,175.83v-37.24h4.64v37.24h-4.64Z"/>
    <path class="cls-2" d="M1284.02,159.92v-5.48c0-10.95,8.05-16.81,16.88-16.81s16.94,5.86,16.94,16.81v5.48c0,11.02-7.99,16.88-16.94,16.88s-16.88-5.86-16.88-16.88ZM1313.2,159.73v-5.03c0-8.18-5.67-12.76-12.3-12.76s-12.18,4.57-12.18,12.76v5.03c0,8.18,5.6,12.82,12.18,12.82s12.3-4.64,12.3-12.82Z"/>
    <path class="cls-2" d="M1358.95,154.77v5.09c0,11.02-7.67,17.14-15.46,17.14-5.41,0-10.18-2.38-13.01-6.76v16.56h-4.7v-48.19h4.32l.32,5.93c2.83-4.45,7.67-6.89,13.08-6.89,7.79,0,15.46,6.18,15.46,17.14ZM1354.31,154.96c0-8.38-5.28-13.01-11.98-13.01s-11.85,4.64-11.85,13.01v4.77c0,8.31,5.22,13.01,11.85,13.01s11.98-4.7,11.98-13.01v-4.77Z"/>
    <path class="cls-2" d="M1398.12,152.96v22.87h-4.64v-22.61c0-7.02-3.35-11.4-10.37-11.4s-11.53,4.77-11.53,11.66v22.35h-4.7v-51.8h4.7v20.36c2.38-4.12,6.83-6.76,12.5-6.76,8.76,0,14.04,6.18,14.04,15.33Z"/>
    <path class="cls-2" d="M1406.04,159.92v-5.48c0-10.95,8.05-16.81,16.88-16.81s16.94,5.86,16.94,16.81v5.48c0,11.02-7.99,16.88-16.94,16.88s-16.88-5.86-16.88-16.88ZM1435.22,159.73v-5.03c0-8.18-5.67-12.76-12.3-12.76s-12.18,4.57-12.18,12.76v5.03c0,8.18,5.6,12.82,12.18,12.82s12.3-4.64,12.3-12.82Z"/>
    <path class="cls-2" d="M1467.95,174.8c-2.19,1.35-5.02,2-7.54,2-5.09,0-8.44-2.7-8.44-8.7v-25.19h-7.28v-4.32h7.28v-10.69h4.64v10.69h10.24v4.32h-10.24v24.74c0,4.06,1.74,4.9,4.32,4.9,2.13,0,3.74-.58,5.73-1.61l1.29,3.87Z"/>
    <path class="cls-2" d="M1472.14,159.92v-5.48c0-10.95,8.05-16.81,16.88-16.81s16.94,5.86,16.94,16.81v5.48c0,11.02-7.99,16.88-16.94,16.88s-16.88-5.86-16.88-16.88ZM1501.32,159.73v-5.03c0-8.18-5.67-12.76-12.3-12.76s-12.18,4.57-12.18,12.76v5.03c0,8.18,5.6,12.82,12.18,12.82s12.3-4.64,12.3-12.82Z"/>
    <path class="cls-2" d="M1546.1,153.03v22.81h-4.64v-22.55c0-6.96-3.35-11.34-10.44-11.34-6.7,0-11.47,4.77-11.47,11.53v22.35h-4.7v-37.24h4.25l.39,5.93c2.38-4.19,6.76-6.89,12.5-6.89,8.83,0,14.11,6.18,14.11,15.4Z"/>
    <path class="cls-2" d="M1555.64,127.32c0-1.87,1.55-3.35,3.41-3.35s3.35,1.55,3.35,3.35-1.48,3.35-3.35,3.35-3.41-1.48-3.41-3.35ZM1556.73,175.83v-37.24h4.64v37.24h-4.64Z"/>
    <path class="cls-2" d="M1570.26,159.99v-5.54c0-10.95,8.05-16.81,16.88-16.81,6.7,0,12.69,3.35,15.33,9.73l-4.32,1.74c-2.06-4.7-6.06-7.15-11.02-7.15-6.7,0-12.18,4.57-12.18,12.76v5.03c0,8.18,5.48,12.82,12.18,12.82,4.96,0,8.95-2.45,11.02-7.22l4.32,1.74c-2.64,6.38-8.63,9.73-15.33,9.73-8.83,0-16.88-5.86-16.88-16.81Z"/>
    <path class="cls-2" d="M1611.81,164.95c2.77,5.28,7.15,7.79,12.56,7.79s9.53-2.06,9.53-6.06-3.09-5.48-7.6-6.83l-5.09-1.48c-5.93-1.74-10.63-4.51-10.63-10.76s5.6-9.99,12.76-9.99,11.92,3.22,14.88,8.63l-3.61,2.38c-2.45-4.25-6.31-6.96-11.34-6.96s-8.18,2.38-8.18,5.93,2.51,5.28,6.89,6.63l5.09,1.48c5.93,1.74,11.34,4.38,11.34,10.95s-6.57,10.11-14.11,10.11-13.08-3.22-16.23-9.53l3.74-2.32Z"/>
    <path class="cls-2" d="M1670.83,168.88h24.03v7.34h-32.34v-52.57h8.31v45.22Z"/>
    <path class="cls-2" d="M1730.55,152v23.84h-4.19l-.32-5.15c-2.13,3.74-6.18,6.12-11.53,6.12h-2.51c-7.15,0-12.3-4.9-12.3-11.53s5.22-11.34,14.5-11.34h11.72v-1.61c0-6.31-3.54-10.37-10.24-10.37-4.83,0-8.31,2.25-10.24,5.86l-4.19-1.93c2.51-4.9,7.99-8.25,14.75-8.25,8.57,0,14.56,5.35,14.56,14.37ZM1715.15,172.48c5.22,0,10.11-3.22,10.76-8.31v-6.06h-11.4c-7.15,0-10.18,2.96-10.18,7.15,0,4.51,3.35,7.22,8.44,7.22h2.38Z"/>
    <path class="cls-2" d="M1773.2,154.64v5.15c0,10.89-7.54,17.01-15.46,17.01-5.48,0-10.24-2.38-13.08-6.83l-.32,5.86h-4.32v-51.8h4.7v20.29c2.83-4.38,7.6-6.7,13.01-6.7,7.92,0,15.46,6.12,15.46,17.01ZM1768.56,154.83c0-8.25-5.28-12.88-11.98-12.88s-11.85,4.64-11.85,12.88v4.77c0,8.25,5.28,12.95,11.85,12.95s11.98-4.7,11.98-12.95v-4.77Z"/>
    <path class="cls-2" d="M1780.29,173.19c0-2,1.55-3.54,3.54-3.54s3.61,1.55,3.61,3.54-1.61,3.61-3.61,3.61-3.54-1.61-3.54-3.61Z"/>
  </g>
  <line class="cls-1" x1="1171.5" y1="40" x2="1171.5" y2="189"/>
</svg>