<?xml version="1.0" encoding="UTF-8"?>
<svg id="Layer_1" data-name="Layer 1" xmlns="http://www.w3.org/2000/svg" viewBox="0 0 986.96 509.87">
  <defs>
    <style>
      .cls-1 {
        fill: none;
        stroke: #666563;
        stroke-linecap: round;
        stroke-linejoin: round;
        stroke-width: 2px;
      }

      .cls-2 {
        fill: #512b6b;
      }

      .cls-3 {
        fill: #666563;
      }
    </style>
  </defs>
  <g>
    <path class="cls-3" d="M248.13,381.29h63.9v8.5h-63.9v-8.5ZM278.71,352.61c-4.79,6.03-12.42,11.62-23.6,16.63l-4.29-7.99c18.37-8.57,24.98-17.21,24.98-26.36v-5.08h9.29v5.08c0,3.41-.58,6.68-1.82,9.88l26.07,16.77-5.08,7.7-25.56-16.63Z"/>
    <path class="cls-3" d="M317.85,383.76v-52.43h34.06v52.43h-34.06ZM327.15,339.83v35.44h15.54v-35.44h-15.54ZM381.83,351.23v8.42h-9.8v34.86h-9.29v-67.82h9.29v24.54h9.8Z"/>
    <path class="cls-3" d="M385.83,381.29h63.9v8.5h-63.9v-8.5ZM443.77,363v8.21h-50.47v-40.3h49.02v8.35h-39.79v7.62h39.79v8.13h-39.79v7.99h41.25Z"/>
    <path class="cls-3" d="M483.5,362.41l-12.34-10.6c-2.76,4.43-6.61,8.42-11.69,12.05l-5.37-6.83c9.59-7.12,13.14-15.47,13.14-23.89v-4.43h8.93v4.43c0,3.78-.44,7.26-1.38,10.53l14.09,12.13-5.37,6.61ZM498.97,366.63c9.88,0,16.56,5.74,16.56,14.3s-6.68,14.31-16.56,14.31h-15.83c-9.88,0-16.56-5.66-16.56-14.31s6.68-14.3,16.56-14.3h15.83ZM497.66,386.96c5.74,0,8.57-2.47,8.57-6.1s-2.83-6.03-8.57-6.03h-13.22c-5.74,0-8.57,2.47-8.57,6.03s2.83,6.1,8.57,6.1h13.22ZM499.26,348.18v14.74h-8.5v-35.51h8.5v12.64h6.68v-13.29h8.79v36.89h-8.79v-15.47h-6.68Z"/>
    <path class="cls-3" d="M543.92,345.21c-.07,4.57-.51,8.93-1.38,13.21l14.6,21.13-6.9,5.23-10.97-15.9c-2.4,5.59-5.66,11.04-10.09,16.56l-6.61-5.3c9.08-11.69,12.49-22.29,12.56-34.93h-10.38v-8.42h10.53v-10.02h8.71v10.02h11.11v8.42h-11.18ZM559.75,351.88v-24.11h8.79v65.14h-8.79v-32.53h-9.58v-8.5h9.58ZM574.49,326.69h9v67.82h-9v-67.82Z"/>
    <path class="cls-3" d="M634.84,363.43c-10.24,1.38-23.17,2.18-32.75,2.18h-10.31l-.51-8.21h12.27v-12.78h9.3v12.49c6.68-.29,14.31-.87,21.06-1.74l.94,8.06ZM619.67,352.47c.94-5.88,1.53-11.33,1.6-15.32h-25.92v-7.62h35v3.05c0,7.41-.73,14.67-1.82,20.91l-8.86-1.02ZM632.52,369.46c9.66,0,16.34,4.79,16.34,12.93s-6.68,12.85-16.34,12.85h-14.89c-9.58,0-16.34-4.79-16.34-12.85s6.75-12.93,16.34-12.93h14.89ZM631.07,387.32c5.59,0,8.5-1.96,8.5-5.01s-2.91-5.08-8.5-5.08h-11.91c-5.66,0-8.57,2.03-8.57,5.08s2.9,5.01,8.57,5.01h11.91ZM648.06,343.46h9.08v8.42h-9.08v15.25h-9.29v-40.38h9.29v16.7Z"/>
    <path class="cls-3" d="M701.07,332.06v7.48h-39.87v-7.48h15.25v-6.1h9.37v6.1h15.25ZM698.24,354.94c0,7.84-7.48,11.76-17.06,11.76s-17.14-3.92-17.14-11.76v-.87c0-7.84,7.62-11.76,17.14-11.76s17.06,3.92,17.06,11.76v.87ZM670.87,379.19v-8.42h45.31v24.47h-9.22v-16.05h-36.09ZM673.12,354.86c0,2.69,3.56,4.36,8.06,4.36s8.06-1.67,8.06-4.36v-.65c0-2.76-3.49-4.43-8.06-4.43s-8.06,1.67-8.06,4.43v.65ZM726.05,342.74v8.42h-9.88v15.9h-9.22v-40.38h9.22v16.05h9.88Z"/>
    <path class="cls-3" d="M767.09,357.69c-3.05,6.1-9.22,9-16.34,9-10.24,0-18.45-5.96-18.45-18.66v-1.09c0-12.85,8.21-18.81,18.45-18.81,6.39,0,12.05,2.4,15.32,7.33h13.51v-8.79h9.3v50.18h-9.3v-19.17h-12.49ZM741.6,347.96c0,7.26,4.14,10.6,9.15,10.6s9.08-3.34,9.08-10.6v-1.02c0-7.26-4.14-10.67-9.08-10.67s-9.15,3.41-9.15,10.67v1.02ZM752.13,386.09h39.29v8.42h-48.58v-22.22h9.29v13.8ZM779.58,342.88h-10.75c.22,1.23.29,2.61.29,4.07v1.09c0,.8,0,1.6-.07,2.32h10.53v-7.48Z"/>
    <path class="cls-3" d="M862.8,361.76v8.42h-27.3v25.12h-9.3v-25.12h-27.3v-8.42h44.44c1.31-8.71,2.18-17.94,2.18-23.17h-39.72v-8.5h49.02v5.59c0,7.7-.8,17.06-2.18,26.07h10.17Z"/>
    <path class="cls-3" d="M888.88,348.91c-3.63,4.43-8.86,8.28-15.83,11.84l-4.65-7.62c12.64-6.39,17.21-13.22,17.21-20.91v-3.78h9.08v3.78c0,3.27-.51,6.32-1.52,9.15l18.44,10.46-4.65,7.48-18.08-10.38ZM889.82,387.1h38.85v7.77h-48.14v-19.75h36.74v-4.14h-37.11v-7.55h46.4v19.17h-36.74v4.5ZM926.56,326.69v33.04h-9.3v-33.04h9.3Z"/>
    <path class="cls-3" d="M253.57,443.26c2.29,5.44,6.93,8.59,13.06,8.59s9.85-2.29,9.85-6.47c0-3.84-2.46-5.67-6.93-6.93l-6.88-1.89c-6.19-1.72-12.72-5.16-12.72-13.29s6.99-13.18,16.1-13.18,14.96,5.1,17.48,11.23l-6.19,3.09c-2.06-4.35-5.79-7.62-11.29-7.62s-8.82,2.41-8.82,6.47,3.09,5.61,7.11,6.7l6.7,1.83c6.25,1.72,12.72,5.33,12.72,13.58s-7.56,13.18-17.13,13.18-16.33-4.58-19.31-12.2l6.25-3.09Z"/>
    <path class="cls-3" d="M335.91,437.07v20.28h-4.12v-20.17c0-6.19-2.92-10.03-8.02-10.03s-8.48,4.18-8.48,10.31v19.88h-4.07v-20.17c0-6.25-2.86-10.03-8.02-10.03s-8.37,4.07-8.37,10.31v19.88h-4.18v-33.12h3.78l.29,4.87c1.89-3.44,5.16-5.73,9.45-5.73,4.7,0,8.25,2.69,9.97,7.05,1.89-4.18,5.67-7.05,10.54-7.05,6.76,0,11.23,5.5,11.23,13.69Z"/>
    <path class="cls-3" d="M370.11,436.15v21.2h-3.72l-.29-4.58c-1.89,3.32-5.5,5.44-10.26,5.44h-2.23c-6.36,0-10.94-4.35-10.94-10.26s4.64-10.08,12.89-10.08h10.43v-1.43c0-5.62-3.15-9.22-9.11-9.22-4.3,0-7.39,2-9.11,5.21l-3.72-1.72c2.23-4.35,7.1-7.33,13.12-7.33,7.62,0,12.95,4.76,12.95,12.78ZM356.42,454.37c4.64,0,9-2.87,9.57-7.39v-5.39h-10.14c-6.36,0-9.05,2.64-9.05,6.36,0,4.01,2.98,6.42,7.51,6.42h2.12Z"/>
    <path class="cls-3" d="M395.55,424.06l-.97,3.72c-1.38-.34-2.81-.57-4.07-.57-4.76,0-7.79,4.87-7.79,10.48v19.65h-4.18v-33.12h3.84l.23,5.21c1.66-3.61,4.58-6.07,8.54-6.07,1.66,0,3.15.23,4.41.69Z"/>
    <path class="cls-3" d="M419.1,456.43c-1.95,1.2-4.47,1.78-6.7,1.78-4.53,0-7.51-2.41-7.51-7.73v-22.4h-6.47v-3.84h6.47v-9.51h4.12v9.51h9.11v3.84h-9.11v22c0,3.61,1.55,4.35,3.84,4.35,1.89,0,3.32-.52,5.1-1.43l1.15,3.44Z"/>
    <path class="cls-3" d="M475.02,444.34c0,8.77-5.96,13.35-15.93,13.35h-20.46v-46.75h18.22c9.91,0,15.93,4.58,15.93,13.12,0,3.9-1.72,7.33-6.19,9.22,5.9,1.95,8.42,5.96,8.42,11.06ZM446.03,417.47v13.58h10.77c5.67,0,8.71-2.58,8.71-6.88s-3.04-6.7-8.71-6.7h-10.77ZM459.03,451.16c5.67,0,8.71-2.46,8.71-6.99s-3.04-7.05-8.71-7.05h-13.01v14.04h13.01Z"/>
    <path class="cls-3" d="M482.18,414.21c0-1.66,1.38-2.98,3.04-2.98s2.98,1.38,2.98,2.98-1.32,2.98-2.98,2.98-3.04-1.32-3.04-2.98ZM483.15,457.35v-33.12h4.12v33.12h-4.12Z"/>
    <path class="cls-3" d="M495.18,443.2v-4.87c0-9.74,7.16-14.96,15.01-14.96s15.07,5.21,15.07,14.96v4.87c0,9.8-7.11,15.01-15.07,15.01s-15.01-5.21-15.01-15.01ZM521.14,443.03v-4.47c0-7.28-5.04-11.34-10.94-11.34s-10.83,4.07-10.83,11.34v4.47c0,7.28,4.98,11.4,10.83,11.4s10.94-4.12,10.94-11.4Z"/>
    <path class="cls-3" d="M561.82,438.61v4.53c0,9.8-6.82,15.24-13.75,15.24-4.81,0-9.05-2.12-11.57-6.02v14.73h-4.18v-42.86h3.84l.29,5.27c2.52-3.95,6.82-6.13,11.63-6.13,6.93,0,13.75,5.5,13.75,15.24ZM557.69,438.79c0-7.45-4.7-11.57-10.66-11.57s-10.54,4.12-10.54,11.57v4.24c0,7.39,4.64,11.57,10.54,11.57s10.66-4.18,10.66-11.57v-4.24Z"/>
    <path class="cls-3" d="M596.65,437.01v20.34h-4.13v-20.11c0-6.25-2.98-10.14-9.23-10.14s-10.26,4.24-10.26,10.37v19.88h-4.18v-46.07h4.18v18.11c2.12-3.67,6.07-6.02,11.12-6.02,7.79,0,12.49,5.5,12.49,13.64Z"/>
    <path class="cls-3" d="M603.7,443.2v-4.87c0-9.74,7.16-14.96,15.01-14.96s15.07,5.21,15.07,14.96v4.87c0,9.8-7.11,15.01-15.07,15.01s-15.01-5.21-15.01-15.01ZM629.66,443.03v-4.47c0-7.28-5.04-11.34-10.94-11.34s-10.83,4.07-10.83,11.34v4.47c0,7.28,4.98,11.4,10.83,11.4s10.94-4.12,10.94-11.4Z"/>
    <path class="cls-3" d="M658.76,456.43c-1.95,1.2-4.47,1.78-6.7,1.78-4.53,0-7.51-2.41-7.51-7.73v-22.4h-6.47v-3.84h6.47v-9.51h4.13v9.51h9.11v3.84h-9.11v22c0,3.61,1.55,4.35,3.84,4.35,1.89,0,3.32-.52,5.1-1.43l1.15,3.44Z"/>
    <path class="cls-3" d="M662.48,443.2v-4.87c0-9.74,7.16-14.96,15.01-14.96s15.07,5.21,15.07,14.96v4.87c0,9.8-7.11,15.01-15.07,15.01s-15.01-5.21-15.01-15.01ZM688.44,443.03v-4.47c0-7.28-5.04-11.34-10.94-11.34s-10.83,4.07-10.83,11.34v4.47c0,7.28,4.98,11.4,10.83,11.4s10.94-4.12,10.94-11.4Z"/>
    <path class="cls-3" d="M728.26,437.07v20.28h-4.12v-20.05c0-6.19-2.98-10.08-9.28-10.08-5.96,0-10.2,4.24-10.2,10.26v19.88h-4.18v-33.12h3.78l.34,5.27c2.12-3.72,6.02-6.13,11.12-6.13,7.85,0,12.55,5.5,12.55,13.69Z"/>
    <path class="cls-3" d="M736.74,414.21c0-1.66,1.38-2.98,3.04-2.98s2.98,1.38,2.98,2.98-1.32,2.98-2.98,2.98-3.04-1.32-3.04-2.98ZM737.71,457.35v-33.12h4.12v33.12h-4.12Z"/>
    <path class="cls-3" d="M749.75,443.26v-4.93c0-9.74,7.16-14.96,15.01-14.96,5.96,0,11.29,2.98,13.64,8.65l-3.84,1.55c-1.83-4.18-5.39-6.36-9.8-6.36-5.96,0-10.83,4.07-10.83,11.34v4.47c0,7.28,4.87,11.4,10.83,11.4,4.41,0,7.96-2.18,9.8-6.42l3.84,1.55c-2.35,5.67-7.68,8.65-13.64,8.65-7.85,0-15.01-5.21-15.01-14.95Z"/>
    <path class="cls-3" d="M786.7,447.67c2.46,4.7,6.36,6.93,11.17,6.93s8.48-1.83,8.48-5.38-2.75-4.87-6.76-6.07l-4.53-1.32c-5.27-1.55-9.45-4.01-9.45-9.57s4.99-8.88,11.34-8.88,10.6,2.87,13.24,7.68l-3.21,2.12c-2.18-3.78-5.62-6.19-10.08-6.19s-7.28,2.12-7.28,5.27,2.23,4.7,6.13,5.9l4.53,1.32c5.27,1.55,10.08,3.9,10.08,9.74s-5.84,8.99-12.55,8.99-11.63-2.86-14.44-8.48l3.32-2.06Z"/>
    <path class="cls-3" d="M839.18,451.16h21.37v6.53h-28.76v-46.75h7.39v40.22Z"/>
    <path class="cls-3" d="M892.3,436.15v21.2h-3.72l-.29-4.58c-1.89,3.32-5.5,5.44-10.26,5.44h-2.24c-6.36,0-10.94-4.35-10.94-10.26s4.64-10.08,12.89-10.08h10.43v-1.43c0-5.62-3.15-9.22-9.11-9.22-4.3,0-7.39,2-9.11,5.21l-3.72-1.72c2.23-4.35,7.1-7.33,13.12-7.33,7.62,0,12.95,4.76,12.95,12.78ZM878.6,454.37c4.64,0,9-2.87,9.57-7.39v-5.39h-10.14c-6.36,0-9.05,2.64-9.05,6.36,0,4.01,2.98,6.42,7.51,6.42h2.12Z"/>
    <path class="cls-3" d="M930.22,438.5v4.58c0,9.68-6.7,15.12-13.75,15.12-4.87,0-9.11-2.12-11.63-6.07l-.29,5.21h-3.84v-46.07h4.18v18.05c2.52-3.9,6.76-5.96,11.57-5.96,7.05,0,13.75,5.44,13.75,15.13ZM926.1,438.67c0-7.33-4.7-11.46-10.66-11.46s-10.54,4.12-10.54,11.46v4.24c0,7.33,4.7,11.52,10.54,11.52s10.66-4.18,10.66-11.52v-4.24Z"/>
    <path class="cls-3" d="M936.53,455c0-1.78,1.38-3.15,3.15-3.15s3.21,1.38,3.21,3.15-1.43,3.21-3.21,3.21-3.15-1.43-3.15-3.21Z"/>
  </g>
  <line class="cls-1" x1="245.5" y1="282.05" x2="921.5" y2="282.05"/>
  <g>
    <path class="cls-2" d="M353.58,229.25h-82.59v-29.35c0-2.11-1.71-3.83-3.83-3.83s-3.83,1.72-3.83,3.83v33.18c0,2.11,1.71,3.82,3.83,3.82h86.42c2.11,0,3.82-1.71,3.82-3.82s-1.71-3.83-3.82-3.83ZM313.75,179.81c.72,1.18,1.98,1.83,3.27,1.83.68,0,1.37-.18,1.99-.56,1.81-1.1,2.38-3.46,1.27-5.26l-33.64-55.1c-.7-1.14-1.93-1.84-3.27-1.84s-2.57.7-3.27,1.84l-33.65,55.1c-1.1,1.8-.53,4.16,1.28,5.26,1.8,1.1,4.16.53,5.26-1.27l30.38-49.75,30.38,49.75ZM355.37,99.65c-2.12,0-3.82,1.71-3.82,3.82v27.05h-34.28c-2.11,0-3.82,1.71-3.82,3.83s1.71,3.83,3.82,3.83h34.28v63.36c0,2.11,1.71,3.83,3.82,3.83s3.83-1.72,3.83-3.83v-98.06c0-2.11-1.71-3.82-3.83-3.82ZM318.3,112.44c2.12,0,3.83-1.72,3.83-3.83s-1.71-3.83-3.83-3.83h-71.8c-2.11,0-3.83,1.72-3.83,3.83s1.72,3.83,3.83,3.83h71.8ZM497.18,106c0-2.11-1.71-3.82-3.82-3.82s-3.83,1.71-3.83,3.82v17.16h-90.05v-17.16c0-2.11-1.71-3.82-3.83-3.82s-3.82,1.71-3.82,3.82v51.34h105.35v-51.34ZM489.53,149.69h-90.05v-18.87h90.05v18.87ZM504.38,173.57h-119.98c-2.12,0-3.83,1.72-3.83,3.83s1.71,3.83,3.83,3.83h55.32v18.66h-46.71c-2.11,0-3.83,1.71-3.83,3.83s1.71,3.82,3.83,3.82h96.5v30.15c0,2.11,1.72,3.82,3.83,3.82s3.82-1.71,3.82-3.82v-33.97c0-2.12-1.71-3.83-3.82-3.83h-45.97v-18.66h57.01c2.11,0,3.83-1.71,3.83-3.83s-1.71-3.83-3.83-3.83ZM578.59,207.2c-22.87,4.22-37.16,4.3-43.17,4.04v-100.32h39.59c2.11,0,3.82-1.71,3.82-3.82s-1.71-3.83-3.82-3.83h-43.42c-2.11,0-3.82,1.71-3.82,3.83v107.69c0,1.91,1.41,3.53,3.3,3.79.27.04,3.12.41,8.66.41,7.86,0,21.17-.75,40.26-4.26,2.08-.38,3.45-2.38,3.07-4.46-.38-2.08-2.38-3.45-4.46-3.07ZM638.13,99.78c-2.11,0-3.83,1.71-3.83,3.83v54.88h-29.68v-54.88c0-2.11-1.71-3.83-3.83-3.83s-3.83,1.71-3.83,3.83v130.64c0,2.12,1.72,3.83,3.83,3.83s3.83-1.71,3.83-3.83v-68.1h29.68v69.66c0,2.12,1.71,3.83,3.83,3.83s3.83-1.71,3.83-3.83V103.6c0-2.11-1.72-3.83-3.83-3.83ZM813.19,113.01h96.24c.97,8.4,2.71,34.64-4.28,85.73-.28,2.09,1.18,4.02,3.27,4.31.17.02.35.03.53.03,1.88,0,3.51-1.39,3.78-3.3,8.92-65.05,3.99-90.32,3.78-91.37-.37-1.78-1.94-3.05-3.75-3.05h-99.56c-2.11,0-3.82,1.71-3.82,3.82s1.71,3.83,3.82,3.83ZM922.85,222.28h-43.26v-61.16c0-2.11-1.71-3.83-3.83-3.83s-3.83,1.71-3.83,3.83v61.16h-33.56v-61.16c0-2.11-1.71-3.83-3.83-3.83s-3.83,1.71-3.83,3.83v61.16h-32.36c-2.11,0-3.83,1.72-3.83,3.83s1.72,3.83,3.83,3.83h124.49c2.12,0,3.83-1.71,3.83-3.83s-1.71-3.83-3.83-3.83ZM796.36,144.43c0-2.11-1.71-3.83-3.82-3.83h-18.73v-37.38c0-2.12-1.71-3.83-3.82-3.83s-3.82,1.72-3.82,3.83v78.9c0,2.11,1.71,3.83,3.82,3.83s3.82-1.71,3.82-3.83v-33.87h18.73c2.11,0,3.82-1.71,3.82-3.82ZM743.99,111c0-2.12-1.72-3.83-3.83-3.83h-32.46v-12.73c0-2.11-1.71-3.83-3.83-3.83s-3.82,1.72-3.82,3.83v12.73h-32.46c-2.11,0-3.82,1.71-3.82,3.83s1.71,3.82,3.82,3.82h72.58c2.11,0,3.83-1.71,3.83-3.82ZM674.38,157.26c0,16.26,13.23,29.49,29.49,29.49s29.49-13.23,29.49-29.49-13.23-29.49-29.49-29.49-29.49,13.23-29.49,29.49ZM725.71,157.26c0,12.04-9.81,21.83-21.84,21.83s-21.84-9.79-21.84-21.83,9.8-21.83,21.84-21.83,21.84,9.8,21.84,21.83ZM770.38,202.99h-93.63c-2.11,0-3.82,1.71-3.82,3.82s1.71,3.83,3.82,3.83h89.79v27.1c0,2.11,1.71,3.82,3.83,3.82s3.82-1.71,3.82-3.82v-30.93c0-2.11-1.71-3.82-3.82-3.82Z"/>
    <path class="cls-2" d="M192.65,40.72h-122.11c-5.17,0-9.39,4.23-9.39,9.4s4.22,9.41,9.39,9.41h122.11c5.16,0,9.4-4.23,9.4-9.41s-4.23-9.4-9.4-9.4ZM136.98,81.51c-1.48-2.12-3.43-3.18-5.39-3.18s-3.9,1.06-5.39,3.18l-59.67,85.32c-2.97,4.24-1.93,10.13,2.31,13.1,4.23,2.97,10.11,1.92,13.07-2.32l49.68-71.02,49.67,71.02c2.97,4.24,8.85,5.29,13.09,2.32,4.23-2.98,5.27-8.87,2.3-13.1l-59.68-85.32Z"/>
  </g>
</svg>