<?xml version="1.0" encoding="UTF-8"?>
<svg id="Layer_1" data-name="Layer 1" xmlns="http://www.w3.org/2000/svg" viewBox="0 0 1775.96 442.87">
  <defs>
    <style>
      .cls-1 {
        fill: #0a0203;
      }

      .cls-2 {
        fill: none;
        stroke: #0a0203;
        stroke-linecap: round;
        stroke-linejoin: round;
        stroke-width: 2px;
      }
    </style>
  </defs>
  <g>
    <path class="cls-1" d="M1034.25,164.65h63.9v8.5h-63.9v-8.5ZM1064.82,135.97c-4.79,6.03-12.42,11.62-23.6,16.63l-4.29-7.99c18.37-8.57,24.98-17.21,24.98-26.36v-5.08h9.3v5.08c0,3.41-.58,6.68-1.82,9.88l26.07,16.77-5.08,7.7-25.56-16.63Z"/>
    <path class="cls-1" d="M1103.97,167.12v-52.43h34.06v52.43h-34.06ZM1113.27,123.19v35.44h15.54v-35.44h-15.54ZM1167.95,134.59v8.42h-9.8v34.86h-9.29v-67.82h9.29v24.54h9.8Z"/>
    <path class="cls-1" d="M1171.94,164.65h63.9v8.5h-63.9v-8.5ZM1229.89,146.35v8.21h-50.47v-40.3h49.02v8.35h-39.79v7.62h39.79v8.13h-39.79v7.99h41.25Z"/>
    <path class="cls-1" d="M1269.62,145.77l-12.34-10.6c-2.76,4.43-6.61,8.42-11.69,12.05l-5.37-6.83c9.59-7.12,13.14-15.47,13.14-23.89v-4.43h8.93v4.43c0,3.78-.44,7.26-1.38,10.53l14.09,12.13-5.37,6.61ZM1285.09,149.99c9.88,0,16.56,5.74,16.56,14.3s-6.68,14.31-16.56,14.31h-15.83c-9.88,0-16.56-5.66-16.56-14.31s6.68-14.3,16.56-14.3h15.83ZM1283.78,170.32c5.74,0,8.57-2.47,8.57-6.1s-2.83-6.03-8.57-6.03h-13.22c-5.74,0-8.57,2.47-8.57,6.03s2.83,6.1,8.57,6.1h13.22ZM1285.38,131.54v14.74h-8.5v-35.51h8.5v12.64h6.68v-13.29h8.79v36.89h-8.79v-15.47h-6.68Z"/>
    <path class="cls-1" d="M1330.04,128.56c-.07,4.57-.51,8.93-1.38,13.22l14.6,21.13-6.9,5.23-10.97-15.9c-2.4,5.59-5.66,11.04-10.09,16.56l-6.61-5.3c9.08-11.69,12.49-22.29,12.56-34.93h-10.38v-8.42h10.53v-10.02h8.71v10.02h11.11v8.42h-11.18ZM1345.87,135.24v-24.11h8.79v65.14h-8.79v-32.53h-9.58v-8.5h9.58ZM1360.61,110.05h9v67.82h-9v-67.82Z"/>
    <path class="cls-1" d="M1420.96,146.79c-10.24,1.38-23.16,2.18-32.75,2.18h-10.31l-.51-8.21h12.27v-12.78h9.29v12.49c6.68-.29,14.31-.87,21.06-1.74l.94,8.06ZM1405.79,135.82c.94-5.88,1.53-11.33,1.6-15.32h-25.92v-7.62h35v3.05c0,7.41-.73,14.67-1.82,20.91l-8.86-1.02ZM1418.64,152.82c9.66,0,16.34,4.79,16.34,12.93s-6.68,12.85-16.34,12.85h-14.89c-9.58,0-16.34-4.79-16.34-12.85s6.75-12.93,16.34-12.93h14.89ZM1417.19,170.68c5.59,0,8.5-1.96,8.5-5.01s-2.91-5.08-8.5-5.08h-11.91c-5.66,0-8.57,2.03-8.57,5.08s2.9,5.01,8.57,5.01h11.91ZM1434.18,126.82h9.08v8.42h-9.08v15.25h-9.29v-40.38h9.29v16.7Z"/>
    <path class="cls-1" d="M1487.19,115.42v7.48h-39.87v-7.48h15.25v-6.1h9.37v6.1h15.25ZM1484.36,138.29c0,7.84-7.48,11.76-17.06,11.76s-17.14-3.92-17.14-11.76v-.87c0-7.84,7.62-11.76,17.14-11.76s17.06,3.92,17.06,11.76v.87ZM1456.99,162.55v-8.42h45.31v24.47h-9.22v-16.05h-36.09ZM1459.24,138.22c0,2.69,3.56,4.36,8.06,4.36s8.06-1.67,8.06-4.36v-.65c0-2.76-3.49-4.43-8.06-4.43s-8.06,1.67-8.06,4.43v.65ZM1512.17,126.09v8.42h-9.88v15.9h-9.22v-40.38h9.22v16.05h9.88Z"/>
    <path class="cls-1" d="M1553.21,141.05c-3.05,6.1-9.22,9-16.34,9-10.24,0-18.45-5.96-18.45-18.66v-1.09c0-12.85,8.21-18.81,18.45-18.81,6.39,0,12.05,2.4,15.32,7.33h13.51v-8.79h9.29v50.18h-9.29v-19.17h-12.49ZM1527.72,131.32c0,7.26,4.14,10.6,9.15,10.6s9.08-3.34,9.08-10.6v-1.02c0-7.26-4.14-10.67-9.08-10.67s-9.15,3.41-9.15,10.67v1.02ZM1538.25,169.45h39.29v8.42h-48.58v-22.22h9.3v13.8ZM1565.7,126.24h-10.75c.22,1.23.29,2.61.29,4.07v1.09c0,.8,0,1.6-.07,2.32h10.53v-7.48Z"/>
    <path class="cls-1" d="M1648.92,145.12v8.42h-27.3v25.12h-9.29v-25.12h-27.3v-8.42h44.44c1.31-8.71,2.18-17.94,2.18-23.16h-39.72v-8.5h49.02v5.59c0,7.7-.8,17.07-2.18,26.07h10.17Z"/>
    <path class="cls-1" d="M1675,132.27c-3.63,4.43-8.86,8.28-15.83,11.84l-4.65-7.62c12.64-6.39,17.21-13.22,17.21-20.91v-3.78h9.08v3.78c0,3.27-.51,6.32-1.52,9.15l18.44,10.46-4.65,7.48-18.08-10.38ZM1675.94,170.46h38.85v7.77h-48.14v-19.75h36.74v-4.14h-37.11v-7.55h46.4v19.17h-36.74v4.5ZM1712.68,110.05v33.04h-9.29v-33.04h9.29Z"/>
    <path class="cls-1" d="M1039.69,226.61c2.29,5.44,6.93,8.59,13.06,8.59s9.85-2.29,9.85-6.47c0-3.84-2.46-5.67-6.93-6.93l-6.88-1.89c-6.19-1.72-12.72-5.16-12.72-13.29s6.99-13.18,16.1-13.18,14.96,5.1,17.48,11.23l-6.19,3.09c-2.06-4.35-5.79-7.62-11.29-7.62s-8.82,2.41-8.82,6.47,3.09,5.62,7.11,6.7l6.7,1.83c6.25,1.72,12.72,5.33,12.72,13.58s-7.56,13.18-17.13,13.18-16.33-4.58-19.31-12.2l6.25-3.09Z"/>
    <path class="cls-1" d="M1122.03,220.43v20.28h-4.12v-20.17c0-6.19-2.92-10.03-8.02-10.03s-8.48,4.18-8.48,10.31v19.88h-4.07v-20.17c0-6.25-2.86-10.03-8.02-10.03s-8.37,4.07-8.37,10.31v19.88h-4.18v-33.12h3.78l.29,4.87c1.89-3.44,5.16-5.73,9.45-5.73,4.7,0,8.25,2.69,9.97,7.05,1.89-4.18,5.67-7.05,10.54-7.05,6.76,0,11.23,5.5,11.23,13.69Z"/>
    <path class="cls-1" d="M1156.23,219.51v21.2h-3.72l-.29-4.58c-1.89,3.32-5.5,5.44-10.26,5.44h-2.23c-6.36,0-10.94-4.35-10.94-10.26s4.64-10.08,12.89-10.08h10.43v-1.43c0-5.62-3.15-9.22-9.11-9.22-4.3,0-7.39,2-9.11,5.21l-3.72-1.72c2.23-4.36,7.1-7.33,13.12-7.33,7.62,0,12.95,4.75,12.95,12.78ZM1142.54,237.73c4.64,0,9-2.87,9.57-7.39v-5.39h-10.14c-6.36,0-9.05,2.64-9.05,6.36,0,4.01,2.98,6.42,7.51,6.42h2.12Z"/>
    <path class="cls-1" d="M1181.67,207.42l-.97,3.72c-1.38-.34-2.81-.57-4.07-.57-4.76,0-7.79,4.87-7.79,10.48v19.65h-4.18v-33.12h3.84l.23,5.21c1.66-3.61,4.58-6.07,8.54-6.07,1.66,0,3.15.23,4.41.69Z"/>
    <path class="cls-1" d="M1205.22,239.79c-1.95,1.2-4.47,1.78-6.7,1.78-4.53,0-7.51-2.41-7.51-7.74v-22.4h-6.47v-3.84h6.47v-9.51h4.12v9.51h9.11v3.84h-9.11v22c0,3.61,1.55,4.35,3.84,4.35,1.89,0,3.32-.52,5.1-1.43l1.15,3.44Z"/>
    <path class="cls-1" d="M1261.14,227.7c0,8.77-5.96,13.35-15.93,13.35h-20.46v-46.75h18.22c9.91,0,15.93,4.58,15.93,13.12,0,3.9-1.72,7.33-6.19,9.22,5.9,1.95,8.42,5.96,8.42,11.06ZM1232.14,200.83v13.58h10.77c5.67,0,8.71-2.58,8.71-6.88s-3.04-6.7-8.71-6.7h-10.77ZM1245.15,234.52c5.67,0,8.71-2.46,8.71-6.99s-3.04-7.05-8.71-7.05h-13.01v14.04h13.01Z"/>
    <path class="cls-1" d="M1268.3,197.56c0-1.66,1.38-2.98,3.04-2.98s2.98,1.38,2.98,2.98-1.32,2.98-2.98,2.98-3.04-1.32-3.04-2.98ZM1269.27,240.71v-33.12h4.12v33.12h-4.12Z"/>
    <path class="cls-1" d="M1281.3,226.56v-4.87c0-9.74,7.16-14.95,15.01-14.95s15.07,5.21,15.07,14.95v4.87c0,9.8-7.11,15.01-15.07,15.01s-15.01-5.21-15.01-15.01ZM1307.26,226.38v-4.47c0-7.28-5.04-11.34-10.94-11.34s-10.83,4.07-10.83,11.34v4.47c0,7.28,4.98,11.4,10.83,11.4s10.94-4.13,10.94-11.4Z"/>
    <path class="cls-1" d="M1347.94,221.97v4.53c0,9.8-6.82,15.24-13.75,15.24-4.81,0-9.05-2.12-11.57-6.02v14.73h-4.18v-42.86h3.84l.29,5.27c2.52-3.95,6.82-6.13,11.63-6.13,6.93,0,13.75,5.5,13.75,15.24ZM1343.81,222.14c0-7.45-4.7-11.57-10.66-11.57s-10.54,4.12-10.54,11.57v4.24c0,7.39,4.64,11.57,10.54,11.57s10.66-4.18,10.66-11.57v-4.24Z"/>
    <path class="cls-1" d="M1382.77,220.37v20.34h-4.13v-20.11c0-6.25-2.98-10.14-9.23-10.14s-10.26,4.24-10.26,10.37v19.88h-4.18v-46.07h4.18v18.11c2.12-3.67,6.07-6.02,11.12-6.02,7.79,0,12.49,5.5,12.49,13.64Z"/>
    <path class="cls-1" d="M1389.82,226.56v-4.87c0-9.74,7.16-14.95,15.01-14.95s15.07,5.21,15.07,14.95v4.87c0,9.8-7.11,15.01-15.07,15.01s-15.01-5.21-15.01-15.01ZM1415.78,226.38v-4.47c0-7.28-5.04-11.34-10.94-11.34s-10.83,4.07-10.83,11.34v4.47c0,7.28,4.98,11.4,10.83,11.4s10.94-4.13,10.94-11.4Z"/>
    <path class="cls-1" d="M1444.88,239.79c-1.95,1.2-4.47,1.78-6.7,1.78-4.53,0-7.51-2.41-7.51-7.74v-22.4h-6.47v-3.84h6.47v-9.51h4.13v9.51h9.11v3.84h-9.11v22c0,3.61,1.55,4.35,3.84,4.35,1.89,0,3.32-.52,5.1-1.43l1.15,3.44Z"/>
    <path class="cls-1" d="M1448.6,226.56v-4.87c0-9.74,7.16-14.95,15.01-14.95s15.07,5.21,15.07,14.95v4.87c0,9.8-7.11,15.01-15.07,15.01s-15.01-5.21-15.01-15.01ZM1474.56,226.38v-4.47c0-7.28-5.04-11.34-10.94-11.34s-10.83,4.07-10.83,11.34v4.47c0,7.28,4.98,11.4,10.83,11.4s10.94-4.13,10.94-11.4Z"/>
    <path class="cls-1" d="M1514.38,220.43v20.28h-4.12v-20.05c0-6.19-2.98-10.08-9.28-10.08-5.96,0-10.2,4.24-10.2,10.26v19.88h-4.18v-33.12h3.78l.34,5.27c2.12-3.72,6.02-6.13,11.12-6.13,7.85,0,12.55,5.5,12.55,13.69Z"/>
    <path class="cls-1" d="M1522.86,197.56c0-1.66,1.38-2.98,3.04-2.98s2.98,1.38,2.98,2.98-1.32,2.98-2.98,2.98-3.04-1.32-3.04-2.98ZM1523.83,240.71v-33.12h4.12v33.12h-4.12Z"/>
    <path class="cls-1" d="M1535.86,226.61v-4.93c0-9.74,7.16-14.95,15.01-14.95,5.96,0,11.29,2.98,13.64,8.65l-3.84,1.55c-1.83-4.18-5.39-6.36-9.8-6.36-5.96,0-10.83,4.07-10.83,11.34v4.47c0,7.28,4.87,11.4,10.83,11.4,4.41,0,7.96-2.18,9.8-6.42l3.84,1.55c-2.35,5.67-7.68,8.65-13.64,8.65-7.85,0-15.01-5.21-15.01-14.95Z"/>
    <path class="cls-1" d="M1572.82,231.03c2.46,4.7,6.36,6.93,11.17,6.93s8.48-1.83,8.48-5.39-2.75-4.87-6.76-6.07l-4.53-1.32c-5.27-1.55-9.45-4.01-9.45-9.57s4.99-8.88,11.34-8.88,10.6,2.86,13.24,7.68l-3.21,2.12c-2.18-3.78-5.62-6.19-10.08-6.19s-7.28,2.12-7.28,5.27,2.23,4.7,6.13,5.9l4.53,1.32c5.27,1.55,10.09,3.9,10.09,9.74s-5.84,9-12.55,9-11.63-2.87-14.44-8.48l3.32-2.06Z"/>
    <path class="cls-1" d="M1625.3,234.52h21.37v6.53h-28.76v-46.75h7.39v40.22Z"/>
    <path class="cls-1" d="M1678.41,219.51v21.2h-3.72l-.29-4.58c-1.89,3.32-5.5,5.44-10.26,5.44h-2.24c-6.36,0-10.94-4.35-10.94-10.26s4.64-10.08,12.89-10.08h10.43v-1.43c0-5.62-3.15-9.22-9.11-9.22-4.3,0-7.39,2-9.11,5.21l-3.72-1.72c2.23-4.36,7.1-7.33,13.12-7.33,7.62,0,12.95,4.75,12.95,12.78ZM1664.72,237.73c4.64,0,9-2.87,9.57-7.39v-5.39h-10.14c-6.36,0-9.05,2.64-9.05,6.36,0,4.01,2.98,6.42,7.51,6.42h2.12Z"/>
    <path class="cls-1" d="M1716.34,221.86v4.58c0,9.68-6.7,15.13-13.75,15.13-4.87,0-9.11-2.12-11.63-6.07l-.29,5.21h-3.84v-46.07h4.18v18.05c2.52-3.9,6.76-5.96,11.57-5.96,7.05,0,13.75,5.44,13.75,15.13ZM1712.22,222.03c0-7.33-4.7-11.46-10.66-11.46s-10.54,4.12-10.54,11.46v4.24c0,7.33,4.7,11.52,10.54,11.52s10.66-4.18,10.66-11.52v-4.24Z"/>
    <path class="cls-1" d="M1722.65,238.36c0-1.78,1.38-3.15,3.15-3.15s3.21,1.38,3.21,3.15-1.43,3.21-3.21,3.21-3.15-1.43-3.15-3.21Z"/>
  </g>
  <line class="cls-2" x1="989.62" y1="109.41" x2="989.62" y2="250.41"/>
  <g>
    <g>
      <path class="cls-1" d="M262.89,324.12c-.39-.41-.72-1.09-.72-1.84,0-1.43,1.18-2.65,2.57-2.65.86,0,1.45.48,1.84.95,2.5,3.54,5.2,5.37,9.48,5.37,5.2,0,9.02-3.88,9.02-11.43v-29.52c0-1.5,1.18-2.72,2.63-2.72s2.57,1.22,2.57,2.72v29.45c0,5.58-1.58,9.8-4.21,12.52-2.57,2.58-6.05,3.95-10.14,3.95-6.05,0-10.2-2.86-13.03-6.8Z"/>
      <path class="cls-1" d="M299.55,327.52v-42.18c0-1.5,1.18-2.72,2.56-2.72h28.64c1.32,0,2.37,1.09,2.37,2.45s-1.06,2.45-2.37,2.45h-26v16.26h23.04c1.32,0,2.37,1.15,2.37,2.45,0,1.36-1.05,2.45-2.37,2.45h-23.04v16.67h26.34c1.32,0,2.37,1.09,2.37,2.45s-1.05,2.45-2.37,2.45h-28.97c-1.38,0-2.56-1.22-2.56-2.72Z"/>
      <path class="cls-1" d="M338.57,306.57v-.14c0-13.13,9.55-24.63,23.57-24.63s23.44,11.36,23.44,24.49v.14c0,13.13-9.55,24.62-23.57,24.62s-23.44-11.36-23.44-24.49ZM380.18,306.57v-.14c0-10.82-7.64-19.66-18.17-19.66s-18.04,8.71-18.04,19.52v.14c0,10.82,7.63,19.66,18.17,19.66s18.04-8.71,18.04-19.52Z"/>
      <path class="cls-1" d="M393.53,285.07c0-1.43,1.18-2.65,2.56-2.65h.73c1.18,0,1.91.61,2.63,1.56l27.98,36.87v-35.92c0-1.43,1.12-2.65,2.57-2.65s2.5,1.22,2.5,2.65v42.99c0,1.43-.99,2.52-2.37,2.52h-.27c-1.12,0-1.91-.68-2.7-1.63l-28.57-37.75v36.87c0,1.43-1.12,2.65-2.56,2.65s-2.5-1.22-2.5-2.65v-42.85Z"/>
      <path class="cls-1" d="M442.49,285.34c0-1.5,1.18-2.72,2.56-2.72h17.05c5.27,0,9.42,1.56,12.05,4.22,1.91,2.04,2.96,4.56,2.96,7.62v.14c0,6.19-3.69,9.39-7.31,11.02,5.46,1.7,9.87,4.97,9.87,11.5v.14c0,8.16-6.65,12.99-16.72,12.99h-17.91c-1.38,0-2.56-1.22-2.56-2.72v-42.18ZM461.25,303.85c6.25,0,10.6-2.92,10.6-8.5v-.14c0-4.69-3.62-7.75-10.2-7.75h-14.02v16.39h13.63ZM463.09,325.41c6.98,0,11.32-3.2,11.32-8.5v-.14c0-5.17-4.21-8.16-12.25-8.16h-14.55v16.8h15.47Z"/>
      <path class="cls-1" d="M486.25,310.31v-25.31c0-1.5,1.18-2.72,2.57-2.72s2.63,1.22,2.63,2.72v24.96c0,10.27,5.33,16.05,14.09,16.05s13.89-5.31,13.89-15.71v-25.31c0-1.5,1.18-2.72,2.63-2.72s2.57,1.22,2.57,2.72v24.9c0,13.88-7.7,21.09-19.22,21.09s-19.16-7.21-19.16-20.68Z"/>
      <path class="cls-1" d="M533.89,285c0-1.5,1.18-2.72,2.56-2.72,1.45,0,2.63,1.22,2.63,2.72v26.05l26.27-27.82c.59-.54,1.18-.95,2.04-.95,1.38,0,2.5,1.29,2.5,2.65,0,.75-.33,1.36-.86,1.91l-16.33,16.73,17.51,22.31c.46.61.73,1.16.73,1.97,0,1.43-1.19,2.72-2.63,2.72-.99,0-1.65-.54-2.11-1.22l-17.18-22.11-9.94,10.27v10.34c0,1.5-1.18,2.72-2.63,2.72s-2.56-1.22-2.56-2.72v-42.85Z"/>
      <path class="cls-1" d="M592.39,285.07c0-1.43,1.18-2.65,2.56-2.65h.73c1.18,0,1.91.61,2.63,1.56l27.98,36.87v-35.92c0-1.43,1.12-2.65,2.57-2.65s2.5,1.22,2.5,2.65v42.99c0,1.43-.99,2.52-2.37,2.52h-.27c-1.12,0-1.91-.68-2.7-1.63l-28.57-37.75v36.87c0,1.43-1.12,2.65-2.56,2.65s-2.5-1.22-2.5-2.65v-42.85Z"/>
      <path class="cls-1" d="M638.52,326.7l18.7-42.24c.66-1.5,1.65-2.38,3.29-2.38h.26c1.58,0,2.63.89,3.23,2.38l18.69,42.18c.2.48.33.95.33,1.36,0,1.43-1.12,2.58-2.5,2.58-1.25,0-2.11-.88-2.57-1.97l-4.81-10.95h-25.28l-4.81,11.09c-.46,1.16-1.31,1.84-2.5,1.84-1.31,0-2.37-1.09-2.37-2.45,0-.41.07-.88.33-1.43ZM671.11,312.76l-10.6-24.35-10.6,24.35h21.2Z"/>
      <path class="cls-1" d="M696.44,287.59h-13.37c-1.32,0-2.43-1.09-2.43-2.45s1.12-2.52,2.43-2.52h31.99c1.32,0,2.44,1.15,2.44,2.52s-1.12,2.45-2.44,2.45h-13.36v40.27c0,1.5-1.18,2.72-2.63,2.72s-2.63-1.22-2.63-2.72v-40.27Z"/>
      <path class="cls-1" d="M724.34,285c0-1.5,1.19-2.72,2.57-2.72,1.45,0,2.63,1.22,2.63,2.72v42.85c0,1.5-1.18,2.72-2.63,2.72s-2.57-1.22-2.57-2.72v-42.85Z"/>
      <path class="cls-1" d="M737.96,306.57v-.14c0-13.13,9.55-24.63,23.57-24.63s23.44,11.36,23.44,24.49v.14c0,13.13-9.55,24.62-23.57,24.62s-23.44-11.36-23.44-24.49ZM779.57,306.57v-.14c0-10.82-7.64-19.66-18.17-19.66s-18.04,8.71-18.04,19.52v.14c0,10.82,7.63,19.66,18.17,19.66s18.04-8.71,18.04-19.52Z"/>
      <path class="cls-1" d="M792.91,285.07c0-1.43,1.18-2.65,2.56-2.65h.73c1.18,0,1.91.61,2.63,1.56l27.98,36.87v-35.92c0-1.43,1.12-2.65,2.57-2.65s2.5,1.22,2.5,2.65v42.99c0,1.43-.99,2.52-2.37,2.52h-.27c-1.12,0-1.91-.68-2.7-1.63l-28.57-37.75v36.87c0,1.43-1.12,2.65-2.57,2.65s-2.5-1.22-2.5-2.65v-42.85Z"/>
      <path class="cls-1" d="M839.04,326.7l18.7-42.24c.66-1.5,1.65-2.38,3.29-2.38h.26c1.58,0,2.63.89,3.23,2.38l18.69,42.18c.2.48.33.95.33,1.36,0,1.43-1.12,2.58-2.5,2.58-1.25,0-2.11-.88-2.57-1.97l-4.81-10.95h-25.28l-4.81,11.09c-.46,1.16-1.31,1.84-2.5,1.84-1.31,0-2.37-1.09-2.37-2.45,0-.41.07-.88.33-1.43ZM871.63,312.76l-10.6-24.35-10.6,24.35h21.2Z"/>
      <path class="cls-1" d="M890.44,285c0-1.5,1.18-2.72,2.56-2.72,1.45,0,2.63,1.22,2.63,2.72v40.27h23.9c1.32,0,2.37,1.16,2.37,2.52s-1.06,2.45-2.37,2.45h-26.53c-1.38,0-2.56-1.22-2.56-2.72v-42.52Z"/>
      <path class="cls-1" d="M266.82,378.31v-25.31c0-1.5,1.18-2.72,2.57-2.72s2.63,1.23,2.63,2.72v24.96c0,10.27,5.33,16.05,14.09,16.05s13.89-5.31,13.89-15.71v-25.31c0-1.5,1.19-2.72,2.63-2.72s2.57,1.23,2.57,2.72v24.9c0,13.88-7.7,21.09-19.22,21.09s-19.16-7.21-19.16-20.68Z"/>
      <path class="cls-1" d="M314.34,353.08c0-1.43,1.18-2.65,2.56-2.65h.73c1.18,0,1.91.61,2.63,1.56l27.98,36.87v-35.92c0-1.43,1.12-2.65,2.57-2.65s2.5,1.23,2.5,2.65v42.99c0,1.43-.99,2.52-2.37,2.52h-.27c-1.12,0-1.91-.68-2.7-1.63l-28.57-37.75v36.87c0,1.43-1.12,2.65-2.57,2.65s-2.5-1.22-2.5-2.65v-42.85Z"/>
      <path class="cls-1" d="M363.63,353.01c0-1.5,1.19-2.72,2.57-2.72,1.45,0,2.63,1.23,2.63,2.72v42.85c0,1.5-1.18,2.72-2.63,2.72s-2.57-1.22-2.57-2.72v-42.85Z"/>
      <path class="cls-1" d="M393.97,396.54l-17.77-42.38c-.2-.41-.27-.75-.27-1.22,0-1.36,1.18-2.65,2.63-2.65,1.32,0,2.24.88,2.7,2.04l15.93,39.45,16-39.59c.46-.95,1.38-1.91,2.57-1.91,1.45,0,2.57,1.23,2.57,2.58,0,.41-.07.75-.2,1.09l-17.84,42.58c-.59,1.36-1.51,2.25-3.03,2.25h-.27c-1.51,0-2.5-.88-3.03-2.25Z"/>
      <path class="cls-1" d="M424.96,395.52v-42.18c0-1.5,1.18-2.72,2.56-2.72h28.64c1.32,0,2.37,1.09,2.37,2.45s-1.06,2.45-2.37,2.45h-26v16.26h23.04c1.31,0,2.37,1.15,2.37,2.45,0,1.36-1.05,2.45-2.37,2.45h-23.04v16.67h26.34c1.32,0,2.37,1.09,2.37,2.45s-1.05,2.45-2.37,2.45h-28.97c-1.38,0-2.56-1.22-2.56-2.72Z"/>
      <path class="cls-1" d="M465.89,353.35c0-1.5,1.18-2.72,2.56-2.72h17.25c5.66,0,10.21,1.77,13.1,4.76,2.24,2.31,3.56,5.64,3.56,9.39v.13c0,7.82-5.14,12.38-12.31,13.81l11.46,15.24c.53.61.86,1.22.86,1.97,0,1.43-1.32,2.65-2.63,2.65-1.05,0-1.84-.61-2.43-1.43l-12.97-17.41h-13.23v16.12c0,1.5-1.18,2.72-2.63,2.72s-2.56-1.22-2.56-2.72v-42.52ZM485.25,374.91c6.91,0,11.85-3.67,11.85-9.8v-.14c0-5.85-4.34-9.39-11.78-9.39h-14.22v19.32h14.16Z"/>
      <path class="cls-1" d="M508.66,392.53c-.59-.41-.99-1.15-.99-2.04,0-1.5,1.12-2.65,2.5-2.65.66,0,1.25.27,1.58.61,4.35,3.81,8.69,5.65,14.55,5.65,6.19,0,10.27-3.4,10.27-8.1v-.13c0-4.42-2.3-6.94-11.98-9.05-10.6-2.38-15.47-5.92-15.47-13.74v-.14c0-7.48,6.39-12.99,15.14-12.99,6.06,0,10.47,1.56,14.68,4.69.52.41,1.12,1.16,1.12,2.18,0,1.43-1.12,2.58-2.5,2.58-.59,0-1.05-.14-1.52-.48-3.88-2.92-7.63-4.15-11.91-4.15-5.99,0-9.81,3.4-9.81,7.69v.14c0,4.49,2.37,7.01,12.51,9.25,10.27,2.31,15.01,6.19,15.01,13.47v.14c0,8.16-6.59,13.47-15.74,13.47-6.71,0-12.31-2.18-17.45-6.4Z"/>
      <path class="cls-1" d="M549.73,353.01c0-1.5,1.19-2.72,2.57-2.72,1.45,0,2.63,1.23,2.63,2.72v42.85c0,1.5-1.18,2.72-2.63,2.72s-2.57-1.22-2.57-2.72v-42.85Z"/>
      <path class="cls-1" d="M577.44,355.59h-13.37c-1.32,0-2.43-1.09-2.43-2.45s1.12-2.52,2.43-2.52h31.99c1.32,0,2.44,1.15,2.44,2.52s-1.12,2.45-2.44,2.45h-13.36v40.27c0,1.5-1.18,2.72-2.63,2.72s-2.63-1.22-2.63-2.72v-40.27Z"/>
      <path class="cls-1" d="M618.9,379.54l-17.12-24.76c-.33-.54-.59-1.16-.59-1.84,0-1.43,1.25-2.65,2.7-2.65,1.12,0,1.84.68,2.5,1.63l15.21,22.65,15.34-22.65c.66-.95,1.32-1.63,2.44-1.63,1.45,0,2.57,1.23,2.57,2.65,0,.68-.39,1.43-.72,1.97l-17.05,24.49v16.46c0,1.5-1.18,2.72-2.63,2.72s-2.63-1.22-2.63-2.72v-16.33Z"/>
    </g>
    <path class="cls-1" d="M190.47,43.88h-123.68c-5.24,0-9.52,4.29-9.52,9.52s4.28,9.53,9.52,9.53h123.68c5.23,0,9.51-4.29,9.51-9.53s-4.28-9.52-9.51-9.52ZM134.08,85.2c-1.49-2.14-3.47-3.22-5.45-3.22s-3.95,1.07-5.46,3.22l-60.44,86.41c-3,4.29-1.96,10.26,2.33,13.27,4.29,3,10.24,1.95,13.25-2.35l50.32-71.93,50.31,71.93c3,4.3,8.96,5.35,13.25,2.35,4.28-3.01,5.33-8.98,2.33-13.27l-60.45-86.41Z"/>
    <g>
      <g>
        <path class="cls-1" d="M817.39,121.7h94.67c.99,10.5,1.94,36.34-4.52,83.53-.47,3.4,1.92,6.54,5.38,7.02.26.03.53.05.79.05,3.09,0,5.74-2.31,6.16-5.38,9.01-65.66,3.99-91.63,3.77-92.71-.59-2.88-3.15-4.97-6.1-4.97h-100.15c-3.42,0-6.22,2.79-6.22,6.22s2.8,6.23,6.22,6.23Z"/>
        <path class="cls-1" d="M927.7,226.86h-41.14v-59.14c0-3.43-2.79-6.22-6.23-6.22s-6.23,2.79-6.23,6.22v59.14h-29v-59.14c0-3.43-2.8-6.22-6.23-6.22s-6.23,2.79-6.23,6.22v59.14h-30.17c-3.43,0-6.22,2.8-6.22,6.23s2.79,6.23,6.22,6.23h125.23c3.44,0,6.23-2.8,6.23-6.23s-2.79-6.23-6.23-6.23Z"/>
      </g>
      <g>
        <path class="cls-1" d="M773.92,194.12c3.44,0,6.23-2.8,6.23-6.23v-30.74h16.45c3.44,0,6.23-2.79,6.23-6.23s-2.79-6.22-6.23-6.22h-16.45v-35.23c0-3.43-2.8-6.23-6.23-6.23s-6.22,2.79-6.22,6.23v78.41c0,3.43,2.8,6.23,6.22,6.23Z"/>
        <path class="cls-1" d="M750.15,117.3c0-3.43-2.79-6.23-6.22-6.23h-30.28v-10.44c0-3.43-2.79-6.22-6.23-6.22s-6.23,2.8-6.23,6.22v10.44h-30.27c-3.44,0-6.23,2.8-6.23,6.23s2.79,6.22,6.23,6.22h73.01c3.43,0,6.22-2.79,6.22-6.22Z"/>
        <path class="cls-1" d="M675.38,163.83c0,17.66,14.37,32.04,32.04,32.04s32.04-14.37,32.04-32.04-14.38-32.04-32.04-32.04-32.04,14.37-32.04,32.04ZM727.01,163.83c0,10.8-8.78,19.59-19.58,19.59s-19.59-8.79-19.59-19.59,8.79-19.58,19.59-19.58,19.58,8.78,19.58,19.58Z"/>
        <path class="cls-1" d="M774.32,207.46h-94.17c-3.44,0-6.22,2.79-6.22,6.22s2.79,6.23,6.22,6.23h87.95v24.88c0,3.43,2.79,6.22,6.23,6.22s6.22-2.79,6.22-6.22v-31.11c0-3.43-2.8-6.22-6.22-6.22Z"/>
      </g>
      <g>
        <path class="cls-1" d="M319.59,119.22c3.43,0,6.23-2.79,6.23-6.22s-2.8-6.23-6.23-6.23h-72.22c-3.43,0-6.23,2.79-6.23,6.23s2.8,6.22,6.23,6.22h72.22Z"/>
        <path class="cls-1" d="M322.45,182.23l-32.7-53.53c-1.12-1.84-3.16-2.99-5.32-2.99s-4.19,1.15-5.31,2.99l-32.69,53.53c-1.79,2.93-.85,6.77,2.07,8.55.97.6,2.1.92,3.24.92,2.19,0,4.18-1.12,5.32-2.99l27.37-44.82,27.39,44.82c1.12,1.84,3.16,2.98,5.32,2.98,1.13,0,2.26-.31,3.24-.91,2.93-1.78,3.86-5.62,2.07-8.55Z"/>
        <path class="cls-1" d="M356.02,233.87h-81.64v-27.15c0-3.43-2.8-6.23-6.23-6.23s-6.23,2.8-6.23,6.23v33.37c0,3.43,2.79,6.22,6.23,6.22h87.87c3.44,0,6.23-2.79,6.23-6.22s-2.79-6.23-6.23-6.23Z"/>
        <path class="cls-1" d="M356.88,103.51c-3.43,0-6.23,2.79-6.23,6.22v25.78h-31.14c-3.44,0-6.23,2.79-6.23,6.22s2.79,6.22,6.23,6.22h31.14v60.41c0,3.44,2.8,6.23,6.23,6.23s6.22-2.79,6.22-6.23v-98.63c0-3.44-2.8-6.22-6.22-6.22Z"/>
      </g>
      <g>
        <path class="cls-1" d="M500.94,112.27c0-3.43-2.79-6.22-6.22-6.22s-6.23,2.79-6.23,6.22v14.89h-83.93v-14.89c0-3.43-2.79-6.22-6.22-6.22s-6.23,2.79-6.23,6.22v54.02h108.83v-54.02ZM488.5,153.84h-83.93v-14.23h83.93v14.23Z"/>
        <path class="cls-1" d="M506.77,177.86h-120.7c-3.43,0-6.22,2.79-6.22,6.23s2.79,6.22,6.22,6.22h53.27v14.02h-44.61c-3.43,0-6.22,2.8-6.22,6.23s2.79,6.22,6.22,6.22h94.69v27.95c0,3.44,2.8,6.22,6.23,6.22s6.23-2.79,6.23-6.22v-34.17c0-3.43-2.79-6.23-6.23-6.23h-43.87v-14.02h54.98c3.43,0,6.23-2.79,6.23-6.22s-2.8-6.23-6.23-6.23Z"/>
      </g>
      <g>
        <path class="cls-1" d="M582.11,211.63c-.37,0-.75.03-1.13.1-18.43,3.39-31.22,4.11-38.72,4.11-.68,0-1.32,0-1.91-.02v-96.23h37.45c3.44,0,6.23-2.79,6.23-6.22s-2.79-6.22-6.23-6.22h-43.67c-3.43,0-6.22,2.79-6.22,6.22v108.33c0,3.09,2.31,5.74,5.36,6.16.12.02,3.09.43,9.04.43,7.94,0,21.49-.75,40.92-4.32,3.38-.62,5.61-3.87,5-7.25-.54-2.96-3.12-5.1-6.12-5.1Z"/>
        <path class="cls-1" d="M641.29,103.63c-3.44,0-6.23,2.8-6.23,6.23v52.83h-24.14v-52.83c0-3.43-2.8-6.23-6.23-6.23s-6.23,2.8-6.23,6.23v131.4c0,3.44,2.79,6.23,6.23,6.23s6.23-2.79,6.23-6.23v-66.13h24.14v67.69c0,3.44,2.79,6.22,6.23,6.22s6.23-2.79,6.23-6.22V109.87c0-3.43-2.8-6.23-6.23-6.23Z"/>
      </g>
    </g>
  </g>
</svg>