<?xml version="1.0" encoding="UTF-8"?>
<svg id="Layer_1" data-name="Layer 1" xmlns="http://www.w3.org/2000/svg" viewBox="0 0 362.83 500.83">
  <defs>
    <style>
      .cls-1 {
        fill: #144e8c;
      }

      .cls-2 {
        fill: none;
        stroke: #666563;
        stroke-linecap: round;
        stroke-linejoin: round;
        stroke-width: 2px;
      }

      .cls-3 {
        fill: #666563;
      }
    </style>
  </defs>
  <g>
    <g>
      <g>
        <polygon class="cls-1" points="164.67 95.63 174.17 95.63 174.17 21.49 167.32 26.79 164.67 95.63"/>
        <polygon class="cls-1" points="156.24 35.37 151.62 95.63 161.11 95.63 163.65 29.63 156.24 35.37"/>
        <polygon class="cls-1" points="144.41 44.53 138.56 95.63 148.06 95.63 152.44 38.31 144.41 44.53"/>
      </g>
      <g>
        <polygon class="cls-1" points="197.9 95.63 188.41 95.63 188.41 21.49 195.26 26.79 197.9 95.63"/>
        <polygon class="cls-1" points="206.34 35.37 210.96 95.63 201.46 95.63 198.93 29.63 206.34 35.37"/>
        <polygon class="cls-1" points="218.17 44.53 224.01 95.63 214.52 95.63 210.13 38.31 218.17 44.53"/>
      </g>
      <g>
        <path class="cls-1" d="M231.14,100.37h-47.47v13.74c4.07-1.77,8.42-2.68,13.01-2.68,6.97,0,11.96,2.11,12.17,2.2l1.32.57.22,1.42,4.42,28.18.61,3.88-3.81-.95c-2.8-.7-5.67-1.06-8.52-1.06-11.83,0-20.16,6.08-20.23,6.14l-1.56,1.16-1.56-1.16c-.08-.06-8.41-6.14-20.24-6.14-2.86,0-5.72.35-8.52,1.06l-3.81.95.61-3.88,4.42-28.18.22-1.42,1.32-.57c.21-.09,5.2-2.2,12.17-2.2,4.59,0,8.95.91,13.02,2.68v-13.74h-53.41v15.23h5.93v18.64h0c0,15.81,5.63,30.29,14.98,41.59-4.09,2.06-8.55,3.52-13.25,4.22,2.91,4.03,6.19,7.77,9.8,11.17,4.67-1.39,9.09-3.38,13.18-5.86,6.66,5.29,14.37,9.3,22.77,11.68v-13.69c-12.96-4.7-23.5-14.4-29.37-26.76,2.56-.64,5.24-.98,8-.98,9.3,0,17.71,3.83,23.74,9.98,6.03-6.16,14.44-9.98,23.74-9.98,2.76,0,5.44.34,8,.98-5.86,12.36-16.41,22.06-29.37,26.76v13.69c8.4-2.38,16.11-6.39,22.77-11.68,4.09,2.48,8.5,4.46,13.18,5.86,3.61-3.4,6.89-7.14,9.8-11.17-4.7-.7-9.16-2.15-13.25-4.22,9.35-11.29,14.98-25.78,14.98-41.59v-18.64h5.93v-15.23h-5.93Z"/>
        <path class="cls-1" d="M207.82,116.03s-13.26-5.7-26.53,2.21c-13.26-7.91-26.53-2.21-26.53-2.21l-4.42,28.18c17.69-4.42,30.95,5.53,30.95,5.53,0,0,13.26-9.95,30.95-5.53l-4.42-28.18Z"/>
      </g>
    </g>
    <g>
      <path class="cls-1" d="M337.86,285.08l-7.84-.21s2.78-12.85,2.66-29.12h-40.55v-7.33h44.22c2.26.16,4.02,1.71,4.22,3.69,0,0,.15,18.92-2.72,32.97"/>
      <path class="cls-1" d="M179.22,291.39v-7.36c-5.68,1.01-19.98.76-19.98.76v-26.54h18.33v-7.33h-22.39s0,0-.01,0,0,0-.01,0c-2.23,0-4.03,1.81-4.03,4.04v33.12c0,2.23,1.81,4.04,4.04,4.04,0,0,18.34.36,24.05-.73"/>
      <path class="cls-1" d="M236.97,258.86c-10.81,0-17.95,5.66-17.95,12.82s7.05,12.82,17.95,12.82,17.95-5.66,17.95-12.82-7.05-12.82-17.95-12.82M243.33,275.68c-1.6.95-3.72,1.43-6.3,1.43s-4.6-.48-6.3-1.43c-1.67-.93-2.52-2.29-2.52-4.03s.85-3.01,2.52-3.95c1.69-.95,3.81-1.43,6.29-1.43s4.63.47,6.26,1.39c1.6.91,2.41,2.25,2.41,3.99s-.8,3.1-2.37,4.03"/>
      <polygon class="cls-1" points="47.81 267.87 62.56 267.87 62.56 285.46 70.68 285.46 70.68 243.21 62.56 243.21 62.56 260.54 47.81 260.54 47.81 267.87"/>
      <polygon class="cls-1" points="199.09 266.22 192.17 266.22 192.17 244.81 184.05 244.81 184.05 306.12 192.17 303.64 192.17 273.55 199.09 273.55 199.09 309.38 207.2 306.44 207.2 244.1 199.09 244.1 199.09 266.22"/>
      <polygon class="cls-1" points="240.65 249.16 240.65 241.65 232.89 241.65 232.89 249.16 216.47 249.16 216.47 256.02 257.46 256.02 257.46 249.16 240.65 249.16"/>
      <polygon class="cls-1" points="272.1 243.52 263.98 243.52 263.98 283.57 272.1 283.57 272.1 270.68 283.34 270.68 283.34 263.35 272.1 263.35 272.1 243.52"/>
      <polygon class="cls-1" points="323.88 294.11 323.88 270.19 315.76 270.19 315.76 294.11 307.7 294.11 307.7 270.19 299.58 270.19 299.58 294.11 285.69 294.11 285.69 301.44 345.5 301.44 348.72 294.11 323.88 294.11"/>
      <path class="cls-1" d="M93.3,269.73h34.84c2.52,0,4.58-1.06,4.58-3.31v-22.79h-8.12v7.73h-27.77v-7.73h-8.12v22.79c0,2.25,2.05,3.31,4.59,3.31M96.82,257.7h27.77v5.47h-27.77v-5.47Z"/>
      <path class="cls-1" d="M35.01,299.75v-12.24h-8.12v15.49c0,2.25,2.05,4.08,4.59,4.08h36.23l4.29-7.33h-36.99Z"/>
      <path class="cls-1" d="M142.94,281.04v-6.55h-63.51v6.55h27.66v5.33h-19.98v6.55h39.3v16.96l8.12-2.37v-17.09c0-2.24-2.11-4.06-4.35-4.06h-14.98v-5.33h27.73Z"/>
      <path class="cls-1" d="M37.6,254.28h12.2v-7.33H17.46v7.33h12.16c-.3,16.75-14.55,23.23-15.6,24.03l6.28,5.4c2.3-.73,10.48-6.68,13.22-15.33h.41c2.76,9.85,13.4,14.49,13.4,14.49l5.8-5.8s-16.13-6.8-15.54-22.78Z"/>
      <path class="cls-1" d="M272.14,292.49c0-2.24-2.08-4.06-4.32-4.06h-41.67v7.33h37.87v13.82l8.12-2.14v-14.95Z"/>
    </g>
    <g>
      <g>
        <g>
          <polygon class="cls-1" points="32.95 328.04 37.88 328.04 37.88 325.58 32.95 325.58 32.95 322.8 38.18 322.8 38.18 320.31 29.91 320.31 29.91 333.71 37.21 333.71 38.46 331.23 32.95 331.23 32.95 328.04"/>
          <path class="cls-1" d="M47.81,320.09c-3.96,0-6.52,3-6.52,7.02s2.33,6.82,6.3,6.82,6.58-2.66,6.58-7.06c0-3.7-2.25-6.78-6.36-6.78M47.76,331.52c-2.03,0-3.26-1.85-3.26-4.47s1.19-4.55,3.24-4.55,3.24,2.07,3.24,4.47c0,2.6-1.17,4.55-3.22,4.55"/>
          <path class="cls-1" d="M80.07,326.49v-.04c1.51-.56,2.21-1.67,2.21-2.86s-.68-2.13-1.61-2.63c-.97-.57-2.11-.75-3.96-.75-1.51,0-3.12.12-3.91.28v13.16c.68.1,1.79.2,3.28.2,2.66,0,4.29-.44,5.27-1.21.83-.68,1.39-1.63,1.39-2.84,0-1.73-1.13-2.88-2.66-3.3M75.8,322.5c.26-.04.64-.08,1.29-.08,1.37,0,2.15.54,2.15,1.55s-.85,1.65-2.44,1.65h-.99v-3.12ZM76.97,331.6c-.52,0-.87,0-1.17-.04v-3.78h1.03c1.51,0,2.72.54,2.72,1.89s-1.21,1.93-2.58,1.93"/>
          <path class="cls-1" d="M93.91,328.02c0,2.37-.87,3.48-2.47,3.48s-2.43-1.17-2.43-3.48v-7.71h-3.04v7.48c0,4.28,1.99,6.14,5.37,6.14s5.59-1.97,5.59-6.1v-7.51h-3.02v7.71Z"/>
          <path class="cls-1" d="M111.49,320.31h-3.72l-3.04,4.45c-.3.48-.62.95-.91,1.47h-.06v-5.92h-3v13.4h3v-4.37l1.15-1.41,3.28,5.79h3.54l-4.67-7.69,4.43-5.71Z"/>
          <rect class="cls-1" x="160.37" y="320.28" width="3.04" height="13.42"/>
          <path class="cls-1" d="M173.14,320.09c-3.96,0-6.52,3-6.52,7.02s2.32,6.82,6.3,6.82,6.58-2.66,6.58-7.06c0-3.7-2.25-6.78-6.36-6.78M173.08,331.52c-2.03,0-3.26-1.85-3.26-4.47s1.19-4.55,3.24-4.55,3.24,2.07,3.24,4.47c0,2.6-1.17,4.55-3.22,4.55"/>
          <polygon class="cls-1" points="214.84 320.29 211.8 320.29 211.8 333.71 218.92 333.71 220.17 331.17 214.84 331.17 214.84 320.29"/>
          <path class="cls-1" d="M235.62,327.99c0,2.37-.88,3.48-2.47,3.48s-2.43-1.17-2.43-3.48v-7.71h-3.04v7.48c0,4.28,1.99,6.14,5.37,6.14s5.59-1.97,5.59-6.1v-7.51h-3.02v7.71Z"/>
          <rect class="cls-1" x="257.77" y="320.28" width="3.04" height="13.42"/>
          <path class="cls-1" d="M271.29,326.04c-.46,1.53-.88,3.12-1.21,4.73h-.06c-.32-1.67-.73-3.2-1.19-4.79l-1.63-5.69h-3.32l4.29,13.43h3.54l4.51-13.43h-3.22l-1.71,5.75Z"/>
          <polygon class="cls-1" points="282.15 328.12 287.08 328.12 287.08 325.66 282.15 325.66 282.15 322.8 287.38 322.8 287.38 320.28 279.11 320.28 279.11 333.71 286.41 333.71 287.66 331.23 282.15 331.23 282.15 328.12"/>
          <path class="cls-1" d="M298.55,327.43v-.06c1.15-.42,2.36-1.59,2.36-3.3,0-1.23-.44-2.17-1.23-2.8-.95-.76-2.34-1.05-4.33-1.05-1.61,0-3.06.12-4.04.28v13.22h3v-5.27h.91c1.23.02,1.81.48,2.17,2.15.4,1.65.72,2.74.94,3.12h3.1c-.26-.52-.68-2.27-1.09-3.78-.34-1.23-.85-2.13-1.79-2.5M295.51,326.26h-1.19v-3.7c.22-.04.64-.1,1.37-.1,1.39.02,2.23.64,2.23,1.87s-.89,1.93-2.4,1.93"/>
          <rect class="cls-1" x="315.74" y="320.31" width="3.04" height="13.4"/>
          <polygon class="cls-1" points="321.64 322.86 325.24 322.86 325.24 333.71 328.28 333.71 328.28 322.86 330.69 322.86 331.94 320.31 321.64 320.31 321.64 322.86"/>
          <polygon class="cls-1" points="147.42 322.86 151.02 322.86 151.02 333.71 154.06 333.71 154.06 322.86 156.47 322.86 157.72 320.31 147.42 320.31 147.42 322.86"/>
          <path class="cls-1" d="M341.73,320.31l-1.35,3.22c-.4.96-.72,1.73-1.01,2.57h-.04c-.34-.88-.62-1.59-1.03-2.57l-1.37-3.22h-3.46l4.23,7.91v5.49h3.02v-5.59l4.41-7.81h-3.4Z"/>
          <path class="cls-1" d="M146.82,333.7l-4.16-13.4h-3.98l-4.1,13.4h3.14l.95-3.44h3.94l.93,3.44h3.26ZM139.92,324.85c.22-.78.42-1.79.62-2.58h.04c.2.79.44,1.79.68,2.58l.78,2.87v-.03h-2.91l.8-2.84ZM142.02,328.01h0s0,0,0,0Z"/>
          <polygon class="cls-1" points="242.67 333.7 242.67 320.28 246.21 320.28 250.98 329.31 250.96 320.29 253.76 320.29 253.77 333.7 250.64 333.7 245.45 323.82 245.45 333.7 242.67 333.7"/>
          <polygon class="cls-1" points="120.63 333.7 120.63 320.28 124.17 320.28 128.93 329.31 128.92 320.29 131.71 320.29 131.73 333.7 128.6 333.7 123.41 323.82 123.41 333.7 120.63 333.7"/>
          <path class="cls-1" d="M209.12,333.7l-4.16-13.4h-3.98l-4.1,13.4h3.14l.95-3.44h3.94l.93,3.44h3.26ZM202.22,324.85c.22-.78.42-1.79.62-2.58h.04c.2.79.44,1.79.68,2.58l.78,2.87v-.03h-2.91l.8-2.84ZM204.33,328.01h0s0,0,0,0Z"/>
          <polygon class="cls-1" points="183.08 333.7 183.07 320.28 186.61 320.28 191.38 329.31 191.36 320.29 194.16 320.29 194.17 333.7 191.04 333.7 185.85 323.82 185.86 333.7 183.08 333.7"/>
          <polygon class="cls-1" points="57.05 333.7 57.05 320.28 60.59 320.28 65.36 329.31 65.34 320.29 68.14 320.29 68.15 333.7 65.02 333.7 59.83 323.82 59.84 333.7 57.05 333.7"/>
        </g>
        <path class="cls-1" d="M19.65,331.37c-.5-.09-.94-.29-1.26-.55l-1.05,2.1v.02s-.01,0-.01,0h0s.06.06.15.13c.23.19.54.36.91.5,0,0,0,0,0,0,.55.21,1.23.35,1.97.38.65.03,1.29-.04,1.86-.16.03,0,.05-.01.08-.02.1-.02.19-.05.28-.07.09-.03.17-.05.26-.08.07-.02.13-.05.2-.07.05-.02.1-.04.15-.06.1-.04.19-.09.28-.14,1.29-.72,2.03-2.13,2.03-4.56v-8.47h-3.02v8.43c.02,1.86-.63,2.52-1.68,2.64-.16.03-.33.04-.51.04-.22,0-.43-.02-.62-.06"/>
      </g>
      <path class="cls-1" d="M309.51,325.77c-1.7-.65-2.45-1.02-2.45-1.86,0-.68.63-1.27,1.92-1.27,1,0,1.78.22,2.33.44l1.08-2.16.02-.06c-.78-.35-1.88-.67-3.37-.67-3.11,0-4.99,1.72-4.99,3.98,0,1.92,1.43,3.13,3.62,3.9,1.59.57,2.21,1.04,2.21,1.86s-.72,1.43-2.1,1.43c-1.04,0-2.03-.27-2.81-.6l-1.1,2.21v.04c.74.41,2.22.8,3.73.8,3.62,0,5.33-1.88,5.33-4.09,0-1.86-1.1-3.07-3.43-3.94Z"/>
    </g>
  </g>
  <line class="cls-2" x1="14" y1="381" x2="349" y2="381"/>
  <g>
    <path class="cls-3" d="M56.16,448.55h23.42v3.11h-23.42v-3.11ZM67.36,438.04c-1.76,2.21-4.55,4.26-8.65,6.09l-1.57-2.93c6.73-3.14,9.15-6.31,9.15-9.66v-1.86h3.41v1.86c0,1.25-.21,2.45-.67,3.62l9.55,6.15-1.86,2.82-9.37-6.09Z"/>
    <path class="cls-3" d="M81.71,449.45v-19.21h12.48v19.21h-12.48ZM85.11,433.35v12.99h5.69v-12.99h-5.69ZM105.15,437.53v3.09h-3.59v12.77h-3.41v-24.85h3.41v8.99h3.59Z"/>
    <path class="cls-3" d="M106.62,448.55h23.42v3.11h-23.42v-3.11ZM127.86,441.84v3.01h-18.5v-14.77h17.96v3.06h-14.58v2.79h14.58v2.98h-14.58v2.93h15.12Z"/>
    <path class="cls-3" d="M142.42,441.63l-4.52-3.89c-1.01,1.62-2.42,3.09-4.28,4.42l-1.97-2.5c3.51-2.61,4.82-5.67,4.82-8.76v-1.62h3.27v1.62c0,1.38-.16,2.66-.51,3.86l5.16,4.44-1.97,2.42ZM148.09,443.17c3.62,0,6.07,2.1,6.07,5.24s-2.45,5.24-6.07,5.24h-5.8c-3.62,0-6.07-2.08-6.07-5.24s2.45-5.24,6.07-5.24h5.8ZM147.61,450.62c2.1,0,3.14-.9,3.14-2.24s-1.04-2.21-3.14-2.21h-4.84c-2.1,0-3.14.9-3.14,2.21s1.04,2.24,3.14,2.24h4.84ZM148.19,436.41v5.4h-3.11v-13.01h3.11v4.63h2.45v-4.87h3.22v13.52h-3.22v-5.67h-2.45Z"/>
    <path class="cls-3" d="M164.57,435.32c-.03,1.68-.19,3.27-.51,4.84l5.35,7.74-2.53,1.92-4.02-5.83c-.88,2.05-2.08,4.04-3.7,6.07l-2.42-1.94c3.33-4.28,4.58-8.17,4.6-12.8h-3.81v-3.09h3.86v-3.67h3.19v3.67h4.07v3.09h-4.1ZM170.37,437.77v-8.84h3.22v23.87h-3.22v-11.92h-3.51v-3.11h3.51ZM175.77,428.54h3.3v24.85h-3.3v-24.85Z"/>
    <path class="cls-3" d="M197.89,442c-3.75.51-8.49.8-12,.8h-3.78l-.19-3.01h4.5v-4.68h3.41v4.58c2.45-.11,5.24-.32,7.72-.64l.35,2.95ZM192.33,437.98c.35-2.16.56-4.15.59-5.62h-9.5v-2.79h12.83v1.12c0,2.71-.27,5.38-.67,7.66l-3.25-.37ZM197.04,444.21c3.54,0,5.99,1.76,5.99,4.74s-2.45,4.71-5.99,4.71h-5.46c-3.51,0-5.99-1.76-5.99-4.71s2.47-4.74,5.99-4.74h5.46ZM196.51,450.76c2.05,0,3.11-.72,3.11-1.84s-1.06-1.86-3.11-1.86h-4.36c-2.08,0-3.14.75-3.14,1.86s1.06,1.84,3.14,1.84h4.36ZM202.73,434.68h3.33v3.09h-3.33v5.59h-3.41v-14.8h3.41v6.12Z"/>
    <path class="cls-3" d="M222.16,430.51v2.74h-14.61v-2.74h5.59v-2.24h3.43v2.24h5.59ZM221.13,438.89c0,2.87-2.74,4.31-6.25,4.31s-6.28-1.44-6.28-4.31v-.32c0-2.87,2.79-4.31,6.28-4.31s6.25,1.44,6.25,4.31v.32ZM211.09,447.78v-3.09h16.61v8.97h-3.38v-5.88h-13.23ZM211.92,438.86c0,.98,1.3,1.6,2.95,1.6s2.95-.61,2.95-1.6v-.24c0-1.01-1.28-1.62-2.95-1.62s-2.95.61-2.95,1.62v.24ZM231.32,434.42v3.09h-3.62v5.83h-3.38v-14.8h3.38v5.88h3.62Z"/>
    <path class="cls-3" d="M246.36,439.9c-1.12,2.24-3.38,3.3-5.99,3.3-3.75,0-6.76-2.18-6.76-6.84v-.4c0-4.71,3.01-6.89,6.76-6.89,2.34,0,4.42.88,5.61,2.69h4.95v-3.22h3.41v18.39h-3.41v-7.03h-4.58ZM237.02,436.33c0,2.66,1.52,3.89,3.35,3.89s3.33-1.22,3.33-3.89v-.37c0-2.66-1.52-3.91-3.33-3.91s-3.35,1.25-3.35,3.91v.37ZM240.88,450.3h14.4v3.09h-17.8v-8.14h3.41v5.06ZM250.94,434.47h-3.94c.08.45.11.96.11,1.49v.4c0,.29,0,.59-.03.85h3.86v-2.74Z"/>
    <path class="cls-3" d="M281.44,441.39v3.09h-10.01v9.21h-3.41v-9.21h-10.01v-3.09h16.29c.48-3.19.8-6.57.8-8.49h-14.56v-3.11h17.96v2.05c0,2.82-.29,6.25-.8,9.55h3.73Z"/>
    <path class="cls-3" d="M291,436.68c-1.33,1.62-3.25,3.03-5.8,4.34l-1.7-2.79c4.63-2.34,6.31-4.84,6.31-7.66v-1.38h3.33v1.38c0,1.2-.19,2.32-.56,3.35l6.76,3.83-1.7,2.74-6.63-3.81ZM291.35,450.68h14.24v2.85h-17.64v-7.24h13.47v-1.52h-13.6v-2.77h17v7.03h-13.47v1.65ZM304.81,428.54v12.11h-3.41v-12.11h3.41Z"/>
    <path class="cls-3" d="M55.88,471.26c.84,1.99,2.54,3.15,4.79,3.15s3.61-.84,3.61-2.37c0-1.41-.9-2.08-2.54-2.54l-2.52-.69c-2.27-.63-4.66-1.89-4.66-4.87s2.56-4.83,5.9-4.83,5.48,1.87,6.4,4.12l-2.27,1.13c-.76-1.6-2.12-2.79-4.14-2.79s-3.23.88-3.23,2.37,1.13,2.06,2.6,2.46l2.46.67c2.29.63,4.66,1.95,4.66,4.98s-2.77,4.83-6.28,4.83-5.98-1.68-7.08-4.47l2.29-1.13Z"/>
    <path class="cls-3" d="M86.05,468.99v7.43h-1.51v-7.39c0-2.27-1.07-3.67-2.94-3.67s-3.11,1.53-3.11,3.78v7.29h-1.49v-7.39c0-2.29-1.05-3.67-2.94-3.67s-3.07,1.49-3.07,3.78v7.29h-1.53v-12.14h1.39l.1,1.78c.69-1.26,1.89-2.1,3.46-2.1,1.72,0,3.02.99,3.65,2.58.69-1.53,2.08-2.58,3.86-2.58,2.48,0,4.12,2.02,4.12,5.02Z"/>
    <path class="cls-3" d="M98.59,468.65v7.77h-1.36l-.11-1.68c-.69,1.22-2.02,1.99-3.76,1.99h-.82c-2.33,0-4.01-1.6-4.01-3.76s1.7-3.7,4.72-3.7h3.82v-.52c0-2.06-1.15-3.38-3.34-3.38-1.57,0-2.71.73-3.34,1.91l-1.36-.63c.82-1.6,2.6-2.69,4.81-2.69,2.79,0,4.75,1.74,4.75,4.68ZM93.57,475.33c1.7,0,3.3-1.05,3.51-2.71v-1.97h-3.72c-2.33,0-3.32.97-3.32,2.33,0,1.47,1.09,2.35,2.75,2.35h.78Z"/>
    <path class="cls-3" d="M107.92,464.22l-.36,1.36c-.5-.13-1.03-.21-1.49-.21-1.74,0-2.86,1.78-2.86,3.84v7.2h-1.53v-12.14h1.41l.08,1.91c.61-1.32,1.68-2.23,3.13-2.23.61,0,1.15.08,1.62.25Z"/>
    <path class="cls-3" d="M116.55,476.09c-.71.44-1.64.65-2.46.65-1.66,0-2.75-.88-2.75-2.83v-8.21h-2.37v-1.41h2.37v-3.49h1.51v3.49h3.34v1.41h-3.34v8.06c0,1.32.57,1.6,1.41,1.6.69,0,1.22-.19,1.87-.52l.42,1.26Z"/>
    <path class="cls-3" d="M137.04,471.66c0,3.21-2.18,4.89-5.84,4.89h-7.5v-17.13h6.68c3.63,0,5.84,1.68,5.84,4.81,0,1.43-.63,2.69-2.27,3.38,2.16.71,3.09,2.18,3.09,4.05ZM126.42,461.81v4.98h3.95c2.08,0,3.19-.94,3.19-2.52s-1.11-2.46-3.19-2.46h-3.95ZM131.18,474.16c2.08,0,3.19-.9,3.19-2.56s-1.11-2.58-3.19-2.58h-4.77v5.14h4.77Z"/>
    <path class="cls-3" d="M139.67,460.61c0-.61.5-1.09,1.11-1.09s1.09.5,1.09,1.09-.48,1.09-1.09,1.09-1.11-.48-1.11-1.09ZM140.03,476.42v-12.14h1.51v12.14h-1.51Z"/>
    <path class="cls-3" d="M144.44,471.24v-1.78c0-3.57,2.62-5.48,5.5-5.48s5.52,1.91,5.52,5.48v1.78c0,3.59-2.6,5.5-5.52,5.5s-5.5-1.91-5.5-5.5ZM153.95,471.17v-1.64c0-2.67-1.85-4.16-4.01-4.16s-3.97,1.49-3.97,4.16v1.64c0,2.67,1.83,4.18,3.97,4.18s4.01-1.51,4.01-4.18Z"/>
    <path class="cls-3" d="M168.86,469.56v1.66c0,3.59-2.5,5.59-5.04,5.59-1.76,0-3.32-.78-4.24-2.2v5.4h-1.53v-15.71h1.41l.11,1.93c.92-1.45,2.5-2.25,4.26-2.25,2.54,0,5.04,2.02,5.04,5.58ZM167.35,469.62c0-2.73-1.72-4.24-3.91-4.24s-3.86,1.51-3.86,4.24v1.55c0,2.71,1.7,4.24,3.86,4.24s3.91-1.53,3.91-4.24v-1.55Z"/>
    <path class="cls-3" d="M181.62,468.97v7.45h-1.51v-7.37c0-2.29-1.09-3.72-3.38-3.72s-3.76,1.55-3.76,3.8v7.29h-1.53v-16.88h1.53v6.63c.78-1.34,2.23-2.2,4.07-2.2,2.86,0,4.58,2.02,4.58,5Z"/>
    <path class="cls-3" d="M184.21,471.24v-1.78c0-3.57,2.62-5.48,5.5-5.48s5.52,1.91,5.52,5.48v1.78c0,3.59-2.6,5.5-5.52,5.5s-5.5-1.91-5.5-5.5ZM193.72,471.17v-1.64c0-2.67-1.85-4.16-4.01-4.16s-3.97,1.49-3.97,4.16v1.64c0,2.67,1.83,4.18,3.97,4.18s4.01-1.51,4.01-4.18Z"/>
    <path class="cls-3" d="M204.39,476.09c-.71.44-1.64.65-2.46.65-1.66,0-2.75-.88-2.75-2.83v-8.21h-2.37v-1.41h2.37v-3.49h1.51v3.49h3.34v1.41h-3.34v8.06c0,1.32.57,1.6,1.41,1.6.69,0,1.22-.19,1.87-.52l.42,1.26Z"/>
    <path class="cls-3" d="M205.76,471.24v-1.78c0-3.57,2.62-5.48,5.5-5.48s5.52,1.91,5.52,5.48v1.78c0,3.59-2.6,5.5-5.52,5.5s-5.5-1.91-5.5-5.5ZM215.27,471.17v-1.64c0-2.67-1.85-4.16-4.01-4.16s-3.97,1.49-3.97,4.16v1.64c0,2.67,1.83,4.18,3.97,4.18s4.01-1.51,4.01-4.18Z"/>
    <path class="cls-3" d="M229.86,468.99v7.43h-1.51v-7.35c0-2.27-1.09-3.7-3.4-3.7-2.18,0-3.74,1.55-3.74,3.76v7.29h-1.53v-12.14h1.39l.13,1.93c.78-1.36,2.2-2.25,4.07-2.25,2.88,0,4.6,2.02,4.6,5.02Z"/>
    <path class="cls-3" d="M232.97,460.61c0-.61.5-1.09,1.11-1.09s1.09.5,1.09,1.09-.48,1.09-1.09,1.09-1.11-.48-1.11-1.09ZM233.33,476.42v-12.14h1.51v12.14h-1.51Z"/>
    <path class="cls-3" d="M237.74,471.26v-1.81c0-3.57,2.62-5.48,5.5-5.48,2.18,0,4.14,1.09,5,3.17l-1.41.57c-.67-1.53-1.97-2.33-3.59-2.33-2.18,0-3.97,1.49-3.97,4.16v1.64c0,2.67,1.78,4.18,3.97,4.18,1.62,0,2.92-.8,3.59-2.35l1.41.57c-.86,2.08-2.81,3.17-5,3.17-2.88,0-5.5-1.91-5.5-5.48Z"/>
    <path class="cls-3" d="M251.28,472.88c.9,1.72,2.33,2.54,4.09,2.54s3.11-.67,3.11-1.97-1.01-1.78-2.48-2.23l-1.66-.48c-1.93-.57-3.46-1.47-3.46-3.51s1.83-3.25,4.16-3.25,3.88,1.05,4.85,2.81l-1.18.78c-.8-1.39-2.06-2.27-3.7-2.27s-2.67.78-2.67,1.93.82,1.72,2.25,2.16l1.66.48c1.93.57,3.7,1.43,3.7,3.57s-2.14,3.3-4.6,3.3-4.26-1.05-5.29-3.11l1.22-.76Z"/>
    <path class="cls-3" d="M270.52,474.16h7.83v2.39h-10.54v-17.13h2.71v14.74Z"/>
    <path class="cls-3" d="M289.98,468.65v7.77h-1.36l-.1-1.68c-.69,1.22-2.02,1.99-3.76,1.99h-.82c-2.33,0-4.01-1.6-4.01-3.76s1.7-3.7,4.72-3.7h3.82v-.52c0-2.06-1.15-3.38-3.34-3.38-1.57,0-2.71.73-3.34,1.91l-1.36-.63c.82-1.6,2.6-2.69,4.81-2.69,2.79,0,4.75,1.74,4.75,4.68ZM284.97,475.33c1.7,0,3.3-1.05,3.51-2.71v-1.97h-3.72c-2.33,0-3.32.97-3.32,2.33,0,1.47,1.09,2.35,2.75,2.35h.78Z"/>
    <path class="cls-3" d="M303.89,469.52v1.68c0,3.55-2.46,5.54-5.04,5.54-1.78,0-3.34-.78-4.26-2.23l-.1,1.91h-1.41v-16.88h1.53v6.61c.92-1.43,2.48-2.18,4.24-2.18,2.58,0,5.04,1.99,5.04,5.54ZM302.37,469.58c0-2.69-1.72-4.2-3.91-4.2s-3.86,1.51-3.86,4.2v1.55c0,2.69,1.72,4.22,3.86,4.22s3.91-1.53,3.91-4.22v-1.55Z"/>
    <path class="cls-3" d="M306.2,475.56c0-.65.5-1.15,1.15-1.15s1.18.5,1.18,1.15-.52,1.18-1.18,1.18-1.15-.52-1.15-1.18Z"/>
  </g>
</svg>