<?xml version="1.0" encoding="UTF-8"?>
<svg id="Layer_1" data-name="Layer 1" xmlns="http://www.w3.org/2000/svg" viewBox="0 0 221.83 225.83">
  <defs>
    <style>
      .cls-1 {
        fill: #fff;
      }

      .cls-2 {
        fill: #144e8c;
      }

      .cls-3 {
        fill: #a52868;
      }
    </style>
  </defs>
  <g>
    <g>
      <path class="cls-2" d="M110.92,22.07c-50.17,0-90.84,40.67-90.84,90.84s40.67,90.84,90.84,90.84,90.84-40.67,90.84-90.84S161.09,22.07,110.92,22.07ZM110.92,183.17c-38.8,0-70.26-31.46-70.26-70.26s31.46-70.26,70.26-70.26,70.26,31.46,70.26,70.26-31.46,70.26-70.26,70.26Z"/>
      <circle class="cls-3" cx="110.92" cy="112.91" r="67.61"/>
    </g>
    <g>
      <g>
        <g>
          <path class="cls-1" d="M32.49,118.42c-1.03,1.44-1.43,2.34-1.51,3.11-.24-.74-.81-1.52-2.04-2.86-1.16-1.27-2.69-2.14-4.32-2.63.14,1.62.83,3.2,2.05,4.46,1.23,1.26,2.8,2.02,4.46,2.32,1.54-.71,2.89-1.76,3.87-3.07.99-1.32,1.48-2.71,1.53-4.09-1.6.51-3.07,1.42-4.05,2.78Z"/>
          <path class="cls-1" d="M39.91,146.83c-.42,1.71-.43,2.68-.23,3.42-.48-.6-1.33-1.11-2.98-1.9-1.54-.75-3.29-1-4.99-.86.73,1.44,1.93,2.67,3.57,3.38,1.62.72,3.35.85,5,.52,1.18-1.22,2.06-2.7,2.48-4.28.39-1.56.36-3.06-.11-4.36-1.3,1.07-2.34,2.45-2.75,4.07Z"/>
          <path class="cls-1" d="M43.46,153.38c-.26,1.75-.23,2.74.03,3.47-.52-.56-1.37-1.01-3.08-1.65-.81-.3-1.66-.47-2.52-.52-.85-.06-1.7-.02-2.53.13.4.7.97,1.31,1.63,1.82.66.51,1.4.93,2.23,1.22.83.29,1.65.44,2.51.44.86,0,1.7-.14,2.52-.39.52-.66.96-1.38,1.3-2.12.34-.75.62-1.56.77-2.37.15-.81.17-1.59.08-2.31-.1-.72-.31-1.39-.57-2.03-.6.59-1.14,1.27-1.55,1.99-.4.72-.67,1.49-.8,2.31Z"/>
          <path class="cls-1" d="M47.59,159.62c-.09.9-.07,1.57,0,2.12.07.55.18.96.35,1.31-.29-.25-.67-.47-1.19-.68-.52-.21-1.2-.42-2.05-.69-1.62-.5-3.4-.44-5.06,0,.49.65,1.08,1.22,1.76,1.69.67.47,1.43.85,2.3,1.05,1.72.43,3.45.26,5.02-.35.95-1.41,1.56-3.02,1.7-4.63.05-.8.04-1.59-.09-2.31-.13-.72-.38-1.39-.72-1.98-1.09,1.27-1.87,2.8-2.02,4.48Z"/>
          <path class="cls-1" d="M52.3,165.41c.05,1.76.25,2.74.64,3.41-.61-.46-1.53-.76-3.33-1.09-.85-.16-1.72-.17-2.57-.08-.84.08-1.67.28-2.47.56.27.31.56.59.87.85.32.25.68.47,1.04.67.74.39,1.55.67,2.41.82.86.14,1.71.14,2.54,0,.84-.15,1.65-.43,2.41-.82.4-.74.71-1.52.91-2.32.22-.81.35-1.64.35-2.47,0-.83-.1-1.59-.32-2.28-.11-.35-.25-.67-.4-.99-.14-.32-.31-.63-.5-.92-.49.69-.9,1.44-1.18,2.23-.28.78-.41,1.59-.39,2.42Z"/>
          <path class="cls-1" d="M57.51,170.72c.09.9.25,1.55.42,2.08.17.52.37.91.6,1.21-.34-.19-.75-.33-1.3-.43-.56-.1-1.26-.17-2.15-.26-1.69-.16-3.42.25-4.96,1.01.61.53,1.31.98,2.07,1.31.75.33,1.57.54,2.47.57,1.77.07,3.43-.43,4.85-1.35.65-1.57.93-3.27.74-4.88-.11-.8-.28-1.56-.55-2.24-.27-.68-.65-1.28-1.11-1.79-.82,1.46-1.27,3.12-1.08,4.8Z"/>
          <path class="cls-1" d="M63.26,175.54c.37,1.72.75,2.65,1.26,3.23-.69-.33-1.64-.46-3.47-.45-.86,0-1.72.15-2.55.41-.81.23-1.59.58-2.32,1.02.32.25.65.48,1.01.67.37.18.75.34,1.15.46.8.25,1.64.37,2.51.35,1.73-.02,3.37-.7,4.72-1.73.51-1.61.62-3.28.35-4.93-.15-.81-.4-1.54-.74-2.18-.17-.32-.37-.62-.58-.89-.21-.29-.42-.56-.67-.8-.35.77-.61,1.58-.75,2.41-.12.81-.1,1.63.07,2.45Z"/>
          <path class="cls-1" d="M29.04,111.49c-.03,1.63.53,3.15,1.51,4.36.87-1.28,1.38-2.74,1.41-4.3.03-1.56-.43-3.04-1.25-4.35-1.02,1.17-1.64,2.67-1.67,4.3Z"/>
          <path class="cls-1" d="M33.33,125.76c-.89,1.53-1.2,2.47-1.21,3.23-.3-.71-.95-1.43-2.3-2.66-1.27-1.15-2.88-1.88-4.55-2.22.3,1.59,1.13,3.1,2.46,4.24,1.34,1.14,2.97,1.75,4.66,1.89,1.46-.85,2.71-2.02,3.57-3.42.86-1.4,1.22-2.84,1.14-4.22-1.54.66-2.93,1.7-3.77,3.15Z"/>
          <path class="cls-1" d="M34.85,132.96c-.75,1.61-.97,2.57-.9,3.33-.37-.68-1.08-1.34-2.54-2.43-1.38-1.03-3.04-1.6-4.74-1.78.44,1.56,1.41,2.98,2.85,3.99,1.44,1.01,3.12,1.46,4.82,1.44,1.38-.98,2.51-2.27,3.23-3.74.72-1.48.95-2.94.74-4.3-1.47.8-2.75,1.97-3.46,3.49Z"/>
          <path class="cls-1" d="M37.03,139.97c-.59,1.67-.72,2.65-.58,3.4-.43-.64-1.2-1.23-2.75-2.18-1.47-.9-3.18-1.31-4.89-1.33.59,1.51,1.69,2.84,3.21,3.71,1.53.87,3.25,1.16,4.93.98,1.28-1.1,2.29-2.49,2.87-4.03.58-1.54.67-3.02.33-4.35-1.39.94-2.56,2.22-3.12,3.79Z"/>
        </g>
        <g>
          <path class="cls-1" d="M189.34,118.42c1.03,1.44,1.43,2.34,1.51,3.11.24-.74.81-1.52,2.04-2.86,1.16-1.27,2.69-2.14,4.32-2.63-.14,1.62-.83,3.2-2.05,4.46-1.23,1.26-2.8,2.02-4.46,2.32-1.54-.71-2.89-1.76-3.87-3.07-.99-1.32-1.48-2.71-1.53-4.09,1.6.51,3.07,1.42,4.05,2.78Z"/>
          <path class="cls-1" d="M181.92,146.83c.42,1.71.43,2.68.23,3.42.48-.6,1.33-1.11,2.98-1.9,1.54-.75,3.29-1,4.99-.86-.73,1.44-1.93,2.67-3.57,3.38-1.62.72-3.35.85-5,.52-1.18-1.22-2.06-2.7-2.48-4.28-.4-1.56-.36-3.06.11-4.36,1.3,1.07,2.34,2.45,2.75,4.07Z"/>
          <path class="cls-1" d="M178.38,153.38c.26,1.75.23,2.74-.03,3.47.52-.56,1.37-1.01,3.08-1.65.81-.3,1.66-.47,2.52-.52.85-.06,1.7-.02,2.53.13-.4.7-.97,1.31-1.63,1.82-.66.51-1.4.93-2.23,1.22-.83.29-1.65.44-2.51.44-.86,0-1.7-.14-2.52-.39-.52-.66-.96-1.38-1.3-2.12-.34-.75-.62-1.56-.77-2.37-.15-.81-.17-1.59-.08-2.31.1-.72.31-1.39.57-2.03.6.59,1.14,1.27,1.55,1.99.4.72.67,1.49.8,2.31Z"/>
          <path class="cls-1" d="M174.24,159.62c.09.9.07,1.57,0,2.12-.06.55-.18.96-.35,1.31.29-.25.67-.47,1.19-.68.52-.21,1.2-.42,2.05-.69,1.62-.5,3.4-.44,5.06,0-.49.65-1.08,1.22-1.76,1.69-.67.47-1.43.85-2.3,1.05-1.72.43-3.45.26-5.02-.35-.95-1.41-1.56-3.02-1.7-4.63-.05-.8-.04-1.59.09-2.31.13-.72.38-1.39.72-1.98,1.09,1.27,1.87,2.8,2.02,4.48Z"/>
          <path class="cls-1" d="M169.54,165.41c-.05,1.76-.25,2.74-.64,3.41.61-.46,1.53-.76,3.33-1.09.85-.16,1.72-.17,2.57-.08.84.08,1.67.28,2.47.56-.27.31-.56.59-.87.85-.32.25-.68.47-1.04.67-.74.39-1.55.67-2.41.82-.86.14-1.71.14-2.54,0-.84-.15-1.65-.43-2.41-.82-.4-.74-.71-1.52-.91-2.32-.22-.81-.35-1.64-.35-2.47,0-.83.1-1.59.32-2.28.11-.35.25-.67.4-.99.14-.32.31-.63.5-.92.49.69.9,1.44,1.18,2.23.28.78.41,1.59.39,2.42Z"/>
          <path class="cls-1" d="M164.33,170.72c-.09.9-.25,1.55-.42,2.08-.17.52-.37.91-.6,1.21.34-.19.75-.33,1.3-.43.56-.1,1.26-.17,2.15-.26,1.69-.16,3.42.25,4.96,1.01-.61.53-1.31.98-2.07,1.31-.75.33-1.57.54-2.47.57-1.77.07-3.43-.43-4.85-1.35-.65-1.57-.93-3.27-.74-4.88.11-.8.28-1.56.55-2.24.27-.68.65-1.28,1.11-1.79.82,1.46,1.27,3.12,1.08,4.8Z"/>
          <path class="cls-1" d="M158.58,175.54c-.37,1.72-.75,2.65-1.26,3.23.69-.33,1.64-.46,3.47-.45.86,0,1.72.15,2.55.41.81.23,1.59.58,2.32,1.02-.32.25-.65.48-1.01.67-.37.18-.75.34-1.15.46-.8.25-1.64.37-2.51.35-1.73-.02-3.37-.7-4.72-1.73-.51-1.61-.62-3.28-.35-4.93.15-.81.4-1.54.74-2.18.17-.32.37-.62.58-.89.21-.29.42-.56.67-.8.35.77.61,1.58.75,2.41.12.81.1,1.63-.07,2.45Z"/>
          <path class="cls-1" d="M192.8,111.49c.03,1.63-.53,3.15-1.51,4.36-.87-1.28-1.38-2.74-1.41-4.3-.03-1.56.43-3.04,1.25-4.35,1.02,1.17,1.64,2.67,1.67,4.3Z"/>
          <path class="cls-1" d="M188.5,125.76c.89,1.53,1.2,2.47,1.21,3.23.3-.71.95-1.43,2.3-2.66,1.27-1.15,2.88-1.88,4.55-2.22-.3,1.59-1.13,3.1-2.46,4.24-1.34,1.14-2.97,1.75-4.66,1.89-1.46-.85-2.71-2.02-3.57-3.42-.86-1.4-1.22-2.84-1.14-4.22,1.54.66,2.93,1.7,3.77,3.15Z"/>
          <path class="cls-1" d="M186.98,132.96c.75,1.61.97,2.57.9,3.33.37-.68,1.08-1.34,2.54-2.43,1.38-1.03,3.04-1.6,4.74-1.78-.44,1.56-1.41,2.98-2.85,3.99-1.44,1.01-3.12,1.46-4.82,1.44-1.38-.98-2.51-2.27-3.23-3.74-.72-1.48-.95-2.94-.74-4.3,1.47.8,2.75,1.97,3.46,3.49Z"/>
          <path class="cls-1" d="M184.8,139.97c.59,1.67.72,2.65.58,3.4.43-.64,1.2-1.23,2.75-2.18,1.47-.9,3.18-1.31,4.89-1.33-.59,1.51-1.69,2.84-3.21,3.71-1.53.87-3.25,1.16-4.93.98-1.28-1.1-2.29-2.49-2.87-4.03-.58-1.54-.67-3.02-.33-4.35,1.39.94,2.56,2.22,3.12,3.79Z"/>
        </g>
      </g>
      <g>
        <path class="cls-1" d="M76.87,180.06l-1.48-.78c-1.32.27-2.63.45-3.99.66l.26,1.59,1.45-.22c.17-.03.35-.07.55-.12.2-.05.34-.09.41-.12-.15.25-.33.55-.53.88-.19.34-.34.61-.46.81l-2.72,5,2.03,1.07,4.47-8.77Z"/>
        <path class="cls-1" d="M84.04,185.14c-.08-.71-.31-1.29-.69-1.78-.38-.49-.87-.85-1.47-1.1-.93-.38-1.76-.45-2.56-.13-.8.31-1.42.93-1.88,1.89-.42.89-.52,1.71-.26,2.42.26.71.8,1.25,1.61,1.61.61.26,1.12.34,1.51.26.39-.08.74-.23,1.05-.45l.08.03c-.25.55-.55,1.01-.9,1.37-.35.36-.8.56-1.35.62-.55.06-1.23-.09-2.04-.45-.2-.09-.4-.19-.58-.31-.19-.11-.37-.23-.53-.34l-.7,1.51c.16.11.37.23.62.36.26.12.48.23.67.32.82.38,1.58.57,2.25.6.67.04,1.26-.04,1.77-.25.52-.21.97-.51,1.35-.9.38-.38.71-.82.98-1.31.27-.49.51-1,.7-1.53.34-.92.46-1.74.39-2.45ZM81.92,184.39c.13.26.2.54.19.86,0,.32-.06.61-.18.9-.08.21-.22.38-.42.52-.2.14-.44.23-.71.27-.27.04-.56,0-.85-.12-.44-.17-.7-.45-.8-.79-.1-.35-.05-.74.14-1.17.24-.54.53-.88.88-1.03.35-.15.7-.14,1.08,0,.31.12.52.31.66.57Z"/>
        <path class="cls-1" d="M91.85,192.16l-1.21-.31,1.54-5.99c-.6-.16-1.21-.3-1.81-.48-.96.82-1.96,1.63-2.97,2.43-1.01.78-2.05,1.55-3.12,2.31l-.47,1.37c1.43.49,2.87.95,4.32,1.36l-.56,1.96c.71.22,1.44.39,2.16.58l.51-1.98,1.24.32.38-1.57ZM86.17,190.56c.88-.66,1.75-1.37,2.6-2.06.17-.14.32-.28.47-.42.14-.14.28-.29.41-.44l.05.02c-.03.08-.09.24-.17.49-.08.25-.17.52-.27.8-.09.29-.16.54-.23.74l-.46,1.6c-.8-.24-1.61-.46-2.4-.72Z"/>
        <path class="cls-1" d="M96.1,196.77c1.85-2.58,3.56-5.17,5.14-7.85l.17-1.3c-2.28-.29-4.55-.67-6.79-1.18l-.38,1.71c.79.19,1.58.34,2.37.49.79.16,1.59.3,2.39.41-1.64,2.5-3.39,4.88-5.27,7.28l2.36.45Z"/>
        <path class="cls-1" d="M113.41,188.24l-2.65.04c-.73,1.07-1.48,2.14-2.27,3.2-.23.34-.47.68-.72,1.04h-.04s.17-4.31.17-4.31l-2.14-.11-.67,9.73,2.41.12.13-3.18c.31-.33.62-.65.92-.99.79,1.42,1.63,2.84,2.51,4.25l2.84-.05c-1.31-1.86-2.55-3.66-3.7-5.57,1.12-1.35,2.19-2.79,3.2-4.18Z"/>
        <path class="cls-1" d="M119.18,187.67c2.88-.31,4.82,1.58,5.3,4.25.56,3.13-1.23,5.44-4.39,5.79-3.21.32-5.18-1.81-5.29-4.58-.11-2.92,1.61-5.17,4.38-5.46M120.03,195.95c1.61-.19,2.34-1.7,2.07-3.59-.25-1.73-1.29-3.12-2.78-2.94-1.47.15-2.23,1.62-2.09,3.52.14,1.9,1.21,3.18,2.81,3.01"/>
        <path class="cls-1" d="M138.81,188.99c1.18-.42,2.35-.89,3.51-1.37l-.69-1.65c-1.14.47-2.27.93-3.43,1.34l-.7-1.9c1.2-.42,2.37-.91,3.55-1.39l-.71-1.67c-1.81.75-3.64,1.47-5.5,2.07l3.09,9.25c1.86-.61,3.69-1.3,5.5-2.05l.22-2.04c-1.34.55-2.67,1.1-4.03,1.59l-.8-2.17Z"/>
        <path class="cls-1" d="M132.17,190.64c.76.09,1.31.59,1.82,1.38.62.96,1.3,2.09,1.61,2.39-.8.23-1.59.49-2.4.69-.24-.22-.7-.93-1.3-2.01-.58-1.11-1.08-1.31-2-1.1l-.69.15.86,3.74c-.79.17-1.57.37-2.36.51l-1.88-9.44c.66-.23,1.64-.57,2.76-.81,1.37-.35,2.38-.38,3.19-.04.67.28,1.17.84,1.43,1.7.36,1.19-.27,2.28-1.04,2.8v.04M129.73,190.39c1.1-.28,1.61-.99,1.39-1.81-.23-.87-.93-1.15-1.91-.91-.52.12-.81.23-.96.29l.6,2.62.88-.2"/>
        <path class="cls-1" d="M152.03,187.51l-1.85-1.85c-.91.47-1.8.97-2.73,1.41l.42,2.58c-.75.38-1.52.72-2.29,1.06-.32-3.41-.76-6.8-1.33-10.15.85-.4,1.68-.86,2.52-1.3,2.42,2.4,4.92,4.69,7.55,6.94l-2.28,1.3ZM147.02,185.44c.67-.31,1.32-.68,1.97-1.02l.02.02-1.5-1.57c-.43-.43-.91-.99-1.31-1.44h-.03c.14.6.34,1.32.45,1.9l.39,2.11ZM148.99,184.42h0s0,0,0,0Z"/>
      </g>
      <path class="cls-1" d="M34.69,101.6c-.13.35-.33.63-.56.82l1.35,1.03h.01s0,0,0,0h0s.04-.03.1-.09c.17-.14.33-.34.48-.58,0,0,0,0,0,0,.22-.36.41-.83.53-1.35.11-.46.15-.92.13-1.34,0-.02,0-.04,0-.06,0-.07,0-.14-.01-.21,0-.07-.01-.13-.02-.2,0-.05-.02-.1-.03-.15,0-.04-.02-.08-.02-.11-.02-.08-.04-.15-.06-.22-.33-1.01-1.24-1.73-2.97-2.06l-6.02-1.14-.41,2.15,5.99,1.14c1.32.24,1.71.79,1.65,1.55,0,.12-.01.24-.04.37-.03.15-.07.3-.12.44"/>
      <g>
        <path class="cls-1" d="M34.67,101.6c-.13.35-.33.63-.56.82l1.35,1.03h.01s0,.01,0,0h0s.04-.03.1-.09c.17-.14.33-.34.48-.58,0,0,0,0,0,0,.22-.36.41-.83.53-1.35.11-.46.15-.92.13-1.34,0-.02,0-.04,0-.06,0-.07,0-.14-.01-.21,0-.07-.01-.13-.02-.2,0-.05-.02-.1-.03-.15,0-.04-.02-.08-.02-.11-.02-.08-.04-.15-.06-.22-.33-1.01-1.24-1.73-2.97-2.06l-6.02-1.14-.41,2.15,5.99,1.14c1.32.24,1.71.79,1.65,1.55,0,.12-.01.24-.04.37-.03.15-.07.3-.12.44"/>
        <g>
          <g>
            <polygon class="cls-1" points="34.3 92.03 35.23 88.75 33.52 88.2 32.57 91.56 30.61 91.03 31.65 87.38 29.93 86.82 28.25 92.72 37.73 95.03 39.04 90.42 37.54 89.08 36.53 92.63 34.3 92.03"/>
            <path class="cls-1" d="M32.21,80.2c.51-1.45,1.59-2.26,2.74-2.59,1.16-.33,2.45-.15,3.66.44,1.44.7,2.39,1.67,2.86,2.73.23.53.34,1.09.32,1.65-.02.57-.09,1.18-.33,1.77-.92,2.4-3.54,3.1-6.17,2.21-2.77-.94-4.15-3.44-3.09-6.21M39.88,83.43c.46-1.29-.47-2.56-2.19-3.34-1.6-.72-3.36-.6-3.88.84-.54,1.4.48,2.71,2.25,3.38,1.79.67,3.34.38,3.82-.88"/>
            <path class="cls-1" d="M48.05,62.45c.94-.62,2.11-.67,3.07.14.67.57.96,1.3.97,2.03-.02.82-.38,1.9-1.41,3.3-.58.79-1.07,1.33-1.39,1.65l-7.84-5.52c.25-.54.89-1.55,1.55-2.46.82-1.1,1.39-1.72,2.19-1.99.74-.29,1.57-.23,2.25.33.67.56.96,1.45.58,2.5l.02.02M45.76,64.49l.42-.57c.66-.91.65-1.69.08-2.14-.58-.46-1.22-.25-1.81.56-.28.39-.42.62-.51.79l1.82,1.36ZM49.72,66.46c.54-.74.73-1.63-.08-2.27-.77-.61-1.57-.18-2.19.67l-.42.58,2.21,1.64c.14-.14.28-.34.49-.62"/>
            <path class="cls-1" d="M55.4,56.1c1.2,1.23,1.35,2.22.58,2.95-.77.7-1.73.59-2.97-.56l-4.09-3.84-1.49,1.69,4.06,3.62c1.16,1.03,2.22,1.52,3.16,1.56.47.02.91-.08,1.33-.29.41-.22.8-.52,1.22-.89,1.65-1.57,1.66-3.57-.38-5.78l-3.72-4.01-1.62,1.55,3.93,4.01Z"/>
            <path class="cls-1" d="M61.4,43.7c-.78.48-1.47,1.1-2.19,1.66.07,1.33.17,2.64.28,3.93.05.4.1.81.17,1.23l-.03.03-2.74-3.33-1.73,1.39,6.4,7.36,1.54-1.23-2.03-2.46-.03-1.29c1.47.62,2.92,1.26,4.33,1.93.6-.49,1.2-.98,1.86-1.39-1.96-.99-3.86-1.76-5.88-2.57-.02-1.72-.07-3.57.06-5.27Z"/>
            <path class="cls-1" d="M96.28,38.97c.64-.18,1.3-.26,1.96-.35l-1.64-9.62c-.74.1-1.49.2-2.22.39l1.89,9.57Z"/>
            <path class="cls-1" d="M103.73,27.92c3.08-.15,4.8,2.02,4.86,4.71.07,3.2-1.62,5.22-4.16,5.33-2.56.27-4.37-1.62-4.79-4.39-.21-1.45.06-2.78.77-3.79.71-.99,1.84-1.79,3.31-1.86M104.39,36.22c1.36-.06,2.07-1.51,1.97-3.41-.09-1.75-1.01-3.21-2.54-3.14-1.49.09-2.19,1.7-1.97,3.56.23,1.92,1.19,3.06,2.53,2.99"/>
            <path class="cls-1" d="M134.37,31.01c-.72-.2-1.46-.35-2.19-.53l-2.42,9.45c.75.2,1.53.31,2.26.57l2.21.74,1.37-1.5-3.4-1.13,2.17-7.6Z"/>
            <path class="cls-1" d="M146.2,41.58c-.76,1.53-1.65,2-2.63,1.59-.95-.41-1.14-1.43-.47-2.97l2.27-5.13-2.07-.9-2.07,5.03c-1.17,2.88-.5,4.66,1.52,5.54.52.23,1.04.34,1.53.38.48.05.94,0,1.39-.18.89-.35,1.72-1.16,2.43-2.49l2.55-4.84-1.97-1.07-2.49,5.03Z"/>
            <polygon class="cls-1" points="157.18 53.4 158.73 54.65 164.92 47.11 163.16 45.7 157.18 53.4"/>
            <path class="cls-1" d="M167.93,55.42c-1.02.57-2.04,1.2-3.02,1.88l-.03-.03c.69-1.02,1.26-2.02,1.82-3.09.67-1.26,1.33-2.54,1.97-3.83-.6-.56-1.17-1.15-1.79-1.68-1.34,3.15-2.82,6.28-4.36,9.29l1.68,1.6c1.51-.81,3.03-1.6,4.58-2.36,1.55-.76,3.07-1.45,4.63-2.15-.52-.6-1.04-1.2-1.63-1.73-1.3.68-2.58,1.37-3.85,2.08Z"/>
            <path class="cls-1" d="M171.87,61.84l1.13,1.28,1.01,1.37,1.42-1.09-1.03-1.4-1.15-1.31,1.55-1.3,1.24,1.43,1.12,1.53,1.44-1.1c-1.15-1.69-2.57-3.17-3.9-4.72l-7.3,6.47,1.58,1.8.79.9.71.97,1.92-.44-1.09-1.49c-.38-.48-.81-.93-1.21-1.4l1.77-1.49Z"/>
            <path class="cls-1" d="M179,70.97c.1.7-.27,1.34-.92,2-.8.81-1.75,1.69-1.99,2.02l-1.05-1.74c.16-.27.73-.87,1.6-1.74.9-.86.98-1.38.55-2.11-.11-.18-.21-.36-.33-.54l-3.19,2.13-1.17-1.59,7.86-5.56c.5.53,1.27,1.3,1.88,2.33.77,1.26,1.12,2.26,1.01,3.14-.09.74-.51,1.36-1.29,1.81-1.07.63-2.25.34-2.92-.19l-.04.02M178.62,68.7c.55.91,1.34,1.15,2.07.7.76-.47.83-1.23.31-2.11-.28-.46-.47-.7-.59-.81l-2.24,1.5c.16.23.29.48.44.71"/>
            <polygon class="cls-1" points="180.61 84.08 181.33 85.94 190.44 82.45 189.63 80.35 180.61 84.08"/>
            <path class="cls-1" d="M189.44,85.01c.31.81.64,1.62.85,2.46l-7.53,2.41.54,1.92,7.59-2.21.48,1.68,2.04.41-1.04-3.67-.52-1.84c-.19-.61-.44-1.19-.66-1.79l-1.75.62Z"/>
            <path class="cls-1" d="M85.55,33.65c.82-.29,1.63-.6,2.47-.79l2.22,7.56,1.92-.5-2.02-7.62,1.68-.44.46-2.02-3.68.95-.43.12c-.61.17-2.61.77-3.21.97l.58,1.75Z"/>
            <path class="cls-1" d="M194.84,98.49l-2.49-.56c-.74-.16-1.33-.27-1.97-.37v-.03c.58-.35,1.05-.65,1.69-1.08l2.11-1.46c-.17-.84-.29-1.69-.55-2.5-1.54,1.46-3.3,2.89-4.98,4.24l-3.91.81.36,1.95,4-.72c2.05.66,4.12,1.4,6.2,2.21l-.46-2.48Z"/>
            <path class="cls-1" d="M85.74,41.91l-1.44-2.16-1.26.42-1.22.53.37,2.57-1.89.82c-.51-3.33-.9-6.7-1.2-10.12l1.35-.59,1.4-.47c2.09,2.73,4.06,5.5,5.93,8.31l-2.03.67ZM81.47,39.05c.61-.28,1.23-.54,1.87-.73v.02s-1.24-1.79-1.24-1.79c-.36-.48-.79-1.12-1.13-1.59h-.03c.08.61.21,1.35.28,1.94l.25,2.15ZM83.34,38.33h0s0,0,0,0Z"/>
            <path class="cls-1" d="M125.96,39.17l-.12-2.6c-.86-.22-1.75-.27-2.63-.41l-1.01,2.39-2.04-.28c1.28-3.1,2.67-6.19,4.18-9.27.97.16,1.95.22,2.9.46.38,3.42.64,6.83.79,10.2l-2.08-.49ZM123.76,34.57c.66.1,1.33.17,1.99.29v.02s-.16-2.14-.16-2.14c-.07-.59-.11-1.33-.15-1.92h-.03c-.24.55-.51,1.25-.76,1.79l-.89,1.96ZM125.75,34.86h0s0,0,0,0Z"/>
            <path class="cls-1" d="M71.78,48.61l-5.09-8.32c.73-.47,1.52-.85,2.28-1.29,2.22,1.41,4.36,2.87,6.41,4.38l-3.34-6.09c.61-.32,1.2-.68,1.83-.96l4.28,8.8c-.62.28-1.2.64-1.81.96-2.11-1.58-4.32-3.11-6.62-4.58l3.64,6.21c-.53.3-1.08.56-1.59.9Z"/>
            <path class="cls-1" d="M44.22,78.42l-8.66-4.48c.41-.77.72-1.59,1.2-2.32,2.65.07,5.25.22,7.8.47l-6.01-3.48,1.08-1.76,8.22,5.31-1.06,1.75c-2.64-.27-5.34-.45-8.09-.53l6.33,3.42-.8,1.63Z"/>
            <path class="cls-1" d="M110.67,37.42l-.04-9.76c.87-.02,1.75.06,2.62.09,1.17,2.36,2.25,4.72,3.22,7.07l.3-6.94,2.07.1-.88,9.74-2.06-.09c-.99-2.44-2.1-4.9-3.31-7.35l-.1,7.19c-.61-.02-1.22-.09-1.83-.06Z"/>
            <path class="cls-1" d="M148.78,47.6l4.9-8.44c.77.42,1.54.83,2.26,1.34-.19,2.64-.46,5.23-.82,7.77l3.77-5.84,1.72,1.15-5.7,7.95-1.71-1.14c.39-2.62.69-5.31.89-8.05l-3.72,6.16c-.49-.36-1.06-.6-1.59-.91Z"/>
          </g>
          <path class="cls-1" d="M183.9,77.2c-.18-1.35-.2-1.97.34-2.26.45-.24,1.05-.04,1.51.81.35.66.49,1.25.54,1.69l1.79-.05h.04c-.05-.65-.23-1.48-.76-2.46-1.1-2.05-2.89-2.68-4.36-1.88-1.25.67-1.53,2.04-1.25,3.75.19,1.24.11,1.82-.43,2.11-.56.3-1.19.03-1.67-.88-.37-.68-.54-1.43-.61-2.05l-1.83.05h-.03c0,.64.27,1.76.8,2.75,1.29,2.38,3.11,2.84,4.56,2.06,1.21-.65,1.61-1.8,1.35-3.64Z"/>
        </g>
      </g>
    </g>
  </g>
  <g>
    <g>
      <g>
        <polygon class="cls-1" points="106.18 101.98 106.18 54.51 102.03 57.72 100.33 101.98 106.18 101.98"/>
        <polygon class="cls-1" points="94.87 63.26 91.9 101.98 97.75 101.98 99.37 59.78 94.87 63.26"/>
        <polygon class="cls-1" points="87.22 69.18 83.47 101.98 89.31 101.98 92.12 65.39 87.22 69.18"/>
      </g>
      <g>
        <polygon class="cls-1" points="119.81 57.72 115.66 54.51 115.66 101.98 121.51 101.98 119.81 57.72"/>
        <polygon class="cls-1" points="126.97 63.26 122.47 59.78 124.09 101.98 129.94 101.98 126.97 63.26"/>
        <polygon class="cls-1" points="134.62 69.18 129.72 65.39 132.52 101.98 138.37 101.98 134.62 69.18"/>
      </g>
    </g>
    <g>
      <path class="cls-1" d="M143.13,105.19h-30.68v8.27c2.63-1.11,5.45-1.68,8.41-1.68,4.62,0,7.95,1.41,8.08,1.47l1.14.49.19,1.22,2.86,18.21.53,3.35-3.29-.82c-1.76-.44-3.57-.66-5.37-.66-7.44,0-12.69,3.82-12.74,3.85l-1.34,1-1.34-.99c-.05-.04-5.3-3.86-12.74-3.86-1.8,0-3.61.22-5.37.66l-3.29.82.52-3.35,2.86-18.21.19-1.22,1.14-.49c.14-.06,3.47-1.47,8.09-1.47,2.96,0,5.78.57,8.41,1.68v-8.27h-34.51v9.84h3.83v12.05c0,10.21,3.64,19.57,9.68,26.87-2.65,1.33-5.52,2.27-8.56,2.72,1.88,2.6,4,5.02,6.33,7.22,3.02-.9,5.87-2.19,8.51-3.79,4.3,3.42,9.28,6.02,14.71,7.55v-8.86c-8.38-3.04-15.21-9.3-19-17.29,1.66-.41,3.4-.64,5.2-.64,6.01,0,11.44,2.47,15.34,6.45,3.9-3.98,9.33-6.45,15.34-6.45,1.79,0,3.53.22,5.2.64-3.79,7.99-10.62,14.25-19,17.29v8.86c5.43-1.54,10.41-4.14,14.71-7.55,2.64,1.6,5.49,2.88,8.51,3.79,2.33-2.2,4.45-4.62,6.33-7.22-3.04-.45-5.92-1.39-8.56-2.72,6.04-7.3,9.68-16.66,9.68-26.87v-12.05h3.83v-9.84h-3.83Z"/>
      <path class="cls-1" d="M128.06,115.31s-8.57-3.69-17.14,1.43c-8.57-5.11-17.14-1.43-17.14-1.43l-2.86,18.21c11.43-2.86,20,3.57,20,3.57,0,0,8.57-6.43,20-3.57l-2.86-18.21Z"/>
    </g>
  </g>
</svg>