<?xml version="1.0" encoding="UTF-8"?>
<svg id="Layer_1" data-name="Layer 1" xmlns="http://www.w3.org/2000/svg" viewBox="0 0 156.33 225.83">
  <defs>
    <style>
      .cls-1 {
        fill: #0a0203;
      }
    </style>
  </defs>
  <g>
    <polygon class="cls-1" points="61.55 99.28 71.05 99.28 71.05 25.14 64.2 30.44 61.55 99.28"/>
    <polygon class="cls-1" points="53.12 39.02 48.5 99.28 57.99 99.28 60.53 33.29 53.12 39.02"/>
    <polygon class="cls-1" points="41.28 48.18 35.44 99.28 44.93 99.28 49.32 41.96 41.28 48.18"/>
  </g>
  <g>
    <polygon class="cls-1" points="94.78 99.28 85.29 99.28 85.29 25.14 92.13 30.44 94.78 99.28"/>
    <polygon class="cls-1" points="103.22 39.02 107.84 99.28 98.34 99.28 95.81 33.29 103.22 39.02"/>
    <polygon class="cls-1" points="115.05 48.18 120.89 99.28 111.4 99.28 107.01 41.96 115.05 48.18"/>
  </g>
  <g>
    <path class="cls-1" d="M128.02,104.03h-47.47v13.74c4.07-1.77,8.42-2.68,13.01-2.68,6.97,0,11.96,2.11,12.17,2.2l1.32.57.22,1.42,4.42,28.18.61,3.88-3.81-.95c-2.8-.7-5.67-1.05-8.52-1.05-11.83,0-20.16,6.08-20.23,6.14l-1.56,1.16-1.56-1.16c-.08-.06-8.41-6.14-20.24-6.14-2.86,0-5.72.35-8.52,1.05l-3.81.95.61-3.88,4.42-28.18.22-1.42,1.32-.57c.21-.09,5.2-2.2,12.17-2.2,4.59,0,8.95.91,13.01,2.68v-13.74H22.38v15.23h5.93v18.64h0c0,15.81,5.63,30.29,14.98,41.59-4.09,2.06-8.55,3.52-13.25,4.22,2.91,4.03,6.19,7.77,9.8,11.17,4.67-1.39,9.09-3.38,13.18-5.86,6.66,5.29,14.37,9.3,22.77,11.68v-13.69c-12.96-4.7-23.5-14.4-29.37-26.76,2.56-.64,5.24-.98,8-.98,9.3,0,17.71,3.83,23.74,9.98,6.03-6.16,14.44-9.98,23.74-9.98,2.76,0,5.44.34,8,.98-5.86,12.36-16.41,22.06-29.37,26.76v13.69c8.4-2.38,16.11-6.39,22.77-11.68,4.09,2.48,8.5,4.46,13.18,5.86,3.61-3.4,6.89-7.14,9.8-11.17-4.7-.7-9.16-2.15-13.25-4.22,9.35-11.29,14.98-25.78,14.98-41.59v-18.64h5.93v-15.23h-5.93Z"/>
    <path class="cls-1" d="M104.7,119.69s-13.26-5.7-26.53,2.21c-13.26-7.91-26.53-2.21-26.53-2.21l-4.42,28.18c17.69-4.42,30.95,5.53,30.95,5.53,0,0,13.27-9.95,30.95-5.53l-4.42-28.18Z"/>
  </g>
</svg>