<?xml version="1.0" encoding="UTF-8"?>
<svg id="Layer_1" data-name="Layer 1" xmlns="http://www.w3.org/2000/svg" viewBox="0 0 151.33 203.83">
  <defs>
    <style>
      .cls-1 {
        fill: #a52868;
      }
    </style>
  </defs>
  <g>
    <polygon class="cls-1" points="59.05 88.28 68.55 88.28 68.55 14.14 61.7 19.44 59.05 88.28"/>
    <polygon class="cls-1" points="50.62 28.02 46 88.28 55.49 88.28 58.03 22.29 50.62 28.02"/>
    <polygon class="cls-1" points="38.78 37.18 32.94 88.28 42.43 88.28 46.82 30.96 38.78 37.18"/>
  </g>
  <g>
    <polygon class="cls-1" points="92.28 88.28 82.79 88.28 82.79 14.14 89.63 19.44 92.28 88.28"/>
    <polygon class="cls-1" points="100.72 28.02 105.34 88.28 95.84 88.28 93.31 22.29 100.72 28.02"/>
    <polygon class="cls-1" points="112.55 37.18 118.39 88.28 108.9 88.28 104.51 30.96 112.55 37.18"/>
  </g>
  <g>
    <path class="cls-1" d="M125.52,93.03h-47.47v13.74c4.07-1.77,8.42-2.68,13.01-2.68,6.97,0,11.96,2.11,12.17,2.2l1.32.57.22,1.42,4.42,28.18.61,3.88-3.81-.95c-2.8-.7-5.67-1.05-8.52-1.05-11.83,0-20.16,6.08-20.23,6.14l-1.56,1.16-1.56-1.16c-.08-.06-8.41-6.14-20.24-6.14-2.86,0-5.72.35-8.52,1.05l-3.81.95.61-3.88,4.42-28.18.22-1.42,1.32-.57c.21-.09,5.2-2.2,12.17-2.2,4.59,0,8.95.91,13.01,2.68v-13.74H19.88v15.23h5.93v18.64h0c0,15.81,5.63,30.29,14.98,41.59-4.09,2.06-8.55,3.52-13.25,4.22,2.91,4.03,6.19,7.77,9.8,11.17,4.67-1.39,9.09-3.38,13.18-5.86,6.66,5.29,14.37,9.3,22.77,11.68v-13.69c-12.96-4.7-23.5-14.4-29.37-26.76,2.56-.64,5.24-.98,8-.98,9.3,0,17.71,3.83,23.74,9.98,6.03-6.16,14.44-9.98,23.74-9.98,2.76,0,5.44.34,8,.98-5.86,12.36-16.41,22.06-29.37,26.76v13.69c8.4-2.38,16.11-6.39,22.77-11.68,4.09,2.48,8.5,4.46,13.18,5.86,3.61-3.4,6.89-7.14,9.8-11.17-4.7-.7-9.16-2.15-13.25-4.22,9.35-11.29,14.98-25.78,14.98-41.59v-18.64h5.93v-15.23h-5.93Z"/>
    <path class="cls-1" d="M102.2,108.69s-13.26-5.7-26.53,2.21c-13.26-7.91-26.53-2.21-26.53-2.21l-4.42,28.18c17.69-4.42,30.95,5.53,30.95,5.53,0,0,13.27-9.95,30.95-5.53l-4.42-28.18Z"/>
  </g>
</svg>