<?xml version="1.0" encoding="UTF-8"?>
<svg id="Layer_1" data-name="Layer 1" xmlns="http://www.w3.org/2000/svg" viewBox="0 0 1963.96 312.87">
  <defs>
    <style>
      .cls-1 {
        fill: none;
        stroke: #666563;
        stroke-linecap: round;
        stroke-linejoin: round;
        stroke-width: 2px;
      }

      .cls-2 {
        fill: #666563;
      }

      .cls-3 {
        fill: #a52868;
      }
    </style>
  </defs>
  <g>
    <g>
      <polygon class="cls-3" points="96.45 133.54 110.67 133.54 110.67 22.5 100.41 30.44 96.45 133.54"/>
      <polygon class="cls-3" points="83.81 43.29 76.89 133.54 91.11 133.54 94.91 34.7 83.81 43.29"/>
      <polygon class="cls-3" points="66.09 57.01 57.34 133.54 71.56 133.54 78.13 47.69 66.09 57.01"/>
    </g>
    <g>
      <polygon class="cls-3" points="146.22 133.54 132 133.54 132 22.5 142.26 30.44 146.22 133.54"/>
      <polygon class="cls-3" points="158.86 43.29 165.78 133.54 151.56 133.54 147.76 34.7 158.86 43.29"/>
      <polygon class="cls-3" points="176.58 57.01 185.33 133.54 171.11 133.54 164.54 47.69 176.58 57.01"/>
    </g>
    <g>
      <path class="cls-3" d="M196,140.65h-71.11v20.58c6.09-2.65,12.62-4.01,19.49-4.01,10.44,0,17.92,3.16,18.23,3.3l1.98.85.33,2.13,6.62,42.22.91,5.82-5.71-1.43c-4.19-1.05-8.49-1.58-12.77-1.58-17.71,0-30.19,9.11-30.31,9.2l-2.34,1.74-2.34-1.74c-.12-.09-12.6-9.2-30.31-9.2-4.28,0-8.57.53-12.77,1.58l-5.71,1.43.91-5.82,6.62-42.22.33-2.13,1.98-.85c.31-.13,7.78-3.3,18.23-3.3,6.88,0,13.4,1.36,19.49,4.01v-20.58H37.78v22.81h8.89v27.92h0c0,23.68,8.43,45.38,22.44,62.29-6.13,3.09-12.8,5.27-19.85,6.31,4.36,6.03,9.27,11.64,14.67,16.73,7-2.09,13.61-5.07,19.74-8.78,9.97,7.92,21.53,13.92,34.11,17.49v-20.51c-19.41-7.05-35.21-21.57-43.99-40.08,3.84-.95,7.85-1.46,11.99-1.46,13.93,0,26.52,5.73,35.56,14.95,9.04-9.22,21.62-14.95,35.56-14.95,4.13,0,8.15.51,11.99,1.46-8.78,18.51-24.58,33.04-43.99,40.08v20.51c12.58-3.56,24.14-9.56,34.11-17.49,6.12,3.71,12.74,6.69,19.74,8.78,5.4-5.1,10.32-10.7,14.67-16.73-7.05-1.04-13.72-3.22-19.85-6.31,14.01-16.92,22.44-38.61,22.44-62.29v-27.92h8.89v-22.81h-8.89Z"/>
      <path class="cls-3" d="M161.07,164.11s-19.87-8.54-39.74,3.31c-19.87-11.86-39.74-3.31-39.74-3.31l-6.62,42.22c26.49-6.62,46.36,8.28,46.36,8.28,0,0,19.87-14.9,46.36-8.28l-6.62-42.22Z"/>
    </g>
  </g>
  <g>
    <path class="cls-3" d="M1096.89,147.4l-19.56-.53s6.93-32.05,6.64-72.68h-101.17v-18.29h110.35c5.64.39,10.03,4.26,10.54,9.21,0,0,.36,47.22-6.79,82.28"/>
    <path class="cls-3" d="M701.04,163.15v-18.36c-14.18,2.52-49.85,1.9-49.85,1.9v-66.23h45.74v-18.29h-55.87s-.02,0-.03,0-.02,0-.03,0c-5.55.02-10.05,4.52-10.05,10.08v82.64c0,5.57,4.52,10.08,10.08,10.08,0,0,45.76.89,60.01-1.82"/>
    <path class="cls-3" d="M845.13,81.99c-26.98,0-44.78,14.12-44.78,32s17.59,32,44.78,32,44.78-14.12,44.78-32-17.6-32-44.78-32M861.02,123.95c-4,2.36-9.28,3.56-15.71,3.56s-11.48-1.2-15.71-3.56c-4.17-2.32-6.29-5.7-6.29-10.05s2.12-7.52,6.29-9.85c4.23-2.36,9.51-3.56,15.71-3.56s11.56,1.16,15.62,3.46c3.99,2.27,6.01,5.62,6.01,9.96s-1.99,7.73-5.92,10.05"/>
    <polygon class="cls-3" points="373.13 104.45 409.93 104.45 409.93 148.37 430.18 148.37 430.18 42.94 409.93 42.94 409.93 86.17 373.13 86.17 373.13 104.45"/>
    <polygon class="cls-3" points="750.61 100.35 733.34 100.35 733.34 46.93 713.09 46.93 713.09 199.92 733.34 193.73 733.34 118.63 750.61 118.63 750.61 208.05 770.86 200.72 770.86 45.15 750.61 45.15 750.61 100.35"/>
    <polygon class="cls-3" points="854.32 57.78 854.32 39.04 834.97 39.04 834.97 57.78 793.98 57.78 793.98 74.89 896.27 74.89 896.27 57.78 854.32 57.78"/>
    <polygon class="cls-3" points="932.79 43.71 912.54 43.71 912.54 143.63 932.79 143.63 932.79 111.47 960.84 111.47 960.84 93.19 932.79 93.19 932.79 43.71"/>
    <polygon class="cls-3" points="1062 169.95 1062 110.24 1041.75 110.24 1041.75 169.95 1021.62 169.95 1021.62 110.24 1001.37 110.24 1001.37 169.95 966.72 169.95 966.72 188.23 1115.96 188.23 1123.98 169.95 1062 169.95"/>
    <path class="cls-3" d="M486.63,109.09h86.93c6.3,0,11.43-2.65,11.43-8.26v-56.87h-20.25v19.3h-69.31v-19.3h-20.25v56.87c0,5.61,5.13,8.25,11.45,8.26M495.43,79.08h69.31v13.66h-69.31v-13.66Z"/>
    <path class="cls-3" d="M341.17,184.01v-30.55h-20.25v38.65c0,5.61,5.13,10.18,11.46,10.19h90.39l10.7-18.29h-92.3Z"/>
    <path class="cls-3" d="M610.5,137.32v-16.35h-158.47v16.35h69.02v13.3h-49.85v16.36h98.08v42.33l20.25-5.92v-42.64c0-5.59-5.27-10.12-10.86-10.12h-37.37v-13.3h69.2Z"/>
    <path class="cls-3" d="M347.65,70.54h30.45v-18.28h-80.7v18.28h30.35c-.75,41.8-36.31,57.96-38.94,59.95l15.67,13.46c5.74-1.82,26.15-16.67,32.99-38.26h1.03c6.88,24.59,33.45,36.15,33.45,36.15l14.47-14.47s-40.25-16.96-38.77-56.83Z"/>
    <path class="cls-3" d="M932.9,165.89c0-5.59-5.19-10.12-10.78-10.12h-103.98v18.29h94.5v34.48l20.25-5.33v-37.31Z"/>
  </g>
  <g>
    <g>
      <g>
        <polygon class="cls-3" points="336.05 254.62 348.35 254.62 348.35 248.47 336.05 248.47 336.05 241.53 349.1 241.53 349.1 235.32 328.46 235.32 328.46 268.76 346.68 268.76 349.79 262.56 336.05 262.56 336.05 254.62"/>
        <path class="cls-3" d="M373.13,234.78c-9.87,0-16.27,7.49-16.27,17.51s5.81,17.02,15.73,17.02,16.42-6.65,16.42-17.61c0-9.23-5.61-16.92-15.88-16.92M372.98,263.3c-5.06,0-8.14-4.61-8.14-11.16s2.98-11.36,8.09-11.36,8.08,5.16,8.08,11.16c0,6.5-2.93,11.36-8.03,11.36"/>
        <path class="cls-3" d="M453.62,250.75v-.1c3.77-1.39,5.51-4.17,5.51-7.14s-1.69-5.31-4.02-6.55c-2.43-1.43-5.26-1.88-9.87-1.88-3.77,0-7.79.3-9.77.69v32.84c1.69.25,4.46.49,8.18.49,6.65,0,10.72-1.09,13.15-3.02,2.08-1.69,3.47-4.07,3.47-7.09,0-4.32-2.83-7.19-6.65-8.24M442.95,240.78c.64-.1,1.59-.2,3.23-.2,3.42,0,5.36,1.34,5.36,3.87s-2.13,4.12-6.1,4.12h-2.48v-7.79ZM445.88,263.5c-1.29,0-2.18,0-2.93-.1v-9.42h2.58c3.77,0,6.8,1.34,6.8,4.71s-3.03,4.81-6.45,4.81"/>
        <path class="cls-3" d="M488.16,254.57c0,5.91-2.18,8.68-6.15,8.68s-6.05-2.93-6.05-8.68v-19.25h-7.59v18.65c0,10.67,4.96,15.33,13.39,15.33s13.94-4.91,13.94-15.23v-18.75h-7.54v19.25Z"/>
        <path class="cls-3" d="M532.03,235.32h-9.28l-7.59,11.11c-.74,1.19-1.54,2.38-2.28,3.67h-.15v-14.78h-7.49v33.44h7.49v-10.91l2.88-3.52,8.19,14.44h8.83l-11.66-19.2,11.06-14.24Z"/>
        <rect class="cls-3" x="654" y="235.25" width="7.59" height="33.49"/>
        <path class="cls-3" d="M685.86,234.78c-9.87,0-16.27,7.49-16.27,17.51s5.8,17.02,15.72,17.02,16.42-6.65,16.42-17.61c0-9.23-5.61-16.92-15.87-16.92M685.71,263.3c-5.06,0-8.13-4.61-8.13-11.16s2.98-11.36,8.09-11.36,8.08,5.16,8.08,11.16c0,6.5-2.93,11.36-8.04,11.36"/>
        <polygon class="cls-3" points="789.92 235.26 782.33 235.26 782.33 268.76 800.1 268.76 803.22 262.41 789.92 262.41 789.92 235.26"/>
        <path class="cls-3" d="M841.78,254.5c0,5.91-2.18,8.69-6.15,8.69s-6.06-2.93-6.06-8.69v-19.25h-7.59v18.65c0,10.67,4.96,15.33,13.39,15.33s13.94-4.91,13.94-15.23v-18.75h-7.54v19.25Z"/>
        <rect class="cls-3" x="897.04" y="235.25" width="7.6" height="33.5"/>
        <path class="cls-3" d="M930.76,249.61c-1.14,3.82-2.18,7.79-3.03,11.81h-.15c-.79-4.17-1.83-7.99-2.98-11.95l-4.07-14.2h-8.28l10.72,33.5h8.83l11.26-33.5h-8.04l-4.27,14.35Z"/>
        <polygon class="cls-3" points="957.87 254.81 970.18 254.81 970.18 248.66 957.87 248.66 957.87 241.53 970.92 241.53 970.92 235.25 950.28 235.25 950.28 268.76 968.5 268.76 971.62 262.56 957.87 262.56 957.87 254.81"/>
        <path class="cls-3" d="M998.8,253.08v-.15c2.88-1.05,5.9-3.97,5.9-8.24,0-3.08-1.09-5.41-3.08-6.99-2.38-1.89-5.85-2.63-10.81-2.63-4.02,0-7.64.3-10.07.69v32.99h7.49v-13.15h2.28c3.07.05,4.51,1.19,5.4,5.36.99,4.12,1.79,6.85,2.33,7.79h7.74c-.64-1.29-1.68-5.66-2.73-9.43-.84-3.08-2.13-5.31-4.46-6.25M991.21,250.16h-2.98v-9.23c.55-.1,1.59-.25,3.42-.25,3.47.05,5.56,1.58,5.56,4.66s-2.23,4.81-6,4.81"/>
        <rect class="cls-3" x="1041.69" y="235.32" width="7.59" height="33.44"/>
        <polygon class="cls-3" points="1056.41 241.67 1065.39 241.67 1065.39 268.76 1072.98 268.76 1072.98 241.67 1078.99 241.67 1082.11 235.32 1056.41 235.32 1056.41 241.67"/>
        <polygon class="cls-3" points="621.68 241.67 630.66 241.67 630.66 268.76 638.25 268.76 638.25 241.67 644.26 241.67 647.38 235.32 621.68 235.32 621.68 241.67"/>
        <path class="cls-3" d="M1106.54,235.32l-3.37,8.04c-.99,2.38-1.79,4.32-2.53,6.4h-.1c-.84-2.19-1.54-3.97-2.58-6.4l-3.43-8.04h-8.63l10.57,19.74v13.69h7.54v-13.94l11.01-19.5h-8.48Z"/>
        <path class="cls-3" d="M620.17,268.74l-10.37-33.44h-9.92l-10.22,33.44h7.84l2.38-8.58h9.82l2.33,8.58h8.14ZM602.96,246.65c.55-1.94,1.04-4.47,1.54-6.45h.1c.5,1.98,1.09,4.46,1.69,6.45l1.96,7.17-.02-.08h-7.25l1.98-7.09ZM608.21,254.54h0v.03-.03Z"/>
        <polygon class="cls-3" points="859.36 268.74 859.36 235.25 868.19 235.25 880.08 257.79 880.05 235.26 887.02 235.27 887.05 268.74 879.24 268.74 866.29 244.08 866.31 268.74 859.36 268.74"/>
        <polygon class="cls-3" points="554.83 268.74 554.83 235.25 563.66 235.25 575.55 257.79 575.52 235.26 582.49 235.27 582.52 268.74 574.71 268.74 561.76 244.08 561.78 268.74 554.83 268.74"/>
        <path class="cls-3" d="M775.64,268.74l-10.37-33.44h-9.92l-10.22,33.44h7.84l2.38-8.58h9.82l2.33,8.58h8.14ZM758.42,246.65c.55-1.94,1.04-4.47,1.54-6.45h.1c.5,1.98,1.09,4.46,1.69,6.45l1.96,7.17-.02-.08h-7.25l1.98-7.09ZM763.68,254.54h0v.03-.03Z"/>
        <polygon class="cls-3" points="710.65 268.74 710.65 235.25 719.48 235.25 731.37 257.79 731.34 235.26 738.31 235.27 738.34 268.74 730.53 268.74 717.58 244.08 717.6 268.74 710.65 268.74"/>
        <polygon class="cls-3" points="396.19 268.74 396.18 235.25 405.01 235.25 416.9 257.79 416.87 235.26 423.84 235.27 423.87 268.74 416.06 268.74 403.12 244.08 403.13 268.74 396.19 268.74"/>
      </g>
      <path class="cls-3" d="M302.85,262.91c-1.26-.23-2.35-.71-3.15-1.37l-2.63,5.25-.03.05s0,0,0,0l-.02.03s.15.12.38.29c.58.48,1.35.91,2.27,1.26,0,0,.02,0,.02,0,1.38.52,3.07.87,4.92.94,1.62.06,3.22-.09,4.64-.41.07-.01.13-.03.2-.05.24-.06.47-.12.7-.18.22-.06.44-.13.65-.21.17-.06.33-.12.49-.18.12-.05.25-.1.37-.15.25-.11.48-.23.69-.35,3.22-1.78,5.07-5.33,5.07-11.37v-21.13h-7.54v21.04c.05,4.63-1.58,6.29-4.2,6.59-.4.06-.82.1-1.27.1-.54,0-1.06-.05-1.56-.14"/>
    </g>
    <path class="cls-3" d="M1026.14,248.94c-4.25-1.61-6.1-2.54-6.1-4.64,0-1.71,1.56-3.18,4.79-3.18,2.49,0,4.44.55,5.82,1.1l2.69-5.4.04-.15c-1.96-.88-4.69-1.66-8.41-1.66-7.77,0-12.46,4.3-12.46,9.92,0,4.79,3.57,7.82,9.04,9.72,3.96,1.42,5.52,2.59,5.52,4.64s-1.81,3.56-5.23,3.56c-2.59,0-5.07-.68-7-1.49l-2.75,5.51-.02.09c1.86,1.03,5.57,2,9.33,2,9.04,0,13.29-4.69,13.29-10.21,0-4.64-2.73-7.67-8.55-9.82Z"/>
  </g>
  <g>
    <path class="cls-2" d="M1218.13,100.25h63.9v8.5h-63.9v-8.5ZM1248.71,71.56c-4.79,6.03-12.42,11.62-23.6,16.63l-4.28-7.99c18.37-8.57,24.98-17.21,24.98-26.36v-5.08h9.29v5.08c0,3.41-.58,6.68-1.82,9.88l26.07,16.77-5.08,7.7-25.56-16.63Z"/>
    <path class="cls-2" d="M1287.85,102.72v-52.43h34.06v52.43h-34.06ZM1297.15,58.78v35.44h15.54v-35.44h-15.54ZM1351.83,70.18v8.42h-9.8v34.86h-9.3V45.64h9.3v24.54h9.8Z"/>
    <path class="cls-2" d="M1355.83,100.25h63.9v8.5h-63.9v-8.5ZM1413.77,81.95v8.21h-50.47v-40.3h49.02v8.35h-39.79v7.62h39.79v8.13h-39.79v7.99h41.25Z"/>
    <path class="cls-2" d="M1453.5,81.37l-12.34-10.6c-2.76,4.43-6.61,8.42-11.69,12.05l-5.37-6.83c9.59-7.12,13.14-15.47,13.14-23.89v-4.43h8.93v4.43c0,3.78-.44,7.26-1.38,10.53l14.09,12.13-5.37,6.61ZM1468.97,85.58c9.88,0,16.56,5.74,16.56,14.31s-6.68,14.31-16.56,14.31h-15.83c-9.88,0-16.56-5.66-16.56-14.31s6.68-14.31,16.56-14.31h15.83ZM1467.66,105.91c5.74,0,8.57-2.47,8.57-6.1s-2.83-6.03-8.57-6.03h-13.22c-5.74,0-8.57,2.47-8.57,6.03s2.83,6.1,8.57,6.1h13.22ZM1469.26,67.13v14.74h-8.5v-35.51h8.5v12.64h6.68v-13.29h8.79v36.89h-8.79v-15.47h-6.68Z"/>
    <path class="cls-2" d="M1513.92,64.16c-.07,4.57-.51,8.93-1.38,13.22l14.6,21.13-6.9,5.23-10.97-15.9c-2.4,5.59-5.66,11.04-10.09,16.56l-6.61-5.3c9.08-11.69,12.49-22.29,12.56-34.93h-10.38v-8.42h10.53v-10.02h8.71v10.02h11.11v8.42h-11.18ZM1529.75,70.84v-24.11h8.79v65.14h-8.79v-32.53h-9.59v-8.5h9.59ZM1544.49,45.64h9v67.82h-9V45.64Z"/>
    <path class="cls-2" d="M1604.84,82.38c-10.24,1.38-23.16,2.18-32.75,2.18h-10.31l-.51-8.21h12.27v-12.78h9.29v12.49c6.68-.29,14.31-.87,21.06-1.74l.94,8.06ZM1589.67,71.42c.94-5.88,1.52-11.33,1.6-15.32h-25.92v-7.62h35v3.05c0,7.41-.73,14.67-1.82,20.91l-8.86-1.02ZM1602.52,88.41c9.66,0,16.34,4.79,16.34,12.93s-6.68,12.85-16.34,12.85h-14.89c-9.59,0-16.34-4.79-16.34-12.85s6.75-12.93,16.34-12.93h14.89ZM1601.07,106.27c5.59,0,8.5-1.96,8.5-5.01s-2.9-5.08-8.5-5.08h-11.91c-5.66,0-8.57,2.03-8.57,5.08s2.9,5.01,8.57,5.01h11.91ZM1618.06,62.41h9.08v8.42h-9.08v15.25h-9.29v-40.38h9.29v16.7Z"/>
    <path class="cls-2" d="M1671.07,51.01v7.48h-39.87v-7.48h15.25v-6.1h9.37v6.1h15.25ZM1668.24,73.89c0,7.84-7.48,11.76-17.07,11.76s-17.14-3.92-17.14-11.76v-.87c0-7.84,7.62-11.76,17.14-11.76s17.07,3.92,17.07,11.76v.87ZM1640.87,98.14v-8.42h45.31v24.47h-9.22v-16.05h-36.09ZM1643.12,73.81c0,2.69,3.56,4.36,8.06,4.36s8.06-1.67,8.06-4.36v-.65c0-2.76-3.49-4.43-8.06-4.43s-8.06,1.67-8.06,4.43v.65ZM1696.05,61.69v8.42h-9.88v15.9h-9.22v-40.38h9.22v16.05h9.88Z"/>
    <path class="cls-2" d="M1737.09,76.65c-3.05,6.1-9.22,9-16.34,9-10.24,0-18.44-5.95-18.44-18.66v-1.09c0-12.85,8.21-18.81,18.44-18.81,6.39,0,12.05,2.4,15.32,7.33h13.51v-8.79h9.29v50.18h-9.29v-19.17h-12.49ZM1711.6,66.92c0,7.26,4.14,10.6,9.15,10.6s9.08-3.34,9.08-10.6v-1.02c0-7.26-4.14-10.67-9.08-10.67s-9.15,3.41-9.15,10.67v1.02ZM1722.13,105.04h39.29v8.42h-48.58v-22.22h9.29v13.8ZM1749.58,61.83h-10.75c.22,1.23.29,2.61.29,4.07v1.09c0,.8,0,1.6-.07,2.32h10.53v-7.48Z"/>
    <path class="cls-2" d="M1832.8,80.71v8.42h-27.3v25.12h-9.29v-25.12h-27.3v-8.42h44.44c1.31-8.71,2.18-17.94,2.18-23.16h-39.72v-8.5h49.02v5.59c0,7.7-.8,17.06-2.18,26.07h10.17Z"/>
    <path class="cls-2" d="M1858.88,67.86c-3.63,4.43-8.86,8.28-15.83,11.84l-4.65-7.62c12.64-6.39,17.21-13.22,17.21-20.91v-3.78h9.08v3.78c0,3.27-.51,6.32-1.52,9.15l18.44,10.46-4.65,7.48-18.08-10.38ZM1859.82,106.06h38.85v7.77h-48.14v-19.75h36.74v-4.14h-37.11v-7.55h46.4v19.17h-36.74v4.5ZM1896.56,45.64v33.04h-9.29v-33.04h9.29Z"/>
    <path class="cls-2" d="M1223.57,162.21c2.29,5.44,6.93,8.59,13.06,8.59s9.85-2.29,9.85-6.47c0-3.84-2.46-5.67-6.93-6.93l-6.88-1.89c-6.19-1.72-12.72-5.16-12.72-13.29s6.99-13.18,16.1-13.18,14.95,5.1,17.48,11.23l-6.19,3.09c-2.06-4.35-5.79-7.62-11.29-7.62s-8.82,2.41-8.82,6.47,3.09,5.61,7.11,6.7l6.7,1.83c6.25,1.72,12.72,5.33,12.72,13.58s-7.56,13.18-17.13,13.18-16.33-4.58-19.31-12.2l6.25-3.09Z"/>
    <path class="cls-2" d="M1305.91,156.02v20.28h-4.12v-20.17c0-6.19-2.92-10.03-8.02-10.03s-8.48,4.18-8.48,10.31v19.88h-4.07v-20.17c0-6.25-2.86-10.03-8.02-10.03s-8.37,4.07-8.37,10.31v19.88h-4.18v-33.12h3.78l.29,4.87c1.89-3.44,5.16-5.73,9.45-5.73,4.7,0,8.25,2.69,9.97,7.05,1.89-4.18,5.67-7.05,10.54-7.05,6.76,0,11.23,5.5,11.23,13.69Z"/>
    <path class="cls-2" d="M1340.11,155.1v21.2h-3.72l-.29-4.58c-1.89,3.32-5.5,5.44-10.26,5.44h-2.23c-6.36,0-10.94-4.35-10.94-10.26s4.64-10.08,12.89-10.08h10.43v-1.43c0-5.62-3.15-9.22-9.11-9.22-4.3,0-7.39,2.01-9.11,5.21l-3.72-1.72c2.23-4.35,7.1-7.33,13.12-7.33,7.62,0,12.95,4.76,12.95,12.78ZM1326.42,173.32c4.64,0,9-2.86,9.57-7.39v-5.39h-10.14c-6.36,0-9.05,2.64-9.05,6.36,0,4.01,2.98,6.42,7.51,6.42h2.12Z"/>
    <path class="cls-2" d="M1365.55,143.01l-.97,3.72c-1.38-.34-2.81-.57-4.07-.57-4.76,0-7.79,4.87-7.79,10.48v19.65h-4.18v-33.12h3.84l.23,5.21c1.66-3.61,4.58-6.07,8.54-6.07,1.66,0,3.15.23,4.41.69Z"/>
    <path class="cls-2" d="M1389.1,175.39c-1.95,1.2-4.47,1.78-6.7,1.78-4.53,0-7.51-2.41-7.51-7.73v-22.4h-6.47v-3.84h6.47v-9.51h4.13v9.51h9.11v3.84h-9.11v22c0,3.61,1.55,4.35,3.84,4.35,1.89,0,3.32-.52,5.1-1.43l1.15,3.44Z"/>
    <path class="cls-2" d="M1445.02,163.3c0,8.77-5.96,13.35-15.93,13.35h-20.46v-46.75h18.22c9.91,0,15.93,4.58,15.93,13.12,0,3.9-1.72,7.33-6.19,9.22,5.9,1.95,8.42,5.96,8.42,11.06ZM1416.03,136.42v13.58h10.77c5.67,0,8.71-2.58,8.71-6.88s-3.04-6.7-8.71-6.7h-10.77ZM1429.03,170.11c5.67,0,8.71-2.46,8.71-6.99s-3.04-7.05-8.71-7.05h-13.01v14.04h13.01Z"/>
    <path class="cls-2" d="M1452.18,133.16c0-1.66,1.38-2.98,3.04-2.98s2.98,1.38,2.98,2.98-1.32,2.98-2.98,2.98-3.04-1.32-3.04-2.98ZM1453.15,176.3v-33.12h4.12v33.12h-4.12Z"/>
    <path class="cls-2" d="M1465.18,162.15v-4.87c0-9.74,7.16-14.95,15.01-14.95s15.07,5.21,15.07,14.95v4.87c0,9.8-7.1,15.01-15.07,15.01s-15.01-5.21-15.01-15.01ZM1491.14,161.98v-4.47c0-7.28-5.04-11.34-10.94-11.34s-10.83,4.07-10.83,11.34v4.47c0,7.28,4.98,11.4,10.83,11.4s10.94-4.13,10.94-11.4Z"/>
    <path class="cls-2" d="M1531.82,157.57v4.53c0,9.8-6.82,15.24-13.75,15.24-4.81,0-9.05-2.12-11.57-6.02v14.73h-4.18v-42.86h3.84l.29,5.27c2.52-3.95,6.82-6.13,11.63-6.13,6.93,0,13.75,5.5,13.75,15.24ZM1527.69,157.74c0-7.45-4.7-11.57-10.66-11.57s-10.54,4.12-10.54,11.57v4.24c0,7.39,4.64,11.57,10.54,11.57s10.66-4.18,10.66-11.57v-4.24Z"/>
    <path class="cls-2" d="M1566.65,155.96v20.34h-4.13v-20.11c0-6.25-2.98-10.14-9.23-10.14s-10.26,4.24-10.26,10.37v19.88h-4.18v-46.07h4.18v18.11c2.12-3.67,6.07-6.02,11.12-6.02,7.79,0,12.49,5.5,12.49,13.64Z"/>
    <path class="cls-2" d="M1573.7,162.15v-4.87c0-9.74,7.16-14.95,15.01-14.95s15.07,5.21,15.07,14.95v4.87c0,9.8-7.11,15.01-15.07,15.01s-15.01-5.21-15.01-15.01ZM1599.66,161.98v-4.47c0-7.28-5.04-11.34-10.94-11.34s-10.83,4.07-10.83,11.34v4.47c0,7.28,4.98,11.4,10.83,11.4s10.94-4.13,10.94-11.4Z"/>
    <path class="cls-2" d="M1628.76,175.39c-1.95,1.2-4.47,1.78-6.7,1.78-4.53,0-7.51-2.41-7.51-7.73v-22.4h-6.47v-3.84h6.47v-9.51h4.13v9.51h9.11v3.84h-9.11v22c0,3.61,1.55,4.35,3.84,4.35,1.89,0,3.32-.52,5.1-1.43l1.15,3.44Z"/>
    <path class="cls-2" d="M1632.48,162.15v-4.87c0-9.74,7.16-14.95,15.01-14.95s15.07,5.21,15.07,14.95v4.87c0,9.8-7.11,15.01-15.07,15.01s-15.01-5.21-15.01-15.01ZM1658.44,161.98v-4.47c0-7.28-5.04-11.34-10.94-11.34s-10.83,4.07-10.83,11.34v4.47c0,7.28,4.98,11.4,10.83,11.4s10.94-4.13,10.94-11.4Z"/>
    <path class="cls-2" d="M1698.26,156.02v20.28h-4.13v-20.05c0-6.19-2.98-10.08-9.28-10.08-5.96,0-10.2,4.24-10.2,10.26v19.88h-4.18v-33.12h3.78l.34,5.27c2.12-3.72,6.02-6.13,11.12-6.13,7.85,0,12.55,5.5,12.55,13.69Z"/>
    <path class="cls-2" d="M1706.74,133.16c0-1.66,1.38-2.98,3.04-2.98s2.98,1.38,2.98,2.98-1.32,2.98-2.98,2.98-3.04-1.32-3.04-2.98ZM1707.71,176.3v-33.12h4.12v33.12h-4.12Z"/>
    <path class="cls-2" d="M1719.75,162.21v-4.93c0-9.74,7.16-14.95,15.01-14.95,5.96,0,11.29,2.98,13.64,8.65l-3.84,1.55c-1.83-4.18-5.39-6.36-9.8-6.36-5.96,0-10.83,4.07-10.83,11.34v4.47c0,7.28,4.87,11.4,10.83,11.4,4.41,0,7.96-2.18,9.8-6.42l3.84,1.55c-2.35,5.67-7.68,8.65-13.64,8.65-7.85,0-15.01-5.21-15.01-14.95Z"/>
    <path class="cls-2" d="M1756.7,166.62c2.46,4.7,6.36,6.93,11.17,6.93s8.48-1.83,8.48-5.39-2.75-4.87-6.76-6.07l-4.53-1.32c-5.27-1.55-9.45-4.01-9.45-9.57s4.98-8.88,11.34-8.88,10.6,2.86,13.24,7.68l-3.21,2.12c-2.18-3.78-5.61-6.19-10.08-6.19s-7.28,2.12-7.28,5.27,2.23,4.7,6.13,5.9l4.53,1.32c5.27,1.55,10.08,3.9,10.08,9.74s-5.84,9-12.55,9-11.63-2.86-14.44-8.48l3.32-2.06Z"/>
    <path class="cls-2" d="M1809.18,170.11h21.37v6.53h-28.76v-46.75h7.39v40.22Z"/>
    <path class="cls-2" d="M1862.3,155.1v21.2h-3.72l-.29-4.58c-1.89,3.32-5.5,5.44-10.26,5.44h-2.23c-6.36,0-10.94-4.35-10.94-10.26s4.64-10.08,12.89-10.08h10.43v-1.43c0-5.62-3.15-9.22-9.11-9.22-4.3,0-7.39,2.01-9.11,5.21l-3.72-1.72c2.23-4.35,7.1-7.33,13.12-7.33,7.62,0,12.95,4.76,12.95,12.78ZM1848.6,173.32c4.64,0,9-2.86,9.57-7.39v-5.39h-10.14c-6.36,0-9.05,2.64-9.05,6.36,0,4.01,2.98,6.42,7.51,6.42h2.12Z"/>
    <path class="cls-2" d="M1900.23,157.45v4.58c0,9.68-6.7,15.13-13.75,15.13-4.87,0-9.11-2.12-11.63-6.07l-.29,5.21h-3.84v-46.07h4.18v18.05c2.52-3.9,6.76-5.96,11.57-5.96,7.05,0,13.75,5.44,13.75,15.13ZM1896.1,157.62c0-7.33-4.7-11.46-10.66-11.46s-10.54,4.12-10.54,11.46v4.24c0,7.33,4.7,11.52,10.54,11.52s10.66-4.18,10.66-11.52v-4.24Z"/>
    <path class="cls-2" d="M1906.53,173.95c0-1.78,1.38-3.15,3.15-3.15s3.21,1.38,3.21,3.15-1.43,3.21-3.21,3.21-3.15-1.43-3.15-3.21Z"/>
  </g>
  <line class="cls-1" x1="1171.5" y1="39" x2="1171.5" y2="188"/>
</svg>