<?xml version="1.0" encoding="UTF-8"?>
<svg id="Layer_1" data-name="Layer 1" xmlns="http://www.w3.org/2000/svg" viewBox="0 0 215.83 250.83">
  <defs>
    <style>
      .cls-1 {
        fill: #0a0203;
      }
    </style>
  </defs>
  <path class="cls-1" d="M188.11,32.88H27.72c-6.78,0-12.34,5.56-12.34,12.35s5.56,12.35,12.34,12.35h160.39c6.79,0,12.34-5.56,12.34-12.35s-5.55-12.35-12.34-12.35ZM114.99,86.47c-1.94-2.78-4.51-4.17-7.07-4.17-2.56,0-5.13,1.39-7.08,4.17L22.46,198.52c-3.89,5.57-2.53,13.31,3.03,17.21,5.56,3.9,13.29,2.53,17.18-3.04l65.25-93.28,65.25,93.28c3.89,5.56,11.62,6.93,17.18,3.04,5.56-3.9,6.92-11.64,3.03-17.21l-78.38-112.05Z"/>
</svg>