<?xml version="1.0" encoding="UTF-8"?>
<svg id="Layer_1" data-name="Layer 1" xmlns="http://www.w3.org/2000/svg" viewBox="0 0 1955.8 312.87">
  <defs>
    <style>
      .cls-1 {
        fill: #0a0203;
      }

      .cls-2 {
        fill: none;
        stroke: #0a0203;
        stroke-linecap: round;
        stroke-linejoin: round;
        stroke-width: 2px;
      }

      .cls-3 {
        fill: #fff;
      }

      .cls-4 {
        fill: #144e8c;
      }

      .cls-5 {
        fill: #a52868;
      }
    </style>
  </defs>
  <g>
    <g>
      <polygon class="cls-4" points="468.47 126.91 511.59 126.91 511.59 105.35 468.47 105.35 468.47 81.01 514.2 81.01 514.2 59.27 441.86 59.27 441.86 176.48 505.72 176.48 516.64 154.74 468.47 154.74 468.47 126.91"/>
      <path class="cls-4" d="M591.96,57.35c-34.6,0-57.04,26.26-57.04,61.39s20.35,59.64,55.13,59.64,57.56-23.31,57.56-61.74c0-32.34-19.65-59.3-55.65-59.3M591.45,157.34c-17.74,0-28.53-16.17-28.53-39.12s10.43-39.83,28.35-39.83,28.34,18.08,28.34,39.12c0,22.78-10.25,39.82-28.16,39.82"/>
      <path class="cls-4" d="M863.29,113.35v-.35c13.22-4.88,19.31-14.61,19.31-25.04s-5.91-18.62-14.09-22.97c-8.52-5.03-18.42-6.59-34.61-6.59-13.21,0-27.29,1.04-34.24,2.43v115.12c5.91.86,15.65,1.73,28.69,1.73,23.3,0,37.57-3.81,46.08-10.6,7.3-5.92,12.17-14.27,12.17-24.87,0-15.13-9.91-25.22-23.31-28.87M825.9,78.4c2.26-.35,5.56-.7,11.31-.7,12,0,18.78,4.71,18.78,13.57s-7.47,14.43-21.38,14.43h-8.7v-27.3ZM836.16,158.05c-4.52,0-7.64,0-10.26-.36v-33.04h9.05c13.21,0,23.82,4.7,23.82,16.52s-10.61,16.88-22.61,16.88"/>
      <path class="cls-4" d="M976.45,126.73c0,20.7-7.65,30.44-21.56,30.44s-21.22-10.27-21.22-30.44V59.27h-26.61v65.38c0,37.39,17.38,53.74,46.95,53.74s48.86-17.22,48.86-53.39V59.27h-26.43v67.46Z"/>
      <path class="cls-4" d="M1124.45,59.27h-32.52l-26.61,38.95c-2.61,4.17-5.39,8.35-8,12.87h-.52v-51.82h-26.26v117.21h26.26v-38.26l10.09-12.35,28.7,50.61h30.94l-40.87-67.3,38.78-49.91Z"/>
      <polygon class="cls-4" points="672.06 176.41 672.04 59.02 703 59.02 744.68 138.01 744.55 59.05 769 59.08 769.09 176.41 741.71 176.41 696.35 89.97 696.4 176.41 672.06 176.41"/>
      <path class="cls-4" d="M361.46,155.97c-4.4-.79-8.25-2.5-11.05-4.82l-9.22,18.41-.09.17s0,0,0,0l-.06.11s.52.41,1.34,1c2.04,1.69,4.75,3.18,7.97,4.4.03.01.05.02.08.03,4.83,1.82,10.75,3.04,17.24,3.3,5.66.23,11.27-.33,16.25-1.44.24-.05.47-.11.7-.16.84-.2,1.65-.42,2.45-.65.77-.22,1.53-.46,2.27-.72.59-.2,1.16-.42,1.71-.64.44-.18.87-.35,1.3-.54.86-.39,1.68-.79,2.43-1.22,11.29-6.26,17.76-18.67,17.76-39.86V59.27h-26.43v73.74c.19,16.23-5.54,22.05-14.71,23.1-1.39.23-2.86.37-4.46.37-1.89,0-3.72-.18-5.47-.5"/>
    </g>
    <g>
      <rect class="cls-4" x="487.09" y="209.9" width="10.5" height="46.33"/>
      <path class="cls-4" d="M531.18,209.24c-13.66,0-22.51,10.37-22.51,24.23s8.03,23.54,21.76,23.54,22.72-9.2,22.72-24.37c0-12.76-7.76-23.41-21.96-23.41M530.97,248.71c-7,0-11.26-6.38-11.26-15.44s4.12-15.72,11.19-15.72,11.18,7.14,11.18,15.44c0,8.99-4.05,15.72-11.12,15.72"/>
      <polygon class="cls-4" points="675.17 209.92 664.66 209.92 664.66 256.27 689.25 256.27 693.56 247.48 675.17 247.48 675.17 209.92"/>
      <path class="cls-4" d="M746.92,236.53c0,8.17-3.02,12.02-8.51,12.02s-8.38-4.05-8.38-12.02v-26.63h-10.5v25.81c0,14.76,6.86,21.21,18.53,21.21s19.29-6.8,19.29-21.08v-25.95h-10.43v26.63Z"/>
      <rect class="cls-4" x="823.38" y="209.9" width="10.51" height="46.35"/>
      <path class="cls-4" d="M870.04,229.77c-1.58,5.29-3.02,10.78-4.19,16.34h-.21c-1.09-5.77-2.54-11.05-4.12-16.54l-5.63-19.65h-11.46l14.83,46.36h12.22l15.58-46.36h-11.12l-5.9,19.86Z"/>
      <polygon class="cls-4" points="907.55 236.96 924.57 236.96 924.57 228.45 907.55 228.45 907.55 218.58 925.61 218.58 925.61 209.9 897.05 209.9 897.05 256.27 922.26 256.27 926.57 247.68 907.55 247.68 907.55 236.96"/>
      <path class="cls-4" d="M964.18,234.58v-.2c3.98-1.45,8.16-5.49,8.16-11.4,0-4.26-1.51-7.48-4.26-9.68-3.29-2.61-8.1-3.64-14.96-3.64-5.56,0-10.57.41-13.93.96v45.65h10.37v-18.19h3.16c4.25.07,6.25,1.64,7.48,7.41,1.38,5.7,2.47,9.47,3.23,10.78h10.71c-.89-1.79-2.33-7.83-3.77-13.05-1.17-4.26-2.95-7.35-6.17-8.65M953.68,230.53h-4.12v-12.77c.76-.14,2.2-.35,4.74-.35,4.8.07,7.69,2.19,7.69,6.45s-3.09,6.66-8.3,6.66"/>
      <rect class="cls-4" x="1023.52" y="210" width="10.5" height="46.27"/>
      <polygon class="cls-4" points="1043.9 218.79 1056.32 218.79 1056.32 256.27 1066.82 256.27 1066.82 218.79 1075.14 218.79 1079.46 210 1043.9 210 1043.9 218.79"/>
      <polygon class="cls-4" points="442.38 218.79 454.8 218.79 454.8 256.27 465.3 256.27 465.3 218.79 473.62 218.79 477.94 210 442.38 210 442.38 218.79"/>
      <path class="cls-4" d="M1113.25,210l-4.67,11.12c-1.37,3.3-2.47,5.97-3.5,8.86h-.14c-1.17-3.02-2.13-5.49-3.57-8.86l-4.74-11.12h-11.94l14.62,27.32v18.95h10.44v-19.29l15.23-26.98h-11.74Z"/>
      <path class="cls-4" d="M440.29,256.24l-14.35-46.27h-13.73l-14.14,46.27h10.85l3.29-11.88h13.59l3.22,11.88h11.26ZM416.47,225.67c.75-2.68,1.44-6.18,2.13-8.92h.14c.69,2.74,1.51,6.18,2.34,8.92l2.71,9.92-.03-.11h-10.03l2.75-9.81ZM423.74,236.58h0v.04-.04Z"/>
      <polygon class="cls-4" points="771.25 256.24 771.24 209.9 783.46 209.9 799.92 241.08 799.87 209.91 809.52 209.93 809.55 256.24 798.75 256.24 780.84 222.12 780.86 256.24 771.25 256.24"/>
      <polygon class="cls-4" points="349.88 256.24 349.88 209.9 362.1 209.9 378.55 241.08 378.5 209.91 388.15 209.93 388.19 256.24 377.38 256.24 359.47 222.12 359.49 256.24 349.88 256.24"/>
      <path class="cls-4" d="M655.41,256.24l-14.35-46.27h-13.73l-14.14,46.27h10.85l3.29-11.88h13.59l3.22,11.88h11.26ZM631.58,225.67c.75-2.68,1.44-6.18,2.13-8.92h.14c.69,2.74,1.51,6.18,2.34,8.92l2.71,9.92-.03-.11h-10.03l2.75-9.81ZM638.85,236.58h0v.04-.04Z"/>
      <polygon class="cls-4" points="565.49 256.24 565.48 209.9 577.7 209.9 594.15 241.08 594.1 209.91 603.75 209.93 603.79 256.24 592.98 256.24 575.07 222.12 575.09 256.24 565.49 256.24"/>
      <path class="cls-4" d="M1002.02,228.84c-5.88-2.23-8.44-3.52-8.44-6.42,0-2.36,2.16-4.4,6.62-4.4,3.45,0,6.15.77,8.05,1.52l3.73-7.47.06-.2c-2.71-1.21-6.49-2.3-11.63-2.3-10.74,0-17.24,5.95-17.24,13.73,0,6.63,4.93,10.82,12.5,13.45,5.48,1.96,7.64,3.58,7.64,6.43s-2.5,4.93-7.23,4.93c-3.58,0-7.02-.95-9.69-2.06l-3.8,7.62-.03.13c2.57,1.42,7.71,2.77,12.91,2.77,12.51,0,18.39-6.49,18.39-14.13,0-6.42-3.78-10.61-11.83-13.59Z"/>
    </g>
  </g>
  <g>
    <g>
      <g>
        <path class="cls-4" d="M145.36,27.74c-71.3,0-129.1,57.8-129.1,129.1s57.8,129.1,129.1,129.1,129.1-57.8,129.1-129.1S216.66,27.74,145.36,27.74ZM145.36,256.67c-55.14,0-99.84-44.7-99.84-99.84s44.7-99.84,99.84-99.84,99.84,44.7,99.84,99.84-44.7,99.84-99.84,99.84Z"/>
        <circle class="cls-5" cx="145.36" cy="156.83" r="96.09" transform="translate(-68.32 148.72) rotate(-45)"/>
      </g>
      <g>
        <g>
          <g>
            <path class="cls-3" d="M33.92,164.65c-1.47,2.05-2.03,3.33-2.14,4.41-.34-1.05-1.15-2.16-2.9-4.07-1.65-1.8-3.82-3.04-6.15-3.74.21,2.3,1.18,4.54,2.92,6.33,1.74,1.79,3.97,2.87,6.34,3.29,2.18-1,4.11-2.5,5.5-4.36,1.4-1.87,2.1-3.85,2.17-5.81-2.27.73-4.37,2.02-5.75,3.95Z"/>
            <path class="cls-3" d="M44.46,205.02c-.59,2.43-.61,3.81-.32,4.87-.69-.85-1.88-1.57-4.23-2.7-2.19-1.07-4.67-1.42-7.09-1.22,1.04,2.05,2.74,3.8,5.07,4.8,2.3,1.02,4.76,1.21,7.1.74,1.68-1.74,2.93-3.84,3.53-6.08.56-2.22.52-4.35-.15-6.19-1.84,1.51-3.32,3.48-3.9,5.79Z"/>
            <path class="cls-3" d="M49.5,214.33c-.37,2.48-.32,3.9.05,4.93-.75-.8-1.95-1.44-4.38-2.34-1.15-.43-2.36-.66-3.59-.74-1.21-.09-2.41-.02-3.6.19.57,1,1.37,1.86,2.31,2.59.93.73,1.99,1.32,3.16,1.73,1.17.41,2.35.62,3.56.62,1.22,0,2.42-.2,3.58-.55.74-.94,1.37-1.95,1.85-3.02.49-1.07.89-2.21,1.1-3.37.21-1.16.25-2.25.11-3.28-.14-1.02-.44-1.97-.81-2.88-.85.84-1.62,1.8-2.2,2.83-.56,1.02-.96,2.12-1.13,3.29Z"/>
            <path class="cls-3" d="M55.37,223.21c-.13,1.28-.1,2.24,0,3.01.09.78.26,1.36.5,1.86-.42-.36-.95-.67-1.69-.97-.75-.3-1.71-.59-2.92-.98-2.31-.71-4.83-.62-7.19,0,.7.92,1.54,1.74,2.5,2.41.96.67,2.03,1.2,3.27,1.49,2.45.61,4.91.37,7.14-.5,1.35-2,2.22-4.29,2.42-6.59.08-1.14.06-2.25-.13-3.28-.19-1.03-.54-1.97-1.03-2.81-1.55,1.8-2.66,3.98-2.87,6.37Z"/>
            <path class="cls-3" d="M62.06,231.43c.07,2.5.36,3.89.9,4.84-.87-.66-2.17-1.08-4.73-1.54-1.2-.23-2.45-.24-3.66-.11-1.19.11-2.38.39-3.51.8.38.43.79.84,1.23,1.21.46.36.96.67,1.48.95,1.05.56,2.2.96,3.42,1.16,1.23.2,2.43.2,3.61,0,1.2-.22,2.35-.62,3.43-1.16.57-1.05,1.01-2.16,1.3-3.29.31-1.15.49-2.34.5-3.51,0-1.17-.15-2.26-.46-3.24-.15-.49-.35-.95-.57-1.4-.2-.46-.44-.9-.72-1.3-.69.98-1.27,2.04-1.68,3.16-.39,1.11-.58,2.25-.56,3.44Z"/>
            <path class="cls-3" d="M69.46,238.98c.13,1.28.35,2.21.59,2.95.25.74.53,1.29.86,1.72-.48-.27-1.06-.46-1.85-.61-.79-.15-1.8-.23-3.06-.37-2.4-.23-4.86.36-7.04,1.43.87.76,1.86,1.39,2.93,1.86,1.07.47,2.23.77,3.51.8,2.52.1,4.88-.62,6.89-1.91.92-2.23,1.32-4.65,1.06-6.94-.15-1.13-.4-2.22-.79-3.19-.39-.97-.92-1.82-1.57-2.55-1.16,2.07-1.81,4.43-1.54,6.82Z"/>
            <path class="cls-3" d="M77.63,245.82c.53,2.45,1.07,3.76,1.79,4.59-.99-.47-2.33-.65-4.93-.64-1.23,0-2.44.21-3.62.58-1.15.33-2.26.83-3.3,1.44.45.35.93.68,1.44.96.52.26,1.07.48,1.64.65,1.13.35,2.33.53,3.57.5,2.46-.03,4.79-.99,6.7-2.46.73-2.28.89-4.67.49-7.01-.21-1.16-.57-2.19-1.05-3.1-.24-.45-.52-.88-.83-1.27-.29-.41-.6-.8-.95-1.14-.5,1.09-.87,2.24-1.06,3.42-.17,1.15-.15,2.32.1,3.48Z"/>
            <path class="cls-3" d="M29,154.81c-.05,2.32.76,4.47,2.14,6.19,1.24-1.82,1.97-3.89,2.01-6.11.04-2.22-.61-4.31-1.78-6.18-1.44,1.66-2.33,3.79-2.37,6.11Z"/>
            <path class="cls-3" d="M35.11,175.08c-1.27,2.17-1.71,3.5-1.72,4.6-.43-1.01-1.35-2.04-3.27-3.77-1.81-1.64-4.09-2.67-6.47-3.15.42,2.27,1.6,4.41,3.5,6.03,1.9,1.62,4.22,2.49,6.62,2.68,2.08-1.2,3.85-2.87,5.07-4.86,1.22-1.99,1.73-4.03,1.62-5.99-2.19.94-4.16,2.42-5.36,4.47Z"/>
            <path class="cls-3" d="M37.27,185.32c-1.06,2.28-1.38,3.65-1.28,4.74-.52-.96-1.53-1.9-3.6-3.45-1.95-1.46-4.33-2.27-6.74-2.53.63,2.22,2.01,4.24,4.05,5.68,2.05,1.44,4.44,2.08,6.85,2.05,1.96-1.39,3.57-3.22,4.59-5.32,1.03-2.1,1.35-4.18,1.05-6.12-2.09,1.14-3.91,2.8-4.91,4.95Z"/>
            <path class="cls-3" d="M40.37,195.28c-.84,2.37-1.03,3.76-.83,4.83-.61-.91-1.71-1.75-3.91-3.1-2.08-1.27-4.52-1.86-6.94-1.89.84,2.15,2.4,4.04,4.56,5.27,2.17,1.24,4.61,1.65,7.01,1.4,1.82-1.57,3.25-3.54,4.08-5.72.83-2.19.95-4.29.47-6.19-1.98,1.33-3.63,3.15-4.43,5.39Z"/>
          </g>
          <g>
            <path class="cls-3" d="M256.81,164.65c1.47,2.05,2.03,3.33,2.14,4.41.34-1.05,1.15-2.16,2.9-4.07,1.65-1.8,3.82-3.04,6.15-3.74-.21,2.3-1.18,4.54-2.92,6.33-1.74,1.79-3.97,2.87-6.34,3.29-2.18-1-4.11-2.5-5.5-4.36-1.4-1.87-2.1-3.85-2.17-5.81,2.27.73,4.37,2.02,5.75,3.95Z"/>
            <path class="cls-3" d="M246.27,205.02c.59,2.43.61,3.81.32,4.87.69-.85,1.88-1.57,4.23-2.7,2.19-1.07,4.67-1.42,7.09-1.22-1.04,2.05-2.74,3.8-5.07,4.8-2.3,1.02-4.76,1.21-7.1.74-1.68-1.74-2.93-3.84-3.53-6.08-.56-2.22-.52-4.35.15-6.19,1.84,1.51,3.32,3.48,3.9,5.79Z"/>
            <path class="cls-3" d="M241.23,214.33c.37,2.48.32,3.9-.05,4.93.75-.8,1.95-1.44,4.38-2.34,1.15-.43,2.36-.66,3.59-.74,1.21-.09,2.41-.02,3.6.19-.57,1-1.37,1.86-2.31,2.59-.93.73-1.99,1.32-3.16,1.73-1.17.41-2.35.62-3.56.62-1.22,0-2.42-.2-3.58-.55-.74-.94-1.37-1.95-1.85-3.02-.49-1.07-.89-2.21-1.1-3.37-.21-1.16-.25-2.25-.11-3.28.14-1.02.44-1.97.82-2.88.85.84,1.62,1.8,2.2,2.83.56,1.02.96,2.12,1.13,3.29Z"/>
            <path class="cls-3" d="M235.35,223.21c.13,1.28.1,2.24.01,3.01-.09.78-.26,1.36-.5,1.86.42-.36.95-.67,1.69-.97.75-.3,1.71-.59,2.92-.98,2.31-.71,4.83-.62,7.19,0-.7.92-1.54,1.74-2.5,2.41-.96.67-2.03,1.2-3.27,1.49-2.45.61-4.91.37-7.14-.5-1.35-2-2.22-4.29-2.42-6.59-.08-1.14-.06-2.25.13-3.28.19-1.03.54-1.97,1.03-2.81,1.55,1.8,2.66,3.98,2.87,6.37Z"/>
            <path class="cls-3" d="M228.67,231.43c-.07,2.5-.36,3.89-.9,4.84.87-.66,2.17-1.08,4.73-1.54,1.2-.23,2.45-.24,3.66-.11,1.19.11,2.38.39,3.51.8-.38.43-.79.84-1.23,1.21-.46.36-.96.67-1.48.95-1.05.56-2.2.96-3.42,1.16-1.23.2-2.43.2-3.61,0-1.2-.22-2.35-.62-3.43-1.16-.57-1.05-1.01-2.16-1.3-3.29-.31-1.15-.49-2.34-.5-3.51,0-1.17.15-2.26.46-3.24.15-.49.35-.95.57-1.4.2-.46.44-.9.72-1.3.69.98,1.27,2.04,1.68,3.16.39,1.11.58,2.25.56,3.44Z"/>
            <path class="cls-3" d="M221.26,238.98c-.13,1.28-.35,2.21-.59,2.95-.25.74-.53,1.29-.86,1.72.48-.27,1.06-.46,1.85-.61.79-.15,1.8-.23,3.06-.37,2.4-.23,4.86.36,7.04,1.43-.87.76-1.86,1.39-2.94,1.86-1.07.47-2.23.77-3.51.8-2.52.1-4.88-.62-6.89-1.91-.92-2.23-1.32-4.65-1.06-6.94.15-1.13.4-2.22.79-3.19.39-.97.92-1.82,1.57-2.55,1.16,2.07,1.81,4.43,1.54,6.82Z"/>
            <path class="cls-3" d="M213.1,245.82c-.53,2.45-1.07,3.76-1.79,4.59.99-.47,2.33-.65,4.93-.64,1.23,0,2.44.21,3.62.58,1.15.33,2.26.83,3.3,1.44-.45.35-.93.68-1.44.96-.52.26-1.07.48-1.64.65-1.13.35-2.33.53-3.57.5-2.46-.03-4.79-.99-6.7-2.46-.73-2.28-.89-4.67-.49-7.01.21-1.16.57-2.19,1.05-3.1.24-.45.52-.88.83-1.27.29-.41.6-.8.95-1.14.5,1.09.87,2.24,1.06,3.42.17,1.15.15,2.32-.1,3.48Z"/>
            <path class="cls-3" d="M261.72,154.81c.05,2.32-.76,4.47-2.14,6.19-1.24-1.82-1.97-3.89-2.01-6.11-.04-2.22.61-4.31,1.78-6.18,1.44,1.66,2.33,3.79,2.37,6.11Z"/>
            <path class="cls-3" d="M255.62,175.08c1.27,2.17,1.71,3.5,1.72,4.6.43-1.01,1.35-2.04,3.27-3.77,1.81-1.64,4.09-2.67,6.47-3.15-.42,2.27-1.6,4.41-3.5,6.03-1.9,1.62-4.22,2.49-6.62,2.68-2.08-1.2-3.85-2.87-5.07-4.86-1.22-1.99-1.73-4.03-1.62-5.99,2.19.94,4.16,2.42,5.36,4.47Z"/>
            <path class="cls-3" d="M253.46,185.32c1.06,2.28,1.38,3.65,1.28,4.74.52-.96,1.53-1.9,3.6-3.45,1.95-1.46,4.33-2.27,6.74-2.53-.63,2.22-2.01,4.24-4.05,5.68-2.05,1.44-4.44,2.08-6.85,2.05-1.96-1.39-3.57-3.22-4.59-5.32-1.03-2.1-1.35-4.18-1.05-6.12,2.09,1.14,3.91,2.8,4.91,4.95Z"/>
            <path class="cls-3" d="M250.36,195.28c.84,2.37,1.03,3.76.83,4.83.61-.91,1.71-1.75,3.91-3.1,2.08-1.27,4.52-1.86,6.94-1.89-.84,2.15-2.4,4.04-4.56,5.27-2.17,1.24-4.61,1.65-7.01,1.4-1.82-1.57-3.25-3.54-4.08-5.72-.83-2.19-.95-4.29-.47-6.19,1.98,1.33,3.63,3.15,4.43,5.39Z"/>
          </g>
        </g>
        <g>
          <path class="cls-3" d="M96.97,252.26l-2.1-1.11c-1.87.38-3.73.64-5.66.93l.37,2.26,2.06-.31c.24-.05.5-.1.79-.17.29-.08.48-.13.58-.17-.22.36-.46.78-.75,1.25-.27.48-.49.87-.65,1.15l-3.87,7.11,2.89,1.53,6.35-12.46Z"/>
          <path class="cls-3" d="M107.17,259.47c-.11-1.01-.44-1.83-.98-2.53-.54-.69-1.23-1.21-2.09-1.56-1.32-.54-2.51-.64-3.64-.19-1.13.45-2.02,1.32-2.67,2.69-.6,1.27-.74,2.44-.38,3.44.37,1.01,1.13,1.77,2.28,2.29.87.37,1.59.48,2.15.38.56-.11,1.06-.32,1.49-.64l.11.05c-.36.79-.78,1.43-1.28,1.94-.5.51-1.14.8-1.91.88-.78.09-1.75-.12-2.9-.65-.29-.13-.56-.27-.83-.44-.27-.16-.52-.33-.76-.49l-.99,2.15c.23.16.52.33.88.51.37.18.68.33.96.46,1.17.54,2.25.8,3.2.86.95.05,1.79-.06,2.52-.35.74-.3,1.37-.73,1.92-1.27.54-.55,1-1.17,1.39-1.87.39-.7.72-1.42.99-2.17.48-1.31.66-2.48.55-3.48ZM104.16,258.4c.19.37.28.77.27,1.22,0,.45-.09.87-.25,1.27-.12.29-.31.54-.6.74-.28.2-.62.33-1.01.38-.39.05-.79,0-1.21-.17-.62-.24-.99-.64-1.13-1.13-.14-.49-.07-1.05.2-1.67.34-.76.76-1.25,1.25-1.47.49-.21,1-.2,1.53,0,.43.18.74.45.93.81Z"/>
          <path class="cls-3" d="M118.27,269.44l-1.73-.44,2.19-8.52c-.85-.23-1.72-.42-2.57-.69-1.37,1.16-2.78,2.32-4.23,3.45-1.44,1.11-2.92,2.2-4.44,3.28l-.67,1.94c2.03.7,4.08,1.35,6.14,1.94l-.8,2.79c1.01.32,2.05.55,3.07.83l.72-2.81,1.76.45.54-2.23ZM110.19,267.17c1.25-.94,2.49-1.95,3.69-2.93.24-.2.46-.4.66-.6.2-.2.4-.41.58-.62l.08.02c-.04.11-.12.34-.25.69-.12.35-.24.73-.38,1.14-.13.41-.23.76-.32,1.05l-.65,2.28c-1.14-.34-2.28-.66-3.41-1.03Z"/>
          <path class="cls-3" d="M124.31,275.99c2.62-3.66,5.06-7.35,7.31-11.16l.23-1.85c-3.24-.41-6.46-.96-9.65-1.68l-.54,2.43c1.12.27,2.24.49,3.37.69,1.13.22,2.26.43,3.4.59-2.33,3.55-4.81,6.94-7.49,10.34l3.36.64Z"/>
          <path class="cls-3" d="M148.91,263.87l-3.76.05c-1.03,1.52-2.11,3.04-3.22,4.55-.33.48-.67.96-1.02,1.48h-.06s.25-6.13.25-6.13l-3.03-.16-.95,13.83,3.42.18.18-4.52c.44-.46.88-.93,1.31-1.41,1.13,2.01,2.32,4.03,3.57,6.04l4.04-.07c-1.87-2.64-3.62-5.21-5.25-7.91,1.6-1.92,3.11-3.97,4.55-5.94Z"/>
          <path class="cls-3" d="M157.11,263.07c4.09-.44,6.85,2.24,7.53,6.04.8,4.45-1.75,7.74-6.24,8.22-4.57.46-7.37-2.57-7.51-6.51-.16-4.16,2.29-7.34,6.22-7.75M158.31,274.84c2.29-.28,3.32-2.42,2.94-5.1-.35-2.45-1.83-4.44-3.96-4.18-2.09.21-3.17,2.3-2.97,5,.19,2.7,1.72,4.52,3.99,4.28"/>
          <path class="cls-3" d="M185,264.94c1.68-.6,3.34-1.27,4.99-1.95l-.99-2.35c-1.61.67-3.23,1.32-4.88,1.91l-.99-2.7c1.7-.6,3.37-1.29,5.04-1.98l-1-2.37c-2.58,1.06-5.17,2.08-7.82,2.94l4.38,13.15c2.64-.86,5.25-1.85,7.82-2.91l.31-2.9c-1.9.78-3.79,1.57-5.73,2.25l-1.13-3.09Z"/>
          <path class="cls-3" d="M175.57,267.29c1.08.13,1.86.83,2.58,1.96.88,1.37,1.85,2.97,2.29,3.4-1.14.32-2.26.7-3.41.98-.34-.32-.99-1.32-1.85-2.86-.82-1.58-1.54-1.86-2.85-1.57l-.97.22,1.22,5.31c-1.12.24-2.23.53-3.35.72l-2.67-13.41c.94-.33,2.34-.81,3.93-1.15,1.94-.5,3.38-.54,4.53-.06.96.4,1.67,1.2,2.03,2.42.51,1.69-.39,3.25-1.48,3.98l.02.06M172.1,266.93c1.57-.4,2.29-1.4,1.98-2.57-.33-1.23-1.33-1.63-2.72-1.29-.74.17-1.15.32-1.36.41l.85,3.73,1.25-.28"/>
          <path class="cls-3" d="M203.79,262.84l-2.63-2.63c-1.29.67-2.56,1.38-3.88,2l.59,3.67c-1.07.54-2.16,1.02-3.26,1.51-.45-4.84-1.08-9.66-1.89-14.42,1.21-.57,2.39-1.22,3.57-1.84,3.44,3.41,6.99,6.67,10.73,9.87l-3.24,1.85ZM196.67,259.89c.95-.45,1.87-.96,2.8-1.45l.02.02-2.13-2.24c-.61-.61-1.3-1.41-1.86-2.04l-.04.02c.19.83.49,1.86.65,2.68l.55,3ZM199.48,258.45h0s0,0,0,0Z"/>
        </g>
        <path class="cls-3" d="M37.04,140.75c-.19.49-.47.9-.8,1.17l1.92,1.47h.02s0,.01,0,.01h.01s.06-.04.14-.12c.24-.2.47-.48.68-.82,0,0,0,0,0,0,.32-.52.59-1.17.76-1.92.15-.65.21-1.31.19-1.91,0-.03,0-.06,0-.08,0-.1-.01-.2-.02-.3,0-.09-.02-.19-.03-.28-.01-.07-.02-.14-.04-.21-.01-.05-.02-.11-.03-.16-.03-.11-.05-.21-.09-.31-.47-1.44-1.77-2.46-4.21-2.93l-8.56-1.63-.58,3.05,8.52,1.62c1.88.33,2.42,1.12,2.34,2.21,0,.17-.02.34-.06.52-.04.22-.1.43-.18.62"/>
        <g>
          <path class="cls-3" d="M37,140.75c-.19.49-.47.9-.8,1.17l1.92,1.47h.02s0,.01,0,.01h.01s.06-.04.14-.12c.24-.2.47-.48.68-.82,0,0,0,0,0,0,.32-.52.59-1.17.76-1.92.15-.65.21-1.31.19-1.91,0-.03,0-.06,0-.08,0-.1-.01-.2-.02-.3,0-.09-.02-.19-.03-.28-.01-.07-.02-.14-.04-.21-.01-.05-.02-.11-.03-.16-.03-.11-.05-.21-.09-.31-.47-1.44-1.77-2.46-4.21-2.93l-8.56-1.63-.58,3.05,8.52,1.62c1.88.33,2.42,1.12,2.34,2.21,0,.17-.02.34-.06.52-.04.22-.1.43-.18.62"/>
          <g>
            <g>
              <polygon class="cls-3" points="36.48 127.15 37.81 122.49 35.38 121.71 34.02 126.48 31.24 125.73 32.72 120.54 30.27 119.75 27.89 128.13 41.36 131.41 43.22 124.87 41.09 122.96 39.66 128.01 36.48 127.15"/>
              <path class="cls-3" d="M33.52,110.34c.73-2.05,2.26-3.21,3.9-3.68,1.65-.47,3.48-.21,5.2.62,2.05.99,3.4,2.37,4.06,3.88.33.76.48,1.55.45,2.35-.03.8-.12,1.67-.46,2.52-1.31,3.42-5.03,4.41-8.76,3.14-3.93-1.34-5.9-4.89-4.39-8.82M44.42,114.93c.65-1.83-.66-3.64-3.11-4.75-2.27-1.03-4.78-.85-5.52,1.19-.77,1.99.68,3.86,3.2,4.81,2.54.96,4.75.54,5.43-1.25"/>
              <path class="cls-3" d="M56.02,85.12c1.34-.89,3-.96,4.36.2.96.81,1.36,1.84,1.38,2.88-.03,1.16-.54,2.69-2.01,4.69-.82,1.12-1.52,1.89-1.98,2.34l-11.14-7.84c.36-.77,1.26-2.21,2.2-3.49,1.17-1.56,1.97-2.45,3.12-2.83,1.05-.41,2.23-.33,3.2.47.95.79,1.36,2.06.82,3.56l.03.03M52.77,88.01l.59-.81c.94-1.29.92-2.4.12-3.04-.82-.65-1.73-.35-2.57.79-.4.55-.6.89-.72,1.13l2.59,1.93ZM58.4,90.81c.77-1.05,1.03-2.31-.11-3.23-1.09-.87-2.23-.25-3.12.95l-.6.82,3.14,2.33c.2-.2.4-.48.69-.87"/>
              <path class="cls-3" d="M66.47,76.1c1.71,1.75,1.91,3.15.82,4.19-1.09.99-2.46.84-4.22-.8l-5.82-5.46-2.11,2.4,5.78,5.14c1.65,1.47,3.16,2.16,4.49,2.21.67.02,1.3-.12,1.89-.41.58-.31,1.14-.74,1.73-1.26,2.34-2.23,2.35-5.07-.54-8.22l-5.29-5.7-2.3,2.2,5.58,5.7Z"/>
              <path class="cls-3" d="M75,58.46c-1.11.69-2.09,1.56-3.12,2.36.1,1.89.24,3.75.4,5.58.08.57.14,1.16.25,1.76l-.05.04-3.9-4.73-2.46,1.98,9.09,10.46,2.19-1.75-2.88-3.49-.04-1.84c2.09.88,4.14,1.79,6.15,2.74.85-.69,1.7-1.4,2.64-1.97-2.79-1.41-5.49-2.51-8.35-3.65-.03-2.45-.1-5.08.08-7.49Z"/>
              <path class="cls-3" d="M124.56,51.75c.91-.25,1.85-.37,2.79-.49l-2.33-13.67c-1.06.14-2.12.28-3.15.56l2.69,13.6Z"/>
              <path class="cls-3" d="M135.16,36.05c4.37-.21,6.82,2.87,6.9,6.7.1,4.54-2.3,7.42-5.91,7.58-3.64.38-6.21-2.3-6.8-6.24-.29-2.06.09-3.94,1.1-5.39,1.01-1.41,2.62-2.55,4.71-2.65M136.09,47.83c1.94-.09,2.94-2.15,2.8-4.84-.13-2.49-1.44-4.57-3.6-4.46-2.12.12-3.11,2.42-2.79,5.05.32,2.73,1.69,4.35,3.6,4.25"/>
              <path class="cls-3" d="M178.69,40.43c-1.03-.28-2.08-.5-3.11-.76l-3.44,13.43c1.07.28,2.17.44,3.21.81l3.15,1.05,1.94-2.13-4.83-1.61,3.08-10.8Z"/>
              <path class="cls-3" d="M195.5,55.46c-1.08,2.17-2.34,2.85-3.73,2.26-1.35-.59-1.62-2.03-.66-4.21l3.23-7.3-2.94-1.28-2.94,7.15c-1.66,4.1-.71,6.63,2.16,7.87.74.33,1.48.48,2.17.54.68.08,1.33,0,1.97-.25,1.27-.5,2.45-1.65,3.45-3.54l3.63-6.88-2.8-1.52-3.54,7.15Z"/>
              <polygon class="cls-3" points="211.1 72.25 213.31 74.03 222.11 63.31 219.61 61.31 211.1 72.25"/>
              <path class="cls-3" d="M226.38,75.12c-1.45.81-2.89,1.7-4.29,2.67l-.04-.04c.98-1.45,1.79-2.87,2.59-4.39.95-1.79,1.88-3.61,2.8-5.44-.85-.79-1.67-1.63-2.55-2.39-1.9,4.48-4.01,8.92-6.2,13.2l2.39,2.28c2.14-1.15,4.31-2.27,6.52-3.36,2.2-1.08,4.36-2.06,6.58-3.05-.74-.85-1.48-1.71-2.32-2.46-1.84.97-3.67,1.95-5.47,2.96Z"/>
              <path class="cls-3" d="M231.98,84.25l1.6,1.82,1.44,1.95,2.02-1.55-1.47-2-1.63-1.86,2.2-1.85,1.77,2.03,1.6,2.17,2.04-1.56c-1.64-2.41-3.65-4.5-5.55-6.7l-10.38,9.19,2.25,2.56,1.13,1.28,1.01,1.37,2.73-.62-1.55-2.12c-.54-.69-1.15-1.32-1.72-1.99l2.52-2.12Z"/>
              <path class="cls-3" d="M242.12,97.23c.15.99-.38,1.91-1.31,2.84-1.13,1.15-2.49,2.4-2.83,2.87l-1.5-2.47c.23-.38,1.03-1.23,2.28-2.47,1.28-1.22,1.39-1.96.78-3-.16-.25-.3-.52-.47-.76l-4.53,3.03-1.66-2.25,11.16-7.91c.71.75,1.81,1.85,2.68,3.31,1.09,1.79,1.59,3.21,1.44,4.47-.13,1.05-.73,1.93-1.83,2.57-1.53.89-3.2.48-4.16-.27l-.05.03M241.57,93.99c.78,1.29,1.91,1.64,2.94,1,1.08-.67,1.18-1.75.44-2.99-.4-.65-.66-.99-.83-1.15l-3.18,2.13c.22.33.42.68.63,1.01"/>
              <polygon class="cls-3" points="244.41 115.86 245.42 118.5 258.37 113.54 257.22 110.55 244.41 115.86"/>
              <path class="cls-3" d="M256.95,117.18c.44,1.15.91,2.3,1.21,3.5l-10.7,3.43.77,2.73,10.78-3.14.68,2.39,2.9.59-1.48-5.22-.75-2.61c-.26-.86-.63-1.69-.94-2.54l-2.48.88Z"/>
              <path class="cls-3" d="M109.32,44.2c1.16-.42,2.31-.85,3.51-1.12l3.16,10.74,2.73-.7-2.87-10.82,2.39-.62.65-2.88-5.23,1.35-.61.17c-.87.24-3.71,1.1-4.56,1.38l.82,2.49Z"/>
              <path class="cls-3" d="M264.63,136.33l-3.54-.8c-1.05-.22-1.89-.39-2.8-.52v-.04c.82-.5,1.49-.92,2.4-1.54l3-2.08c-.23-1.19-.41-2.4-.78-3.55-2.19,2.07-4.7,4.11-7.08,6.02l-5.56,1.15.52,2.77,5.69-1.02c2.92.94,5.86,1.99,8.81,3.14l-.65-3.52Z"/>
              <path class="cls-3" d="M109.59,55.92l-2.04-3.07-1.8.6-1.74.76.52,3.66-2.68,1.17c-.72-4.73-1.29-9.52-1.7-14.38l1.92-.83,1.98-.67c2.97,3.88,5.77,7.82,8.42,11.81l-2.88.96ZM103.52,51.87c.87-.4,1.74-.76,2.66-1.03l.02.03-1.78-2.54c-.52-.69-1.12-1.59-1.6-2.27l-.04.02c.11.85.3,1.91.39,2.74l.36,3.05ZM106.18,50.84h0s0,0,0,0Z"/>
              <path class="cls-3" d="M166.74,52.04l-.17-3.69c-1.22-.31-2.49-.38-3.74-.59l-1.44,3.39-2.9-.4c1.82-4.41,3.8-8.8,5.94-13.17,1.37.23,2.77.32,4.13.66.54,4.87.91,9.7,1.12,14.5l-2.95-.7ZM163.62,45.5c.94.14,1.89.25,2.82.41v.03s-.23-3.05-.23-3.05c-.09-.84-.15-1.89-.21-2.73h-.04c-.35.78-.72,1.78-1.08,2.54l-1.26,2.79ZM166.44,45.91h0s0,0,0,0Z"/>
              <path class="cls-3" d="M89.75,65.44l-7.23-11.83c1.04-.67,2.16-1.21,3.24-1.83,3.16,2.01,6.2,4.08,9.1,6.23l-4.74-8.66c.87-.45,1.71-.97,2.6-1.37l6.08,12.5c-.89.39-1.71.92-2.57,1.37-3-2.24-6.14-4.41-9.41-6.51l5.18,8.82c-.75.43-1.54.79-2.26,1.27Z"/>
              <path class="cls-3" d="M50.59,107.82l-12.31-6.37c.58-1.1,1.03-2.26,1.71-3.3,3.77.1,7.47.32,11.09.66l-8.54-4.95,1.53-2.51,11.68,7.54-1.51,2.49c-3.75-.38-7.59-.63-11.5-.75l9,4.86-1.14,2.32Z"/>
              <path class="cls-3" d="M145.01,49.55l-.06-13.86c1.24-.03,2.48.08,3.72.12,1.67,3.35,3.19,6.71,4.58,10.05l.42-9.86,2.94.15-1.26,13.85-2.92-.13c-1.41-3.47-2.98-6.96-4.7-10.45l-.14,10.22c-.87-.02-1.73-.13-2.6-.08Z"/>
              <path class="cls-3" d="M199.17,64.01l6.96-11.99c1.09.59,2.19,1.18,3.21,1.9-.27,3.75-.66,7.44-1.16,11.04l5.36-8.3,2.45,1.64-8.09,11.3-2.43-1.62c.55-3.73.98-7.54,1.27-11.44l-5.29,8.75c-.7-.51-1.51-.85-2.25-1.29Z"/>
            </g>
            <path class="cls-3" d="M249.07,106.08c-.26-1.91-.29-2.79.49-3.21.63-.34,1.49-.05,2.15,1.16.5.93.69,1.77.77,2.4l2.55-.07h.06c-.07-.92-.33-2.1-1.08-3.49-1.57-2.91-4.11-3.8-6.2-2.68-1.78.96-2.18,2.9-1.78,5.33.27,1.77.16,2.59-.61,3-.8.43-1.69.04-2.38-1.24-.52-.97-.77-2.04-.86-2.92l-2.6.07h-.04c0,.91.38,2.5,1.14,3.9,1.83,3.38,4.43,4.04,6.47,2.93,1.72-.93,2.29-2.56,1.92-5.17Z"/>
          </g>
        </g>
      </g>
    </g>
    <g>
      <g>
        <g>
          <polygon class="cls-3" points="138.63 141.3 138.63 73.83 132.73 78.39 130.31 141.3 138.63 141.3"/>
          <polygon class="cls-3" points="122.55 86.27 118.33 141.3 126.65 141.3 128.95 81.32 122.55 86.27"/>
          <polygon class="cls-3" points="111.69 94.69 106.35 141.3 114.66 141.3 118.64 89.3 111.69 94.69"/>
        </g>
        <g>
          <polygon class="cls-3" points="157.99 78.39 152.1 73.83 152.1 141.3 160.41 141.3 157.99 78.39"/>
          <polygon class="cls-3" points="168.17 86.27 161.78 81.32 164.08 141.3 172.39 141.3 168.17 86.27"/>
          <polygon class="cls-3" points="179.04 94.69 172.08 89.3 176.06 141.3 184.37 141.3 179.04 94.69"/>
        </g>
      </g>
      <g>
        <path class="cls-3" d="M191.14,145.86h-43.59v11.75c3.74-1.58,7.74-2.39,11.95-2.39,6.56,0,11.29,2,11.49,2.08l1.62.7.27,1.74,4.06,25.88.75,4.76-4.67-1.17c-2.51-.63-5.08-.94-7.63-.94-10.57,0-18.03,5.43-18.1,5.48l-1.91,1.42-1.91-1.41c-.07-.05-7.53-5.48-18.11-5.48-2.56,0-5.13.32-7.63.94l-4.67,1.17.75-4.76,4.06-25.88.27-1.74,1.62-.7c.2-.09,4.92-2.09,11.49-2.08,4.21,0,8.21.81,11.95,2.39v-11.75h-49.04v13.98h5.45v17.12c0,14.52,5.17,27.82,13.76,38.19-3.76,1.89-7.85,3.23-12.17,3.87,2.67,3.7,5.68,7.13,8.99,10.26,4.29-1.28,8.35-3.11,12.1-5.38,6.11,4.86,13.19,8.55,20.91,10.74v-12.59c-11.91-4.32-21.62-13.21-27-24.56,2.36-.59,4.84-.9,7.38-.9,8.54,0,16.26,3.51,21.8,9.17,5.54-5.65,13.26-9.17,21.8-9.17,2.55,0,5.02.31,7.38.9-5.38,11.35-15.09,20.25-27,24.56v12.59c7.72-2.18,14.8-5.88,20.91-10.74,3.75,2.27,7.81,4.1,12.1,5.38,3.31-3.12,6.32-6.56,8.99-10.26-4.32-.64-8.41-1.98-12.17-3.87,8.59-10.37,13.76-23.67,13.76-38.19v-17.12h5.45v-13.98h-5.45Z"/>
        <path class="cls-3" d="M169.72,160.24s-12.18-5.24-24.36,2.03c-12.18-7.27-24.36-2.03-24.36-2.03l-4.06,25.88c16.24-4.06,28.42,5.08,28.42,5.08,0,0,12.18-9.14,28.42-5.08l-4.06-25.88Z"/>
      </g>
    </g>
  </g>
  <g>
    <path class="cls-1" d="M1224.64,92.67c2.58,6.12,7.8,9.66,14.69,9.66s11.08-2.58,11.08-7.28c0-4.32-2.77-6.38-7.79-7.79l-7.73-2.13c-6.96-1.93-14.3-5.8-14.3-14.95s7.86-14.82,18.1-14.82,16.81,5.73,19.65,12.63l-6.96,3.48c-2.32-4.9-6.51-8.57-12.69-8.57s-9.92,2.71-9.92,7.28,3.48,6.31,7.99,7.54l7.54,2.06c7.02,1.93,14.3,5.99,14.3,15.27s-8.5,14.82-19.26,14.82-18.36-5.15-21.71-13.72l7.02-3.48Z"/>
    <path class="cls-1" d="M1317.22,85.72v22.81h-4.64v-22.68c0-6.96-3.29-11.27-9.02-11.27s-9.53,4.7-9.53,11.6v22.35h-4.57v-22.68c0-7.02-3.22-11.27-9.02-11.27s-9.41,4.57-9.41,11.6v22.35h-4.7v-37.24h4.25l.32,5.48c2.13-3.87,5.8-6.44,10.63-6.44,5.28,0,9.28,3.03,11.21,7.92,2.13-4.7,6.38-7.92,11.85-7.92,7.6,0,12.63,6.19,12.63,15.4Z"/>
    <path class="cls-1" d="M1355.68,84.69v23.84h-4.19l-.32-5.15c-2.13,3.74-6.18,6.12-11.53,6.12h-2.51c-7.15,0-12.3-4.9-12.3-11.53s5.22-11.34,14.5-11.34h11.72v-1.61c0-6.31-3.54-10.37-10.24-10.37-4.83,0-8.31,2.25-10.24,5.86l-4.19-1.93c2.51-4.9,7.99-8.25,14.75-8.25,8.57,0,14.56,5.35,14.56,14.37ZM1340.28,105.17c5.22,0,10.11-3.22,10.76-8.31v-6.06h-11.4c-7.15,0-10.18,2.96-10.18,7.15,0,4.51,3.35,7.22,8.44,7.22h2.38Z"/>
    <path class="cls-1" d="M1384.29,71.09l-1.1,4.19c-1.55-.39-3.16-.64-4.57-.64-5.35,0-8.76,5.48-8.76,11.79v22.1h-4.7v-37.24h4.32l.26,5.86c1.87-4.06,5.15-6.83,9.6-6.83,1.87,0,3.54.26,4.96.77Z"/>
    <path class="cls-1" d="M1410.77,107.49c-2.19,1.35-5.02,2-7.54,2-5.09,0-8.44-2.71-8.44-8.7v-25.19h-7.28v-4.32h7.28v-10.69h4.64v10.69h10.24v4.32h-10.24v24.74c0,4.06,1.74,4.9,4.32,4.9,2.13,0,3.74-.58,5.73-1.61l1.29,3.87Z"/>
    <path class="cls-1" d="M1261.43,171.21c0,9.86-6.7,15.01-17.91,15.01h-23v-52.57h20.49c11.15,0,17.91,5.15,17.91,14.75,0,4.38-1.93,8.25-6.96,10.37,6.64,2.19,9.47,6.7,9.47,12.43ZM1228.83,141v15.27h12.11c6.38,0,9.79-2.9,9.79-7.73s-3.41-7.54-9.79-7.54h-12.11ZM1243.45,178.88c6.38,0,9.79-2.77,9.79-7.86s-3.41-7.92-9.79-7.92h-14.62v15.78h14.62Z"/>
    <path class="cls-1" d="M1269.48,137.32c0-1.87,1.55-3.35,3.41-3.35s3.35,1.55,3.35,3.35-1.48,3.35-3.35,3.35-3.41-1.48-3.41-3.35ZM1270.58,185.83v-37.24h4.64v37.24h-4.64Z"/>
    <path class="cls-1" d="M1284.11,169.92v-5.48c0-10.95,8.05-16.81,16.88-16.81s16.94,5.86,16.94,16.81v5.48c0,11.02-7.99,16.88-16.94,16.88s-16.88-5.86-16.88-16.88ZM1313.29,169.73v-5.03c0-8.18-5.67-12.76-12.3-12.76s-12.18,4.57-12.18,12.76v5.03c0,8.18,5.6,12.82,12.18,12.82s12.3-4.64,12.3-12.82Z"/>
    <path class="cls-1" d="M1359.03,164.77v5.09c0,11.02-7.67,17.14-15.46,17.14-5.41,0-10.18-2.38-13.01-6.76v16.56h-4.7v-48.19h4.32l.32,5.93c2.83-4.45,7.67-6.89,13.08-6.89,7.79,0,15.46,6.18,15.46,17.14ZM1354.39,164.96c0-8.38-5.28-13.01-11.98-13.01s-11.85,4.64-11.85,13.01v4.77c0,8.31,5.22,13.01,11.85,13.01s11.98-4.7,11.98-13.01v-4.77Z"/>
    <path class="cls-1" d="M1398.2,162.96v22.87h-4.64v-22.61c0-7.02-3.35-11.4-10.37-11.4s-11.53,4.77-11.53,11.66v22.35h-4.7v-51.8h4.7v20.36c2.38-4.12,6.83-6.76,12.5-6.76,8.76,0,14.04,6.18,14.04,15.33Z"/>
    <path class="cls-1" d="M1406.13,169.92v-5.48c0-10.95,8.05-16.81,16.88-16.81s16.94,5.86,16.94,16.81v5.48c0,11.02-7.99,16.88-16.94,16.88s-16.88-5.86-16.88-16.88ZM1435.31,169.73v-5.03c0-8.18-5.67-12.76-12.3-12.76s-12.18,4.57-12.18,12.76v5.03c0,8.18,5.6,12.82,12.18,12.82s12.3-4.64,12.3-12.82Z"/>
    <path class="cls-1" d="M1468.04,184.8c-2.19,1.35-5.02,2-7.54,2-5.09,0-8.44-2.7-8.44-8.7v-25.19h-7.28v-4.32h7.28v-10.69h4.64v10.69h10.24v4.32h-10.24v24.74c0,4.06,1.74,4.9,4.32,4.9,2.13,0,3.74-.58,5.73-1.61l1.29,3.87Z"/>
    <path class="cls-1" d="M1472.23,169.92v-5.48c0-10.95,8.05-16.81,16.88-16.81s16.94,5.86,16.94,16.81v5.48c0,11.02-7.99,16.88-16.94,16.88s-16.88-5.86-16.88-16.88ZM1501.41,169.73v-5.03c0-8.18-5.67-12.76-12.3-12.76s-12.18,4.57-12.18,12.76v5.03c0,8.18,5.6,12.82,12.18,12.82s12.3-4.64,12.3-12.82Z"/>
    <path class="cls-1" d="M1546.19,163.03v22.81h-4.64v-22.55c0-6.96-3.35-11.34-10.44-11.34-6.7,0-11.47,4.77-11.47,11.53v22.35h-4.7v-37.24h4.25l.39,5.93c2.38-4.19,6.76-6.89,12.5-6.89,8.83,0,14.11,6.18,14.11,15.4Z"/>
    <path class="cls-1" d="M1555.72,137.32c0-1.87,1.55-3.35,3.41-3.35s3.35,1.55,3.35,3.35-1.48,3.35-3.35,3.35-3.41-1.48-3.41-3.35ZM1556.82,185.83v-37.24h4.64v37.24h-4.64Z"/>
    <path class="cls-1" d="M1570.35,169.99v-5.54c0-10.95,8.05-16.81,16.88-16.81,6.7,0,12.69,3.35,15.33,9.73l-4.32,1.74c-2.06-4.7-6.06-7.15-11.02-7.15-6.7,0-12.18,4.57-12.18,12.76v5.03c0,8.18,5.48,12.82,12.18,12.82,4.96,0,8.95-2.45,11.02-7.22l4.32,1.74c-2.64,6.38-8.63,9.73-15.33,9.73-8.83,0-16.88-5.86-16.88-16.81Z"/>
    <path class="cls-1" d="M1611.9,174.95c2.77,5.28,7.15,7.79,12.56,7.79s9.53-2.06,9.53-6.06-3.09-5.48-7.6-6.83l-5.09-1.48c-5.93-1.74-10.63-4.51-10.63-10.76s5.6-9.99,12.76-9.99,11.92,3.22,14.88,8.63l-3.61,2.38c-2.45-4.25-6.31-6.96-11.34-6.96s-8.18,2.38-8.18,5.93,2.51,5.28,6.89,6.63l5.09,1.48c5.93,1.74,11.34,4.38,11.34,10.95s-6.57,10.11-14.11,10.11-13.08-3.22-16.23-9.53l3.74-2.32Z"/>
    <path class="cls-1" d="M1670.91,178.88h24.03v7.34h-32.34v-52.57h8.31v45.22Z"/>
    <path class="cls-1" d="M1730.63,162v23.84h-4.19l-.32-5.15c-2.13,3.74-6.18,6.12-11.53,6.12h-2.51c-7.15,0-12.3-4.9-12.3-11.53s5.22-11.34,14.5-11.34h11.72v-1.61c0-6.31-3.54-10.37-10.24-10.37-4.83,0-8.31,2.25-10.24,5.86l-4.19-1.93c2.51-4.9,7.99-8.25,14.75-8.25,8.57,0,14.56,5.35,14.56,14.37ZM1715.24,182.48c5.22,0,10.11-3.22,10.76-8.31v-6.06h-11.4c-7.15,0-10.18,2.96-10.18,7.15,0,4.51,3.35,7.22,8.44,7.22h2.38Z"/>
    <path class="cls-1" d="M1773.28,164.64v5.15c0,10.89-7.54,17.01-15.46,17.01-5.48,0-10.24-2.38-13.08-6.83l-.32,5.86h-4.32v-51.8h4.7v20.29c2.83-4.38,7.6-6.7,13.01-6.7,7.92,0,15.46,6.12,15.46,17.01ZM1768.64,164.83c0-8.25-5.28-12.88-11.98-12.88s-11.85,4.64-11.85,12.88v4.77c0,8.25,5.28,12.95,11.85,12.95s11.98-4.7,11.98-12.95v-4.77Z"/>
    <path class="cls-1" d="M1780.37,183.19c0-2,1.55-3.54,3.54-3.54s3.61,1.55,3.61,3.54-1.61,3.61-3.61,3.61-3.54-1.61-3.54-3.61Z"/>
  </g>
  <line class="cls-2" x1="1171.58" y1="50" x2="1171.58" y2="199"/>
</svg>