<?xml version="1.0" encoding="UTF-8"?>
<svg id="Layer_1" data-name="Layer 1" xmlns="http://www.w3.org/2000/svg" viewBox="0 0 1956 312.87">
  <defs>
    <style>
      .cls-1 {
        fill: #144e8c;
      }

      .cls-2 {
        fill: none;
        stroke: #666563;
        stroke-linecap: round;
        stroke-linejoin: round;
        stroke-width: 2px;
      }

      .cls-3 {
        fill: #666563;
      }
    </style>
  </defs>
  <g>
    <g>
      <g>
        <polygon class="cls-1" points="95.77 136.01 109.99 136.01 109.99 24.97 99.74 32.91 95.77 136.01"/>
        <polygon class="cls-1" points="83.14 45.76 76.22 136.01 90.44 136.01 94.24 37.16 83.14 45.76"/>
        <polygon class="cls-1" points="65.42 59.48 56.66 136.01 70.88 136.01 77.46 50.16 65.42 59.48"/>
      </g>
      <g>
        <polygon class="cls-1" points="145.55 136.01 131.33 136.01 131.33 24.97 141.58 32.91 145.55 136.01"/>
        <polygon class="cls-1" points="158.18 45.76 165.1 136.01 150.88 136.01 147.08 37.16 158.18 45.76"/>
        <polygon class="cls-1" points="175.9 59.48 184.66 136.01 170.44 136.01 163.86 50.16 175.9 59.48"/>
      </g>
      <g>
        <path class="cls-1" d="M195.33,143.12h-71.11v20.58c6.09-2.65,12.62-4.01,19.49-4.01,10.44,0,17.92,3.16,18.23,3.3l1.98.85.33,2.13,6.62,42.22.91,5.82-5.71-1.43c-4.19-1.05-8.49-1.58-12.77-1.58-17.71,0-30.19,9.11-30.31,9.2l-2.34,1.74-2.34-1.74c-.12-.09-12.6-9.2-30.31-9.2-4.28,0-8.57.53-12.77,1.58l-5.71,1.43.91-5.82,6.62-42.22.33-2.13,1.98-.85c.31-.13,7.78-3.3,18.23-3.3,6.88,0,13.4,1.36,19.49,4.01v-20.58H37.11v22.81h8.89v27.92h0c0,23.68,8.43,45.38,22.44,62.29-6.13,3.09-12.8,5.27-19.85,6.31,4.36,6.03,9.27,11.64,14.67,16.73,7-2.09,13.61-5.07,19.74-8.78,9.97,7.92,21.52,13.92,34.11,17.49v-20.51c-19.41-7.05-35.21-21.57-43.99-40.08,3.84-.95,7.85-1.46,11.99-1.46,13.93,0,26.52,5.73,35.55,14.95,9.04-9.22,21.62-14.95,35.56-14.95,4.13,0,8.15.51,11.99,1.46-8.78,18.51-24.58,33.04-43.99,40.08v20.51c12.58-3.56,24.14-9.56,34.11-17.49,6.12,3.71,12.74,6.69,19.74,8.78,5.4-5.1,10.32-10.7,14.67-16.73-7.05-1.04-13.72-3.22-19.85-6.31,14.01-16.92,22.44-38.61,22.44-62.29v-27.92h8.89v-22.81h-8.89Z"/>
        <path class="cls-1" d="M160.4,166.58s-19.87-8.54-39.74,3.31c-19.87-11.85-39.74-3.31-39.74-3.31l-6.62,42.22c26.49-6.62,46.36,8.28,46.36,8.28,0,0,19.87-14.9,46.36-8.28l-6.62-42.22Z"/>
      </g>
    </g>
    <g>
      <path class="cls-1" d="M1096.21,149.87l-19.56-.53s6.93-32.05,6.64-72.68h-101.17v-18.29h110.35c5.64.39,10.03,4.26,10.54,9.21,0,0,.36,47.22-6.79,82.28"/>
      <path class="cls-1" d="M700.36,165.62v-18.36c-14.18,2.52-49.85,1.9-49.85,1.9v-66.23h45.74v-18.29h-55.87s-.02,0-.03,0-.02,0-.03,0c-5.55.02-10.05,4.52-10.05,10.08v82.64c0,5.57,4.52,10.08,10.08,10.08,0,0,45.76.89,60.01-1.82"/>
      <path class="cls-1" d="M844.45,84.46c-26.98,0-44.78,14.12-44.78,32s17.59,32,44.78,32,44.78-14.12,44.78-32-17.6-32-44.78-32M860.34,126.42c-4,2.36-9.28,3.56-15.71,3.56s-11.48-1.2-15.71-3.56c-4.17-2.32-6.29-5.7-6.29-10.05s2.12-7.52,6.29-9.85c4.23-2.36,9.51-3.56,15.71-3.56s11.56,1.16,15.62,3.46c3.99,2.27,6.01,5.62,6.01,9.96s-1.99,7.73-5.92,10.05"/>
      <polygon class="cls-1" points="372.45 106.92 409.26 106.92 409.26 150.84 429.5 150.84 429.5 45.41 409.26 45.41 409.26 88.64 372.45 88.64 372.45 106.92"/>
      <polygon class="cls-1" points="749.94 102.82 732.67 102.82 732.67 49.4 712.42 49.4 712.42 202.39 732.67 196.2 732.67 121.1 749.94 121.1 749.94 210.52 770.19 203.19 770.19 47.62 749.94 47.62 749.94 102.82"/>
      <polygon class="cls-1" points="853.64 60.25 853.64 41.5 834.29 41.5 834.29 60.25 793.31 60.25 793.31 77.36 895.6 77.36 895.6 60.25 853.64 60.25"/>
      <polygon class="cls-1" points="932.12 46.17 911.87 46.17 911.87 146.1 932.12 146.1 932.12 113.94 960.16 113.94 960.16 95.66 932.12 95.66 932.12 46.17"/>
      <polygon class="cls-1" points="1061.32 172.42 1061.32 112.71 1041.07 112.71 1041.07 172.42 1020.95 172.42 1020.95 112.71 1000.7 112.71 1000.7 172.42 966.04 172.42 966.04 190.7 1115.28 190.7 1123.31 172.42 1061.32 172.42"/>
      <path class="cls-1" d="M485.96,111.56h86.93c6.3,0,11.43-2.65,11.43-8.26v-56.87h-20.25v19.3h-69.31v-19.3h-20.25v56.87c0,5.61,5.13,8.25,11.45,8.26M494.75,81.55h69.31v13.66h-69.31v-13.66Z"/>
      <path class="cls-1" d="M340.5,186.48v-30.55h-20.25v38.65c0,5.61,5.13,10.18,11.46,10.19h90.39l10.7-18.29h-92.3Z"/>
      <path class="cls-1" d="M609.82,139.79v-16.35h-158.47v16.35h69.02v13.3h-49.85v16.36h98.08v42.33l20.25-5.92v-42.64c0-5.59-5.27-10.12-10.86-10.12h-37.37v-13.3h69.2Z"/>
      <path class="cls-1" d="M346.97,73.01h30.45v-18.28h-80.7v18.28h30.35c-.75,41.8-36.31,57.96-38.94,59.95l15.67,13.46c5.74-1.82,26.15-16.67,32.99-38.26h1.03c6.88,24.59,33.45,36.15,33.45,36.15l14.47-14.47s-40.25-16.96-38.77-56.83Z"/>
      <path class="cls-1" d="M932.22,168.36c0-5.59-5.19-10.12-10.78-10.12h-103.98v18.29h94.5v34.48l20.25-5.33v-37.31Z"/>
    </g>
    <g>
      <polygon class="cls-1" points="333.24 257.13 345.58 257.13 345.58 250.96 333.24 250.96 333.24 244 346.32 244 346.32 237.78 325.63 237.78 325.63 271.31 343.9 271.31 347.02 265.09 333.24 265.09 333.24 257.13"/>
      <path class="cls-1" d="M370.42,237.23c-9.9,0-16.32,7.51-16.32,17.56s5.82,17.06,15.77,17.06,16.47-6.67,16.47-17.66c0-9.25-5.62-16.96-15.92-16.96M370.27,265.83c-5.07,0-8.16-4.63-8.16-11.19s2.98-11.39,8.11-11.39,8.11,5.17,8.11,11.19c0,6.52-2.93,11.39-8.06,11.39"/>
      <path class="cls-1" d="M451.13,253.25v-.1c3.78-1.39,5.52-4.18,5.52-7.16s-1.69-5.33-4.03-6.57c-2.44-1.44-5.27-1.89-9.9-1.89-3.78,0-7.81.3-9.8.69v32.93c1.69.25,4.48.5,8.21.5,6.66,0,10.75-1.09,13.18-3.03,2.09-1.69,3.48-4.08,3.48-7.11,0-4.33-2.83-7.21-6.67-8.26M440.43,243.25c.65-.1,1.59-.2,3.23-.2,3.43,0,5.37,1.35,5.37,3.88s-2.14,4.13-6.12,4.13h-2.49v-7.81ZM443.37,266.03c-1.29,0-2.19,0-2.94-.1v-9.45h2.59c3.78,0,6.81,1.34,6.81,4.73s-3.03,4.83-6.47,4.83"/>
      <path class="cls-1" d="M485.76,257.08c0,5.92-2.19,8.71-6.17,8.71s-6.07-2.94-6.07-8.71v-19.3h-7.61v18.7c0,10.7,4.97,15.37,13.43,15.37s13.98-4.93,13.98-15.27v-18.8h-7.56v19.3Z"/>
      <path class="cls-1" d="M529.75,237.78h-9.3l-7.61,11.14c-.75,1.19-1.54,2.39-2.29,3.68h-.15v-14.82h-7.51v33.53h7.51v-10.94l2.89-3.53,8.21,14.48h8.85l-11.69-19.25,11.09-14.28Z"/>
      <rect class="cls-1" x="652.05" y="237.71" width="7.61" height="33.58"/>
      <path class="cls-1" d="M684,237.23c-9.9,0-16.31,7.51-16.31,17.56s5.82,17.06,15.77,17.06,16.47-6.67,16.47-17.66c0-9.25-5.62-16.96-15.92-16.96M683.85,265.83c-5.07,0-8.16-4.63-8.16-11.19s2.99-11.39,8.11-11.39,8.1,5.17,8.1,11.19c0,6.52-2.94,11.39-8.06,11.39"/>
      <polygon class="cls-1" points="788.35 237.72 780.73 237.72 780.73 271.31 798.55 271.31 801.68 264.94 788.35 264.94 788.35 237.72"/>
      <path class="cls-1" d="M840.34,257c0,5.92-2.19,8.71-6.17,8.71s-6.07-2.94-6.07-8.71v-19.3h-7.61v18.7c0,10.7,4.97,15.37,13.43,15.37s13.98-4.93,13.98-15.27v-18.8h-7.56v19.3Z"/>
      <rect class="cls-1" x="895.75" y="237.71" width="7.62" height="33.59"/>
      <path class="cls-1" d="M929.57,252.1c-1.15,3.83-2.19,7.81-3.03,11.84h-.15c-.79-4.18-1.84-8.01-2.98-11.99l-4.08-14.24h-8.31l10.74,33.59h8.85l11.29-33.59h-8.06l-4.28,14.39Z"/>
      <polygon class="cls-1" points="956.75 257.32 969.09 257.32 969.09 251.15 956.75 251.15 956.75 244 969.84 244 969.84 237.71 949.14 237.71 949.14 271.31 967.41 271.31 970.53 265.09 956.75 265.09 956.75 257.32"/>
      <path class="cls-1" d="M997.79,255.59v-.15c2.88-1.05,5.92-3.98,5.92-8.26,0-3.08-1.1-5.42-3.09-7.01-2.39-1.89-5.87-2.64-10.84-2.64-4.03,0-7.66.3-10.1.69v33.08h7.51v-13.18h2.29c3.08.05,4.53,1.19,5.42,5.37,1,4.13,1.79,6.87,2.34,7.81h7.76c-.65-1.3-1.69-5.67-2.74-9.45-.84-3.08-2.14-5.32-4.47-6.27M990.18,252.65h-2.99v-9.25c.55-.1,1.59-.25,3.43-.25,3.48.05,5.57,1.59,5.57,4.67s-2.24,4.83-6.02,4.83"/>
      <rect class="cls-1" x="1040.79" y="237.78" width="7.61" height="33.53"/>
      <polygon class="cls-1" points="1055.56 244.14 1064.56 244.14 1064.56 271.31 1072.18 271.31 1072.18 244.14 1078.2 244.14 1081.33 237.78 1055.56 237.78 1055.56 244.14"/>
      <polygon class="cls-1" points="619.64 244.14 628.65 244.14 628.65 271.31 636.26 271.31 636.26 244.14 642.29 244.14 645.42 237.78 619.64 237.78 619.64 244.14"/>
      <path class="cls-1" d="M1105.82,237.78l-3.38,8.06c-.99,2.39-1.79,4.33-2.54,6.42h-.1c-.84-2.19-1.54-3.98-2.59-6.42l-3.44-8.06h-8.65l10.6,19.8v13.73h7.56v-13.98l11.04-19.55h-8.51Z"/>
      <path class="cls-1" d="M618.13,271.29l-10.4-33.53h-9.95l-10.25,33.53h7.86l2.39-8.61h9.85l2.34,8.61h8.16ZM600.87,249.13c.55-1.94,1.04-4.48,1.54-6.47h.1c.5,1.99,1.09,4.48,1.69,6.47l1.96,7.19-.02-.08h-7.27l1.99-7.11ZM606.14,257.04h0v.03-.03Z"/>
      <polygon class="cls-1" points="857.98 271.29 857.97 237.71 866.83 237.71 878.75 260.3 878.71 237.72 885.71 237.72 885.73 271.29 877.9 271.29 864.93 246.56 864.94 271.29 857.98 271.29"/>
      <polygon class="cls-1" points="552.62 271.29 552.61 237.71 561.47 237.71 573.39 260.3 573.36 237.72 580.35 237.72 580.38 271.29 572.54 271.29 559.57 246.56 559.58 271.29 552.62 271.29"/>
      <path class="cls-1" d="M774.03,271.29l-10.4-33.53h-9.95l-10.25,33.53h7.86l2.39-8.61h9.85l2.34,8.61h8.16ZM756.76,249.13c.55-1.94,1.04-4.48,1.54-6.47h.1c.5,1.99,1.09,4.48,1.69,6.47l1.96,7.19-.02-.08h-7.27l1.99-7.11ZM762.03,257.04h0v.03-.03Z"/>
      <polygon class="cls-1" points="708.86 271.29 708.86 237.71 717.71 237.71 729.64 260.3 729.6 237.72 736.59 237.72 736.62 271.29 728.79 271.29 715.81 246.56 715.82 271.29 708.86 271.29"/>
      <polygon class="cls-1" points="393.54 271.29 393.54 237.71 402.39 237.71 414.31 260.3 414.28 237.72 421.27 237.72 421.3 271.29 413.47 271.29 400.49 246.56 400.5 271.29 393.54 271.29"/>
      <path class="cls-1" d="M299.95,265.44c-1.26-.23-2.36-.71-3.16-1.38l-2.64,5.27-.03.05s0,0,0,0l-.02.03s.15.12.38.29c.58.48,1.36.91,2.28,1.26,0,0,.02,0,.02,0,1.38.52,3.07.87,4.93.94,1.62.06,3.23-.09,4.65-.41.07-.01.13-.03.2-.05.24-.06.47-.12.7-.18.22-.06.44-.13.65-.21.17-.06.33-.12.49-.18.12-.05.25-.1.37-.16.25-.11.48-.23.7-.35,3.23-1.79,5.08-5.34,5.08-11.4v-21.19h-7.56v21.09c.05,4.64-1.58,6.31-4.21,6.61-.4.06-.82.1-1.28.1-.54,0-1.06-.05-1.56-.14"/>
      <path class="cls-1" d="M1025.21,251.43c-4.26-1.62-6.12-2.55-6.12-4.65,0-1.71,1.57-3.19,4.8-3.19,2.5,0,4.45.56,5.83,1.1l2.7-5.41.04-.15c-1.96-.88-4.7-1.67-8.43-1.67-7.79,0-12.49,4.31-12.49,9.95,0,4.8,3.58,7.84,9.06,9.75,3.97,1.42,5.54,2.6,5.54,4.66s-1.81,3.57-5.24,3.57c-2.59,0-5.09-.69-7.02-1.5l-2.75,5.52-.02.09c1.86,1.03,5.58,2.01,9.36,2.01,9.06,0,13.32-4.7,13.32-10.24,0-4.65-2.74-7.69-8.57-9.85Z"/>
    </g>
  </g>
  <g>
    <path class="cls-3" d="M1218.18,111.25h63.9v8.5h-63.9v-8.5ZM1248.75,82.56c-4.79,6.03-12.42,11.62-23.6,16.63l-4.28-7.99c18.37-8.57,24.98-17.21,24.98-26.36v-5.08h9.29v5.08c0,3.41-.58,6.68-1.82,9.88l26.07,16.77-5.08,7.7-25.56-16.63Z"/>
    <path class="cls-3" d="M1287.89,113.71v-52.43h34.06v52.43h-34.06ZM1297.19,69.78v35.44h15.54v-35.44h-15.54ZM1351.87,81.18v8.42h-9.8v34.86h-9.3V56.64h9.3v24.54h9.8Z"/>
    <path class="cls-3" d="M1355.87,111.25h63.9v8.5h-63.9v-8.5ZM1413.82,92.95v8.2h-50.47v-40.3h49.02v8.35h-39.79v7.62h39.79v8.13h-39.79v7.99h41.25Z"/>
    <path class="cls-3" d="M1453.54,92.37l-12.34-10.6c-2.76,4.43-6.61,8.42-11.69,12.05l-5.37-6.83c9.59-7.12,13.14-15.47,13.14-23.89v-4.43h8.93v4.43c0,3.78-.44,7.26-1.38,10.53l14.09,12.13-5.37,6.61ZM1469.01,96.58c9.88,0,16.56,5.74,16.56,14.3s-6.68,14.31-16.56,14.31h-15.83c-9.88,0-16.56-5.66-16.56-14.31s6.68-14.3,16.56-14.3h15.83ZM1467.7,116.91c5.74,0,8.57-2.47,8.57-6.1s-2.83-6.03-8.57-6.03h-13.22c-5.74,0-8.57,2.47-8.57,6.03s2.83,6.1,8.57,6.1h13.22ZM1469.3,78.13v14.74h-8.5v-35.51h8.5v12.63h6.68v-13.29h8.79v36.89h-8.79v-15.47h-6.68Z"/>
    <path class="cls-3" d="M1513.96,75.16c-.07,4.57-.51,8.93-1.38,13.22l14.6,21.13-6.9,5.23-10.97-15.9c-2.4,5.59-5.66,11.04-10.09,16.56l-6.61-5.3c9.08-11.69,12.49-22.29,12.56-34.93h-10.38v-8.42h10.53v-10.02h8.71v10.02h11.11v8.42h-11.18ZM1529.8,81.84v-24.11h8.79v65.14h-8.79v-32.53h-9.59v-8.5h9.59ZM1544.54,56.64h9v67.82h-9V56.64Z"/>
    <path class="cls-3" d="M1604.89,93.38c-10.24,1.38-23.16,2.18-32.75,2.18h-10.31l-.51-8.21h12.27v-12.78h9.29v12.49c6.68-.29,14.31-.87,21.06-1.74l.94,8.06ZM1589.71,82.42c.94-5.88,1.52-11.33,1.6-15.32h-25.92v-7.62h35v3.05c0,7.41-.73,14.67-1.82,20.91l-8.86-1.02ZM1602.56,99.41c9.66,0,16.34,4.79,16.34,12.93s-6.68,12.85-16.34,12.85h-14.89c-9.59,0-16.34-4.79-16.34-12.85s6.75-12.93,16.34-12.93h14.89ZM1601.11,117.27c5.59,0,8.5-1.96,8.5-5.01s-2.9-5.08-8.5-5.08h-11.91c-5.66,0-8.57,2.03-8.57,5.08s2.9,5.01,8.57,5.01h11.91ZM1618.1,73.41h9.08v8.42h-9.08v15.25h-9.29v-40.38h9.29v16.7Z"/>
    <path class="cls-3" d="M1671.12,62.01v7.48h-39.87v-7.48h15.25v-6.1h9.37v6.1h15.25ZM1668.29,84.89c0,7.84-7.48,11.76-17.07,11.76s-17.14-3.92-17.14-11.76v-.87c0-7.84,7.62-11.76,17.14-11.76s17.07,3.92,17.07,11.76v.87ZM1640.91,109.14v-8.42h45.31v24.47h-9.22v-16.05h-36.09ZM1643.16,84.81c0,2.69,3.56,4.36,8.06,4.36s8.06-1.67,8.06-4.36v-.65c0-2.76-3.49-4.43-8.06-4.43s-8.06,1.67-8.06,4.43v.65ZM1696.1,72.69v8.42h-9.88v15.9h-9.22v-40.38h9.22v16.05h9.88Z"/>
    <path class="cls-3" d="M1737.13,87.65c-3.05,6.1-9.22,9-16.34,9-10.24,0-18.44-5.96-18.44-18.66v-1.09c0-12.85,8.21-18.81,18.44-18.81,6.39,0,12.05,2.4,15.32,7.33h13.51v-8.79h9.29v50.18h-9.29v-19.17h-12.49ZM1711.64,77.92c0,7.26,4.14,10.6,9.15,10.6s9.08-3.34,9.08-10.6v-1.02c0-7.26-4.14-10.67-9.08-10.67s-9.15,3.41-9.15,10.67v1.02ZM1722.17,116.04h39.29v8.42h-48.58v-22.22h9.29v13.8ZM1749.62,72.83h-10.75c.22,1.23.29,2.61.29,4.07v1.09c0,.8,0,1.6-.07,2.32h10.53v-7.48Z"/>
    <path class="cls-3" d="M1832.85,91.71v8.42h-27.3v25.12h-9.29v-25.12h-27.3v-8.42h44.44c1.31-8.71,2.18-17.94,2.18-23.17h-39.72v-8.5h49.02v5.59c0,7.7-.8,17.07-2.18,26.07h10.17Z"/>
    <path class="cls-3" d="M1858.92,78.86c-3.63,4.43-8.86,8.28-15.83,11.84l-4.65-7.62c12.64-6.39,17.21-13.22,17.21-20.91v-3.78h9.08v3.78c0,3.27-.51,6.32-1.52,9.15l18.44,10.46-4.65,7.48-18.08-10.38ZM1859.86,117.06h38.85v7.77h-48.14v-19.75h36.74v-4.14h-37.11v-7.55h46.4v19.17h-36.74v4.5ZM1896.61,56.64v33.04h-9.29v-33.04h9.29Z"/>
    <path class="cls-3" d="M1223.61,173.21c2.29,5.44,6.93,8.59,13.06,8.59s9.85-2.29,9.85-6.47c0-3.84-2.46-5.67-6.93-6.93l-6.88-1.89c-6.19-1.72-12.72-5.16-12.72-13.29s6.99-13.18,16.1-13.18,14.95,5.1,17.48,11.23l-6.19,3.09c-2.06-4.35-5.79-7.62-11.29-7.62s-8.82,2.41-8.82,6.47,3.09,5.61,7.11,6.7l6.7,1.83c6.25,1.72,12.72,5.33,12.72,13.58s-7.56,13.18-17.13,13.18-16.33-4.58-19.31-12.21l6.25-3.09Z"/>
    <path class="cls-3" d="M1305.95,167.02v20.28h-4.12v-20.17c0-6.19-2.92-10.03-8.02-10.03s-8.48,4.18-8.48,10.31v19.88h-4.07v-20.17c0-6.24-2.86-10.03-8.02-10.03s-8.37,4.07-8.37,10.31v19.88h-4.18v-33.12h3.78l.29,4.87c1.89-3.44,5.16-5.73,9.45-5.73,4.7,0,8.25,2.69,9.97,7.05,1.89-4.18,5.67-7.05,10.54-7.05,6.76,0,11.23,5.5,11.23,13.69Z"/>
    <path class="cls-3" d="M1340.15,166.1v21.2h-3.72l-.29-4.58c-1.89,3.32-5.5,5.44-10.26,5.44h-2.23c-6.36,0-10.94-4.35-10.94-10.26s4.64-10.09,12.89-10.09h10.43v-1.43c0-5.62-3.15-9.22-9.11-9.22-4.3,0-7.39,2.01-9.11,5.21l-3.72-1.72c2.23-4.35,7.1-7.33,13.12-7.33,7.62,0,12.95,4.75,12.95,12.78ZM1326.46,184.32c4.64,0,9-2.87,9.57-7.39v-5.39h-10.14c-6.36,0-9.05,2.64-9.05,6.36,0,4.01,2.98,6.42,7.51,6.42h2.12Z"/>
    <path class="cls-3" d="M1365.59,154.01l-.97,3.72c-1.38-.34-2.81-.57-4.07-.57-4.76,0-7.79,4.87-7.79,10.48v19.65h-4.18v-33.12h3.84l.23,5.21c1.66-3.61,4.58-6.07,8.54-6.07,1.66,0,3.15.23,4.41.69Z"/>
    <path class="cls-3" d="M1389.14,186.38c-1.95,1.2-4.47,1.78-6.7,1.78-4.53,0-7.51-2.41-7.51-7.74v-22.4h-6.47v-3.84h6.47v-9.51h4.13v9.51h9.11v3.84h-9.11v22c0,3.61,1.55,4.35,3.84,4.35,1.89,0,3.32-.52,5.1-1.43l1.15,3.44Z"/>
    <path class="cls-3" d="M1445.06,174.29c0,8.77-5.96,13.35-15.93,13.35h-20.46v-46.75h18.22c9.91,0,15.93,4.58,15.93,13.12,0,3.9-1.72,7.33-6.19,9.22,5.9,1.95,8.42,5.96,8.42,11.06ZM1416.07,147.42v13.58h10.77c5.67,0,8.71-2.58,8.71-6.88s-3.04-6.7-8.71-6.7h-10.77ZM1429.07,181.11c5.67,0,8.71-2.46,8.71-6.99s-3.04-7.05-8.71-7.05h-13.01v14.04h13.01Z"/>
    <path class="cls-3" d="M1452.22,144.16c0-1.66,1.38-2.98,3.04-2.98s2.98,1.38,2.98,2.98-1.32,2.98-2.98,2.98-3.04-1.32-3.04-2.98ZM1453.2,187.3v-33.12h4.12v33.12h-4.12Z"/>
    <path class="cls-3" d="M1465.23,173.15v-4.87c0-9.74,7.16-14.95,15.01-14.95s15.07,5.21,15.07,14.95v4.87c0,9.8-7.1,15.01-15.07,15.01s-15.01-5.21-15.01-15.01ZM1491.18,172.98v-4.47c0-7.28-5.04-11.34-10.94-11.34s-10.83,4.07-10.83,11.34v4.47c0,7.28,4.98,11.4,10.83,11.4s10.94-4.13,10.94-11.4Z"/>
    <path class="cls-3" d="M1531.86,168.57v4.53c0,9.8-6.82,15.24-13.75,15.24-4.81,0-9.05-2.12-11.57-6.02v14.73h-4.18v-42.86h3.84l.29,5.27c2.52-3.95,6.82-6.13,11.63-6.13,6.93,0,13.75,5.5,13.75,15.24ZM1527.74,168.74c0-7.45-4.7-11.57-10.66-11.57s-10.54,4.12-10.54,11.57v4.24c0,7.39,4.64,11.57,10.54,11.57s10.66-4.18,10.66-11.57v-4.24Z"/>
    <path class="cls-3" d="M1566.7,166.96v20.34h-4.13v-20.11c0-6.25-2.98-10.14-9.23-10.14s-10.26,4.24-10.26,10.37v19.88h-4.18v-46.07h4.18v18.11c2.12-3.67,6.07-6.02,11.12-6.02,7.79,0,12.49,5.5,12.49,13.64Z"/>
    <path class="cls-3" d="M1573.74,173.15v-4.87c0-9.74,7.16-14.95,15.01-14.95s15.07,5.21,15.07,14.95v4.87c0,9.8-7.11,15.01-15.07,15.01s-15.01-5.21-15.01-15.01ZM1599.7,172.98v-4.47c0-7.28-5.04-11.34-10.94-11.34s-10.83,4.07-10.83,11.34v4.47c0,7.28,4.98,11.4,10.83,11.4s10.94-4.13,10.94-11.4Z"/>
    <path class="cls-3" d="M1628.8,186.38c-1.95,1.2-4.47,1.78-6.7,1.78-4.53,0-7.51-2.41-7.51-7.74v-22.4h-6.47v-3.84h6.47v-9.51h4.13v9.51h9.11v3.84h-9.11v22c0,3.61,1.55,4.35,3.84,4.35,1.89,0,3.32-.52,5.1-1.43l1.15,3.44Z"/>
    <path class="cls-3" d="M1632.53,173.15v-4.87c0-9.74,7.16-14.95,15.01-14.95s15.07,5.21,15.07,14.95v4.87c0,9.8-7.11,15.01-15.07,15.01s-15.01-5.21-15.01-15.01ZM1658.48,172.98v-4.47c0-7.28-5.04-11.34-10.94-11.34s-10.83,4.07-10.83,11.34v4.47c0,7.28,4.98,11.4,10.83,11.4s10.94-4.13,10.94-11.4Z"/>
    <path class="cls-3" d="M1698.3,167.02v20.28h-4.13v-20.05c0-6.19-2.98-10.08-9.28-10.08-5.96,0-10.2,4.24-10.2,10.26v19.88h-4.18v-33.12h3.78l.34,5.27c2.12-3.72,6.02-6.13,11.12-6.13,7.85,0,12.55,5.5,12.55,13.69Z"/>
    <path class="cls-3" d="M1706.78,144.16c0-1.66,1.38-2.98,3.04-2.98s2.98,1.38,2.98,2.98-1.32,2.98-2.98,2.98-3.04-1.32-3.04-2.98ZM1707.76,187.3v-33.12h4.12v33.12h-4.12Z"/>
    <path class="cls-3" d="M1719.79,173.21v-4.93c0-9.74,7.16-14.95,15.01-14.95,5.96,0,11.29,2.98,13.64,8.65l-3.84,1.55c-1.83-4.18-5.39-6.36-9.8-6.36-5.96,0-10.83,4.07-10.83,11.34v4.47c0,7.28,4.87,11.4,10.83,11.4,4.41,0,7.96-2.18,9.8-6.42l3.84,1.55c-2.35,5.67-7.68,8.65-13.64,8.65-7.85,0-15.01-5.21-15.01-14.95Z"/>
    <path class="cls-3" d="M1756.74,177.62c2.46,4.7,6.36,6.93,11.17,6.93s8.48-1.83,8.48-5.39-2.75-4.87-6.76-6.07l-4.53-1.32c-5.27-1.55-9.45-4.01-9.45-9.57s4.98-8.88,11.34-8.88,10.6,2.86,13.24,7.68l-3.21,2.12c-2.18-3.78-5.61-6.19-10.08-6.19s-7.28,2.12-7.28,5.27,2.23,4.7,6.13,5.9l4.53,1.32c5.27,1.55,10.08,3.9,10.08,9.74s-5.84,9-12.55,9-11.63-2.86-14.44-8.48l3.32-2.06Z"/>
    <path class="cls-3" d="M1809.23,181.11h21.37v6.53h-28.76v-46.75h7.39v40.22Z"/>
    <path class="cls-3" d="M1862.34,166.1v21.2h-3.72l-.29-4.58c-1.89,3.32-5.5,5.44-10.26,5.44h-2.23c-6.36,0-10.94-4.35-10.94-10.26s4.64-10.09,12.89-10.09h10.43v-1.43c0-5.62-3.15-9.22-9.11-9.22-4.3,0-7.39,2.01-9.11,5.21l-3.72-1.72c2.23-4.35,7.1-7.33,13.12-7.33,7.62,0,12.95,4.75,12.95,12.78ZM1848.64,184.32c4.64,0,9-2.87,9.57-7.39v-5.39h-10.14c-6.36,0-9.05,2.64-9.05,6.36,0,4.01,2.98,6.42,7.51,6.42h2.12Z"/>
    <path class="cls-3" d="M1900.27,168.45v4.58c0,9.68-6.7,15.13-13.75,15.13-4.87,0-9.11-2.12-11.63-6.07l-.29,5.21h-3.84v-46.07h4.18v18.05c2.52-3.9,6.76-5.96,11.57-5.96,7.05,0,13.75,5.44,13.75,15.13ZM1896.14,168.62c0-7.33-4.7-11.46-10.66-11.46s-10.54,4.12-10.54,11.46v4.24c0,7.33,4.7,11.52,10.54,11.52s10.66-4.18,10.66-11.52v-4.24Z"/>
    <path class="cls-3" d="M1906.57,184.95c0-1.78,1.38-3.15,3.15-3.15s3.21,1.38,3.21,3.15-1.43,3.21-3.21,3.21-3.15-1.43-3.15-3.21Z"/>
  </g>
  <line class="cls-2" x1="1171.54" y1="50" x2="1171.54" y2="199"/>
</svg>