<?xml version="1.0" encoding="UTF-8"?>
<svg id="Layer_1" data-name="Layer 1" xmlns="http://www.w3.org/2000/svg" viewBox="0 0 163.83 225.83">
  <defs>
    <style>
      .cls-1 {
        fill: #fff;
      }
    </style>
  </defs>
  <g>
    <polygon class="cls-1" points="65.3 99.28 74.8 99.28 74.8 25.14 67.95 30.44 65.3 99.28"/>
    <polygon class="cls-1" points="56.87 39.02 52.25 99.28 61.74 99.28 64.28 33.29 56.87 39.02"/>
    <polygon class="cls-1" points="45.03 48.18 39.19 99.28 48.68 99.28 53.07 41.96 45.03 48.18"/>
  </g>
  <g>
    <polygon class="cls-1" points="98.53 99.28 89.04 99.28 89.04 25.14 95.88 30.44 98.53 99.28"/>
    <polygon class="cls-1" points="106.97 39.02 111.59 99.28 102.09 99.28 99.56 33.29 106.97 39.02"/>
    <polygon class="cls-1" points="118.8 48.18 124.64 99.28 115.15 99.28 110.76 41.96 118.8 48.18"/>
  </g>
  <g>
    <path class="cls-1" d="M131.77,104.03h-47.47v13.74c4.07-1.77,8.42-2.68,13.01-2.68,6.97,0,11.96,2.11,12.17,2.2l1.32.57.22,1.42,4.42,28.18.61,3.88-3.81-.95c-2.8-.7-5.67-1.05-8.52-1.05-11.83,0-20.16,6.08-20.23,6.14l-1.56,1.16-1.56-1.16c-.08-.06-8.41-6.14-20.24-6.14-2.86,0-5.72.35-8.52,1.05l-3.81.95.61-3.88,4.42-28.18.22-1.42,1.32-.57c.21-.09,5.2-2.2,12.17-2.2,4.59,0,8.95.91,13.01,2.68v-13.74H26.13v15.23h5.93v18.64h0c0,15.81,5.63,30.29,14.98,41.59-4.09,2.06-8.55,3.52-13.25,4.22,2.91,4.03,6.19,7.77,9.8,11.17,4.67-1.39,9.09-3.38,13.18-5.86,6.66,5.29,14.37,9.3,22.77,11.68v-13.69c-12.96-4.7-23.5-14.4-29.37-26.76,2.56-.64,5.24-.98,8-.98,9.3,0,17.71,3.83,23.74,9.98,6.03-6.16,14.44-9.98,23.74-9.98,2.76,0,5.44.34,8,.98-5.86,12.36-16.41,22.06-29.37,26.76v13.69c8.4-2.38,16.11-6.39,22.77-11.68,4.09,2.48,8.5,4.46,13.18,5.86,3.61-3.4,6.89-7.14,9.8-11.17-4.7-.7-9.16-2.15-13.25-4.22,9.35-11.29,14.98-25.78,14.98-41.59v-18.64h5.93v-15.23h-5.93Z"/>
    <path class="cls-1" d="M108.45,119.69s-13.26-5.7-26.53,2.21c-13.26-7.91-26.53-2.21-26.53-2.21l-4.42,28.18c17.69-4.42,30.95,5.53,30.95,5.53,0,0,13.27-9.95,30.95-5.53l-4.42-28.18Z"/>
  </g>
</svg>