<?xml version="1.0" encoding="UTF-8"?>
<svg id="Layer_1" data-name="Layer 1" xmlns="http://www.w3.org/2000/svg" viewBox="0 0 362.83 498.83">
  <defs>
    <style>
      .cls-1 {
        fill: none;
        stroke: #666563;
        stroke-linecap: round;
        stroke-linejoin: round;
        stroke-width: 2px;
      }

      .cls-2 {
        fill: #512b6b;
      }

      .cls-3 {
        fill: #666563;
      }
    </style>
  </defs>
  <line class="cls-1" x1="53.17" y1="381" x2="308.17" y2="381"/>
  <g>
    <path class="cls-3" d="M56.07,448.55h23.42v3.11h-23.42v-3.11ZM67.28,438.04c-1.76,2.21-4.55,4.26-8.65,6.09l-1.57-2.93c6.73-3.14,9.15-6.31,9.15-9.66v-1.86h3.41v1.86c0,1.25-.21,2.45-.67,3.62l9.55,6.15-1.86,2.82-9.37-6.09Z"/>
    <path class="cls-3" d="M81.63,449.45v-19.21h12.48v19.21h-12.48ZM85.03,433.35v12.99h5.7v-12.99h-5.7ZM105.07,437.53v3.09h-3.59v12.77h-3.41v-24.85h3.41v8.99h3.59Z"/>
    <path class="cls-3" d="M106.54,448.55h23.42v3.11h-23.42v-3.11ZM127.78,441.84v3.01h-18.5v-14.77h17.96v3.06h-14.58v2.79h14.58v2.98h-14.58v2.93h15.12Z"/>
    <path class="cls-3" d="M142.34,441.63l-4.52-3.89c-1.01,1.62-2.42,3.09-4.29,4.42l-1.97-2.5c3.51-2.61,4.82-5.67,4.82-8.76v-1.62h3.27v1.62c0,1.38-.16,2.66-.51,3.86l5.16,4.44-1.97,2.42ZM148.01,443.17c3.62,0,6.07,2.1,6.07,5.24s-2.45,5.24-6.07,5.24h-5.8c-3.62,0-6.07-2.08-6.07-5.24s2.45-5.24,6.07-5.24h5.8ZM147.53,450.62c2.1,0,3.14-.9,3.14-2.24s-1.04-2.21-3.14-2.21h-4.84c-2.1,0-3.14.9-3.14,2.21s1.04,2.24,3.14,2.24h4.84ZM148.11,436.41v5.4h-3.11v-13.01h3.11v4.63h2.45v-4.87h3.22v13.52h-3.22v-5.67h-2.45Z"/>
    <path class="cls-3" d="M164.48,435.32c-.03,1.68-.19,3.27-.51,4.84l5.35,7.74-2.53,1.92-4.02-5.83c-.88,2.05-2.08,4.04-3.7,6.07l-2.42-1.94c3.33-4.28,4.58-8.17,4.6-12.8h-3.81v-3.09h3.86v-3.67h3.19v3.67h4.07v3.09h-4.1ZM170.29,437.77v-8.84h3.22v23.87h-3.22v-11.92h-3.51v-3.11h3.51ZM175.69,428.54h3.3v24.85h-3.3v-24.85Z"/>
    <path class="cls-3" d="M197.81,442c-3.75.51-8.49.8-12,.8h-3.78l-.19-3.01h4.5v-4.68h3.41v4.58c2.45-.11,5.24-.32,7.72-.64l.35,2.95ZM192.25,437.98c.35-2.16.56-4.15.58-5.62h-9.5v-2.79h12.83v1.12c0,2.71-.27,5.38-.67,7.66l-3.25-.37ZM196.96,444.21c3.54,0,5.99,1.76,5.99,4.74s-2.45,4.71-5.99,4.71h-5.45c-3.51,0-5.99-1.76-5.99-4.71s2.47-4.74,5.99-4.74h5.45ZM196.42,450.76c2.05,0,3.11-.72,3.11-1.84s-1.06-1.86-3.11-1.86h-4.36c-2.08,0-3.14.75-3.14,1.86s1.06,1.84,3.14,1.84h4.36ZM202.65,434.68h3.33v3.09h-3.33v5.59h-3.41v-14.8h3.41v6.12Z"/>
    <path class="cls-3" d="M222.08,430.51v2.74h-14.61v-2.74h5.59v-2.24h3.43v2.24h5.59ZM221.04,438.89c0,2.87-2.74,4.31-6.25,4.31s-6.28-1.44-6.28-4.31v-.32c0-2.87,2.79-4.31,6.28-4.31s6.25,1.44,6.25,4.31v.32ZM211.01,447.78v-3.09h16.61v8.97h-3.38v-5.88h-13.23ZM211.84,438.86c0,.98,1.3,1.6,2.95,1.6s2.95-.61,2.95-1.6v-.24c0-1.01-1.28-1.62-2.95-1.62s-2.95.61-2.95,1.62v.24ZM231.24,434.42v3.09h-3.62v5.83h-3.38v-14.8h3.38v5.88h3.62Z"/>
    <path class="cls-3" d="M246.28,439.9c-1.12,2.24-3.38,3.3-5.99,3.3-3.75,0-6.76-2.18-6.76-6.84v-.4c0-4.71,3.01-6.89,6.76-6.89,2.34,0,4.42.88,5.61,2.69h4.95v-3.22h3.41v18.39h-3.41v-7.03h-4.58ZM236.94,436.33c0,2.66,1.52,3.89,3.35,3.89s3.33-1.22,3.33-3.89v-.37c0-2.66-1.52-3.91-3.33-3.91s-3.35,1.25-3.35,3.91v.37ZM240.8,450.3h14.4v3.09h-17.8v-8.14h3.41v5.06ZM250.85,434.47h-3.94c.08.45.11.96.11,1.49v.4c0,.29,0,.59-.03.85h3.86v-2.74Z"/>
    <path class="cls-3" d="M281.36,441.39v3.09h-10.01v9.21h-3.41v-9.21h-10.01v-3.09h16.29c.48-3.19.8-6.57.8-8.49h-14.56v-3.11h17.96v2.05c0,2.82-.29,6.25-.8,9.55h3.73Z"/>
    <path class="cls-3" d="M290.92,436.68c-1.33,1.62-3.25,3.03-5.8,4.34l-1.7-2.79c4.63-2.34,6.31-4.84,6.31-7.66v-1.38h3.33v1.38c0,1.2-.19,2.32-.56,3.35l6.76,3.83-1.7,2.74-6.63-3.81ZM291.26,450.68h14.24v2.85h-17.64v-7.24h13.47v-1.52h-13.6v-2.77h17v7.03h-13.47v1.65ZM304.73,428.54v12.11h-3.41v-12.11h3.41Z"/>
    <path class="cls-3" d="M55.8,471.26c.84,1.99,2.54,3.15,4.79,3.15s3.61-.84,3.61-2.37c0-1.41-.9-2.08-2.54-2.54l-2.52-.69c-2.27-.63-4.66-1.89-4.66-4.87s2.56-4.83,5.9-4.83,5.48,1.87,6.4,4.12l-2.27,1.13c-.76-1.6-2.12-2.79-4.14-2.79s-3.23.88-3.23,2.37,1.13,2.06,2.6,2.46l2.46.67c2.29.63,4.66,1.95,4.66,4.98s-2.77,4.83-6.28,4.83-5.98-1.68-7.08-4.47l2.29-1.13Z"/>
    <path class="cls-3" d="M85.97,468.99v7.43h-1.51v-7.39c0-2.27-1.07-3.67-2.94-3.67s-3.11,1.53-3.11,3.78v7.29h-1.49v-7.39c0-2.29-1.05-3.67-2.94-3.67s-3.07,1.49-3.07,3.78v7.29h-1.53v-12.14h1.39l.1,1.78c.69-1.26,1.89-2.1,3.46-2.1,1.72,0,3.02.99,3.65,2.58.69-1.53,2.08-2.58,3.86-2.58,2.48,0,4.12,2.02,4.12,5.02Z"/>
    <path class="cls-3" d="M98.51,468.65v7.77h-1.37l-.1-1.68c-.69,1.22-2.02,1.99-3.76,1.99h-.82c-2.33,0-4.01-1.6-4.01-3.76s1.7-3.7,4.72-3.7h3.82v-.52c0-2.06-1.16-3.38-3.34-3.38-1.57,0-2.71.73-3.34,1.91l-1.37-.63c.82-1.6,2.6-2.69,4.81-2.69,2.79,0,4.75,1.74,4.75,4.68ZM93.49,475.33c1.7,0,3.3-1.05,3.51-2.71v-1.97h-3.72c-2.33,0-3.32.97-3.32,2.33,0,1.47,1.09,2.35,2.75,2.35h.78Z"/>
    <path class="cls-3" d="M107.83,464.22l-.36,1.36c-.5-.13-1.03-.21-1.49-.21-1.74,0-2.86,1.78-2.86,3.84v7.2h-1.53v-12.14h1.41l.08,1.91c.61-1.32,1.68-2.23,3.13-2.23.61,0,1.15.08,1.62.25Z"/>
    <path class="cls-3" d="M116.47,476.09c-.71.44-1.64.65-2.46.65-1.66,0-2.75-.88-2.75-2.83v-8.21h-2.37v-1.41h2.37v-3.49h1.51v3.49h3.34v1.41h-3.34v8.06c0,1.32.57,1.6,1.41,1.6.69,0,1.22-.19,1.87-.52l.42,1.26Z"/>
    <path class="cls-3" d="M136.96,471.66c0,3.21-2.18,4.89-5.84,4.89h-7.5v-17.13h6.68c3.63,0,5.84,1.68,5.84,4.81,0,1.43-.63,2.69-2.27,3.38,2.16.71,3.09,2.18,3.09,4.05ZM126.34,461.81v4.98h3.95c2.08,0,3.19-.94,3.19-2.52s-1.11-2.46-3.19-2.46h-3.95ZM131.1,474.16c2.08,0,3.19-.9,3.19-2.56s-1.11-2.58-3.19-2.58h-4.77v5.14h4.77Z"/>
    <path class="cls-3" d="M139.59,460.61c0-.61.5-1.09,1.11-1.09s1.09.5,1.09,1.09-.48,1.09-1.09,1.09-1.11-.48-1.11-1.09ZM139.94,476.42v-12.14h1.51v12.14h-1.51Z"/>
    <path class="cls-3" d="M144.35,471.24v-1.78c0-3.57,2.62-5.48,5.5-5.48s5.52,1.91,5.52,5.48v1.78c0,3.59-2.6,5.5-5.52,5.5s-5.5-1.91-5.5-5.5ZM153.87,471.17v-1.64c0-2.67-1.85-4.16-4.01-4.16s-3.97,1.49-3.97,4.16v1.64c0,2.67,1.83,4.18,3.97,4.18s4.01-1.51,4.01-4.18Z"/>
    <path class="cls-3" d="M168.77,469.56v1.66c0,3.59-2.5,5.59-5.04,5.59-1.76,0-3.32-.78-4.24-2.2v5.4h-1.53v-15.71h1.41l.1,1.93c.92-1.45,2.5-2.25,4.26-2.25,2.54,0,5.04,2.02,5.04,5.58ZM167.26,469.62c0-2.73-1.72-4.24-3.91-4.24s-3.86,1.51-3.86,4.24v1.55c0,2.71,1.7,4.24,3.86,4.24s3.91-1.53,3.91-4.24v-1.55Z"/>
    <path class="cls-3" d="M181.54,468.97v7.45h-1.51v-7.37c0-2.29-1.09-3.72-3.38-3.72s-3.76,1.55-3.76,3.8v7.29h-1.53v-16.88h1.53v6.63c.78-1.34,2.23-2.2,4.07-2.2,2.86,0,4.58,2.02,4.58,5Z"/>
    <path class="cls-3" d="M184.13,471.24v-1.78c0-3.57,2.62-5.48,5.5-5.48s5.52,1.91,5.52,5.48v1.78c0,3.59-2.6,5.5-5.52,5.5s-5.5-1.91-5.5-5.5ZM193.64,471.17v-1.64c0-2.67-1.85-4.16-4.01-4.16s-3.97,1.49-3.97,4.16v1.64c0,2.67,1.83,4.18,3.97,4.18s4.01-1.51,4.01-4.18Z"/>
    <path class="cls-3" d="M204.31,476.09c-.71.44-1.64.65-2.46.65-1.66,0-2.75-.88-2.75-2.83v-8.21h-2.37v-1.41h2.37v-3.49h1.51v3.49h3.34v1.41h-3.34v8.06c0,1.32.57,1.6,1.41,1.6.69,0,1.22-.19,1.87-.52l.42,1.26Z"/>
    <path class="cls-3" d="M205.67,471.24v-1.78c0-3.57,2.62-5.48,5.5-5.48s5.52,1.91,5.52,5.48v1.78c0,3.59-2.6,5.5-5.52,5.5s-5.5-1.91-5.5-5.5ZM215.18,471.17v-1.64c0-2.67-1.85-4.16-4.01-4.16s-3.97,1.49-3.97,4.16v1.64c0,2.67,1.83,4.18,3.97,4.18s4.01-1.51,4.01-4.18Z"/>
    <path class="cls-3" d="M229.78,468.99v7.43h-1.51v-7.35c0-2.27-1.09-3.7-3.4-3.7-2.18,0-3.74,1.55-3.74,3.76v7.29h-1.53v-12.14h1.39l.13,1.93c.78-1.36,2.21-2.25,4.07-2.25,2.88,0,4.6,2.02,4.6,5.02Z"/>
    <path class="cls-3" d="M232.89,460.61c0-.61.5-1.09,1.11-1.09s1.09.5,1.09,1.09-.48,1.09-1.09,1.09-1.11-.48-1.11-1.09ZM233.25,476.42v-12.14h1.51v12.14h-1.51Z"/>
    <path class="cls-3" d="M237.66,471.26v-1.81c0-3.57,2.62-5.48,5.5-5.48,2.18,0,4.14,1.09,5,3.17l-1.41.57c-.67-1.53-1.97-2.33-3.59-2.33-2.18,0-3.97,1.49-3.97,4.16v1.64c0,2.67,1.79,4.18,3.97,4.18,1.62,0,2.92-.8,3.59-2.35l1.41.57c-.86,2.08-2.81,3.17-5,3.17-2.88,0-5.5-1.91-5.5-5.48Z"/>
    <path class="cls-3" d="M251.2,472.88c.9,1.72,2.33,2.54,4.09,2.54s3.11-.67,3.11-1.97-1.01-1.78-2.48-2.23l-1.66-.48c-1.93-.57-3.46-1.47-3.46-3.51s1.83-3.25,4.16-3.25,3.88,1.05,4.85,2.81l-1.18.78c-.8-1.39-2.06-2.27-3.7-2.27s-2.67.78-2.67,1.93.82,1.72,2.25,2.16l1.66.48c1.93.57,3.7,1.43,3.7,3.57s-2.14,3.3-4.6,3.3-4.26-1.05-5.29-3.11l1.22-.76Z"/>
    <path class="cls-3" d="M270.43,474.16h7.83v2.39h-10.54v-17.13h2.71v14.74Z"/>
    <path class="cls-3" d="M289.9,468.65v7.77h-1.36l-.11-1.68c-.69,1.22-2.02,1.99-3.76,1.99h-.82c-2.33,0-4.01-1.6-4.01-3.76s1.7-3.7,4.72-3.7h3.82v-.52c0-2.06-1.15-3.38-3.34-3.38-1.58,0-2.71.73-3.34,1.91l-1.36-.63c.82-1.6,2.6-2.69,4.81-2.69,2.79,0,4.75,1.74,4.75,4.68ZM284.88,475.33c1.7,0,3.3-1.05,3.51-2.71v-1.97h-3.72c-2.33,0-3.32.97-3.32,2.33,0,1.47,1.09,2.35,2.75,2.35h.78Z"/>
    <path class="cls-3" d="M303.8,469.52v1.68c0,3.55-2.46,5.54-5.04,5.54-1.78,0-3.34-.78-4.26-2.23l-.11,1.91h-1.41v-16.88h1.53v6.61c.92-1.43,2.48-2.18,4.24-2.18,2.58,0,5.04,1.99,5.04,5.54ZM302.29,469.58c0-2.69-1.72-4.2-3.91-4.2s-3.86,1.51-3.86,4.2v1.55c0,2.69,1.72,4.22,3.86,4.22s3.91-1.53,3.91-4.22v-1.55Z"/>
    <path class="cls-3" d="M306.11,475.56c0-.65.5-1.15,1.16-1.15s1.18.5,1.18,1.15-.53,1.18-1.18,1.18-1.16-.52-1.16-1.18Z"/>
  </g>
  <g>
    <path class="cls-2" d="M261.61,40.49H101.22c-6.78,0-12.34,5.56-12.34,12.35s5.56,12.35,12.34,12.35h160.39c6.79,0,12.34-5.56,12.34-12.35s-5.55-12.35-12.34-12.35ZM188.49,94.07c-1.94-2.78-4.51-4.17-7.07-4.17-2.56,0-5.13,1.39-7.08,4.17l-78.38,112.05c-3.89,5.57-2.53,13.31,3.03,17.21,5.56,3.9,13.29,2.53,17.18-3.04l65.25-93.28,65.25,93.28c3.89,5.56,11.62,6.93,17.18,3.04,5.56-3.9,6.92-11.64,3.03-17.21l-78.38-112.05Z"/>
    <path class="cls-2" d="M118.89,312.6h-22.34v-7.94c0-.57-.46-1.04-1.04-1.04s-1.04.47-1.04,1.04v8.98c0,.57.46,1.03,1.04,1.03h23.38c.57,0,1.04-.46,1.04-1.03s-.46-1.04-1.04-1.04ZM108.11,299.23c.19.32.54.49.88.49.18,0,.37-.05.54-.15.49-.3.64-.94.34-1.42l-9.1-14.91c-.19-.31-.52-.5-.88-.5s-.69.19-.88.5l-9.1,14.91c-.3.49-.14,1.12.35,1.42.49.3,1.12.14,1.42-.34l8.22-13.46,8.22,13.46ZM119.37,277.54c-.57,0-1.03.46-1.03,1.04v7.32h-9.27c-.57,0-1.03.46-1.03,1.04s.46,1.04,1.03,1.04h9.27v17.14c0,.57.46,1.03,1.03,1.03s1.04-.46,1.04-1.03v-26.53c0-.57-.46-1.04-1.04-1.04ZM109.35,281c.57,0,1.03-.47,1.03-1.04s-.46-1.03-1.03-1.03h-19.43c-.57,0-1.04.46-1.04,1.03s.46,1.04,1.04,1.04h19.43ZM157.74,279.26c0-.57-.46-1.03-1.03-1.03s-1.04.46-1.04,1.03v4.64h-24.36v-4.64c0-.57-.46-1.03-1.03-1.03s-1.04.46-1.04,1.03v13.89h28.5v-13.89ZM155.67,291.08h-24.36v-5.11h24.36v5.11ZM159.69,297.54h-32.47c-.57,0-1.04.47-1.04,1.04s.46,1.03,1.04,1.03h14.97v5.05h-12.64c-.57,0-1.04.46-1.04,1.04s.46,1.03,1.04,1.03h26.11v8.16c0,.57.46,1.04,1.04,1.04s1.04-.47,1.04-1.04v-9.19c0-.57-.46-1.04-1.04-1.04h-12.44v-5.05h15.43c.57,0,1.04-.46,1.04-1.03s-.47-1.04-1.04-1.04ZM179.77,306.64c-6.19,1.14-10.05,1.16-11.68,1.09v-27.14h10.71c.57,0,1.03-.46,1.03-1.03s-.46-1.04-1.03-1.04h-11.75c-.57,0-1.03.46-1.03,1.04v29.14c0,.52.38.96.89,1.02.07.01.84.11,2.34.11,2.13,0,5.73-.2,10.89-1.15.56-.1.93-.64.83-1.21-.11-.56-.65-.93-1.21-.83ZM195.88,277.57c-.57,0-1.03.46-1.03,1.04v14.85h-8.03v-14.85c0-.57-.46-1.04-1.03-1.04s-1.04.46-1.04,1.04v35.35c0,.57.46,1.03,1.04,1.03s1.03-.46,1.03-1.03v-18.43h8.03v18.85c0,.57.46,1.04,1.03,1.04s1.04-.46,1.04-1.04v-35.77c0-.57-.46-1.04-1.04-1.04ZM243.24,281.15h26.04c.26,2.28.73,9.37-1.16,23.2-.08.57.32,1.09.89,1.17.05,0,.1,0,.14,0,.51,0,.95-.38,1.02-.89,2.41-17.6,1.08-24.44,1.02-24.72-.1-.48-.52-.83-1.01-.83h-26.94c-.57,0-1.03.46-1.03,1.04s.46,1.03,1.03,1.03ZM272.92,310.72h-11.71v-16.55c0-.57-.46-1.04-1.04-1.04s-1.04.46-1.04,1.04v16.55h-9.08v-16.55c0-.57-.46-1.04-1.04-1.04s-1.04.46-1.04,1.04v16.55h-8.76c-.57,0-1.03.47-1.03,1.04s.46,1.04,1.03,1.04h33.68c.57,0,1.04-.46,1.04-1.04s-.46-1.04-1.04-1.04ZM238.69,289.65c0-.57-.46-1.03-1.03-1.03h-5.07v-10.12c0-.57-.46-1.03-1.03-1.03s-1.03.46-1.03,1.03v21.35c0,.57.46,1.04,1.03,1.04s1.03-.46,1.03-1.04v-9.16h5.07c.57,0,1.03-.46,1.03-1.04ZM224.52,280.61c0-.57-.46-1.04-1.03-1.04h-8.78v-3.45c0-.57-.46-1.04-1.04-1.04s-1.03.46-1.03,1.04v3.45h-8.78c-.57,0-1.03.46-1.03,1.04s.46,1.03,1.03,1.03h19.64c.57,0,1.03-.46,1.03-1.03ZM205.69,293.12c0,4.4,3.58,7.98,7.98,7.98s7.98-3.58,7.98-7.98-3.58-7.98-7.98-7.98-7.98,3.58-7.98,7.98ZM219.57,293.12c0,3.26-2.65,5.91-5.91,5.91s-5.91-2.65-5.91-5.91,2.65-5.91,5.91-5.91,5.91,2.65,5.91,5.91ZM231.66,305.5h-25.33c-.57,0-1.03.46-1.03,1.04s.46,1.04,1.03,1.04h24.3v7.33c0,.57.46,1.03,1.03,1.03s1.04-.46,1.04-1.03v-8.37c0-.57-.46-1.04-1.04-1.04Z"/>
  </g>
</svg>