<?xml version="1.0" encoding="UTF-8"?>
<svg id="Layer_1" data-name="Layer 1" xmlns="http://www.w3.org/2000/svg" viewBox="0 0 1955.8 312.87">
  <defs>
    <style>
      .cls-1 {
        fill: #0a0203;
      }

      .cls-2 {
        fill: none;
        stroke: #0a0203;
        stroke-linecap: round;
        stroke-linejoin: round;
        stroke-width: 2px;
      }

      .cls-3 {
        fill: #fff;
      }

      .cls-4 {
        fill: #144e8c;
      }

      .cls-5 {
        fill: #a52868;
      }
    </style>
  </defs>
  <g>
    <g>
      <path class="cls-4" d="M1101.29,150.42l-18.13-.49s6.43-29.72,6.15-67.38h-93.81v-16.96h102.31c5.23.36,9.3,3.95,9.77,8.54,0,0,.34,43.78-6.29,76.29"/>
      <path class="cls-4" d="M734.26,165.03v-17.03c-13.15,2.34-46.22,1.76-46.22,1.76v-61.41h42.41v-16.96h-51.81s-.02,0-.03,0-.02,0-.03,0c-5.15.02-9.32,4.19-9.32,9.35v76.62c0,5.16,4.19,9.35,9.35,9.35,0,0,42.43.83,55.64-1.69"/>
      <path class="cls-4" d="M867.85,89.78c-25.02,0-41.52,13.09-41.52,29.67s16.31,29.67,41.52,29.67,41.52-13.09,41.52-29.67-16.31-29.67-41.52-29.67M882.59,128.68c-3.71,2.19-8.61,3.3-14.57,3.3s-10.65-1.11-14.57-3.3c-3.87-2.15-5.83-5.29-5.83-9.32s1.96-6.97,5.84-9.13c3.92-2.19,8.82-3.31,14.56-3.31s10.72,1.08,14.48,3.2c3.7,2.1,5.58,5.21,5.58,9.23s-1.85,7.17-5.49,9.32"/>
      <polygon class="cls-4" points="430.22 110.6 464.34 110.6 464.34 151.32 483.12 151.32 483.12 53.57 464.34 53.57 464.34 93.65 430.22 93.65 430.22 110.6"/>
      <polygon class="cls-4" points="780.22 106.79 764.21 106.79 764.21 57.27 745.43 57.27 745.43 199.12 764.21 193.38 764.21 123.75 780.22 123.75 780.22 206.66 798.99 199.86 798.99 55.61 780.22 55.61 780.22 106.79"/>
      <polygon class="cls-4" points="876.38 67.33 876.38 49.95 858.43 49.95 858.43 67.33 820.43 67.33 820.43 83.19 915.28 83.19 915.28 67.33 876.38 67.33"/>
      <polygon class="cls-4" points="949.14 54.28 930.36 54.28 930.36 146.93 949.14 146.93 949.14 117.11 975.14 117.11 975.14 100.16 949.14 100.16 949.14 54.28"/>
      <polygon class="cls-4" points="1068.94 171.33 1068.94 115.97 1050.16 115.97 1050.16 171.33 1031.5 171.33 1031.5 115.97 1012.73 115.97 1012.73 171.33 980.59 171.33 980.59 188.28 1118.97 188.28 1126.41 171.33 1068.94 171.33"/>
      <path class="cls-4" d="M535.46,114.91h80.6c5.84,0,10.59-2.45,10.59-7.66v-52.73h-18.78v17.89h-64.26v-17.89h-18.78v52.73c0,5.2,4.75,7.65,10.62,7.66M543.61,87.08h64.26v12.66h-64.26v-12.66Z"/>
      <path class="cls-4" d="M400.59,184.36v-28.32h-18.78v35.83c0,5.2,4.75,9.44,10.62,9.45h83.81l9.92-16.96h-85.58Z"/>
      <path class="cls-4" d="M650.3,141.07v-15.16h-146.93v15.16h64v12.34h-46.22v15.16h90.94v39.24l18.78-5.49v-39.54c0-5.18-4.89-9.38-10.07-9.38h-34.65v-12.34h64.16Z"/>
      <path class="cls-4" d="M406.59,79.16h28.23v-16.95h-74.83v16.95h28.14c-.7,38.76-33.66,53.74-36.1,55.59l14.53,12.48c5.33-1.69,24.24-15.46,30.59-35.48h.96c6.38,22.8,31.01,33.52,31.01,33.52l13.42-13.41s-37.32-15.73-35.94-52.7Z"/>
      <path class="cls-4" d="M949.24,167.56c0-5.18-4.81-9.38-9.99-9.38h-96.41v16.96h87.62v31.97l18.78-4.94v-34.6Z"/>
    </g>
    <g>
      <g>
        <g>
          <polygon class="cls-4" points="395.84 249.84 407.25 249.84 407.25 244.13 395.84 244.13 395.84 237.7 407.94 237.7 407.94 231.95 388.8 231.95 388.8 262.95 405.69 262.95 408.58 257.2 395.84 257.2 395.84 249.84"/>
          <path class="cls-4" d="M430.22,231.44c-9.15,0-15.09,6.95-15.09,16.24s5.38,15.78,14.58,15.78,15.23-6.17,15.23-16.33c0-8.55-5.2-15.69-14.72-15.69M430.08,257.89c-4.69,0-7.55-4.28-7.55-10.35s2.76-10.53,7.5-10.53,7.5,4.78,7.5,10.35c0,6.02-2.71,10.53-7.45,10.53"/>
          <path class="cls-4" d="M504.85,246.25v-.09c3.5-1.29,5.11-3.86,5.11-6.62s-1.56-4.92-3.73-6.08c-2.25-1.33-4.87-1.74-9.15-1.74-3.49,0-7.22.27-9.06.64v30.45c1.56.23,4.14.46,7.59.46,6.16,0,9.94-1.01,12.19-2.8,1.93-1.57,3.22-3.77,3.22-6.58,0-4-2.62-6.67-6.17-7.64M494.96,237c.6-.09,1.47-.19,2.99-.19,3.17,0,4.97,1.24,4.97,3.59s-1.98,3.82-5.66,3.82h-2.3v-7.22ZM497.67,258.07c-1.2,0-2.02,0-2.71-.09v-8.74h2.39c3.5,0,6.3,1.24,6.3,4.37s-2.81,4.46-5.98,4.46"/>
          <path class="cls-4" d="M536.88,249.79c0,5.48-2.02,8.05-5.7,8.05s-5.61-2.72-5.61-8.05v-17.84h-7.04v17.29c0,9.89,4.6,14.21,12.42,14.21s12.92-4.56,12.92-14.12v-17.39h-6.99v17.84Z"/>
          <path class="cls-4" d="M577.55,231.94h-8.6l-7.04,10.3c-.69,1.1-1.43,2.21-2.12,3.4h-.14v-13.71h-6.95v31h6.95v-10.12l2.67-3.27,7.59,13.39h8.19l-10.81-17.8,10.26-13.2Z"/>
          <rect class="cls-4" x="690.64" y="231.88" width="7.04" height="31.05"/>
          <path class="cls-4" d="M720.18,231.44c-9.15,0-15.09,6.95-15.09,16.24s5.38,15.78,14.58,15.78,15.23-6.17,15.23-16.33c0-8.55-5.2-15.69-14.72-15.69M720.04,257.89c-4.69,0-7.54-4.28-7.54-10.35s2.76-10.53,7.5-10.53,7.49,4.78,7.49,10.35c0,6.02-2.71,10.53-7.45,10.53"/>
          <polygon class="cls-4" points="816.67 231.89 809.63 231.89 809.63 262.95 826.11 262.95 828.99 257.06 816.67 257.06 816.67 231.89"/>
          <path class="cls-4" d="M864.75,249.72c0,5.48-2.02,8.05-5.7,8.05s-5.62-2.72-5.62-8.05v-17.84h-7.03v17.29c0,9.89,4.6,14.21,12.42,14.21s12.93-4.56,12.93-14.12v-17.39h-6.99v17.84Z"/>
          <rect class="cls-4" x="915.99" y="231.88" width="7.04" height="31.06"/>
          <path class="cls-4" d="M947.26,245.19c-1.06,3.54-2.03,7.22-2.81,10.95h-.14c-.73-3.86-1.7-7.4-2.76-11.08l-3.77-13.17h-7.68l9.94,31.06h8.19l10.44-31.06h-7.45l-3.96,13.31Z"/>
          <polygon class="cls-4" points="972.39 250.01 983.8 250.01 983.8 244.31 972.39 244.31 972.39 237.7 984.49 237.7 984.49 231.88 965.35 231.88 965.35 262.95 982.25 262.95 985.13 257.2 972.39 257.2 972.39 250.01"/>
          <path class="cls-4" d="M1010.34,248.41v-.14c2.67-.97,5.47-3.68,5.47-7.64,0-2.85-1.01-5.01-2.85-6.48-2.21-1.75-5.43-2.44-10.03-2.44-3.72,0-7.08.27-9.34.64v30.59h6.95v-12.19h2.12c2.85.05,4.19,1.1,5.01,4.97.92,3.82,1.66,6.35,2.16,7.22h7.17c-.6-1.2-1.56-5.25-2.53-8.74-.78-2.85-1.98-4.92-4.14-5.79M1003.3,245.7h-2.76v-8.55c.51-.1,1.47-.23,3.17-.23,3.22.05,5.15,1.47,5.15,4.32s-2.07,4.46-5.56,4.46"/>
          <rect class="cls-4" x="1050.1" y="231.94" width="7.04" height="31"/>
          <polygon class="cls-4" points="1063.76 237.83 1072.08 237.83 1072.08 262.95 1079.12 262.95 1079.12 237.83 1084.69 237.83 1087.59 231.94 1063.76 231.94 1063.76 237.83"/>
          <polygon class="cls-4" points="660.67 237.83 669 237.83 669 262.95 676.04 262.95 676.04 237.83 681.61 237.83 684.5 231.94 660.67 231.94 660.67 237.83"/>
          <path class="cls-4" d="M1110.24,231.94l-3.13,7.45c-.92,2.21-1.65,4-2.35,5.94h-.09c-.78-2.03-1.42-3.68-2.39-5.94l-3.18-7.45h-8l9.8,18.31v12.7h6.99v-12.93l10.21-18.08h-7.87Z"/>
          <path class="cls-4" d="M659.28,262.93l-9.61-31h-9.2l-9.48,31h7.27l2.21-7.96h9.11l2.16,7.96h7.55ZM643.31,242.45c.51-1.8.96-4.14,1.43-5.98h.09c.46,1.84,1.01,4.14,1.57,5.98l1.81,6.65-.02-.07h-6.72l1.84-6.58ZM648.18,249.76h0v.03-.03Z"/>
          <polygon class="cls-4" points="881.05 262.93 881.05 231.88 889.24 231.88 900.26 252.77 900.23 231.89 906.7 231.89 906.72 262.93 899.48 262.93 887.48 240.06 887.49 262.93 881.05 262.93"/>
          <polygon class="cls-4" points="598.69 262.93 598.69 231.88 606.88 231.88 617.91 252.77 617.87 231.89 624.34 231.89 624.36 262.93 617.12 262.93 605.12 240.06 605.13 262.93 598.69 262.93"/>
          <path class="cls-4" d="M803.43,262.93l-9.61-31h-9.2l-9.48,31h7.27l2.21-7.96h9.11l2.16,7.96h7.55ZM787.46,242.45c.51-1.8.96-4.14,1.43-5.98h.09c.46,1.84,1.01,4.14,1.56,5.98l1.81,6.65-.02-.07h-6.72l1.84-6.58ZM792.33,249.76h0v.03-.03Z"/>
          <polygon class="cls-4" points="743.17 262.93 743.17 231.88 751.36 231.88 762.38 252.77 762.35 231.89 768.81 231.89 768.84 262.93 761.6 262.93 749.6 240.06 749.61 262.93 743.17 262.93"/>
          <polygon class="cls-4" points="451.6 262.93 451.59 231.88 459.78 231.88 470.81 252.77 470.77 231.89 477.24 231.89 477.26 262.93 470.02 262.93 458.02 240.06 458.04 262.93 451.6 262.93"/>
        </g>
        <path class="cls-4" d="M365.06,257.52c-1.16-.21-2.18-.66-2.92-1.27l-2.44,4.87-.02.05s0,0,0,0v.03s.12.11.34.26c.54.45,1.26.84,2.11,1.16,0,0,.01,0,.02,0,1.28.48,2.84.8,4.56.87,1.5.06,2.98-.09,4.3-.38.06-.01.12-.03.18-.04.22-.05.44-.11.65-.17.2-.06.4-.12.6-.19.16-.05.31-.11.45-.17.12-.05.23-.09.34-.14.23-.1.44-.21.64-.32,2.99-1.65,4.7-4.94,4.7-10.54v-19.6h-6.99v19.5c.05,4.29-1.47,5.83-3.89,6.11-.37.06-.76.1-1.18.1-.5,0-.98-.05-1.45-.13"/>
      </g>
      <path class="cls-4" d="M1035.69,244.57c-3.94-1.5-5.66-2.36-5.66-4.3,0-1.58,1.45-2.95,4.44-2.95,2.31,0,4.12.51,5.39,1.02l2.5-5,.04-.14c-1.82-.81-4.35-1.54-7.79-1.54-7.2,0-11.55,3.99-11.55,9.2,0,4.44,3.31,7.25,8.38,9.01,3.67,1.31,5.12,2.4,5.12,4.31s-1.67,3.3-4.85,3.3c-2.4,0-4.7-.63-6.49-1.38l-2.55,5.11-.02.08c1.72.95,5.16,1.86,8.65,1.86,8.38,0,12.32-4.35,12.32-9.47,0-4.3-2.54-7.11-7.93-9.1Z"/>
    </g>
  </g>
  <g>
    <g>
      <g>
        <path class="cls-4" d="M145.36,27.56c-71.3,0-129.1,57.8-129.1,129.1s57.8,129.1,129.1,129.1,129.1-57.8,129.1-129.1S216.66,27.56,145.36,27.56ZM145.36,256.5c-55.14,0-99.84-44.7-99.84-99.84s44.7-99.84,99.84-99.84,99.84,44.7,99.84,99.84-44.7,99.84-99.84,99.84Z"/>
        <circle class="cls-5" cx="145.36" cy="156.65" r="96.09"/>
      </g>
      <g>
        <g>
          <g>
            <path class="cls-3" d="M33.92,164.47c-1.47,2.05-2.03,3.33-2.14,4.41-.34-1.05-1.15-2.16-2.9-4.07-1.65-1.8-3.82-3.04-6.15-3.74.21,2.3,1.18,4.54,2.92,6.33,1.74,1.79,3.97,2.87,6.34,3.29,2.18-1,4.11-2.5,5.5-4.36,1.4-1.87,2.1-3.85,2.17-5.81-2.27.73-4.37,2.02-5.75,3.95Z"/>
            <path class="cls-3" d="M44.46,204.85c-.59,2.43-.61,3.81-.32,4.87-.69-.85-1.88-1.57-4.23-2.7-2.19-1.07-4.67-1.42-7.09-1.22,1.04,2.05,2.74,3.8,5.07,4.8,2.3,1.02,4.76,1.21,7.1.74,1.68-1.74,2.93-3.84,3.53-6.08.56-2.22.52-4.35-.15-6.19-1.84,1.51-3.32,3.48-3.9,5.79Z"/>
            <path class="cls-3" d="M49.5,214.16c-.37,2.48-.32,3.9.05,4.93-.75-.8-1.95-1.44-4.38-2.34-1.15-.43-2.36-.66-3.59-.74-1.21-.09-2.41-.02-3.6.19.57,1,1.37,1.86,2.31,2.59.93.73,1.99,1.32,3.16,1.73,1.17.41,2.35.62,3.56.62,1.22,0,2.42-.2,3.58-.55.74-.94,1.37-1.95,1.85-3.02.49-1.07.89-2.22,1.1-3.37.21-1.16.25-2.25.11-3.28-.14-1.02-.44-1.97-.81-2.88-.85.84-1.62,1.8-2.2,2.83-.56,1.02-.96,2.12-1.13,3.29Z"/>
            <path class="cls-3" d="M55.37,223.03c-.13,1.28-.1,2.24,0,3.01.09.78.26,1.36.5,1.86-.42-.36-.95-.67-1.69-.97-.75-.3-1.71-.59-2.92-.98-2.31-.71-4.83-.62-7.19,0,.7.92,1.54,1.74,2.5,2.41.96.67,2.03,1.2,3.27,1.49,2.45.61,4.91.37,7.14-.5,1.35-2,2.22-4.29,2.42-6.59.08-1.14.06-2.25-.13-3.28-.19-1.03-.54-1.97-1.03-2.81-1.55,1.8-2.66,3.98-2.87,6.37Z"/>
            <path class="cls-3" d="M62.06,231.25c.07,2.5.36,3.89.9,4.84-.87-.66-2.17-1.08-4.73-1.54-1.2-.23-2.45-.24-3.66-.11-1.19.11-2.38.39-3.51.8.38.43.79.84,1.23,1.21.46.36.96.67,1.48.95,1.05.56,2.2.96,3.42,1.16,1.23.2,2.43.2,3.61,0,1.2-.22,2.35-.62,3.43-1.16.57-1.05,1.01-2.16,1.3-3.29.31-1.15.49-2.34.5-3.51,0-1.17-.15-2.26-.46-3.24-.15-.49-.35-.95-.57-1.4-.2-.46-.44-.9-.72-1.3-.69.98-1.27,2.04-1.68,3.16-.39,1.11-.58,2.25-.56,3.44Z"/>
            <path class="cls-3" d="M69.46,238.8c.13,1.28.35,2.21.59,2.95.25.74.53,1.29.86,1.72-.48-.27-1.06-.46-1.85-.61-.79-.15-1.8-.23-3.06-.37-2.4-.23-4.86.36-7.04,1.43.87.76,1.86,1.39,2.93,1.86,1.07.47,2.23.77,3.51.8,2.52.1,4.88-.62,6.89-1.91.92-2.23,1.32-4.65,1.06-6.94-.15-1.13-.4-2.22-.79-3.19-.39-.97-.92-1.82-1.57-2.55-1.16,2.07-1.81,4.43-1.54,6.81Z"/>
            <path class="cls-3" d="M77.63,245.65c.53,2.45,1.07,3.76,1.79,4.59-.99-.47-2.33-.65-4.93-.64-1.23,0-2.44.21-3.62.58-1.15.33-2.26.83-3.3,1.44.45.35.93.68,1.44.96.52.26,1.07.48,1.64.65,1.13.35,2.33.53,3.57.5,2.46-.03,4.79-.99,6.7-2.46.73-2.28.89-4.67.49-7.01-.21-1.16-.57-2.19-1.05-3.1-.24-.45-.52-.88-.83-1.27-.29-.41-.6-.8-.95-1.14-.5,1.09-.87,2.24-1.06,3.42-.17,1.15-.15,2.32.1,3.48Z"/>
            <path class="cls-3" d="M29,154.63c-.05,2.32.76,4.47,2.14,6.19,1.24-1.82,1.97-3.89,2.01-6.11.04-2.22-.61-4.31-1.78-6.18-1.44,1.66-2.33,3.79-2.37,6.11Z"/>
            <path class="cls-3" d="M35.11,174.9c-1.27,2.17-1.71,3.5-1.72,4.6-.43-1.01-1.35-2.04-3.27-3.77-1.81-1.64-4.09-2.67-6.47-3.15.42,2.27,1.6,4.41,3.5,6.03,1.9,1.62,4.22,2.49,6.62,2.68,2.08-1.2,3.85-2.87,5.07-4.86,1.22-1.99,1.73-4.03,1.62-5.99-2.19.94-4.16,2.42-5.36,4.47Z"/>
            <path class="cls-3" d="M37.27,185.15c-1.06,2.28-1.38,3.65-1.28,4.74-.52-.96-1.53-1.9-3.6-3.45-1.95-1.46-4.33-2.27-6.74-2.53.63,2.22,2.01,4.24,4.05,5.68,2.05,1.44,4.44,2.08,6.85,2.05,1.96-1.39,3.57-3.22,4.59-5.32,1.03-2.1,1.35-4.18,1.05-6.12-2.09,1.14-3.91,2.8-4.91,4.95Z"/>
            <path class="cls-3" d="M40.37,195.1c-.84,2.37-1.03,3.76-.83,4.83-.61-.91-1.71-1.75-3.91-3.1-2.08-1.27-4.52-1.86-6.94-1.89.84,2.15,2.4,4.04,4.56,5.27,2.17,1.24,4.61,1.65,7.01,1.4,1.82-1.57,3.25-3.54,4.08-5.72.83-2.19.95-4.29.47-6.19-1.98,1.33-3.63,3.15-4.43,5.39Z"/>
          </g>
          <g>
            <path class="cls-3" d="M256.81,164.47c1.47,2.05,2.03,3.33,2.14,4.41.34-1.05,1.15-2.16,2.9-4.07,1.65-1.8,3.82-3.04,6.15-3.74-.21,2.3-1.18,4.54-2.92,6.33-1.74,1.79-3.97,2.87-6.34,3.29-2.18-1-4.11-2.5-5.5-4.36-1.4-1.87-2.1-3.85-2.17-5.81,2.27.73,4.37,2.02,5.75,3.95Z"/>
            <path class="cls-3" d="M246.27,204.85c.59,2.43.61,3.81.32,4.87.69-.85,1.88-1.57,4.23-2.7,2.19-1.07,4.67-1.42,7.09-1.22-1.04,2.05-2.74,3.8-5.07,4.8-2.3,1.02-4.76,1.21-7.1.74-1.68-1.74-2.93-3.84-3.53-6.08-.56-2.22-.52-4.35.15-6.19,1.84,1.51,3.32,3.48,3.9,5.79Z"/>
            <path class="cls-3" d="M241.23,214.16c.37,2.48.32,3.9-.05,4.93.75-.8,1.95-1.44,4.38-2.34,1.15-.43,2.36-.66,3.59-.74,1.21-.09,2.41-.02,3.6.19-.57,1-1.37,1.86-2.31,2.59-.93.73-1.99,1.32-3.16,1.73-1.17.41-2.35.62-3.56.62-1.22,0-2.42-.2-3.58-.55-.74-.94-1.37-1.95-1.85-3.02-.49-1.07-.89-2.22-1.1-3.37-.21-1.16-.25-2.25-.11-3.28.14-1.02.44-1.97.82-2.88.85.84,1.62,1.8,2.2,2.83.56,1.02.96,2.12,1.13,3.29Z"/>
            <path class="cls-3" d="M235.35,223.03c.13,1.28.1,2.24.01,3.01-.09.78-.26,1.36-.5,1.86.42-.36.95-.67,1.69-.97.75-.3,1.71-.59,2.92-.98,2.31-.71,4.83-.62,7.19,0-.7.92-1.54,1.74-2.5,2.41-.96.67-2.03,1.2-3.27,1.49-2.45.61-4.91.37-7.14-.5-1.35-2-2.22-4.29-2.42-6.59-.08-1.14-.06-2.25.13-3.28.19-1.03.54-1.97,1.03-2.81,1.55,1.8,2.66,3.98,2.87,6.37Z"/>
            <path class="cls-3" d="M228.67,231.25c-.07,2.5-.36,3.89-.9,4.84.87-.66,2.17-1.08,4.73-1.54,1.2-.23,2.45-.24,3.66-.11,1.19.11,2.38.39,3.51.8-.38.43-.79.84-1.23,1.21-.46.36-.96.67-1.48.95-1.05.56-2.2.96-3.42,1.16-1.23.2-2.43.2-3.61,0-1.2-.22-2.35-.62-3.43-1.16-.57-1.05-1.01-2.16-1.3-3.29-.31-1.15-.49-2.34-.5-3.51,0-1.17.15-2.26.46-3.24.15-.49.35-.95.57-1.4.2-.46.44-.9.72-1.3.69.98,1.27,2.04,1.68,3.16.39,1.11.58,2.25.56,3.44Z"/>
            <path class="cls-3" d="M221.26,238.8c-.13,1.28-.35,2.21-.59,2.95-.25.74-.53,1.29-.86,1.72.48-.27,1.06-.46,1.85-.61.79-.15,1.8-.23,3.06-.37,2.4-.23,4.86.36,7.04,1.43-.87.76-1.86,1.39-2.94,1.86-1.07.47-2.23.77-3.51.8-2.52.1-4.88-.62-6.89-1.91-.92-2.23-1.32-4.65-1.06-6.94.15-1.13.4-2.22.79-3.19.39-.97.92-1.82,1.57-2.55,1.16,2.07,1.81,4.43,1.54,6.81Z"/>
            <path class="cls-3" d="M213.1,245.65c-.53,2.45-1.07,3.76-1.79,4.59.99-.47,2.33-.65,4.93-.64,1.23,0,2.44.21,3.62.58,1.15.33,2.26.83,3.3,1.44-.45.35-.93.68-1.44.96-.52.26-1.07.48-1.64.65-1.13.35-2.33.53-3.57.5-2.46-.03-4.79-.99-6.7-2.46-.73-2.28-.89-4.67-.49-7.01.21-1.16.57-2.19,1.05-3.1.24-.45.52-.88.83-1.27.29-.41.6-.8.95-1.14.5,1.09.87,2.24,1.06,3.42.17,1.15.15,2.32-.1,3.48Z"/>
            <path class="cls-3" d="M261.72,154.63c.05,2.32-.76,4.47-2.14,6.19-1.24-1.82-1.97-3.89-2.01-6.11-.04-2.22.61-4.31,1.78-6.18,1.44,1.66,2.33,3.79,2.37,6.11Z"/>
            <path class="cls-3" d="M255.62,174.9c1.27,2.17,1.71,3.5,1.72,4.6.43-1.01,1.35-2.04,3.27-3.77,1.81-1.64,4.09-2.67,6.47-3.15-.42,2.27-1.6,4.41-3.5,6.03-1.9,1.62-4.22,2.49-6.62,2.68-2.08-1.2-3.85-2.87-5.07-4.86-1.22-1.99-1.73-4.03-1.62-5.99,2.19.94,4.16,2.42,5.36,4.47Z"/>
            <path class="cls-3" d="M253.46,185.15c1.06,2.28,1.38,3.65,1.28,4.74.52-.96,1.53-1.9,3.6-3.45,1.95-1.46,4.33-2.27,6.74-2.53-.63,2.22-2.01,4.24-4.05,5.68-2.05,1.44-4.44,2.08-6.85,2.05-1.96-1.39-3.57-3.22-4.59-5.32-1.03-2.1-1.35-4.18-1.05-6.12,2.09,1.14,3.91,2.8,4.91,4.95Z"/>
            <path class="cls-3" d="M250.36,195.1c.84,2.37,1.03,3.76.83,4.83.61-.91,1.71-1.75,3.91-3.1,2.08-1.27,4.52-1.86,6.94-1.89-.84,2.15-2.4,4.04-4.56,5.27-2.17,1.24-4.61,1.65-7.01,1.4-1.82-1.57-3.25-3.54-4.08-5.72-.83-2.19-.95-4.29-.47-6.19,1.98,1.33,3.63,3.15,4.43,5.39Z"/>
          </g>
        </g>
        <g>
          <path class="cls-3" d="M96.97,252.08l-2.1-1.11c-1.87.38-3.73.64-5.66.93l.37,2.26,2.06-.31c.24-.05.5-.1.79-.17.29-.08.48-.13.58-.17-.22.36-.46.78-.75,1.25-.27.48-.49.87-.65,1.15l-3.87,7.11,2.89,1.53,6.35-12.46Z"/>
          <path class="cls-3" d="M107.17,259.3c-.11-1.01-.44-1.83-.98-2.53-.54-.69-1.23-1.21-2.09-1.56-1.32-.55-2.51-.64-3.64-.19-1.13.45-2.02,1.32-2.67,2.69-.6,1.27-.74,2.44-.38,3.44.37,1.01,1.13,1.77,2.28,2.29.87.37,1.59.48,2.15.38.56-.11,1.06-.32,1.49-.64l.11.05c-.36.79-.78,1.43-1.28,1.94-.5.51-1.14.8-1.91.88-.78.09-1.75-.12-2.9-.65-.29-.13-.56-.27-.83-.44-.27-.16-.52-.33-.76-.49l-.99,2.15c.23.16.52.33.88.51.37.18.68.33.96.46,1.17.54,2.25.8,3.2.86.95.05,1.79-.06,2.52-.35.74-.3,1.37-.73,1.92-1.27.54-.55,1-1.17,1.39-1.87.39-.7.72-1.42.99-2.17.48-1.31.66-2.48.55-3.48ZM104.16,258.23c.19.37.28.77.27,1.22,0,.45-.09.87-.25,1.27-.12.29-.31.54-.6.74-.28.2-.62.33-1.01.38s-.79,0-1.21-.17c-.62-.24-.99-.64-1.13-1.13-.14-.49-.07-1.05.2-1.67.34-.76.76-1.25,1.25-1.47.49-.21,1-.2,1.53,0,.43.18.74.45.93.81Z"/>
          <path class="cls-3" d="M118.27,269.26l-1.73-.44,2.19-8.52c-.85-.23-1.72-.42-2.57-.69-1.37,1.16-2.78,2.32-4.23,3.45-1.44,1.11-2.92,2.2-4.44,3.28l-.67,1.94c2.03.7,4.08,1.35,6.14,1.94l-.8,2.79c1.01.32,2.05.55,3.07.83l.72-2.81,1.76.45.54-2.23ZM110.19,266.99c1.25-.94,2.49-1.95,3.69-2.93.24-.2.46-.4.66-.6.2-.2.4-.41.58-.62l.08.02c-.04.11-.12.34-.25.69-.12.35-.24.73-.38,1.14-.13.41-.23.76-.32,1.05l-.65,2.28c-1.14-.35-2.28-.66-3.41-1.03Z"/>
          <path class="cls-3" d="M124.31,275.82c2.62-3.66,5.06-7.35,7.31-11.16l.23-1.85c-3.24-.41-6.46-.96-9.65-1.68l-.54,2.43c1.12.27,2.24.49,3.37.69,1.13.22,2.26.43,3.4.59-2.33,3.55-4.81,6.94-7.49,10.34l3.36.64Z"/>
          <path class="cls-3" d="M148.91,263.69l-3.76.05c-1.03,1.52-2.11,3.04-3.22,4.55-.33.48-.67.96-1.02,1.48h-.06s.25-6.13.25-6.13l-3.03-.16-.95,13.83,3.42.18.18-4.52c.44-.46.88-.93,1.31-1.41,1.13,2.01,2.32,4.03,3.57,6.04l4.04-.07c-1.87-2.64-3.62-5.21-5.25-7.91,1.6-1.92,3.11-3.97,4.55-5.94Z"/>
          <path class="cls-3" d="M157.11,262.89c4.09-.44,6.85,2.24,7.53,6.04.8,4.45-1.75,7.74-6.24,8.22-4.57.46-7.37-2.57-7.51-6.51-.16-4.16,2.29-7.34,6.22-7.75M158.31,274.66c2.29-.28,3.32-2.42,2.94-5.1-.35-2.45-1.83-4.44-3.96-4.18-2.09.21-3.17,2.3-2.97,5,.19,2.7,1.72,4.52,3.99,4.28"/>
          <path class="cls-3" d="M185,264.76c1.68-.6,3.34-1.27,4.99-1.95l-.99-2.35c-1.61.67-3.23,1.32-4.88,1.91l-.99-2.7c1.7-.6,3.37-1.29,5.04-1.98l-1-2.37c-2.58,1.06-5.17,2.08-7.82,2.94l4.38,13.15c2.64-.86,5.25-1.85,7.82-2.91l.31-2.9c-1.9.78-3.79,1.57-5.73,2.25l-1.13-3.09Z"/>
          <path class="cls-3" d="M175.57,267.11c1.08.13,1.86.83,2.58,1.96.88,1.37,1.85,2.97,2.29,3.4-1.14.32-2.26.7-3.41.98-.34-.32-.99-1.32-1.85-2.86-.82-1.58-1.54-1.86-2.85-1.57l-.97.22,1.22,5.31c-1.12.24-2.23.53-3.35.72l-2.67-13.41c.94-.33,2.34-.81,3.93-1.15,1.94-.5,3.38-.54,4.53-.06.96.4,1.67,1.2,2.03,2.42.51,1.69-.39,3.25-1.48,3.98l.02.06M172.1,266.75c1.57-.4,2.29-1.4,1.98-2.57-.33-1.23-1.33-1.63-2.72-1.29-.74.17-1.15.32-1.36.41l.85,3.73,1.25-.28"/>
          <path class="cls-3" d="M203.79,262.66l-2.63-2.63c-1.29.67-2.56,1.38-3.88,2l.59,3.67c-1.07.54-2.16,1.02-3.26,1.51-.45-4.84-1.08-9.66-1.89-14.42,1.21-.57,2.39-1.22,3.57-1.84,3.44,3.41,6.99,6.67,10.73,9.87l-3.24,1.85ZM196.67,259.72c.95-.45,1.87-.96,2.8-1.45l.02.02-2.13-2.24c-.61-.61-1.3-1.41-1.86-2.04l-.04.02c.19.83.49,1.86.65,2.68l.55,3ZM199.48,258.27h0s0,0,0,0Z"/>
        </g>
        <path class="cls-3" d="M37.04,140.57c-.19.49-.47.9-.8,1.17l1.92,1.47h.02s0,.01,0,.01h.01s.06-.04.14-.12c.24-.2.47-.48.68-.82,0,0,0,0,0,0,.32-.52.59-1.17.76-1.92.15-.65.21-1.31.19-1.91,0-.03,0-.06,0-.08,0-.1-.01-.2-.02-.3,0-.09-.02-.19-.03-.28-.01-.07-.02-.14-.04-.21-.01-.05-.02-.11-.03-.16-.03-.11-.05-.21-.09-.31-.47-1.44-1.77-2.46-4.21-2.93l-8.56-1.63-.58,3.05,8.52,1.62c1.88.33,2.42,1.12,2.34,2.21,0,.17-.02.34-.06.52-.04.22-.1.43-.18.62"/>
        <g>
          <path class="cls-3" d="M37,140.57c-.19.49-.47.9-.8,1.17l1.92,1.47h.02s0,.01,0,.01h.01s.06-.04.14-.12c.24-.2.47-.48.68-.82,0,0,0,0,0,0,.32-.52.59-1.17.76-1.92.15-.65.21-1.31.19-1.91,0-.03,0-.06,0-.08,0-.1-.01-.2-.02-.3,0-.09-.02-.19-.03-.28-.01-.07-.02-.14-.04-.21-.01-.05-.02-.11-.03-.16-.03-.11-.05-.21-.09-.31-.47-1.44-1.77-2.46-4.21-2.93l-8.56-1.63-.58,3.05,8.52,1.62c1.88.33,2.42,1.12,2.34,2.21,0,.17-.02.34-.06.52-.04.22-.1.43-.18.62"/>
          <g>
            <g>
              <polygon class="cls-3" points="36.48 126.97 37.81 122.31 35.38 121.53 34.02 126.3 31.24 125.55 32.72 120.36 30.27 119.58 27.89 127.96 41.36 131.23 43.22 124.69 41.09 122.78 39.66 127.83 36.48 126.97"/>
              <path class="cls-3" d="M33.52,110.16c.73-2.05,2.26-3.21,3.9-3.68,1.65-.47,3.48-.21,5.2.62,2.05.99,3.4,2.37,4.06,3.88.33.76.48,1.55.45,2.35-.03.8-.12,1.67-.46,2.52-1.31,3.42-5.03,4.41-8.76,3.14-3.93-1.34-5.9-4.89-4.39-8.82M44.42,114.75c.65-1.83-.66-3.64-3.11-4.75-2.27-1.03-4.78-.85-5.52,1.19-.77,1.99.68,3.86,3.2,4.81,2.54.96,4.75.54,5.43-1.25"/>
              <path class="cls-3" d="M56.02,84.94c1.34-.89,3-.96,4.36.2.96.81,1.36,1.84,1.38,2.88-.03,1.16-.54,2.69-2.01,4.69-.82,1.12-1.52,1.89-1.98,2.34l-11.14-7.84c.36-.77,1.26-2.21,2.2-3.49,1.17-1.56,1.97-2.45,3.12-2.83,1.05-.41,2.23-.33,3.2.47.95.79,1.36,2.06.82,3.56l.03.03M52.77,87.84l.59-.81c.94-1.29.92-2.4.12-3.04-.82-.65-1.73-.35-2.57.79-.4.55-.6.89-.72,1.13l2.59,1.93ZM58.4,90.63c.77-1.05,1.03-2.31-.11-3.23-1.09-.87-2.23-.25-3.12.95l-.6.82,3.14,2.33c.2-.2.4-.48.69-.87"/>
              <path class="cls-3" d="M66.47,75.92c1.71,1.75,1.91,3.15.82,4.19-1.09.99-2.46.84-4.22-.8l-5.82-5.46-2.11,2.4,5.78,5.14c1.65,1.47,3.16,2.16,4.49,2.21.67.02,1.3-.12,1.89-.41.58-.31,1.14-.74,1.73-1.26,2.34-2.23,2.35-5.07-.54-8.22l-5.29-5.7-2.3,2.2,5.58,5.7Z"/>
              <path class="cls-3" d="M75,58.29c-1.11.69-2.09,1.56-3.12,2.36.1,1.89.24,3.75.4,5.58.08.57.14,1.16.25,1.75l-.05.04-3.9-4.73-2.46,1.98,9.09,10.46,2.19-1.75-2.88-3.49-.04-1.84c2.09.88,4.14,1.79,6.15,2.74.85-.69,1.7-1.4,2.64-1.97-2.79-1.41-5.49-2.51-8.35-3.65-.03-2.45-.1-5.08.08-7.49Z"/>
              <path class="cls-3" d="M124.56,51.57c.91-.25,1.85-.37,2.79-.49l-2.33-13.67c-1.06.14-2.12.28-3.15.56l2.69,13.6Z"/>
              <path class="cls-3" d="M135.16,35.87c4.37-.21,6.82,2.87,6.9,6.7.1,4.54-2.3,7.42-5.91,7.58-3.64.38-6.21-2.3-6.8-6.24-.29-2.06.09-3.94,1.1-5.39,1.01-1.41,2.62-2.55,4.71-2.65M136.09,47.66c1.94-.09,2.94-2.15,2.8-4.84-.13-2.49-1.44-4.57-3.6-4.46-2.12.12-3.11,2.42-2.79,5.05.32,2.73,1.69,4.35,3.6,4.25"/>
              <path class="cls-3" d="M178.69,40.26c-1.03-.28-2.08-.5-3.11-.76l-3.44,13.43c1.07.28,2.17.44,3.21.81l3.15,1.05,1.94-2.13-4.83-1.61,3.08-10.8Z"/>
              <path class="cls-3" d="M195.5,55.28c-1.08,2.17-2.34,2.85-3.73,2.26-1.35-.59-1.62-2.03-.66-4.21l3.23-7.3-2.94-1.28-2.94,7.15c-1.66,4.1-.71,6.63,2.16,7.87.74.33,1.48.48,2.17.54.68.08,1.33,0,1.97-.25,1.27-.5,2.45-1.65,3.45-3.54l3.63-6.88-2.8-1.52-3.54,7.15Z"/>
              <polygon class="cls-3" points="211.1 72.07 213.31 73.85 222.11 63.13 219.61 61.13 211.1 72.07"/>
              <path class="cls-3" d="M226.38,74.94c-1.45.81-2.89,1.7-4.29,2.67l-.04-.04c.98-1.45,1.79-2.87,2.59-4.39.95-1.79,1.88-3.61,2.8-5.44-.85-.79-1.67-1.63-2.55-2.39-1.9,4.48-4.01,8.92-6.2,13.2l2.39,2.28c2.14-1.15,4.31-2.27,6.52-3.36,2.2-1.08,4.36-2.06,6.58-3.05-.74-.85-1.48-1.71-2.32-2.46-1.84.97-3.67,1.95-5.47,2.96Z"/>
              <path class="cls-3" d="M231.98,84.07l1.6,1.82,1.44,1.95,2.02-1.55-1.47-2-1.63-1.86,2.2-1.85,1.77,2.03,1.6,2.17,2.04-1.56c-1.64-2.41-3.65-4.5-5.55-6.7l-10.38,9.19,2.25,2.56,1.13,1.28,1.01,1.37,2.73-.62-1.55-2.12c-.54-.69-1.15-1.32-1.72-1.99l2.52-2.12Z"/>
              <path class="cls-3" d="M242.12,97.05c.15.99-.38,1.91-1.31,2.84-1.13,1.15-2.49,2.4-2.83,2.87l-1.5-2.47c.23-.38,1.03-1.23,2.28-2.47,1.28-1.22,1.39-1.96.78-3-.16-.25-.3-.52-.47-.76l-4.53,3.03-1.66-2.25,11.16-7.91c.71.75,1.81,1.85,2.68,3.31,1.09,1.79,1.59,3.21,1.44,4.47-.13,1.05-.73,1.93-1.83,2.57-1.53.89-3.2.48-4.16-.27l-.05.03M241.57,93.81c.78,1.29,1.91,1.64,2.94,1,1.08-.67,1.18-1.75.44-2.99-.4-.65-.66-.99-.83-1.15l-3.18,2.13c.22.33.42.68.63,1.01"/>
              <polygon class="cls-3" points="244.41 115.68 245.42 118.33 258.37 113.36 257.22 110.37 244.41 115.68"/>
              <path class="cls-3" d="M256.95,117c.44,1.15.91,2.3,1.21,3.5l-10.7,3.43.77,2.73,10.78-3.14.68,2.39,2.9.58-1.48-5.22-.75-2.61c-.26-.86-.63-1.69-.94-2.54l-2.48.88Z"/>
              <path class="cls-3" d="M109.32,44.02c1.16-.42,2.31-.85,3.51-1.12l3.16,10.74,2.73-.7-2.87-10.82,2.39-.62.65-2.88-5.23,1.35-.61.17c-.87.24-3.71,1.09-4.56,1.38l.82,2.49Z"/>
              <path class="cls-3" d="M264.63,136.16l-3.54-.8c-1.05-.22-1.89-.39-2.8-.52v-.04c.82-.5,1.49-.92,2.4-1.54l3-2.08c-.23-1.19-.41-2.4-.78-3.55-2.19,2.07-4.7,4.11-7.08,6.02l-5.56,1.15.52,2.77,5.69-1.02c2.92.94,5.86,1.99,8.81,3.14l-.65-3.52Z"/>
              <path class="cls-3" d="M109.59,55.74l-2.04-3.07-1.8.6-1.74.76.52,3.66-2.68,1.17c-.72-4.73-1.29-9.52-1.7-14.38l1.92-.83,1.98-.67c2.97,3.88,5.77,7.82,8.42,11.81l-2.88.96ZM103.52,51.69c.87-.4,1.74-.76,2.66-1.03l.02.03-1.78-2.54c-.52-.69-1.12-1.59-1.6-2.27l-.04.02c.11.85.3,1.91.39,2.74l.36,3.05ZM106.18,50.66h0s0,0,0,0Z"/>
              <path class="cls-3" d="M166.74,51.86l-.17-3.69c-1.22-.31-2.49-.38-3.74-.59l-1.44,3.39-2.9-.4c1.82-4.41,3.8-8.8,5.94-13.17,1.37.23,2.77.32,4.13.66.54,4.87.91,9.7,1.12,14.5l-2.95-.7ZM163.62,45.32c.94.14,1.89.25,2.82.41v.03s-.23-3.05-.23-3.05c-.09-.84-.15-1.89-.21-2.73h-.04c-.35.78-.72,1.78-1.08,2.54l-1.26,2.79ZM166.44,45.74h0s0,0,0,0Z"/>
              <path class="cls-3" d="M89.75,65.26l-7.23-11.83c1.04-.67,2.16-1.21,3.24-1.83,3.16,2.01,6.2,4.08,9.1,6.23l-4.74-8.66c.87-.45,1.71-.97,2.6-1.37l6.08,12.5c-.89.39-1.71.92-2.57,1.37-3-2.24-6.14-4.41-9.41-6.51l5.18,8.82c-.75.43-1.54.79-2.26,1.27Z"/>
              <path class="cls-3" d="M50.59,107.64l-12.31-6.37c.58-1.1,1.03-2.26,1.71-3.3,3.77.1,7.47.32,11.09.66l-8.54-4.95,1.53-2.51,11.68,7.54-1.51,2.49c-3.75-.38-7.59-.63-11.5-.75l9,4.86-1.14,2.32Z"/>
              <path class="cls-3" d="M145.01,49.37l-.06-13.86c1.24-.03,2.48.08,3.72.12,1.67,3.35,3.19,6.71,4.58,10.05l.42-9.86,2.94.14-1.26,13.85-2.92-.13c-1.41-3.47-2.98-6.96-4.7-10.45l-.14,10.22c-.87-.02-1.73-.13-2.6-.08Z"/>
              <path class="cls-3" d="M199.17,63.84l6.96-11.99c1.09.59,2.19,1.18,3.21,1.9-.27,3.75-.66,7.44-1.16,11.04l5.36-8.3,2.45,1.64-8.09,11.3-2.43-1.62c.55-3.73.98-7.54,1.27-11.44l-5.29,8.75c-.7-.51-1.51-.85-2.25-1.29Z"/>
            </g>
            <path class="cls-3" d="M249.07,105.9c-.26-1.91-.29-2.79.49-3.21.63-.34,1.49-.05,2.15,1.16.5.93.69,1.77.77,2.4l2.55-.07h.06c-.07-.92-.33-2.1-1.08-3.49-1.57-2.91-4.11-3.8-6.2-2.68-1.78.96-2.18,2.9-1.78,5.33.27,1.77.16,2.59-.61,3-.8.43-1.69.04-2.38-1.24-.52-.97-.77-2.04-.86-2.92l-2.6.07h-.04c0,.91.38,2.5,1.14,3.9,1.83,3.38,4.43,4.04,6.47,2.93,1.72-.93,2.29-2.56,1.92-5.17Z"/>
          </g>
        </g>
      </g>
    </g>
    <g>
      <g>
        <g>
          <polygon class="cls-3" points="138.63 141.12 138.63 73.65 132.73 78.21 130.31 141.12 138.63 141.12"/>
          <polygon class="cls-3" points="122.55 86.1 118.33 141.12 126.65 141.12 128.95 81.14 122.55 86.1"/>
          <polygon class="cls-3" points="111.69 94.51 106.35 141.12 114.66 141.12 118.64 89.12 111.69 94.51"/>
        </g>
        <g>
          <polygon class="cls-3" points="157.99 78.21 152.1 73.65 152.1 141.12 160.41 141.12 157.99 78.21"/>
          <polygon class="cls-3" points="168.17 86.1 161.78 81.14 164.08 141.12 172.39 141.12 168.17 86.1"/>
          <polygon class="cls-3" points="179.04 94.51 172.08 89.12 176.06 141.12 184.37 141.12 179.04 94.51"/>
        </g>
      </g>
      <g>
        <path class="cls-3" d="M191.14,145.68h-43.59v11.75c3.74-1.58,7.74-2.39,11.95-2.39,6.56,0,11.29,2,11.49,2.08l1.62.7.27,1.74,4.06,25.88.75,4.76-4.67-1.17c-2.51-.63-5.08-.94-7.63-.94-10.57,0-18.03,5.43-18.1,5.48l-1.91,1.42-1.91-1.41c-.07-.05-7.53-5.48-18.11-5.48-2.56,0-5.13.32-7.63.94l-4.67,1.17.75-4.76,4.06-25.88.27-1.74,1.62-.7c.2-.09,4.92-2.08,11.49-2.08,4.21,0,8.21.81,11.95,2.39v-11.75h-49.04v13.98h5.45v17.12c0,14.52,5.17,27.82,13.76,38.19-3.76,1.89-7.85,3.23-12.17,3.87,2.67,3.7,5.68,7.13,8.99,10.26,4.29-1.28,8.35-3.11,12.1-5.38,6.11,4.86,13.19,8.55,20.91,10.74v-12.59c-11.91-4.32-21.62-13.21-27-24.56,2.36-.59,4.84-.9,7.38-.9,8.54,0,16.26,3.51,21.8,9.17,5.54-5.65,13.26-9.17,21.8-9.17,2.55,0,5.02.31,7.38.9-5.38,11.35-15.09,20.25-27,24.56v12.59c7.72-2.18,14.8-5.88,20.91-10.74,3.75,2.27,7.81,4.1,12.1,5.38,3.31-3.12,6.32-6.56,8.99-10.26-4.32-.64-8.41-1.98-12.17-3.87,8.59-10.37,13.76-23.67,13.76-38.19v-17.12h5.45v-13.98h-5.45Z"/>
        <path class="cls-3" d="M169.72,160.06s-12.18-5.24-24.36,2.03c-12.18-7.27-24.36-2.03-24.36-2.03l-4.06,25.88c16.24-4.06,28.42,5.08,28.42,5.08,0,0,12.18-9.14,28.42-5.08l-4.06-25.88Z"/>
      </g>
    </g>
  </g>
  <g>
    <path class="cls-1" d="M1218.22,120.25h63.9v8.5h-63.9v-8.5ZM1248.79,91.56c-4.79,6.03-12.42,11.62-23.6,16.63l-4.28-7.99c18.37-8.57,24.98-17.21,24.98-26.36v-5.08h9.29v5.08c0,3.41-.58,6.68-1.82,9.88l26.07,16.77-5.08,7.7-25.56-16.63Z"/>
    <path class="cls-1" d="M1287.94,122.71v-52.43h34.06v52.43h-34.06ZM1297.23,78.78v35.44h15.54v-35.44h-15.54ZM1351.91,90.18v8.42h-9.8v34.86h-9.3v-67.82h9.3v24.54h9.8Z"/>
    <path class="cls-1" d="M1355.91,120.25h63.9v8.5h-63.9v-8.5ZM1413.86,101.95v8.2h-50.47v-40.3h49.02v8.35h-39.79v7.62h39.79v8.13h-39.79v7.99h41.25Z"/>
    <path class="cls-1" d="M1453.59,101.37l-12.34-10.6c-2.76,4.43-6.61,8.42-11.69,12.05l-5.37-6.83c9.59-7.12,13.14-15.47,13.14-23.89v-4.43h8.93v4.43c0,3.78-.44,7.26-1.38,10.53l14.09,12.13-5.37,6.61ZM1469.05,105.58c9.88,0,16.56,5.74,16.56,14.3s-6.68,14.31-16.56,14.31h-15.83c-9.88,0-16.56-5.66-16.56-14.31s6.68-14.3,16.56-14.3h15.83ZM1467.75,125.91c5.74,0,8.57-2.47,8.57-6.1s-2.83-6.03-8.57-6.03h-13.22c-5.74,0-8.57,2.47-8.57,6.03s2.83,6.1,8.57,6.1h13.22ZM1469.34,87.13v14.74h-8.5v-35.51h8.5v12.63h6.68v-13.29h8.79v36.89h-8.79v-15.47h-6.68Z"/>
    <path class="cls-1" d="M1514.01,84.16c-.07,4.57-.51,8.93-1.38,13.22l14.6,21.13-6.9,5.23-10.97-15.9c-2.4,5.59-5.66,11.04-10.09,16.56l-6.61-5.3c9.08-11.69,12.49-22.29,12.56-34.93h-10.38v-8.42h10.53v-10.02h8.71v10.02h11.11v8.42h-11.18ZM1529.84,90.84v-24.11h8.79v65.14h-8.79v-32.53h-9.59v-8.5h9.59ZM1544.58,65.64h9v67.82h-9v-67.82Z"/>
    <path class="cls-1" d="M1604.93,102.38c-10.24,1.38-23.16,2.18-32.75,2.18h-10.31l-.51-8.21h12.27v-12.78h9.29v12.49c6.68-.29,14.31-.87,21.06-1.74l.94,8.06ZM1589.75,91.42c.94-5.88,1.52-11.33,1.6-15.32h-25.92v-7.62h35v3.05c0,7.41-.73,14.67-1.82,20.91l-8.86-1.02ZM1602.61,108.41c9.66,0,16.34,4.79,16.34,12.93s-6.68,12.85-16.34,12.85h-14.89c-9.59,0-16.34-4.79-16.34-12.85s6.75-12.93,16.34-12.93h14.89ZM1601.15,126.27c5.59,0,8.5-1.96,8.5-5.01s-2.9-5.08-8.5-5.08h-11.91c-5.66,0-8.57,2.03-8.57,5.08s2.9,5.01,8.57,5.01h11.91ZM1618.15,82.41h9.08v8.42h-9.08v15.25h-9.29v-40.38h9.29v16.7Z"/>
    <path class="cls-1" d="M1671.16,71.01v7.48h-39.87v-7.48h15.25v-6.1h9.37v6.1h15.25ZM1668.33,93.89c0,7.84-7.48,11.76-17.07,11.76s-17.14-3.92-17.14-11.76v-.87c0-7.84,7.62-11.76,17.14-11.76s17.07,3.92,17.07,11.76v.87ZM1640.95,118.14v-8.42h45.31v24.47h-9.22v-16.05h-36.09ZM1643.2,93.81c0,2.69,3.56,4.36,8.06,4.36s8.06-1.67,8.06-4.36v-.65c0-2.76-3.49-4.43-8.06-4.43s-8.06,1.67-8.06,4.43v.65ZM1696.14,81.69v8.42h-9.88v15.9h-9.22v-40.38h9.22v16.05h9.88Z"/>
    <path class="cls-1" d="M1737.17,96.65c-3.05,6.1-9.22,9-16.34,9-10.24,0-18.44-5.96-18.44-18.66v-1.09c0-12.85,8.21-18.81,18.44-18.81,6.39,0,12.05,2.4,15.32,7.33h13.51v-8.79h9.29v50.18h-9.29v-19.17h-12.49ZM1711.69,86.92c0,7.26,4.14,10.6,9.15,10.6s9.08-3.34,9.08-10.6v-1.02c0-7.26-4.14-10.67-9.08-10.67s-9.15,3.41-9.15,10.67v1.02ZM1722.22,125.04h39.29v8.42h-48.58v-22.22h9.29v13.8ZM1749.66,81.83h-10.75c.22,1.23.29,2.61.29,4.07v1.09c0,.8,0,1.6-.07,2.32h10.53v-7.48Z"/>
    <path class="cls-1" d="M1832.89,100.71v8.42h-27.3v25.12h-9.29v-25.12h-27.3v-8.42h44.44c1.31-8.71,2.18-17.94,2.18-23.17h-39.72v-8.5h49.02v5.59c0,7.7-.8,17.07-2.18,26.07h10.17Z"/>
    <path class="cls-1" d="M1858.96,87.86c-3.63,4.43-8.86,8.28-15.83,11.84l-4.65-7.62c12.64-6.39,17.21-13.22,17.21-20.91v-3.78h9.08v3.78c0,3.27-.51,6.32-1.52,9.15l18.44,10.46-4.65,7.48-18.08-10.38ZM1859.91,126.06h38.85v7.77h-48.14v-19.75h36.74v-4.14h-37.11v-7.55h46.4v19.17h-36.74v4.5ZM1896.65,65.64v33.04h-9.29v-33.04h9.29Z"/>
    <path class="cls-1" d="M1223.66,182.21c2.29,5.44,6.93,8.59,13.06,8.59s9.85-2.29,9.85-6.47c0-3.84-2.46-5.67-6.93-6.93l-6.88-1.89c-6.19-1.72-12.72-5.16-12.72-13.29s6.99-13.18,16.1-13.18,14.95,5.1,17.48,11.23l-6.19,3.09c-2.06-4.35-5.79-7.62-11.29-7.62s-8.82,2.41-8.82,6.47,3.09,5.61,7.11,6.7l6.7,1.83c6.25,1.72,12.72,5.33,12.72,13.58s-7.56,13.18-17.13,13.18-16.33-4.58-19.31-12.21l6.25-3.09Z"/>
    <path class="cls-1" d="M1305.99,176.02v20.28h-4.12v-20.17c0-6.19-2.92-10.03-8.02-10.03s-8.48,4.18-8.48,10.31v19.88h-4.07v-20.17c0-6.24-2.86-10.03-8.02-10.03s-8.37,4.07-8.37,10.31v19.88h-4.18v-33.12h3.78l.29,4.87c1.89-3.44,5.16-5.73,9.45-5.73,4.7,0,8.25,2.69,9.97,7.05,1.89-4.18,5.67-7.05,10.54-7.05,6.76,0,11.23,5.5,11.23,13.69Z"/>
    <path class="cls-1" d="M1340.2,175.1v21.2h-3.72l-.29-4.58c-1.89,3.32-5.5,5.44-10.26,5.44h-2.23c-6.36,0-10.94-4.35-10.94-10.26s4.64-10.09,12.89-10.09h10.43v-1.43c0-5.62-3.15-9.22-9.11-9.22-4.3,0-7.39,2.01-9.11,5.21l-3.72-1.72c2.23-4.35,7.1-7.33,13.12-7.33,7.62,0,12.95,4.75,12.95,12.78ZM1326.5,193.32c4.64,0,9-2.87,9.57-7.39v-5.39h-10.14c-6.36,0-9.05,2.64-9.05,6.36,0,4.01,2.98,6.42,7.51,6.42h2.12Z"/>
    <path class="cls-1" d="M1365.64,163.01l-.97,3.72c-1.38-.34-2.81-.57-4.07-.57-4.76,0-7.79,4.87-7.79,10.48v19.65h-4.18v-33.12h3.84l.23,5.21c1.66-3.61,4.58-6.07,8.54-6.07,1.66,0,3.15.23,4.41.69Z"/>
    <path class="cls-1" d="M1389.18,195.38c-1.95,1.2-4.47,1.78-6.7,1.78-4.53,0-7.51-2.41-7.51-7.74v-22.4h-6.47v-3.84h6.47v-9.51h4.13v9.51h9.11v3.84h-9.11v22c0,3.61,1.55,4.35,3.84,4.35,1.89,0,3.32-.52,5.1-1.43l1.15,3.44Z"/>
    <path class="cls-1" d="M1445.1,183.29c0,8.77-5.96,13.35-15.93,13.35h-20.46v-46.75h18.22c9.91,0,15.93,4.58,15.93,13.12,0,3.9-1.72,7.33-6.19,9.22,5.9,1.95,8.42,5.96,8.42,11.06ZM1416.11,156.42v13.58h10.77c5.67,0,8.71-2.58,8.71-6.88s-3.04-6.7-8.71-6.7h-10.77ZM1429.12,190.11c5.67,0,8.71-2.46,8.71-6.99s-3.04-7.05-8.71-7.05h-13.01v14.04h13.01Z"/>
    <path class="cls-1" d="M1452.26,153.16c0-1.66,1.38-2.98,3.04-2.98s2.98,1.38,2.98,2.98-1.32,2.98-2.98,2.98-3.04-1.32-3.04-2.98ZM1453.24,196.3v-33.12h4.12v33.12h-4.12Z"/>
    <path class="cls-1" d="M1465.27,182.15v-4.87c0-9.74,7.16-14.95,15.01-14.95s15.07,5.21,15.07,14.95v4.87c0,9.8-7.1,15.01-15.07,15.01s-15.01-5.21-15.01-15.01ZM1491.23,181.98v-4.47c0-7.28-5.04-11.34-10.94-11.34s-10.83,4.07-10.83,11.34v4.47c0,7.28,4.98,11.4,10.83,11.4s10.94-4.13,10.94-11.4Z"/>
    <path class="cls-1" d="M1531.9,177.57v4.53c0,9.8-6.82,15.24-13.75,15.24-4.81,0-9.05-2.12-11.57-6.02v14.73h-4.18v-42.86h3.84l.29,5.27c2.52-3.95,6.82-6.13,11.63-6.13,6.93,0,13.75,5.5,13.75,15.24ZM1527.78,177.74c0-7.45-4.7-11.57-10.66-11.57s-10.54,4.12-10.54,11.57v4.24c0,7.39,4.64,11.57,10.54,11.57s10.66-4.18,10.66-11.57v-4.24Z"/>
    <path class="cls-1" d="M1566.74,175.96v20.34h-4.13v-20.11c0-6.25-2.98-10.14-9.23-10.14s-10.26,4.24-10.26,10.37v19.88h-4.18v-46.07h4.18v18.11c2.12-3.67,6.07-6.02,11.12-6.02,7.79,0,12.49,5.5,12.49,13.64Z"/>
    <path class="cls-1" d="M1573.79,182.15v-4.87c0-9.74,7.16-14.95,15.01-14.95s15.07,5.21,15.07,14.95v4.87c0,9.8-7.11,15.01-15.07,15.01s-15.01-5.21-15.01-15.01ZM1599.74,181.98v-4.47c0-7.28-5.04-11.34-10.94-11.34s-10.83,4.07-10.83,11.34v4.47c0,7.28,4.98,11.4,10.83,11.4s10.94-4.13,10.94-11.4Z"/>
    <path class="cls-1" d="M1628.85,195.38c-1.95,1.2-4.47,1.78-6.7,1.78-4.53,0-7.51-2.41-7.51-7.74v-22.4h-6.47v-3.84h6.47v-9.51h4.13v9.51h9.11v3.84h-9.11v22c0,3.61,1.55,4.35,3.84,4.35,1.89,0,3.32-.52,5.1-1.43l1.15,3.44Z"/>
    <path class="cls-1" d="M1632.57,182.15v-4.87c0-9.74,7.16-14.95,15.01-14.95s15.07,5.21,15.07,14.95v4.87c0,9.8-7.11,15.01-15.07,15.01s-15.01-5.21-15.01-15.01ZM1658.53,181.98v-4.47c0-7.28-5.04-11.34-10.94-11.34s-10.83,4.07-10.83,11.34v4.47c0,7.28,4.98,11.4,10.83,11.4s10.94-4.13,10.94-11.4Z"/>
    <path class="cls-1" d="M1698.35,176.02v20.28h-4.13v-20.05c0-6.19-2.98-10.08-9.28-10.08-5.96,0-10.2,4.24-10.2,10.26v19.88h-4.18v-33.12h3.78l.34,5.27c2.12-3.72,6.02-6.13,11.12-6.13,7.85,0,12.55,5.5,12.55,13.69Z"/>
    <path class="cls-1" d="M1706.82,153.16c0-1.66,1.38-2.98,3.04-2.98s2.98,1.38,2.98,2.98-1.32,2.98-2.98,2.98-3.04-1.32-3.04-2.98ZM1707.8,196.3v-33.12h4.12v33.12h-4.12Z"/>
    <path class="cls-1" d="M1719.83,182.21v-4.93c0-9.74,7.16-14.95,15.01-14.95,5.96,0,11.29,2.98,13.64,8.65l-3.84,1.55c-1.83-4.18-5.39-6.36-9.8-6.36-5.96,0-10.83,4.07-10.83,11.34v4.47c0,7.28,4.87,11.4,10.83,11.4,4.41,0,7.96-2.18,9.8-6.42l3.84,1.55c-2.35,5.67-7.68,8.65-13.64,8.65-7.85,0-15.01-5.21-15.01-14.95Z"/>
    <path class="cls-1" d="M1756.79,186.62c2.46,4.7,6.36,6.93,11.17,6.93s8.48-1.83,8.48-5.39-2.75-4.87-6.76-6.07l-4.53-1.32c-5.27-1.55-9.45-4.01-9.45-9.57s4.98-8.88,11.34-8.88,10.6,2.86,13.24,7.68l-3.21,2.12c-2.18-3.78-5.61-6.19-10.08-6.19s-7.28,2.12-7.28,5.27,2.23,4.7,6.13,5.9l4.53,1.32c5.27,1.55,10.08,3.9,10.08,9.74s-5.84,9-12.55,9-11.63-2.86-14.44-8.48l3.32-2.06Z"/>
    <path class="cls-1" d="M1809.27,190.11h21.37v6.53h-28.76v-46.75h7.39v40.22Z"/>
    <path class="cls-1" d="M1862.38,175.1v21.2h-3.72l-.29-4.58c-1.89,3.32-5.5,5.44-10.26,5.44h-2.23c-6.36,0-10.94-4.35-10.94-10.26s4.64-10.09,12.89-10.09h10.43v-1.43c0-5.62-3.15-9.22-9.11-9.22-4.3,0-7.39,2.01-9.11,5.21l-3.72-1.72c2.23-4.35,7.1-7.33,13.12-7.33,7.62,0,12.95,4.75,12.95,12.78ZM1848.69,193.32c4.64,0,9-2.87,9.57-7.39v-5.39h-10.14c-6.36,0-9.05,2.64-9.05,6.36,0,4.01,2.98,6.42,7.51,6.42h2.12Z"/>
    <path class="cls-1" d="M1900.31,177.45v4.58c0,9.68-6.7,15.13-13.75,15.13-4.87,0-9.11-2.12-11.63-6.07l-.29,5.21h-3.84v-46.07h4.18v18.05c2.52-3.9,6.76-5.96,11.57-5.96,7.05,0,13.75,5.44,13.75,15.13ZM1896.19,177.62c0-7.33-4.7-11.46-10.66-11.46s-10.54,4.12-10.54,11.46v4.24c0,7.33,4.7,11.52,10.54,11.52s10.66-4.18,10.66-11.52v-4.24Z"/>
    <path class="cls-1" d="M1906.61,193.95c0-1.78,1.38-3.15,3.15-3.15s3.21,1.38,3.21,3.15-1.43,3.21-3.21,3.21-3.15-1.43-3.15-3.21Z"/>
  </g>
  <line class="cls-2" x1="1171.58" y1="59" x2="1171.58" y2="208"/>
</svg>