<?xml version="1.0" encoding="UTF-8"?>
<svg id="Layer_1" data-name="Layer 1" xmlns="http://www.w3.org/2000/svg" viewBox="0 0 2358.96 312.87">
  <defs>
    <style>
      .cls-1 {
        fill: #0a0203;
      }

      .cls-2 {
        fill: none;
        stroke: #0a0203;
        stroke-linecap: round;
        stroke-linejoin: round;
        stroke-width: 2px;
      }
    </style>
  </defs>
  <g>
    <path class="cls-1" d="M1622.13,163h63.9v8.5h-63.9v-8.5ZM1652.71,134.31c-4.79,6.03-12.42,11.62-23.6,16.63l-4.29-7.99c18.37-8.57,24.98-17.21,24.98-26.36v-5.08h9.29v5.08c0,3.41-.58,6.68-1.82,9.88l26.07,16.77-5.08,7.7-25.56-16.63Z"/>
    <path class="cls-1" d="M1691.85,165.47v-52.43h34.06v52.43h-34.06ZM1701.15,121.53v35.44h15.54v-35.44h-15.54ZM1755.83,132.93v8.42h-9.8v34.86h-9.29v-67.82h9.29v24.55h9.8Z"/>
    <path class="cls-1" d="M1759.83,163h63.9v8.5h-63.9v-8.5ZM1817.77,144.7v8.21h-50.47v-40.3h49.02v8.35h-39.79v7.62h39.79v8.13h-39.79v7.99h41.25Z"/>
    <path class="cls-1" d="M1857.5,144.12l-12.34-10.6c-2.76,4.43-6.61,8.42-11.69,12.05l-5.37-6.83c9.59-7.12,13.14-15.47,13.14-23.89v-4.43h8.93v4.43c0,3.78-.44,7.26-1.38,10.53l14.09,12.13-5.37,6.61ZM1872.97,148.33c9.88,0,16.56,5.74,16.56,14.31s-6.68,14.31-16.56,14.31h-15.83c-9.88,0-16.56-5.66-16.56-14.31s6.68-14.31,16.56-14.31h15.83ZM1871.66,168.66c5.74,0,8.57-2.47,8.57-6.1s-2.83-6.03-8.57-6.03h-13.22c-5.74,0-8.57,2.47-8.57,6.03s2.83,6.1,8.57,6.1h13.22ZM1873.26,129.88v14.74h-8.5v-35.51h8.5v12.63h6.68v-13.29h8.79v36.89h-8.79v-15.47h-6.68Z"/>
    <path class="cls-1" d="M1917.92,126.91c-.07,4.58-.51,8.93-1.38,13.22l14.6,21.13-6.9,5.23-10.97-15.9c-2.4,5.59-5.66,11.04-10.09,16.56l-6.61-5.3c9.08-11.69,12.49-22.29,12.56-34.93h-10.38v-8.42h10.53v-10.02h8.71v10.02h11.11v8.42h-11.18ZM1933.75,133.59v-24.11h8.79v65.14h-8.79v-32.53h-9.58v-8.5h9.58ZM1948.49,108.39h9v67.82h-9v-67.82Z"/>
    <path class="cls-1" d="M2008.84,145.13c-10.24,1.38-23.17,2.18-32.75,2.18h-10.31l-.51-8.21h12.27v-12.78h9.3v12.49c6.68-.29,14.31-.87,21.06-1.74l.94,8.06ZM1993.67,134.17c.94-5.88,1.53-11.33,1.6-15.32h-25.92v-7.62h35v3.05c0,7.41-.73,14.67-1.82,20.91l-8.86-1.02ZM2006.52,151.16c9.66,0,16.34,4.79,16.34,12.93s-6.68,12.85-16.34,12.85h-14.89c-9.58,0-16.34-4.79-16.34-12.85s6.75-12.93,16.34-12.93h14.89ZM2005.07,169.02c5.59,0,8.5-1.96,8.5-5.01s-2.91-5.08-8.5-5.08h-11.91c-5.66,0-8.57,2.03-8.57,5.08s2.9,5.01,8.57,5.01h11.91ZM2022.06,125.16h9.08v8.42h-9.08v15.25h-9.29v-40.38h9.29v16.7Z"/>
    <path class="cls-1" d="M2075.07,113.76v7.48h-39.87v-7.48h15.25v-6.1h9.37v6.1h15.25ZM2072.24,136.64c0,7.84-7.48,11.76-17.06,11.76s-17.14-3.92-17.14-11.76v-.87c0-7.84,7.62-11.76,17.14-11.76s17.06,3.92,17.06,11.76v.87ZM2044.87,160.89v-8.42h45.31v24.47h-9.22v-16.05h-36.09ZM2047.12,136.57c0,2.69,3.56,4.36,8.06,4.36s8.06-1.67,8.06-4.36v-.65c0-2.76-3.49-4.43-8.06-4.43s-8.06,1.67-8.06,4.43v.65ZM2100.05,124.44v8.42h-9.88v15.9h-9.22v-40.38h9.22v16.05h9.88Z"/>
    <path class="cls-1" d="M2141.09,139.4c-3.05,6.1-9.22,9-16.34,9-10.24,0-18.45-5.95-18.45-18.66v-1.09c0-12.85,8.21-18.81,18.45-18.81,6.39,0,12.05,2.4,15.32,7.33h13.51v-8.79h9.3v50.18h-9.3v-19.17h-12.49ZM2115.6,129.67c0,7.26,4.14,10.6,9.15,10.6s9.08-3.34,9.08-10.6v-1.02c0-7.26-4.14-10.67-9.08-10.67s-9.15,3.41-9.15,10.67v1.02ZM2126.13,167.79h39.29v8.42h-48.58v-22.22h9.29v13.8ZM2153.58,124.58h-10.75c.22,1.23.29,2.61.29,4.07v1.09c0,.8,0,1.6-.07,2.32h10.53v-7.48Z"/>
    <path class="cls-1" d="M2236.8,143.46v8.42h-27.3v25.12h-9.3v-25.12h-27.3v-8.42h44.44c1.31-8.71,2.18-17.94,2.18-23.17h-39.72v-8.5h49.02v5.59c0,7.7-.8,17.06-2.18,26.07h10.17Z"/>
    <path class="cls-1" d="M2262.88,130.61c-3.63,4.43-8.86,8.28-15.83,11.84l-4.65-7.62c12.64-6.39,17.21-13.22,17.21-20.91v-3.78h9.08v3.78c0,3.27-.51,6.32-1.52,9.15l18.44,10.46-4.65,7.48-18.08-10.38ZM2263.82,168.81h38.85v7.77h-48.14v-19.75h36.74v-4.14h-37.11v-7.55h46.4v19.17h-36.74v4.5ZM2300.56,108.39v33.04h-9.3v-33.04h9.3Z"/>
    <path class="cls-1" d="M1627.57,224.96c2.29,5.44,6.93,8.59,13.06,8.59s9.85-2.29,9.85-6.47c0-3.84-2.46-5.67-6.93-6.93l-6.88-1.89c-6.19-1.72-12.72-5.16-12.72-13.29s6.99-13.18,16.1-13.18,14.96,5.1,17.48,11.23l-6.19,3.09c-2.06-4.35-5.79-7.62-11.29-7.62s-8.82,2.41-8.82,6.47,3.09,5.61,7.11,6.7l6.7,1.83c6.25,1.72,12.72,5.33,12.72,13.58s-7.56,13.18-17.13,13.18-16.33-4.58-19.31-12.2l6.25-3.09Z"/>
    <path class="cls-1" d="M1709.91,218.77v20.28h-4.12v-20.17c0-6.19-2.92-10.03-8.02-10.03s-8.48,4.18-8.48,10.31v19.88h-4.07v-20.17c0-6.25-2.86-10.03-8.02-10.03s-8.37,4.07-8.37,10.31v19.88h-4.18v-33.12h3.78l.29,4.87c1.89-3.44,5.16-5.73,9.45-5.73,4.7,0,8.25,2.69,9.97,7.05,1.89-4.18,5.67-7.05,10.54-7.05,6.76,0,11.23,5.5,11.23,13.69Z"/>
    <path class="cls-1" d="M1744.11,217.85v21.2h-3.72l-.29-4.58c-1.89,3.32-5.5,5.44-10.26,5.44h-2.23c-6.36,0-10.94-4.35-10.94-10.26s4.64-10.08,12.89-10.08h10.43v-1.43c0-5.62-3.15-9.22-9.11-9.22-4.3,0-7.39,2.01-9.11,5.21l-3.72-1.72c2.23-4.35,7.1-7.33,13.12-7.33,7.62,0,12.95,4.76,12.95,12.78ZM1730.42,236.07c4.64,0,9-2.86,9.57-7.39v-5.39h-10.14c-6.36,0-9.05,2.64-9.05,6.36,0,4.01,2.98,6.42,7.51,6.42h2.12Z"/>
    <path class="cls-1" d="M1769.55,205.76l-.97,3.72c-1.38-.34-2.81-.57-4.07-.57-4.76,0-7.79,4.87-7.79,10.49v19.65h-4.18v-33.12h3.84l.23,5.21c1.66-3.61,4.58-6.07,8.54-6.07,1.66,0,3.15.23,4.41.69Z"/>
    <path class="cls-1" d="M1793.1,238.14c-1.95,1.2-4.47,1.78-6.7,1.78-4.53,0-7.51-2.41-7.51-7.73v-22.4h-6.47v-3.84h6.47v-9.51h4.12v9.51h9.11v3.84h-9.11v22c0,3.61,1.55,4.35,3.84,4.35,1.89,0,3.32-.52,5.1-1.43l1.15,3.44Z"/>
    <path class="cls-1" d="M1849.02,226.05c0,8.77-5.96,13.35-15.93,13.35h-20.46v-46.75h18.22c9.91,0,15.93,4.58,15.93,13.12,0,3.9-1.72,7.33-6.19,9.22,5.9,1.95,8.42,5.96,8.42,11.06ZM1820.03,199.17v13.58h10.77c5.67,0,8.71-2.58,8.71-6.88s-3.04-6.7-8.71-6.7h-10.77ZM1833.03,232.87c5.67,0,8.71-2.46,8.71-6.99s-3.04-7.05-8.71-7.05h-13.01v14.04h13.01Z"/>
    <path class="cls-1" d="M1856.18,195.91c0-1.66,1.38-2.98,3.04-2.98s2.98,1.38,2.98,2.98-1.32,2.98-2.98,2.98-3.04-1.32-3.04-2.98ZM1857.15,239.05v-33.12h4.12v33.12h-4.12Z"/>
    <path class="cls-1" d="M1869.18,224.9v-4.87c0-9.74,7.16-14.95,15.01-14.95s15.07,5.21,15.07,14.95v4.87c0,9.8-7.11,15.01-15.07,15.01s-15.01-5.21-15.01-15.01ZM1895.14,224.73v-4.47c0-7.28-5.04-11.34-10.94-11.34s-10.83,4.07-10.83,11.34v4.47c0,7.28,4.98,11.4,10.83,11.4s10.94-4.12,10.94-11.4Z"/>
    <path class="cls-1" d="M1935.82,220.32v4.53c0,9.8-6.82,15.24-13.75,15.24-4.81,0-9.05-2.12-11.57-6.02v14.73h-4.18v-42.86h3.84l.29,5.27c2.52-3.95,6.82-6.13,11.63-6.13,6.93,0,13.75,5.5,13.75,15.24ZM1931.69,220.49c0-7.45-4.7-11.57-10.66-11.57s-10.54,4.12-10.54,11.57v4.24c0,7.39,4.64,11.57,10.54,11.57s10.66-4.18,10.66-11.57v-4.24Z"/>
    <path class="cls-1" d="M1970.65,218.71v20.34h-4.13v-20.11c0-6.25-2.98-10.14-9.23-10.14s-10.26,4.24-10.26,10.37v19.88h-4.18v-46.07h4.18v18.11c2.12-3.67,6.07-6.02,11.12-6.02,7.79,0,12.49,5.5,12.49,13.64Z"/>
    <path class="cls-1" d="M1977.7,224.9v-4.87c0-9.74,7.16-14.95,15.01-14.95s15.07,5.21,15.07,14.95v4.87c0,9.8-7.11,15.01-15.07,15.01s-15.01-5.21-15.01-15.01ZM2003.66,224.73v-4.47c0-7.28-5.04-11.34-10.94-11.34s-10.83,4.07-10.83,11.34v4.47c0,7.28,4.98,11.4,10.83,11.4s10.94-4.12,10.94-11.4Z"/>
    <path class="cls-1" d="M2032.76,238.14c-1.95,1.2-4.47,1.78-6.7,1.78-4.53,0-7.51-2.41-7.51-7.73v-22.4h-6.47v-3.84h6.47v-9.51h4.13v9.51h9.11v3.84h-9.11v22c0,3.61,1.55,4.35,3.84,4.35,1.89,0,3.32-.52,5.1-1.43l1.15,3.44Z"/>
    <path class="cls-1" d="M2036.48,224.9v-4.87c0-9.74,7.16-14.95,15.01-14.95s15.07,5.21,15.07,14.95v4.87c0,9.8-7.11,15.01-15.07,15.01s-15.01-5.21-15.01-15.01ZM2062.44,224.73v-4.47c0-7.28-5.04-11.34-10.94-11.34s-10.83,4.07-10.83,11.34v4.47c0,7.28,4.98,11.4,10.83,11.4s10.94-4.12,10.94-11.4Z"/>
    <path class="cls-1" d="M2102.26,218.77v20.28h-4.12v-20.05c0-6.19-2.98-10.08-9.28-10.08-5.96,0-10.2,4.24-10.2,10.26v19.88h-4.18v-33.12h3.78l.34,5.27c2.12-3.72,6.02-6.13,11.12-6.13,7.85,0,12.55,5.5,12.55,13.69Z"/>
    <path class="cls-1" d="M2110.74,195.91c0-1.66,1.38-2.98,3.04-2.98s2.98,1.38,2.98,2.98-1.32,2.98-2.98,2.98-3.04-1.32-3.04-2.98ZM2111.71,239.05v-33.12h4.12v33.12h-4.12Z"/>
    <path class="cls-1" d="M2123.75,224.96v-4.93c0-9.74,7.16-14.95,15.01-14.95,5.96,0,11.29,2.98,13.64,8.65l-3.84,1.55c-1.83-4.18-5.39-6.36-9.8-6.36-5.96,0-10.83,4.07-10.83,11.34v4.47c0,7.28,4.87,11.4,10.83,11.4,4.41,0,7.96-2.18,9.8-6.42l3.84,1.55c-2.35,5.67-7.68,8.65-13.64,8.65-7.85,0-15.01-5.21-15.01-14.95Z"/>
    <path class="cls-1" d="M2160.7,229.37c2.46,4.7,6.36,6.93,11.17,6.93s8.48-1.83,8.48-5.39-2.75-4.87-6.76-6.07l-4.53-1.32c-5.27-1.55-9.45-4.01-9.45-9.57s4.99-8.88,11.34-8.88,10.6,2.87,13.24,7.68l-3.21,2.12c-2.18-3.78-5.62-6.19-10.08-6.19s-7.28,2.12-7.28,5.27,2.23,4.7,6.13,5.9l4.53,1.32c5.27,1.55,10.08,3.9,10.08,9.74s-5.84,9-12.55,9-11.63-2.86-14.44-8.48l3.32-2.06Z"/>
    <path class="cls-1" d="M2213.18,232.87h21.37v6.53h-28.76v-46.75h7.39v40.22Z"/>
    <path class="cls-1" d="M2266.3,217.85v21.2h-3.72l-.29-4.58c-1.89,3.32-5.5,5.44-10.26,5.44h-2.24c-6.36,0-10.94-4.35-10.94-10.26s4.64-10.08,12.89-10.08h10.43v-1.43c0-5.62-3.15-9.22-9.11-9.22-4.3,0-7.39,2.01-9.11,5.21l-3.72-1.72c2.23-4.35,7.1-7.33,13.12-7.33,7.62,0,12.95,4.76,12.95,12.78ZM2252.6,236.07c4.64,0,9-2.86,9.57-7.39v-5.39h-10.14c-6.36,0-9.05,2.64-9.05,6.36,0,4.01,2.98,6.42,7.51,6.42h2.12Z"/>
    <path class="cls-1" d="M2304.22,220.2v4.58c0,9.68-6.7,15.13-13.75,15.13-4.87,0-9.11-2.12-11.63-6.07l-.29,5.21h-3.84v-46.07h4.18v18.05c2.52-3.9,6.76-5.96,11.57-5.96,7.05,0,13.75,5.44,13.75,15.13ZM2300.1,220.37c0-7.33-4.7-11.46-10.66-11.46s-10.54,4.12-10.54,11.46v4.24c0,7.33,4.7,11.52,10.54,11.52s10.66-4.18,10.66-11.52v-4.24Z"/>
    <path class="cls-1" d="M2310.53,236.7c0-1.78,1.38-3.15,3.15-3.15s3.21,1.38,3.21,3.15-1.43,3.21-3.21,3.21-3.15-1.43-3.15-3.21Z"/>
  </g>
  <line class="cls-2" x1="1583.5" y1="108" x2="1583.5" y2="249"/>
  <g>
    <g>
      <path class="cls-1" d="M870.59,163.99c-.41-.42-.74-1.12-.74-1.88,0-1.47,1.22-2.72,2.64-2.72.88,0,1.49.49,1.89.98,2.57,3.63,5.34,5.52,9.73,5.52,5.34,0,9.26-3.98,9.26-11.74v-30.32c0-1.54,1.22-2.79,2.7-2.79s2.64,1.26,2.64,2.79v30.25c0,5.73-1.62,10.06-4.33,12.85-2.64,2.65-6.22,4.05-10.41,4.05-6.22,0-10.48-2.93-13.39-6.99Z"/>
      <path class="cls-1" d="M908.23,167.48v-43.31c0-1.54,1.22-2.79,2.63-2.79h29.41c1.35,0,2.44,1.12,2.44,2.51s-1.08,2.51-2.44,2.51h-26.7v16.7h23.66c1.35,0,2.44,1.19,2.44,2.51,0,1.4-1.08,2.52-2.44,2.52h-23.66v17.11h27.04c1.35,0,2.43,1.12,2.43,2.51s-1.08,2.52-2.43,2.52h-29.75c-1.42,0-2.63-1.26-2.63-2.79Z"/>
      <path class="cls-1" d="M948.3,145.97v-.14c0-13.48,9.81-25.29,24.2-25.29s24.07,11.67,24.07,25.15v.14c0,13.48-9.8,25.29-24.2,25.29s-24.07-11.67-24.07-25.14ZM991.03,145.97v-.14c0-11.11-7.84-20.19-18.66-20.19s-18.52,8.94-18.52,20.05v.14c0,11.11,7.84,20.19,18.66,20.19s18.53-8.94,18.53-20.05Z"/>
      <path class="cls-1" d="M1004.73,123.89c0-1.47,1.22-2.72,2.63-2.72h.75c1.22,0,1.96.63,2.7,1.61l28.73,37.86v-36.88c0-1.47,1.15-2.72,2.64-2.72s2.57,1.26,2.57,2.72v44.15c0,1.47-1.02,2.59-2.43,2.59h-.27c-1.15,0-1.96-.7-2.77-1.68l-29.34-38.77v37.86c0,1.47-1.15,2.72-2.63,2.72s-2.57-1.26-2.57-2.72v-44.01Z"/>
      <path class="cls-1" d="M1055.01,124.17c0-1.54,1.22-2.79,2.63-2.79h17.51c5.41,0,9.67,1.61,12.37,4.33,1.96,2.09,3.04,4.68,3.04,7.82v.14c0,6.36-3.78,9.64-7.5,11.31,5.61,1.75,10.14,5.1,10.14,11.81v.14c0,8.38-6.83,13.34-17.17,13.34h-18.39c-1.42,0-2.63-1.26-2.63-2.79v-43.31ZM1074.28,143.17c6.42,0,10.89-3,10.89-8.73v-.14c0-4.82-3.72-7.96-10.48-7.96h-14.4v16.83h14ZM1076.17,165.32c7.16,0,11.63-3.28,11.63-8.73v-.14c0-5.31-4.33-8.38-12.57-8.38h-14.94v17.25h15.89Z"/>
      <path class="cls-1" d="M1099.95,149.81v-25.99c0-1.54,1.22-2.79,2.64-2.79s2.71,1.26,2.71,2.79v25.64c0,10.55,5.47,16.49,14.46,16.49s14.27-5.45,14.27-16.14v-25.99c0-1.54,1.22-2.79,2.7-2.79s2.64,1.26,2.64,2.79v25.57c0,14.25-7.91,21.66-19.74,21.66s-19.67-7.41-19.67-21.24Z"/>
      <path class="cls-1" d="M1148.88,123.82c0-1.54,1.22-2.79,2.63-2.79,1.49,0,2.71,1.26,2.71,2.79v26.75l26.98-28.57c.61-.56,1.22-.98,2.1-.98,1.42,0,2.57,1.33,2.57,2.72,0,.77-.34,1.4-.88,1.96l-16.76,17.18,17.98,22.91c.47.63.75,1.19.75,2.02,0,1.47-1.22,2.79-2.71,2.79-1.02,0-1.69-.56-2.16-1.26l-17.64-22.7-10.21,10.55v10.62c0,1.54-1.22,2.79-2.71,2.79s-2.63-1.26-2.63-2.79v-44.01Z"/>
      <path class="cls-1" d="M1208.95,123.89c0-1.47,1.22-2.72,2.63-2.72h.75c1.22,0,1.96.63,2.7,1.61l28.73,37.86v-36.88c0-1.47,1.15-2.72,2.64-2.72s2.57,1.26,2.57,2.72v44.15c0,1.47-1.02,2.59-2.43,2.59h-.27c-1.15,0-1.96-.7-2.77-1.68l-29.34-38.77v37.86c0,1.47-1.15,2.72-2.63,2.72s-2.57-1.26-2.57-2.72v-44.01Z"/>
      <path class="cls-1" d="M1256.32,166.64l19.2-43.38c.67-1.54,1.69-2.45,3.38-2.45h.27c1.63,0,2.71.91,3.32,2.45l19.2,43.31c.2.49.34.98.34,1.4,0,1.47-1.15,2.65-2.57,2.65-1.28,0-2.16-.91-2.64-2.02l-4.94-11.25h-25.96l-4.94,11.39c-.47,1.19-1.35,1.88-2.57,1.88-1.35,0-2.43-1.12-2.43-2.51,0-.42.07-.91.34-1.47ZM1289.78,152.32l-10.88-25.01-10.88,25.01h21.77Z"/>
      <path class="cls-1" d="M1315.79,126.48h-13.73c-1.35,0-2.5-1.12-2.5-2.51s1.15-2.58,2.5-2.58h32.85c1.35,0,2.5,1.19,2.5,2.58s-1.15,2.51-2.5,2.51h-13.72v41.35c0,1.54-1.22,2.79-2.71,2.79s-2.7-1.26-2.7-2.79v-41.35Z"/>
      <path class="cls-1" d="M1344.44,123.82c0-1.54,1.22-2.79,2.64-2.79,1.49,0,2.71,1.26,2.71,2.79v44.01c0,1.54-1.22,2.79-2.71,2.79s-2.64-1.26-2.64-2.79v-44.01Z"/>
      <path class="cls-1" d="M1358.43,145.97v-.14c0-13.48,9.8-25.29,24.2-25.29s24.07,11.67,24.07,25.15v.14c0,13.48-9.81,25.29-24.2,25.29s-24.07-11.67-24.07-25.14ZM1401.16,145.97v-.14c0-11.11-7.84-20.19-18.66-20.19s-18.52,8.94-18.52,20.05v.14c0,11.11,7.84,20.19,18.66,20.19s18.53-8.94,18.53-20.05Z"/>
      <path class="cls-1" d="M1414.86,123.89c0-1.47,1.22-2.72,2.63-2.72h.75c1.22,0,1.96.63,2.7,1.61l28.73,37.86v-36.88c0-1.47,1.15-2.72,2.64-2.72s2.57,1.26,2.57,2.72v44.15c0,1.47-1.02,2.59-2.43,2.59h-.27c-1.15,0-1.96-.7-2.77-1.68l-29.34-38.77v37.86c0,1.47-1.15,2.72-2.64,2.72s-2.57-1.26-2.57-2.72v-44.01Z"/>
      <path class="cls-1" d="M1462.22,166.64l19.2-43.38c.67-1.54,1.69-2.45,3.38-2.45h.27c1.63,0,2.71.91,3.32,2.45l19.2,43.31c.2.49.34.98.34,1.4,0,1.47-1.15,2.65-2.57,2.65-1.28,0-2.16-.91-2.64-2.02l-4.94-11.25h-25.96l-4.94,11.39c-.47,1.19-1.35,1.88-2.57,1.88-1.35,0-2.43-1.12-2.43-2.51,0-.42.07-.91.34-1.47ZM1495.69,152.32l-10.89-25.01-10.88,25.01h21.77Z"/>
      <path class="cls-1" d="M1515.01,123.82c0-1.54,1.22-2.79,2.63-2.79,1.49,0,2.7,1.26,2.7,2.79v41.35h24.54c1.35,0,2.44,1.19,2.44,2.58s-1.08,2.52-2.44,2.52h-27.24c-1.42,0-2.63-1.26-2.63-2.79v-43.66Z"/>
      <path class="cls-1" d="M874.62,219.64v-25.99c0-1.54,1.22-2.79,2.64-2.79s2.71,1.26,2.71,2.79v25.64c0,10.55,5.47,16.49,14.47,16.49s14.26-5.45,14.26-16.14v-25.99c0-1.54,1.22-2.79,2.71-2.79s2.64,1.26,2.64,2.79v25.57c0,14.25-7.91,21.66-19.74,21.66s-19.67-7.4-19.67-21.24Z"/>
      <path class="cls-1" d="M923.42,193.73c0-1.47,1.22-2.72,2.63-2.72h.75c1.22,0,1.96.63,2.7,1.61l28.73,37.86v-36.88c0-1.47,1.15-2.72,2.64-2.72s2.57,1.26,2.57,2.72v44.15c0,1.47-1.02,2.59-2.43,2.59h-.27c-1.15,0-1.96-.7-2.77-1.68l-29.34-38.77v37.86c0,1.47-1.15,2.72-2.64,2.72s-2.57-1.26-2.57-2.72v-44.01Z"/>
      <path class="cls-1" d="M974.03,193.66c0-1.54,1.22-2.79,2.64-2.79,1.49,0,2.7,1.26,2.7,2.79v44.01c0,1.54-1.22,2.79-2.7,2.79s-2.64-1.26-2.64-2.79v-44.01Z"/>
      <path class="cls-1" d="M1005.19,238.36l-18.25-43.52c-.2-.42-.27-.77-.27-1.26,0-1.4,1.22-2.72,2.71-2.72,1.35,0,2.3.91,2.77,2.1l16.36,40.52,16.43-40.65c.47-.98,1.42-1.96,2.64-1.96,1.49,0,2.64,1.26,2.64,2.65,0,.42-.07.77-.2,1.12l-18.32,43.73c-.61,1.4-1.55,2.31-3.11,2.31h-.27c-1.55,0-2.57-.91-3.11-2.31Z"/>
      <path class="cls-1" d="M1037.01,237.32v-43.31c0-1.54,1.22-2.79,2.63-2.79h29.41c1.35,0,2.44,1.12,2.44,2.51s-1.08,2.51-2.44,2.51h-26.7v16.7h23.66c1.35,0,2.43,1.19,2.43,2.51,0,1.4-1.08,2.52-2.43,2.52h-23.66v17.11h27.04c1.35,0,2.43,1.12,2.43,2.51s-1.08,2.52-2.43,2.52h-29.75c-1.42,0-2.63-1.26-2.63-2.79Z"/>
      <path class="cls-1" d="M1079.05,194.01c0-1.54,1.22-2.79,2.63-2.79h17.71c5.82,0,10.48,1.81,13.45,4.89,2.3,2.37,3.65,5.8,3.65,9.64v.14c0,8.03-5.27,12.71-12.64,14.18l11.76,15.65c.54.63.88,1.26.88,2.03,0,1.47-1.35,2.72-2.7,2.72-1.08,0-1.89-.63-2.5-1.47l-13.32-17.88h-13.59v16.55c0,1.54-1.22,2.79-2.71,2.79s-2.63-1.26-2.63-2.79v-43.66ZM1098.92,216.15c7.1,0,12.17-3.77,12.17-10.06v-.14c0-6.01-4.46-9.64-12.1-9.64h-14.6v19.84h14.54Z"/>
      <path class="cls-1" d="M1122.97,234.24c-.61-.42-1.01-1.19-1.01-2.09,0-1.54,1.15-2.72,2.57-2.72.67,0,1.28.28,1.62.63,4.46,3.91,8.92,5.8,14.94,5.8,6.35,0,10.54-3.49,10.54-8.31v-.14c0-4.54-2.36-7.12-12.3-9.29-10.88-2.44-15.89-6.08-15.89-14.11v-.14c0-7.68,6.56-13.34,15.55-13.34,6.22,0,10.75,1.61,15.08,4.82.54.42,1.15,1.19,1.15,2.24,0,1.47-1.15,2.65-2.57,2.65-.61,0-1.08-.14-1.56-.49-3.99-3-7.84-4.26-12.23-4.26-6.15,0-10.07,3.49-10.07,7.89v.14c0,4.61,2.43,7.19,12.84,9.5,10.55,2.38,15.42,6.36,15.42,13.83v.14c0,8.38-6.76,13.83-16.16,13.83-6.9,0-12.64-2.24-17.92-6.57Z"/>
      <path class="cls-1" d="M1165.14,193.66c0-1.54,1.22-2.79,2.64-2.79,1.49,0,2.71,1.26,2.71,2.79v44.01c0,1.54-1.22,2.79-2.71,2.79s-2.64-1.26-2.64-2.79v-44.01Z"/>
      <path class="cls-1" d="M1193.59,196.31h-13.73c-1.35,0-2.5-1.12-2.5-2.51s1.15-2.58,2.5-2.58h32.86c1.35,0,2.5,1.19,2.5,2.58s-1.15,2.51-2.5,2.51h-13.72v41.35c0,1.54-1.22,2.79-2.7,2.79s-2.7-1.26-2.7-2.79v-41.35Z"/>
      <path class="cls-1" d="M1236.17,220.9l-17.58-25.43c-.34-.56-.61-1.19-.61-1.89,0-1.47,1.28-2.72,2.77-2.72,1.15,0,1.89.7,2.57,1.68l15.62,23.26,15.75-23.26c.68-.98,1.35-1.68,2.5-1.68,1.49,0,2.64,1.26,2.64,2.72,0,.7-.41,1.47-.74,2.03l-17.51,25.15v16.9c0,1.54-1.22,2.79-2.7,2.79s-2.71-1.26-2.71-2.79v-16.76Z"/>
    </g>
    <path class="cls-1" d="M188.49,67.03h-106.76c-4.52,0-8.22,3.7-8.22,8.22s3.69,8.23,8.22,8.23h106.76c4.51,0,8.21-3.7,8.21-8.23s-3.7-8.22-8.21-8.22ZM139.82,102.7c-1.29-1.85-3-2.78-4.71-2.78s-3.41.92-4.71,2.78l-52.17,74.59c-2.59,3.71-1.69,8.86,2.02,11.46,3.7,2.59,8.84,1.68,11.43-2.03l43.44-62.09,43.43,62.09c2.59,3.71,7.74,4.62,11.44,2.03,3.7-2.6,4.6-7.75,2.01-11.46l-52.18-74.59Z"/>
    <g>
      <g>
        <path class="cls-1" d="M729.67,134.21h81.72c.85,9.06,1.68,31.37-3.9,72.11-.4,2.93,1.66,5.65,4.64,6.06.22.03.46.04.68.04,2.66,0,4.96-2,5.32-4.64,7.78-56.68,3.44-79.1,3.25-80.03-.51-2.49-2.72-4.29-5.26-4.29h-86.45c-2.96,0-5.37,2.41-5.37,5.37s2.42,5.38,5.37,5.38Z"/>
        <path class="cls-1" d="M824.89,224.99h-35.51v-51.05c0-2.96-2.41-5.37-5.38-5.37s-5.38,2.41-5.38,5.37v51.05h-25.04v-51.05c0-2.96-2.42-5.37-5.38-5.37s-5.38,2.41-5.38,5.37v51.05h-26.04c-2.96,0-5.37,2.41-5.37,5.38s2.41,5.38,5.37,5.38h108.1c2.97,0,5.38-2.41,5.38-5.38s-2.41-5.38-5.38-5.38Z"/>
      </g>
      <g>
        <path class="cls-1" d="M692.15,196.72c2.97,0,5.38-2.42,5.38-5.38v-26.53h14.2c2.97,0,5.38-2.41,5.38-5.37s-2.41-5.37-5.38-5.37h-14.2v-30.41c0-2.96-2.42-5.38-5.38-5.38s-5.37,2.41-5.37,5.38v67.69c0,2.96,2.41,5.38,5.37,5.38Z"/>
        <path class="cls-1" d="M671.63,130.41c0-2.96-2.41-5.38-5.37-5.38h-26.14v-9.01c0-2.96-2.41-5.37-5.38-5.37s-5.38,2.41-5.38,5.37v9.01h-26.13c-2.97,0-5.38,2.41-5.38,5.38s2.41,5.37,5.38,5.37h63.02c2.96,0,5.37-2.41,5.37-5.37Z"/>
        <path class="cls-1" d="M607.09,170.58c0,15.25,12.41,27.66,27.66,27.66s27.66-12.41,27.66-27.66-12.41-27.65-27.66-27.65-27.66,12.41-27.66,27.65ZM651.65,170.58c0,9.32-7.58,16.91-16.91,16.91s-16.91-7.59-16.91-16.91,7.59-16.91,16.91-16.91,16.91,7.58,16.91,16.91Z"/>
        <path class="cls-1" d="M692.49,208.24h-81.29c-2.97,0-5.37,2.41-5.37,5.37s2.41,5.37,5.37,5.37h75.92v21.48c0,2.96,2.41,5.37,5.38,5.37s5.37-2.41,5.37-5.37v-26.85c0-2.96-2.41-5.37-5.37-5.37Z"/>
      </g>
      <g>
        <path class="cls-1" d="M299.96,132.07c2.96,0,5.38-2.41,5.38-5.37s-2.41-5.38-5.38-5.38h-62.34c-2.96,0-5.38,2.41-5.38,5.38s2.42,5.37,5.38,5.37h62.34Z"/>
        <path class="cls-1" d="M302.43,186.46l-28.23-46.21c-.97-1.59-2.73-2.58-4.59-2.58s-3.61.99-4.58,2.58l-28.21,46.21c-1.54,2.53-.73,5.84,1.79,7.38.84.52,1.81.79,2.8.79,1.89,0,3.6-.97,4.59-2.58l23.62-38.69,23.64,38.69c.97,1.59,2.73,2.57,4.59,2.57.98,0,1.95-.27,2.79-.79,2.53-1.54,3.33-4.85,1.79-7.38Z"/>
        <path class="cls-1" d="M331.41,231.04h-70.48v-23.43c0-2.96-2.41-5.38-5.38-5.38s-5.38,2.41-5.38,5.38v28.81c0,2.96,2.41,5.37,5.38,5.37h75.85c2.97,0,5.38-2.41,5.38-5.37s-2.41-5.38-5.38-5.38Z"/>
        <path class="cls-1" d="M332.14,118.51c-2.96,0-5.38,2.4-5.38,5.37v22.26h-26.88c-2.97,0-5.38,2.41-5.38,5.37s2.41,5.37,5.38,5.37h26.88v52.15c0,2.97,2.42,5.38,5.38,5.38s5.37-2.41,5.37-5.38v-85.14c0-2.97-2.41-5.37-5.37-5.37Z"/>
      </g>
      <g>
        <path class="cls-1" d="M456.51,126.07c0-2.96-2.41-5.37-5.37-5.37s-5.38,2.41-5.38,5.37v12.86h-72.45v-12.86c0-2.96-2.41-5.37-5.37-5.37s-5.38,2.41-5.38,5.37v46.63h93.94v-46.63ZM445.76,161.96h-72.45v-12.29h72.45v12.29Z"/>
        <path class="cls-1" d="M461.53,182.69h-104.19c-2.96,0-5.37,2.41-5.37,5.37s2.41,5.37,5.37,5.37h45.99v12.1h-38.51c-2.96,0-5.37,2.42-5.37,5.37s2.41,5.37,5.37,5.37h81.74v24.13c0,2.97,2.42,5.37,5.38,5.37s5.38-2.41,5.38-5.37v-29.5c0-2.96-2.41-5.37-5.38-5.37h-37.87v-12.1h47.46c2.96,0,5.38-2.41,5.38-5.37s-2.42-5.37-5.38-5.37Z"/>
      </g>
      <g>
        <path class="cls-1" d="M526.57,211.84c-.32,0-.65.03-.97.09-15.91,2.93-26.95,3.55-33.42,3.55-.59,0-1.14,0-1.65-.01v-83.07h32.32c2.97,0,5.38-2.41,5.38-5.37s-2.41-5.37-5.38-5.37h-37.7c-2.96,0-5.37,2.41-5.37,5.37v93.51c0,2.67,1.99,4.96,4.62,5.32.1.02,2.67.37,7.81.37,6.86,0,18.55-.64,35.33-3.73,2.91-.54,4.85-3.35,4.31-6.26-.47-2.55-2.69-4.4-5.29-4.4Z"/>
        <path class="cls-1" d="M577.66,118.61c-2.97,0-5.38,2.42-5.38,5.38v45.6h-20.84v-45.6c0-2.96-2.41-5.38-5.38-5.38s-5.38,2.42-5.38,5.38v113.43c0,2.97,2.41,5.38,5.38,5.38s5.38-2.41,5.38-5.38v-57.08h20.84v58.44c0,2.97,2.41,5.37,5.38,5.37s5.38-2.4,5.38-5.37v-114.78c0-2.96-2.41-5.38-5.38-5.38Z"/>
      </g>
    </g>
  </g>
</svg>