<?xml version="1.0" encoding="UTF-8"?>
<svg id="Layer_1" data-name="Layer 1" xmlns="http://www.w3.org/2000/svg" viewBox="0 0 362.83 498.83">
  <defs>
    <style>
      .cls-1 {
        fill: #fff;
      }

      .cls-2 {
        fill: #144e8c;
      }

      .cls-3 {
        fill: none;
        stroke: #666563;
        stroke-linecap: round;
        stroke-linejoin: round;
        stroke-width: 2px;
      }

      .cls-4 {
        fill: #666563;
      }

      .cls-5 {
        fill: #a52868;
      }
    </style>
  </defs>
  <g>
    <g>
      <g>
        <path class="cls-2" d="M344.24,291.66l-8.1-.22s2.87-13.28,2.75-30.11h-41.91v-7.58h45.71c2.33.16,4.16,1.77,4.36,3.82,0,0,.15,19.56-2.81,34.09"/>
        <path class="cls-2" d="M180.26,298.19v-7.61c-5.87,1.05-20.65.79-20.65.79v-27.44h18.95v-7.58h-23.15s0,0-.01,0,0,0-.01,0c-2.3,0-4.16,1.87-4.16,4.18v34.23c0,2.31,1.87,4.18,4.18,4.18,0,0,18.96.37,24.86-.76"/>
        <path class="cls-2" d="M239.95,264.57c-11.18,0-18.55,5.85-18.55,13.26s7.29,13.26,18.55,13.26,18.55-5.85,18.55-13.26-7.29-13.26-18.55-13.26M246.53,281.94c-1.66.98-3.85,1.47-6.51,1.47s-4.76-.5-6.51-1.48c-1.73-.96-2.6-2.36-2.6-4.16s.88-3.12,2.61-4.08c1.75-.98,3.94-1.48,6.51-1.48s4.79.48,6.47,1.43c1.65.94,2.49,2.33,2.49,4.12s-.83,3.2-2.45,4.16"/>
        <polygon class="cls-2" points="44.42 273.87 59.67 273.87 59.67 292.06 68.06 292.06 68.06 248.39 59.67 248.39 59.67 266.3 44.42 266.3 44.42 273.87"/>
        <polygon class="cls-2" points="200.79 272.17 193.64 272.17 193.64 250.04 185.25 250.04 185.25 313.42 193.64 310.85 193.64 279.74 200.79 279.74 200.79 316.79 209.18 313.75 209.18 249.3 200.79 249.3 200.79 272.17"/>
        <polygon class="cls-2" points="243.75 254.54 243.75 246.77 235.74 246.77 235.74 254.54 218.76 254.54 218.76 261.62 261.13 261.62 261.13 254.54 243.75 254.54"/>
        <polygon class="cls-2" points="276.26 248.71 267.87 248.71 267.87 290.1 276.26 290.1 276.26 276.78 287.88 276.78 287.88 269.2 276.26 269.2 276.26 248.71"/>
        <polygon class="cls-2" points="329.78 301 329.78 276.27 321.39 276.27 321.39 301 313.06 301 313.06 276.27 304.67 276.27 304.67 301 290.31 301 290.31 308.58 352.14 308.58 355.46 301 329.78 301"/>
        <path class="cls-2" d="M91.44,275.79h36.01c2.61,0,4.73-1.1,4.73-3.42v-23.56h-8.39v7.99h-28.71v-7.99h-8.39v23.56c0,2.32,2.12,3.42,4.74,3.42M95.08,263.36h28.71v5.66h-28.71v-5.66Z"/>
        <path class="cls-2" d="M31.18,306.83v-12.65h-8.39v16.01c0,2.32,2.12,4.22,4.75,4.22h37.45l4.43-7.58H31.18Z"/>
        <path class="cls-2" d="M142.75,287.48v-6.77h-65.65v6.77h28.59v5.51h-20.65v6.78h40.63v17.53l8.39-2.45v-17.66c0-2.31-2.18-4.19-4.5-4.19h-15.48v-5.51h28.67Z"/>
        <path class="cls-2" d="M33.87,259.82h12.61v-7.57H13.05v7.57h12.57c-.31,17.31-15.04,24.01-16.13,24.84l6.49,5.58c2.38-.76,10.83-6.91,13.66-15.85h.43c2.85,10.19,13.85,14.97,13.85,14.97l5.99-5.99s-16.67-7.03-16.06-23.54Z"/>
        <path class="cls-2" d="M276.31,299.32c0-2.32-2.15-4.19-4.46-4.19h-43.07v7.58h39.15v14.28l8.39-2.21v-15.46Z"/>
      </g>
      <g>
        <g>
          <g>
            <polygon class="cls-2" points="29.06 336.08 34.16 336.08 34.16 333.53 29.06 333.53 29.06 330.65 34.47 330.65 34.47 328.08 25.92 328.08 25.92 341.93 33.47 341.93 34.76 339.36 29.06 339.36 29.06 336.08"/>
            <path class="cls-2" d="M44.42,327.86c-4.09,0-6.74,3.1-6.74,7.26s2.4,7.05,6.51,7.05,6.8-2.75,6.8-7.3c0-3.82-2.32-7.01-6.58-7.01M44.36,339.67c-2.1,0-3.37-1.91-3.37-4.62s1.23-4.71,3.35-4.71,3.35,2.14,3.35,4.62c0,2.69-1.21,4.71-3.33,4.71"/>
            <path class="cls-2" d="M77.77,334.47v-.04c1.56-.58,2.28-1.73,2.28-2.96s-.7-2.2-1.67-2.71c-1.01-.59-2.18-.78-4.09-.78-1.56,0-3.23.12-4.05.29v13.6c.7.1,1.85.2,3.39.2,2.75,0,4.44-.45,5.45-1.25.86-.7,1.44-1.69,1.44-2.94,0-1.79-1.17-2.98-2.75-3.41M73.35,330.34c.27-.04.66-.08,1.34-.08,1.42,0,2.22.56,2.22,1.6s-.88,1.71-2.53,1.71h-1.03v-3.23ZM74.56,339.76c-.53,0-.9,0-1.21-.04v-3.9h1.07c1.56,0,2.82.56,2.82,1.95s-1.25,1.99-2.67,1.99"/>
            <path class="cls-2" d="M92.08,336.05c0,2.45-.9,3.6-2.55,3.6s-2.51-1.21-2.51-3.6v-7.97h-3.14v7.73c0,4.42,2.05,6.35,5.55,6.35s5.77-2.04,5.77-6.31v-7.77h-3.12v7.97Z"/>
            <path class="cls-2" d="M110.25,328.08h-3.84l-3.14,4.6c-.31.49-.64.99-.95,1.52h-.06v-6.12h-3.1v13.85h3.1v-4.52l1.19-1.46,3.39,5.98h3.66l-4.83-7.95,4.58-5.9Z"/>
            <rect class="cls-2" x="160.77" y="328.05" width="3.14" height="13.87"/>
            <path class="cls-2" d="M173.97,327.86c-4.09,0-6.74,3.1-6.74,7.26s2.4,7.05,6.51,7.05,6.8-2.75,6.8-7.3c0-3.82-2.32-7.01-6.58-7.01M173.91,339.67c-2.1,0-3.37-1.91-3.37-4.62s1.23-4.71,3.35-4.71,3.35,2.14,3.35,4.62c0,2.69-1.21,4.71-3.33,4.71"/>
            <polygon class="cls-2" points="217.08 328.06 213.93 328.06 213.93 341.93 221.3 341.93 222.59 339.3 217.08 339.3 217.08 328.06"/>
            <path class="cls-2" d="M238.56,336.02c0,2.45-.9,3.6-2.55,3.6s-2.51-1.21-2.51-3.6v-7.97h-3.14v7.73c0,4.42,2.05,6.35,5.55,6.35s5.78-2.04,5.78-6.31v-7.77h-3.12v7.97Z"/>
            <rect class="cls-2" x="261.45" y="328.05" width="3.15" height="13.88"/>
            <path class="cls-2" d="M275.42,334c-.47,1.58-.9,3.23-1.25,4.89h-.06c-.33-1.73-.76-3.31-1.23-4.95l-1.69-5.88h-3.43l4.44,13.88h3.66l4.66-13.88h-3.33l-1.77,5.94Z"/>
            <polygon class="cls-2" points="286.65 336.15 291.75 336.15 291.75 333.61 286.65 333.61 286.65 330.65 292.06 330.65 292.06 328.05 283.51 328.05 283.51 341.93 291.05 341.93 292.34 339.36 286.65 339.36 286.65 336.15"/>
            <path class="cls-2" d="M303.61,335.44v-.06c1.19-.43,2.44-1.64,2.44-3.41,0-1.27-.45-2.24-1.27-2.9-.99-.78-2.42-1.09-4.48-1.09-1.66,0-3.16.12-4.17.29v13.67h3.1v-5.45h.95c1.27.02,1.87.49,2.24,2.22.41,1.71.74,2.84.97,3.23h3.2c-.27-.54-.7-2.34-1.13-3.91-.35-1.27-.88-2.2-1.85-2.59M300.46,334.23h-1.23v-3.82c.23-.04.66-.1,1.42-.1,1.44.02,2.3.66,2.3,1.93s-.93,1.99-2.49,1.99"/>
            <rect class="cls-2" x="321.37" y="328.08" width="3.14" height="13.85"/>
            <polygon class="cls-2" points="327.47 330.71 331.19 330.71 331.19 341.93 334.33 341.93 334.33 330.71 336.82 330.71 338.12 328.08 327.47 328.08 327.47 330.71"/>
            <polygon class="cls-2" points="147.38 330.71 151.1 330.71 151.1 341.93 154.25 341.93 154.25 330.71 156.74 330.71 158.03 328.08 147.38 328.08 147.38 330.71"/>
            <path class="cls-2" d="M348.24,328.08l-1.4,3.33c-.41.99-.74,1.79-1.05,2.65h-.04c-.35-.91-.64-1.64-1.07-2.65l-1.42-3.33h-3.58l4.38,8.18v5.67h3.12v-5.78l4.56-8.08h-3.51Z"/>
            <path class="cls-2" d="M146.76,341.93l-4.3-13.85h-4.11l-4.23,13.85h3.25l.99-3.56h4.07l.96,3.56h3.37ZM139.63,332.77c.23-.8.43-1.85.64-2.67h.04c.21.82.45,1.85.7,2.67l.81,2.97v-.03h-3.01l.82-2.94ZM141.8,336.04h0s0,0,0,0Z"/>
            <polygon class="cls-2" points="245.84 341.93 245.84 328.05 249.5 328.05 254.43 337.39 254.41 328.06 257.3 328.06 257.31 341.93 254.08 341.93 248.72 331.71 248.72 341.93 245.84 341.93"/>
            <polygon class="cls-2" points="119.69 341.93 119.69 328.05 123.35 328.05 128.28 337.39 128.26 328.06 131.15 328.06 131.16 341.93 127.93 341.93 122.56 331.71 122.57 341.93 119.69 341.93"/>
            <path class="cls-2" d="M211.16,341.93l-4.3-13.85h-4.11l-4.23,13.85h3.25l.99-3.56h4.07l.96,3.56h3.37ZM204.03,332.77c.23-.8.43-1.85.64-2.67h.04c.21.82.45,1.85.7,2.67l.81,2.97v-.03h-3.01l.82-2.94ZM206.21,336.04h0s0,0,0,0Z"/>
            <polygon class="cls-2" points="184.24 341.93 184.24 328.05 187.9 328.05 192.82 337.39 192.81 328.06 195.7 328.06 195.71 341.93 192.47 341.93 187.11 331.71 187.12 341.93 184.24 341.93"/>
            <polygon class="cls-2" points="53.97 341.93 53.97 328.05 57.63 328.05 62.56 337.39 62.54 328.06 65.43 328.06 65.44 341.93 62.21 341.93 56.85 331.71 56.85 341.93 53.97 341.93"/>
          </g>
          <path class="cls-2" d="M15.31,339.51c-.52-.09-.98-.3-1.31-.57l-1.09,2.18v.02s-.01,0-.01,0h0s.06.06.16.13c.24.2.56.38.94.52,0,0,0,0,0,0,.57.22,1.27.36,2.04.39.67.03,1.33-.04,1.92-.17.03,0,.06-.01.08-.02.1-.02.2-.05.29-.08.09-.03.18-.05.27-.09.07-.02.14-.05.2-.08.05-.02.1-.04.15-.06.1-.05.2-.09.29-.14,1.33-.74,2.1-2.21,2.1-4.71v-8.75h-3.12v8.71c.02,1.92-.65,2.61-1.74,2.73-.16.03-.34.04-.53.04-.22,0-.44-.02-.65-.06"/>
        </g>
        <path class="cls-2" d="M314.93,333.72c-1.76-.67-2.53-1.05-2.53-1.92,0-.71.65-1.32,1.98-1.32,1.03,0,1.84.23,2.41.46l1.12-2.24.02-.06c-.81-.36-1.94-.69-3.48-.69-3.22,0-5.16,1.78-5.16,4.11,0,1.98,1.48,3.24,3.74,4.03,1.64.59,2.29,1.07,2.29,1.92s-.75,1.48-2.17,1.48c-1.07,0-2.1-.28-2.9-.62l-1.14,2.28v.04c.76.42,2.3.83,3.86.83,3.74,0,5.5-1.94,5.5-4.23,0-1.92-1.13-3.18-3.54-4.07Z"/>
      </g>
    </g>
    <g>
      <g>
        <g>
          <path class="cls-2" d="M182.47,18.96c-50.17,0-90.84,40.67-90.84,90.84s40.67,90.84,90.84,90.84,90.84-40.67,90.84-90.84S232.64,18.96,182.47,18.96ZM182.47,180.06c-38.8,0-70.26-31.46-70.26-70.26s31.46-70.26,70.26-70.26,70.26,31.46,70.26,70.26-31.46,70.26-70.26,70.26Z"/>
          <circle class="cls-5" cx="182.47" cy="109.8" r="67.61"/>
        </g>
        <g>
          <g>
            <g>
              <path class="cls-1" d="M104.05,115.3c-1.03,1.44-1.43,2.34-1.51,3.11-.24-.74-.81-1.52-2.04-2.86-1.16-1.27-2.69-2.14-4.32-2.63.14,1.62.83,3.2,2.05,4.46,1.23,1.26,2.8,2.02,4.46,2.32,1.54-.71,2.89-1.76,3.87-3.07.99-1.32,1.48-2.71,1.53-4.09-1.6.51-3.07,1.42-4.05,2.78Z"/>
              <path class="cls-1" d="M111.47,143.71c-.42,1.71-.43,2.68-.23,3.42-.48-.6-1.33-1.11-2.98-1.9-1.54-.75-3.29-1-4.99-.86.73,1.44,1.93,2.67,3.57,3.38,1.62.72,3.35.85,5,.52,1.18-1.22,2.06-2.7,2.48-4.28.39-1.56.36-3.06-.11-4.36-1.3,1.07-2.34,2.45-2.75,4.07Z"/>
              <path class="cls-1" d="M115.01,150.26c-.26,1.75-.23,2.74.03,3.47-.52-.56-1.37-1.01-3.08-1.65-.81-.3-1.66-.47-2.52-.52-.85-.06-1.7-.02-2.53.13.4.7.97,1.31,1.63,1.82.66.51,1.4.93,2.23,1.22.83.29,1.65.44,2.51.44.86,0,1.7-.14,2.52-.39.52-.66.96-1.38,1.3-2.12.34-.75.62-1.56.77-2.37.15-.81.17-1.59.08-2.31-.1-.72-.31-1.39-.57-2.03-.6.59-1.14,1.27-1.55,1.99-.4.72-.67,1.49-.8,2.31Z"/>
              <path class="cls-1" d="M119.15,156.51c-.09.9-.07,1.57,0,2.12.07.55.18.96.35,1.31-.29-.25-.67-.47-1.19-.68-.52-.21-1.2-.42-2.05-.69-1.62-.5-3.4-.44-5.06,0,.49.65,1.08,1.22,1.76,1.69.67.47,1.43.85,2.3,1.05,1.72.43,3.45.26,5.02-.35.95-1.41,1.56-3.02,1.7-4.63.05-.8.04-1.59-.09-2.31-.13-.72-.38-1.39-.72-1.98-1.09,1.27-1.87,2.8-2.02,4.48Z"/>
              <path class="cls-1" d="M123.85,162.3c.05,1.76.25,2.74.64,3.41-.61-.46-1.53-.76-3.33-1.09-.85-.16-1.72-.17-2.57-.08-.84.08-1.67.28-2.47.56.27.31.56.59.87.85.32.25.68.47,1.04.67.74.39,1.55.67,2.41.82.86.14,1.71.14,2.54,0,.84-.15,1.65-.43,2.41-.82.4-.74.71-1.52.91-2.32.22-.81.35-1.64.35-2.47,0-.83-.1-1.59-.32-2.28-.11-.35-.25-.67-.4-.99-.14-.32-.31-.63-.5-.92-.49.69-.9,1.44-1.18,2.23-.28.78-.41,1.59-.39,2.42Z"/>
              <path class="cls-1" d="M129.06,167.6c.09.9.25,1.55.42,2.08.17.52.37.91.6,1.21-.34-.19-.75-.33-1.3-.43-.56-.1-1.26-.17-2.15-.26-1.69-.16-3.42.25-4.96,1.01.61.53,1.31.98,2.07,1.31.75.33,1.57.54,2.47.57,1.77.07,3.43-.43,4.85-1.35.65-1.57.93-3.27.74-4.88-.11-.8-.28-1.56-.55-2.24-.27-.68-.65-1.28-1.11-1.79-.82,1.46-1.27,3.12-1.08,4.8Z"/>
              <path class="cls-1" d="M134.81,172.42c.37,1.72.75,2.65,1.26,3.23-.69-.33-1.64-.46-3.47-.45-.86,0-1.72.15-2.55.41-.81.23-1.59.58-2.32,1.02.32.25.65.48,1.01.67.37.18.75.34,1.15.46.8.25,1.64.37,2.51.35,1.73-.02,3.37-.7,4.72-1.73.51-1.61.62-3.28.35-4.93-.15-.81-.4-1.54-.74-2.18-.17-.32-.37-.62-.58-.89-.21-.29-.42-.56-.67-.8-.35.77-.61,1.58-.75,2.41-.12.81-.1,1.63.07,2.45Z"/>
              <path class="cls-1" d="M100.59,108.38c-.03,1.63.53,3.15,1.51,4.36.87-1.28,1.38-2.74,1.41-4.3.03-1.56-.43-3.04-1.25-4.35-1.02,1.17-1.64,2.67-1.67,4.3Z"/>
              <path class="cls-1" d="M104.88,122.64c-.89,1.53-1.2,2.47-1.21,3.23-.3-.71-.95-1.43-2.3-2.66-1.27-1.15-2.88-1.88-4.55-2.22.3,1.59,1.13,3.1,2.46,4.24,1.34,1.14,2.97,1.75,4.66,1.89,1.46-.85,2.71-2.02,3.57-3.42.86-1.4,1.22-2.84,1.14-4.22-1.54.66-2.93,1.7-3.77,3.15Z"/>
              <path class="cls-1" d="M106.4,129.85c-.75,1.61-.97,2.57-.9,3.33-.37-.68-1.08-1.34-2.54-2.43-1.38-1.03-3.04-1.6-4.74-1.78.44,1.56,1.41,2.98,2.85,3.99,1.44,1.01,3.12,1.46,4.82,1.44,1.38-.98,2.51-2.27,3.23-3.74.72-1.48.95-2.94.74-4.3-1.47.8-2.75,1.97-3.46,3.49Z"/>
              <path class="cls-1" d="M108.59,136.86c-.59,1.67-.72,2.65-.58,3.4-.43-.64-1.2-1.23-2.75-2.18-1.47-.9-3.18-1.31-4.89-1.33.59,1.51,1.69,2.84,3.21,3.71,1.53.87,3.25,1.16,4.93.98,1.28-1.1,2.29-2.49,2.87-4.03.58-1.54.67-3.02.33-4.35-1.39.94-2.56,2.22-3.12,3.79Z"/>
            </g>
            <g>
              <path class="cls-1" d="M260.89,115.3c1.03,1.44,1.43,2.34,1.51,3.11.24-.74.81-1.52,2.04-2.86,1.16-1.27,2.69-2.14,4.32-2.63-.14,1.62-.83,3.2-2.05,4.46-1.23,1.26-2.8,2.02-4.46,2.32-1.54-.71-2.89-1.76-3.87-3.07-.99-1.32-1.48-2.71-1.53-4.09,1.6.51,3.07,1.42,4.05,2.78Z"/>
              <path class="cls-1" d="M253.48,143.71c.42,1.71.43,2.68.23,3.42.48-.6,1.33-1.11,2.98-1.9,1.54-.75,3.29-1,4.99-.86-.73,1.44-1.93,2.67-3.57,3.38-1.62.72-3.35.85-5,.52-1.18-1.22-2.06-2.7-2.48-4.28-.4-1.56-.36-3.06.11-4.36,1.3,1.07,2.34,2.45,2.75,4.07Z"/>
              <path class="cls-1" d="M249.93,150.26c.26,1.75.23,2.74-.03,3.47.52-.56,1.37-1.01,3.08-1.65.81-.3,1.66-.47,2.52-.52.85-.06,1.7-.02,2.53.13-.4.7-.96,1.31-1.63,1.82-.66.51-1.4.93-2.23,1.22-.83.29-1.65.44-2.51.44-.86,0-1.7-.14-2.52-.39-.52-.66-.96-1.38-1.3-2.12-.34-.75-.62-1.56-.77-2.37-.15-.81-.17-1.59-.08-2.31.1-.72.31-1.39.57-2.03.6.59,1.14,1.27,1.55,1.99.4.72.67,1.49.8,2.31Z"/>
              <path class="cls-1" d="M245.79,156.51c.09.9.07,1.57,0,2.12-.06.55-.18.96-.35,1.31.29-.25.67-.47,1.19-.68.52-.21,1.2-.42,2.05-.69,1.62-.5,3.4-.44,5.06,0-.49.65-1.08,1.22-1.76,1.69-.67.47-1.43.85-2.3,1.05-1.72.43-3.45.26-5.02-.35-.95-1.41-1.56-3.02-1.7-4.63-.05-.8-.04-1.59.09-2.31.13-.72.38-1.39.72-1.98,1.09,1.27,1.87,2.8,2.02,4.48Z"/>
              <path class="cls-1" d="M241.09,162.3c-.05,1.76-.25,2.74-.64,3.41.61-.46,1.53-.76,3.33-1.09.85-.16,1.72-.17,2.57-.08.84.08,1.67.28,2.47.56-.27.31-.56.59-.87.85-.32.25-.68.47-1.04.67-.74.39-1.55.67-2.41.82-.86.14-1.71.14-2.54,0-.84-.15-1.65-.43-2.41-.82-.4-.74-.71-1.52-.91-2.32-.22-.81-.35-1.64-.35-2.47,0-.83.1-1.59.32-2.28.11-.35.25-.67.4-.99.14-.32.31-.63.5-.92.49.69.9,1.44,1.18,2.23.28.78.41,1.59.39,2.42Z"/>
              <path class="cls-1" d="M235.88,167.6c-.09.9-.25,1.55-.42,2.08-.17.52-.37.91-.6,1.21.34-.19.75-.33,1.3-.43.56-.1,1.26-.17,2.15-.26,1.69-.16,3.42.25,4.96,1.01-.61.53-1.31.98-2.07,1.31-.75.33-1.57.54-2.47.57-1.77.07-3.43-.43-4.85-1.35-.65-1.57-.93-3.27-.74-4.88.11-.8.28-1.56.55-2.24.27-.68.65-1.28,1.11-1.79.82,1.46,1.27,3.12,1.08,4.8Z"/>
              <path class="cls-1" d="M230.13,172.42c-.37,1.72-.75,2.65-1.26,3.23.69-.33,1.64-.46,3.47-.45.86,0,1.72.15,2.54.41.81.23,1.59.58,2.32,1.02-.32.25-.65.48-1.01.67-.37.18-.75.34-1.15.46-.8.25-1.64.37-2.51.35-1.73-.02-3.37-.7-4.72-1.73-.51-1.61-.62-3.28-.35-4.93.15-.81.4-1.54.74-2.18.17-.32.37-.62.58-.89.21-.29.42-.56.67-.8.35.77.61,1.58.75,2.41.12.81.1,1.63-.07,2.45Z"/>
              <path class="cls-1" d="M264.35,108.38c.03,1.63-.53,3.15-1.51,4.36-.87-1.28-1.38-2.74-1.41-4.3-.03-1.56.43-3.04,1.25-4.35,1.02,1.17,1.64,2.67,1.67,4.3Z"/>
              <path class="cls-1" d="M260.06,122.64c.89,1.53,1.2,2.47,1.21,3.23.3-.71.95-1.43,2.3-2.66,1.27-1.15,2.88-1.88,4.55-2.22-.3,1.59-1.13,3.1-2.46,4.24-1.34,1.14-2.97,1.75-4.66,1.89-1.46-.85-2.71-2.02-3.57-3.42-.86-1.4-1.22-2.84-1.14-4.22,1.54.66,2.93,1.7,3.77,3.15Z"/>
              <path class="cls-1" d="M258.54,129.85c.75,1.61.97,2.57.9,3.33.37-.68,1.08-1.34,2.54-2.43,1.38-1.03,3.04-1.6,4.74-1.78-.44,1.56-1.41,2.98-2.85,3.99-1.44,1.01-3.12,1.46-4.82,1.44-1.38-.98-2.51-2.27-3.23-3.74-.72-1.48-.95-2.94-.74-4.3,1.47.8,2.75,1.97,3.46,3.49Z"/>
              <path class="cls-1" d="M256.35,136.86c.59,1.67.72,2.65.58,3.4.43-.64,1.2-1.23,2.75-2.18,1.47-.9,3.18-1.31,4.89-1.33-.59,1.51-1.69,2.84-3.21,3.71-1.53.87-3.25,1.16-4.93.98-1.28-1.1-2.29-2.49-2.87-4.03-.58-1.54-.67-3.02-.33-4.35,1.39.94,2.56,2.22,3.12,3.79Z"/>
            </g>
          </g>
          <g>
            <path class="cls-1" d="M148.42,176.95l-1.48-.78c-1.32.27-2.63.45-3.99.66l.26,1.59,1.45-.22c.17-.03.35-.07.55-.12.2-.05.34-.09.41-.12-.15.25-.33.55-.53.88-.19.34-.34.61-.46.81l-2.72,5,2.03,1.07,4.47-8.77Z"/>
            <path class="cls-1" d="M155.59,182.03c-.08-.71-.31-1.29-.69-1.78-.38-.49-.87-.85-1.47-1.1-.93-.38-1.76-.45-2.56-.13-.8.31-1.42.93-1.88,1.89-.42.89-.52,1.71-.26,2.42.26.71.8,1.25,1.61,1.61.61.26,1.12.34,1.51.26.39-.08.74-.23,1.05-.45l.08.03c-.25.55-.55,1.01-.9,1.37-.35.36-.8.56-1.35.62-.55.06-1.23-.09-2.04-.45-.2-.09-.4-.19-.58-.31-.19-.11-.37-.23-.53-.34l-.7,1.51c.16.11.37.23.62.36.26.12.48.23.67.32.82.38,1.58.57,2.25.6.67.04,1.26-.04,1.77-.25.52-.21.97-.51,1.35-.9.38-.38.71-.82.98-1.31.27-.49.51-1,.7-1.53.34-.92.46-1.74.39-2.45ZM153.47,181.28c.13.26.2.54.19.86,0,.32-.06.61-.18.9-.08.21-.22.38-.42.52-.2.14-.44.23-.71.27-.27.04-.56,0-.85-.12-.44-.17-.7-.45-.8-.79-.1-.35-.05-.74.14-1.17.24-.54.53-.88.88-1.03.35-.15.7-.14,1.08,0,.31.12.52.31.66.57Z"/>
            <path class="cls-1" d="M163.4,189.04l-1.21-.31,1.54-5.99c-.6-.16-1.21-.3-1.81-.48-.96.82-1.96,1.63-2.97,2.43-1.01.78-2.05,1.55-3.12,2.31l-.47,1.37c1.43.49,2.87.95,4.32,1.36l-.56,1.96c.71.22,1.44.39,2.16.58l.51-1.98,1.24.32.38-1.57ZM157.72,187.45c.88-.66,1.75-1.37,2.6-2.06.17-.14.32-.28.47-.42.14-.14.28-.29.41-.44l.05.02c-.03.08-.09.24-.18.49-.08.25-.17.52-.27.8-.09.29-.16.54-.23.74l-.46,1.6c-.8-.24-1.61-.46-2.4-.72Z"/>
            <path class="cls-1" d="M167.65,193.65c1.85-2.58,3.56-5.17,5.14-7.85l.17-1.3c-2.28-.29-4.55-.67-6.79-1.18l-.38,1.71c.79.19,1.58.34,2.37.49.79.16,1.59.3,2.39.41-1.64,2.5-3.39,4.88-5.27,7.28l2.36.45Z"/>
            <path class="cls-1" d="M184.97,185.12l-2.65.04c-.73,1.07-1.48,2.14-2.27,3.2-.23.34-.47.68-.72,1.04h-.04s.17-4.31.17-4.31l-2.14-.11-.67,9.73,2.41.12.13-3.18c.31-.33.62-.65.92-.99.79,1.42,1.63,2.84,2.51,4.25l2.84-.05c-1.31-1.86-2.55-3.66-3.7-5.57,1.12-1.35,2.19-2.79,3.2-4.18Z"/>
            <path class="cls-1" d="M190.73,184.56c2.88-.31,4.82,1.58,5.3,4.25.56,3.13-1.23,5.44-4.39,5.79-3.21.32-5.18-1.81-5.29-4.58-.11-2.92,1.61-5.17,4.38-5.46M191.58,192.84c1.61-.19,2.34-1.7,2.07-3.59-.25-1.73-1.29-3.12-2.78-2.94-1.47.15-2.23,1.62-2.09,3.52.14,1.9,1.21,3.18,2.81,3.01"/>
            <path class="cls-1" d="M210.36,185.88c1.18-.42,2.35-.89,3.51-1.37l-.69-1.65c-1.14.47-2.27.93-3.43,1.34l-.7-1.9c1.2-.42,2.37-.91,3.55-1.39l-.71-1.67c-1.81.75-3.64,1.47-5.5,2.07l3.09,9.25c1.86-.61,3.69-1.3,5.5-2.05l.22-2.04c-1.34.55-2.67,1.1-4.03,1.59l-.8-2.17Z"/>
            <path class="cls-1" d="M203.72,187.53c.76.09,1.31.59,1.82,1.38.62.96,1.3,2.09,1.61,2.39-.8.23-1.59.49-2.4.69-.24-.22-.7-.93-1.3-2.01-.58-1.11-1.08-1.31-2-1.1l-.69.15.86,3.74c-.79.17-1.57.37-2.36.51l-1.88-9.44c.66-.23,1.64-.57,2.76-.81,1.37-.35,2.38-.38,3.19-.04.67.28,1.17.84,1.43,1.7.36,1.19-.27,2.28-1.04,2.8v.04M201.28,187.27c1.1-.28,1.61-.99,1.39-1.81-.23-.87-.93-1.15-1.91-.91-.52.12-.81.23-.96.29l.6,2.62.88-.2"/>
            <path class="cls-1" d="M223.59,184.39l-1.85-1.85c-.91.47-1.8.97-2.73,1.41l.42,2.58c-.75.38-1.52.72-2.29,1.06-.32-3.41-.76-6.8-1.33-10.15.85-.4,1.68-.86,2.52-1.3,2.42,2.4,4.92,4.69,7.55,6.94l-2.28,1.3ZM218.58,182.32c.67-.31,1.32-.68,1.97-1.02l.02.02-1.5-1.57c-.43-.43-.91-.99-1.31-1.44h-.03c.14.6.34,1.32.45,1.9l.39,2.11ZM220.55,181.31h0s0,0,0,0Z"/>
          </g>
          <path class="cls-1" d="M106.24,98.48c-.13.35-.33.63-.56.82l1.35,1.03h.01s0,0,0,0h0s.04-.03.1-.09c.17-.14.33-.34.48-.58,0,0,0,0,0,0,.22-.36.41-.83.53-1.35.11-.46.15-.92.13-1.34,0-.02,0-.04,0-.06,0-.07,0-.14-.01-.21,0-.07-.01-.13-.02-.2,0-.05-.02-.1-.03-.15,0-.04-.02-.08-.02-.11-.02-.08-.04-.15-.06-.22-.33-1.01-1.24-1.73-2.97-2.06l-6.02-1.14-.41,2.15,5.99,1.14c1.32.24,1.71.79,1.65,1.55,0,.12-.01.24-.04.37-.03.15-.07.3-.12.44"/>
          <g>
            <path class="cls-1" d="M106.22,98.48c-.13.35-.33.63-.56.82l1.35,1.03h.01s0,.01,0,0h0s.04-.03.1-.09c.17-.14.33-.34.48-.58,0,0,0,0,0,0,.22-.36.41-.83.53-1.35.11-.46.15-.92.13-1.34,0-.02,0-.04,0-.06,0-.07,0-.14-.01-.21,0-.07-.01-.13-.02-.2,0-.05-.02-.1-.03-.15,0-.04-.02-.08-.02-.11-.02-.08-.04-.15-.06-.22-.33-1.01-1.24-1.73-2.97-2.06l-6.02-1.14-.41,2.15,5.99,1.14c1.32.24,1.71.79,1.65,1.55,0,.12-.01.24-.04.37-.03.15-.07.3-.12.44"/>
            <g>
              <g>
                <polygon class="cls-1" points="105.85 88.91 106.78 85.63 105.07 85.09 104.12 88.44 102.17 87.91 103.2 84.26 101.48 83.71 99.81 89.61 109.29 91.91 110.6 87.31 109.1 85.96 108.09 89.52 105.85 88.91"/>
                <path class="cls-1" d="M103.77,77.09c.51-1.45,1.59-2.26,2.74-2.59,1.16-.33,2.45-.15,3.66.44,1.44.7,2.39,1.67,2.86,2.73.23.53.34,1.09.32,1.65-.02.57-.09,1.18-.33,1.77-.92,2.4-3.54,3.1-6.17,2.21-2.77-.94-4.15-3.44-3.09-6.21M111.44,80.32c.46-1.29-.47-2.56-2.19-3.34-1.6-.72-3.36-.6-3.88.84-.54,1.4.48,2.71,2.25,3.38,1.79.67,3.34.38,3.82-.88"/>
                <path class="cls-1" d="M119.6,59.34c.94-.62,2.11-.67,3.07.14.67.57.96,1.3.97,2.03-.02.82-.38,1.9-1.41,3.3-.58.79-1.07,1.33-1.39,1.65l-7.84-5.52c.25-.54.89-1.55,1.55-2.46.82-1.1,1.39-1.72,2.19-1.99.74-.29,1.57-.23,2.25.33.67.56.96,1.45.58,2.5l.02.02M117.32,61.38l.42-.57c.66-.91.65-1.69.08-2.14-.58-.46-1.22-.25-1.81.56-.28.39-.42.62-.51.79l1.82,1.36ZM121.28,63.34c.54-.74.72-1.63-.08-2.27-.77-.61-1.57-.18-2.19.67l-.42.58,2.21,1.64c.14-.14.28-.34.49-.62"/>
                <path class="cls-1" d="M126.95,52.99c1.2,1.23,1.35,2.22.58,2.95-.77.7-1.73.59-2.97-.56l-4.09-3.84-1.49,1.69,4.06,3.62c1.16,1.03,2.22,1.52,3.16,1.56.47.02.91-.08,1.33-.29.41-.22.8-.52,1.22-.89,1.65-1.57,1.66-3.57-.38-5.78l-3.72-4.01-1.62,1.55,3.93,4.01Z"/>
                <path class="cls-1" d="M132.96,40.58c-.78.48-1.47,1.1-2.19,1.66.07,1.33.17,2.64.28,3.93.05.4.1.81.17,1.23l-.03.03-2.74-3.33-1.73,1.39,6.4,7.36,1.54-1.23-2.03-2.46-.03-1.29c1.47.62,2.92,1.26,4.33,1.93.6-.49,1.2-.98,1.86-1.39-1.96-.99-3.86-1.76-5.88-2.57-.02-1.72-.07-3.57.06-5.27Z"/>
                <path class="cls-1" d="M167.83,35.85c.64-.18,1.3-.26,1.96-.35l-1.64-9.62c-.74.1-1.49.2-2.22.39l1.89,9.57Z"/>
                <path class="cls-1" d="M175.29,24.81c3.08-.15,4.8,2.02,4.86,4.71.07,3.2-1.62,5.22-4.16,5.33-2.56.27-4.37-1.62-4.79-4.39-.21-1.45.06-2.78.77-3.79.71-.99,1.84-1.79,3.31-1.86M175.95,33.1c1.36-.06,2.07-1.51,1.97-3.41-.09-1.75-1.01-3.21-2.54-3.14-1.49.09-2.19,1.7-1.97,3.56.23,1.92,1.19,3.06,2.53,2.99"/>
                <path class="cls-1" d="M205.92,27.89c-.72-.2-1.46-.35-2.19-.53l-2.42,9.45c.75.2,1.53.31,2.26.57l2.21.74,1.37-1.5-3.4-1.13,2.17-7.6Z"/>
                <path class="cls-1" d="M217.75,38.47c-.76,1.53-1.65,2-2.63,1.59-.95-.41-1.14-1.43-.47-2.97l2.27-5.13-2.07-.9-2.07,5.03c-1.17,2.88-.5,4.66,1.52,5.54.52.23,1.04.34,1.53.38.48.05.94,0,1.39-.18.89-.35,1.72-1.16,2.43-2.49l2.55-4.84-1.97-1.07-2.49,5.03Z"/>
                <polygon class="cls-1" points="228.73 50.28 230.29 51.53 236.48 43.99 234.72 42.58 228.73 50.28"/>
                <path class="cls-1" d="M239.48,52.3c-1.02.57-2.04,1.2-3.02,1.88l-.03-.03c.69-1.02,1.26-2.02,1.82-3.09.67-1.26,1.33-2.54,1.97-3.83-.6-.56-1.17-1.15-1.79-1.68-1.34,3.15-2.82,6.28-4.36,9.29l1.68,1.6c1.51-.81,3.03-1.6,4.58-2.36,1.55-.76,3.07-1.45,4.63-2.15-.52-.6-1.04-1.2-1.63-1.73-1.3.68-2.58,1.37-3.85,2.08Z"/>
                <path class="cls-1" d="M243.42,58.73l1.13,1.28,1.01,1.37,1.42-1.09-1.03-1.4-1.15-1.31,1.55-1.3,1.24,1.43,1.12,1.53,1.44-1.1c-1.15-1.69-2.57-3.17-3.9-4.72l-7.3,6.47,1.58,1.8.79.9.71.97,1.92-.44-1.09-1.49c-.38-.48-.81-.93-1.21-1.4l1.77-1.49Z"/>
                <path class="cls-1" d="M250.55,67.86c.1.7-.27,1.34-.92,2-.8.81-1.75,1.69-1.99,2.02l-1.05-1.74c.16-.27.73-.87,1.6-1.74.9-.86.98-1.38.55-2.11-.11-.18-.21-.36-.33-.54l-3.19,2.13-1.17-1.59,7.86-5.56c.5.53,1.27,1.3,1.88,2.33.77,1.26,1.12,2.26,1.01,3.14-.09.74-.51,1.36-1.29,1.81-1.07.63-2.25.34-2.92-.19l-.04.02M250.17,65.58c.55.91,1.34,1.15,2.07.7.76-.47.83-1.23.31-2.11-.28-.46-.47-.7-.59-.81l-2.24,1.5c.16.23.29.48.44.71"/>
                <polygon class="cls-1" points="252.17 80.97 252.88 82.83 261.99 79.34 261.18 77.23 252.17 80.97"/>
                <path class="cls-1" d="M260.99,81.9c.31.81.64,1.62.85,2.46l-7.53,2.41.54,1.92,7.59-2.21.48,1.68,2.04.41-1.04-3.67-.52-1.84c-.19-.61-.44-1.19-.66-1.79l-1.75.62Z"/>
                <path class="cls-1" d="M157.11,30.54c.82-.29,1.63-.6,2.47-.79l2.22,7.56,1.92-.5-2.02-7.62,1.68-.44.46-2.02-3.68.95-.43.12c-.61.17-2.61.77-3.21.97l.58,1.75Z"/>
                <path class="cls-1" d="M266.4,95.38l-2.49-.56c-.74-.16-1.33-.27-1.97-.37v-.03c.58-.35,1.05-.65,1.69-1.08l2.11-1.46c-.17-.84-.29-1.69-.55-2.5-1.54,1.46-3.3,2.89-4.98,4.24l-3.91.81.36,1.95,4-.72c2.05.66,4.12,1.4,6.2,2.21l-.46-2.48Z"/>
                <path class="cls-1" d="M157.29,38.79l-1.44-2.16-1.26.42-1.22.53.37,2.57-1.89.82c-.51-3.33-.9-6.7-1.2-10.12l1.35-.59,1.4-.47c2.09,2.73,4.06,5.5,5.93,8.31l-2.03.67ZM153.03,35.94c.61-.28,1.23-.54,1.87-.73v.02s-1.24-1.79-1.24-1.79c-.36-.48-.79-1.12-1.13-1.59h-.03c.08.61.21,1.35.28,1.94l.25,2.15ZM154.9,35.22h0s0,0,0,0Z"/>
                <path class="cls-1" d="M197.51,36.06l-.12-2.6c-.86-.22-1.75-.27-2.63-.41l-1.01,2.39-2.04-.28c1.28-3.1,2.67-6.19,4.18-9.27.97.16,1.95.22,2.9.46.38,3.42.64,6.83.79,10.2l-2.08-.49ZM195.32,31.46c.66.1,1.33.17,1.99.29v.02s-.16-2.14-.16-2.14c-.07-.59-.11-1.33-.15-1.92h-.03c-.24.55-.51,1.25-.76,1.79l-.89,1.96ZM197.3,31.75h0s0,0,0,0Z"/>
                <path class="cls-1" d="M143.34,45.49l-5.09-8.32c.73-.47,1.52-.85,2.28-1.29,2.22,1.41,4.36,2.87,6.41,4.38l-3.34-6.09c.61-.32,1.2-.68,1.83-.96l4.28,8.8c-.62.28-1.2.64-1.81.96-2.11-1.58-4.32-3.11-6.62-4.58l3.64,6.21c-.53.3-1.08.56-1.59.9Z"/>
                <path class="cls-1" d="M115.78,75.31l-8.66-4.48c.41-.77.72-1.59,1.2-2.32,2.65.07,5.25.22,7.8.47l-6.01-3.48,1.08-1.76,8.22,5.31-1.06,1.75c-2.64-.27-5.34-.45-8.09-.53l6.33,3.42-.8,1.63Z"/>
                <path class="cls-1" d="M182.22,34.31l-.04-9.76c.87-.02,1.75.06,2.62.09,1.17,2.36,2.25,4.72,3.22,7.07l.3-6.94,2.07.1-.88,9.74-2.06-.09c-.99-2.44-2.1-4.9-3.31-7.35l-.1,7.19c-.61-.02-1.22-.09-1.83-.06Z"/>
                <path class="cls-1" d="M220.33,44.49l4.9-8.44c.77.42,1.54.83,2.26,1.34-.19,2.64-.46,5.23-.82,7.77l3.77-5.84,1.72,1.15-5.7,7.95-1.71-1.14c.39-2.62.69-5.31.89-8.05l-3.72,6.16c-.49-.36-1.06-.6-1.59-.91Z"/>
              </g>
              <path class="cls-1" d="M255.45,74.09c-.18-1.35-.2-1.97.34-2.26.45-.24,1.05-.04,1.51.81.35.66.49,1.25.54,1.69l1.79-.05h.04c-.05-.65-.23-1.48-.76-2.46-1.1-2.05-2.89-2.68-4.36-1.88-1.25.67-1.53,2.04-1.25,3.75.19,1.24.11,1.82-.43,2.11-.56.3-1.19.03-1.67-.88-.37-.68-.54-1.43-.61-2.05l-1.83.05h-.03c0,.64.27,1.76.8,2.75,1.29,2.38,3.11,2.84,4.56,2.06,1.21-.65,1.61-1.8,1.35-3.64Z"/>
            </g>
          </g>
        </g>
      </g>
      <g>
        <g>
          <g>
            <polygon class="cls-1" points="177.73 98.87 177.73 51.39 173.58 54.6 171.88 98.87 177.73 98.87"/>
            <polygon class="cls-1" points="166.42 60.15 163.45 98.87 169.3 98.87 170.92 56.66 166.42 60.15"/>
            <polygon class="cls-1" points="158.77 66.07 155.02 98.87 160.87 98.87 163.67 62.28 158.77 66.07"/>
          </g>
          <g>
            <polygon class="cls-1" points="191.36 54.6 187.21 51.39 187.21 98.87 193.06 98.87 191.36 54.6"/>
            <polygon class="cls-1" points="198.52 60.15 194.02 56.66 195.64 98.87 201.49 98.87 198.52 60.15"/>
            <polygon class="cls-1" points="206.17 66.07 201.27 62.28 204.07 98.87 209.92 98.87 206.17 66.07"/>
          </g>
        </g>
        <g>
          <path class="cls-1" d="M214.68,102.08h-30.68v8.27c2.63-1.11,5.45-1.68,8.41-1.68,4.62,0,7.95,1.41,8.09,1.47l1.14.49.19,1.22,2.86,18.21.53,3.35-3.29-.82c-1.76-.44-3.57-.66-5.37-.66-7.44,0-12.69,3.82-12.74,3.85l-1.34,1-1.34-.99c-.05-.04-5.3-3.86-12.74-3.86-1.8,0-3.61.22-5.37.66l-3.29.82.52-3.35,2.86-18.21.19-1.22,1.14-.49c.14-.06,3.47-1.47,8.09-1.47,2.96,0,5.78.57,8.41,1.68v-8.27h-34.51v9.84h3.83v12.05c0,10.21,3.64,19.57,9.68,26.87-2.65,1.33-5.52,2.27-8.56,2.72,1.88,2.6,4,5.02,6.33,7.22,3.02-.9,5.87-2.19,8.51-3.79,4.3,3.42,9.28,6.02,14.71,7.55v-8.86c-8.38-3.04-15.21-9.3-19-17.29,1.66-.41,3.4-.64,5.2-.64,6.01,0,11.44,2.47,15.34,6.45,3.9-3.98,9.33-6.45,15.34-6.45,1.79,0,3.53.22,5.2.64-3.79,7.99-10.62,14.25-19,17.29v8.86c5.43-1.54,10.41-4.14,14.71-7.55,2.64,1.6,5.49,2.88,8.51,3.79,2.33-2.2,4.45-4.62,6.33-7.22-3.04-.45-5.92-1.39-8.56-2.72,6.04-7.3,9.68-16.66,9.68-26.87v-12.05h3.83v-9.84h-3.83Z"/>
          <path class="cls-1" d="M199.61,112.2s-8.57-3.69-17.14,1.43c-8.57-5.11-17.14-1.43-17.14-1.43l-2.86,18.21c11.43-2.86,20,3.57,20,3.57,0,0,8.57-6.43,20-3.57l-2.86-18.21Z"/>
        </g>
      </g>
    </g>
  </g>
  <line class="cls-3" x1="13.92" y1="381" x2="348.92" y2="381"/>
  <g>
    <path class="cls-4" d="M56.07,448.55h23.42v3.11h-23.42v-3.11ZM67.28,438.04c-1.76,2.21-4.55,4.26-8.65,6.09l-1.57-2.93c6.73-3.14,9.15-6.31,9.15-9.66v-1.86h3.41v1.86c0,1.25-.21,2.45-.66,3.62l9.55,6.15-1.86,2.82-9.37-6.09Z"/>
    <path class="cls-4" d="M81.63,449.45v-19.21h12.48v19.21h-12.48ZM85.03,433.35v12.99h5.69v-12.99h-5.69ZM105.07,437.53v3.09h-3.59v12.77h-3.41v-24.85h3.41v8.99h3.59Z"/>
    <path class="cls-4" d="M106.54,448.55h23.42v3.11h-23.42v-3.11ZM127.78,441.84v3.01h-18.5v-14.77h17.96v3.06h-14.58v2.79h14.58v2.98h-14.58v2.93h15.12Z"/>
    <path class="cls-4" d="M142.34,441.63l-4.52-3.89c-1.01,1.62-2.42,3.09-4.28,4.42l-1.97-2.5c3.51-2.61,4.82-5.67,4.82-8.76v-1.62h3.27v1.62c0,1.38-.16,2.66-.51,3.86l5.16,4.44-1.97,2.42ZM148.01,443.17c3.62,0,6.07,2.1,6.07,5.24s-2.45,5.24-6.07,5.24h-5.8c-3.62,0-6.07-2.08-6.07-5.24s2.45-5.24,6.07-5.24h5.8ZM147.53,450.62c2.1,0,3.14-.9,3.14-2.24s-1.04-2.21-3.14-2.21h-4.84c-2.1,0-3.14.9-3.14,2.21s1.04,2.24,3.14,2.24h4.84ZM148.11,436.41v5.4h-3.11v-13.01h3.11v4.63h2.45v-4.87h3.22v13.52h-3.22v-5.67h-2.45Z"/>
    <path class="cls-4" d="M164.48,435.32c-.03,1.68-.19,3.27-.5,4.84l5.35,7.74-2.53,1.92-4.02-5.83c-.88,2.05-2.08,4.04-3.7,6.07l-2.42-1.94c3.33-4.28,4.58-8.17,4.6-12.8h-3.81v-3.09h3.86v-3.67h3.19v3.67h4.07v3.09h-4.1ZM170.28,437.77v-8.84h3.22v23.87h-3.22v-11.92h-3.51v-3.11h3.51ZM175.69,428.54h3.3v24.85h-3.3v-24.85Z"/>
    <path class="cls-4" d="M197.81,442c-3.75.51-8.49.8-12,.8h-3.78l-.19-3.01h4.5v-4.68h3.41v4.58c2.45-.11,5.24-.32,7.72-.64l.35,2.95ZM192.24,437.98c.35-2.16.56-4.15.59-5.62h-9.5v-2.79h12.83v1.12c0,2.71-.27,5.38-.67,7.66l-3.25-.37ZM196.95,444.21c3.54,0,5.99,1.76,5.99,4.74s-2.45,4.71-5.99,4.71h-5.46c-3.51,0-5.99-1.76-5.99-4.71s2.47-4.74,5.99-4.74h5.46ZM196.42,450.76c2.05,0,3.11-.72,3.11-1.84s-1.06-1.86-3.11-1.86h-4.36c-2.08,0-3.14.75-3.14,1.86s1.06,1.84,3.14,1.84h4.36ZM202.65,434.68h3.33v3.09h-3.33v5.59h-3.41v-14.8h3.41v6.12Z"/>
    <path class="cls-4" d="M222.08,430.51v2.74h-14.61v-2.74h5.59v-2.24h3.43v2.24h5.59ZM221.04,438.89c0,2.87-2.74,4.31-6.25,4.31s-6.28-1.44-6.28-4.31v-.32c0-2.87,2.79-4.31,6.28-4.31s6.25,1.44,6.25,4.31v.32ZM211.01,447.78v-3.09h16.61v8.97h-3.38v-5.88h-13.23ZM211.84,438.86c0,.98,1.3,1.6,2.95,1.6s2.95-.61,2.95-1.6v-.24c0-1.01-1.28-1.62-2.95-1.62s-2.95.61-2.95,1.62v.24ZM231.24,434.42v3.09h-3.62v5.83h-3.38v-14.8h3.38v5.88h3.62Z"/>
    <path class="cls-4" d="M246.28,439.9c-1.12,2.24-3.38,3.3-5.99,3.3-3.75,0-6.76-2.18-6.76-6.84v-.4c0-4.71,3.01-6.89,6.76-6.89,2.34,0,4.42.88,5.62,2.69h4.95v-3.22h3.41v18.39h-3.41v-7.03h-4.58ZM236.94,436.33c0,2.66,1.52,3.89,3.35,3.89s3.33-1.22,3.33-3.89v-.37c0-2.66-1.52-3.91-3.33-3.91s-3.35,1.25-3.35,3.91v.37ZM240.8,450.3h14.4v3.09h-17.8v-8.14h3.41v5.06ZM250.85,434.47h-3.94c.08.45.11.96.11,1.49v.4c0,.29,0,.59-.03.85h3.86v-2.74Z"/>
    <path class="cls-4" d="M281.36,441.39v3.09h-10.01v9.21h-3.41v-9.21h-10.01v-3.09h16.29c.48-3.19.8-6.57.8-8.49h-14.56v-3.11h17.96v2.05c0,2.82-.29,6.25-.8,9.55h3.73Z"/>
    <path class="cls-4" d="M290.92,436.68c-1.33,1.62-3.25,3.03-5.8,4.34l-1.7-2.79c4.63-2.34,6.31-4.84,6.31-7.66v-1.38h3.33v1.38c0,1.2-.19,2.32-.56,3.35l6.76,3.83-1.7,2.74-6.63-3.81ZM291.26,450.68h14.24v2.85h-17.64v-7.24h13.46v-1.52h-13.6v-2.77h17v7.03h-13.46v1.65ZM304.73,428.54v12.11h-3.41v-12.11h3.41Z"/>
    <path class="cls-4" d="M55.8,471.26c.84,1.99,2.54,3.15,4.79,3.15s3.61-.84,3.61-2.37c0-1.41-.9-2.08-2.54-2.54l-2.52-.69c-2.27-.63-4.66-1.89-4.66-4.87s2.56-4.83,5.9-4.83,5.48,1.87,6.4,4.12l-2.27,1.13c-.76-1.6-2.12-2.79-4.14-2.79s-3.23.88-3.23,2.37,1.13,2.06,2.6,2.46l2.46.67c2.29.63,4.66,1.95,4.66,4.98s-2.77,4.83-6.28,4.83-5.98-1.68-7.08-4.47l2.29-1.13Z"/>
    <path class="cls-4" d="M85.97,468.99v7.43h-1.51v-7.39c0-2.27-1.07-3.67-2.94-3.67s-3.11,1.53-3.11,3.78v7.29h-1.49v-7.39c0-2.29-1.05-3.67-2.94-3.67s-3.07,1.49-3.07,3.78v7.29h-1.53v-12.14h1.39l.11,1.78c.69-1.26,1.89-2.1,3.46-2.1,1.72,0,3.02.99,3.65,2.58.69-1.53,2.08-2.58,3.86-2.58,2.48,0,4.12,2.02,4.12,5.02Z"/>
    <path class="cls-4" d="M98.51,468.65v7.77h-1.36l-.11-1.68c-.69,1.22-2.02,1.99-3.76,1.99h-.82c-2.33,0-4.01-1.6-4.01-3.76s1.7-3.7,4.72-3.7h3.82v-.52c0-2.06-1.15-3.38-3.34-3.38-1.58,0-2.71.73-3.34,1.91l-1.36-.63c.82-1.6,2.6-2.69,4.81-2.69,2.79,0,4.75,1.74,4.75,4.68ZM93.49,475.33c1.7,0,3.3-1.05,3.51-2.71v-1.97h-3.72c-2.33,0-3.32.97-3.32,2.33,0,1.47,1.09,2.35,2.75,2.35h.78Z"/>
    <path class="cls-4" d="M107.83,464.22l-.36,1.36c-.5-.13-1.03-.21-1.49-.21-1.74,0-2.86,1.78-2.86,3.84v7.2h-1.53v-12.14h1.41l.08,1.91c.61-1.32,1.68-2.23,3.13-2.23.61,0,1.16.08,1.62.25Z"/>
    <path class="cls-4" d="M116.47,476.09c-.71.44-1.64.65-2.46.65-1.66,0-2.75-.88-2.75-2.83v-8.21h-2.37v-1.41h2.37v-3.49h1.51v3.49h3.34v1.41h-3.34v8.06c0,1.32.57,1.6,1.41,1.6.69,0,1.22-.19,1.87-.52l.42,1.26Z"/>
    <path class="cls-4" d="M136.96,471.66c0,3.21-2.18,4.89-5.84,4.89h-7.5v-17.13h6.68c3.63,0,5.84,1.68,5.84,4.81,0,1.43-.63,2.69-2.27,3.38,2.16.71,3.09,2.18,3.09,4.05ZM126.34,461.81v4.98h3.95c2.08,0,3.19-.94,3.19-2.52s-1.11-2.46-3.19-2.46h-3.95ZM131.1,474.16c2.08,0,3.19-.9,3.19-2.56s-1.11-2.58-3.19-2.58h-4.77v5.14h4.77Z"/>
    <path class="cls-4" d="M139.59,460.61c0-.61.5-1.09,1.11-1.09s1.09.5,1.09,1.09-.48,1.09-1.09,1.09-1.11-.48-1.11-1.09ZM139.94,476.42v-12.14h1.51v12.14h-1.51Z"/>
    <path class="cls-4" d="M144.35,471.24v-1.78c0-3.57,2.62-5.48,5.5-5.48s5.52,1.91,5.52,5.48v1.78c0,3.59-2.6,5.5-5.52,5.5s-5.5-1.91-5.5-5.5ZM153.86,471.17v-1.64c0-2.67-1.85-4.16-4.01-4.16s-3.97,1.49-3.97,4.16v1.64c0,2.67,1.83,4.18,3.97,4.18s4.01-1.51,4.01-4.18Z"/>
    <path class="cls-4" d="M168.77,469.56v1.66c0,3.59-2.5,5.59-5.04,5.59-1.76,0-3.32-.78-4.24-2.2v5.4h-1.53v-15.71h1.41l.11,1.93c.92-1.45,2.5-2.25,4.26-2.25,2.54,0,5.04,2.02,5.04,5.58ZM167.26,469.62c0-2.73-1.72-4.24-3.91-4.24s-3.86,1.51-3.86,4.24v1.55c0,2.71,1.7,4.24,3.86,4.24s3.91-1.53,3.91-4.24v-1.55Z"/>
    <path class="cls-4" d="M181.54,468.97v7.45h-1.51v-7.37c0-2.29-1.09-3.72-3.38-3.72s-3.76,1.55-3.76,3.8v7.29h-1.53v-16.88h1.53v6.63c.78-1.34,2.23-2.2,4.07-2.2,2.86,0,4.58,2.02,4.58,5Z"/>
    <path class="cls-4" d="M184.13,471.24v-1.78c0-3.57,2.62-5.48,5.5-5.48s5.52,1.91,5.52,5.48v1.78c0,3.59-2.6,5.5-5.52,5.5s-5.5-1.91-5.5-5.5ZM193.64,471.17v-1.64c0-2.67-1.85-4.16-4.01-4.16s-3.97,1.49-3.97,4.16v1.64c0,2.67,1.83,4.18,3.97,4.18s4.01-1.51,4.01-4.18Z"/>
    <path class="cls-4" d="M204.31,476.09c-.71.44-1.64.65-2.46.65-1.66,0-2.75-.88-2.75-2.83v-8.21h-2.37v-1.41h2.37v-3.49h1.51v3.49h3.34v1.41h-3.34v8.06c0,1.32.57,1.6,1.41,1.6.69,0,1.22-.19,1.87-.52l.42,1.26Z"/>
    <path class="cls-4" d="M205.67,471.24v-1.78c0-3.57,2.62-5.48,5.5-5.48s5.52,1.91,5.52,5.48v1.78c0,3.59-2.6,5.5-5.52,5.5s-5.5-1.91-5.5-5.5ZM215.18,471.17v-1.64c0-2.67-1.85-4.16-4.01-4.16s-3.97,1.49-3.97,4.16v1.64c0,2.67,1.83,4.18,3.97,4.18s4.01-1.51,4.01-4.18Z"/>
    <path class="cls-4" d="M229.78,468.99v7.43h-1.51v-7.35c0-2.27-1.09-3.7-3.4-3.7-2.18,0-3.74,1.55-3.74,3.76v7.29h-1.53v-12.14h1.39l.13,1.93c.78-1.36,2.2-2.25,4.07-2.25,2.88,0,4.6,2.02,4.6,5.02Z"/>
    <path class="cls-4" d="M232.89,460.61c0-.61.5-1.09,1.11-1.09s1.09.5,1.09,1.09-.48,1.09-1.09,1.09-1.11-.48-1.11-1.09ZM233.24,476.42v-12.14h1.51v12.14h-1.51Z"/>
    <path class="cls-4" d="M237.65,471.26v-1.81c0-3.57,2.62-5.48,5.5-5.48,2.18,0,4.14,1.09,5,3.17l-1.41.57c-.67-1.53-1.97-2.33-3.59-2.33-2.18,0-3.97,1.49-3.97,4.16v1.64c0,2.67,1.78,4.18,3.97,4.18,1.62,0,2.92-.8,3.59-2.35l1.41.57c-.86,2.08-2.81,3.17-5,3.17-2.88,0-5.5-1.91-5.5-5.48Z"/>
    <path class="cls-4" d="M251.2,472.88c.9,1.72,2.33,2.54,4.09,2.54s3.11-.67,3.11-1.97-1.01-1.78-2.48-2.23l-1.66-.48c-1.93-.57-3.46-1.47-3.46-3.51s1.83-3.25,4.16-3.25,3.88,1.05,4.85,2.81l-1.18.78c-.8-1.39-2.06-2.27-3.7-2.27s-2.67.78-2.67,1.93.82,1.72,2.25,2.16l1.66.48c1.93.57,3.7,1.43,3.7,3.57s-2.14,3.3-4.6,3.3-4.26-1.05-5.29-3.11l1.22-.76Z"/>
    <path class="cls-4" d="M270.44,474.16h7.83v2.39h-10.54v-17.13h2.71v14.74Z"/>
    <path class="cls-4" d="M289.9,468.65v7.77h-1.37l-.1-1.68c-.69,1.22-2.02,1.99-3.76,1.99h-.82c-2.33,0-4.01-1.6-4.01-3.76s1.7-3.7,4.72-3.7h3.82v-.52c0-2.06-1.16-3.38-3.34-3.38-1.57,0-2.71.73-3.34,1.91l-1.37-.63c.82-1.6,2.6-2.69,4.81-2.69,2.79,0,4.75,1.74,4.75,4.68ZM284.88,475.33c1.7,0,3.3-1.05,3.51-2.71v-1.97h-3.72c-2.33,0-3.32.97-3.32,2.33,0,1.47,1.09,2.35,2.75,2.35h.78Z"/>
    <path class="cls-4" d="M303.8,469.52v1.68c0,3.55-2.46,5.54-5.04,5.54-1.79,0-3.34-.78-4.26-2.23l-.1,1.91h-1.41v-16.88h1.53v6.61c.92-1.43,2.48-2.18,4.24-2.18,2.58,0,5.04,1.99,5.04,5.54ZM302.29,469.58c0-2.69-1.72-4.2-3.91-4.2s-3.86,1.51-3.86,4.2v1.55c0,2.69,1.72,4.22,3.86,4.22s3.91-1.53,3.91-4.22v-1.55Z"/>
    <path class="cls-4" d="M306.11,475.56c0-.65.5-1.15,1.15-1.15s1.18.5,1.18,1.15-.52,1.18-1.18,1.18-1.15-.52-1.15-1.18Z"/>
  </g>
</svg>